<svg xmlns="http://www.w3.org/2000/svg" xmlns:xlink="http://www.w3.org/1999/xlink" width="675" height="514" viewBox="0 0 675 514">
    <defs>
        <path id="a" d="M163.26 328.053v1.815H162v-5.431h1.916c.383 0 .712.045.986.136.275.09.501.215.679.374.178.16.309.347.393.563.085.216.127.45.127.701 0 .27-.044.52-.13.746-.087.226-.22.42-.4.581a1.88 1.88 0 0 1-.68.379c-.274.09-.6.136-.975.136h-.656zm0-.951h.656c.328 0 .565-.078.709-.235.144-.156.216-.375.216-.656a.981.981 0 0 0-.056-.34.69.69 0 0 0-.17-.262.763.763 0 0 0-.287-.17 1.27 1.27 0 0 0-.412-.06h-.656v1.723zm4.69-2.815v5.581h-1.156v-5.58h1.156zm3.601 5.581a.541.541 0 0 1-.248-.045c-.056-.03-.102-.092-.14-.186l-.081-.212c-.097.082-.19.154-.28.216-.09.062-.182.115-.278.158a1.372 1.372 0 0 1-.305.097 1.881 1.881 0 0 1-.841-.037 1.003 1.003 0 0 1-.367-.203.893.893 0 0 1-.233-.334 1.203 1.203 0 0 1-.082-.46c0-.137.034-.277.104-.422.07-.144.19-.275.362-.393.171-.118.402-.217.693-.296.29-.08.657-.125 1.1-.135v-.164c0-.226-.047-.39-.14-.49-.093-.1-.226-.15-.397-.15a1.053 1.053 0 0 0-.569.145c-.068.037-.134.07-.199.1a.548.548 0 0 1-.231.045.35.35 0 0 1-.203-.058.43.43 0 0 1-.133-.143l-.208-.362a2.35 2.35 0 0 1 .777-.46c.284-.101.59-.151.915-.151.234 0 .444.038.632.113.188.076.347.182.477.317.13.136.23.297.3.483.07.186.105.39.105.611v2.416h-.53zm-1.327-.704c.15 0 .28-.027.392-.079.111-.052.224-.136.339-.253v-.537c-.231.01-.421.03-.57.06-.15.03-.268.067-.355.111a.429.429 0 0 0-.18.153.362.362 0 0 0-.05.187c0 .131.035.224.107.277.072.054.178.08.317.08zm4.108 1.707a.414.414 0 0 1-.126.17c-.05.036-.13.054-.239.054h-.865l.746-1.566-1.544-3.527h1.022c.09 0 .159.02.209.06a.32.32 0 0 1 .104.142l.634 1.666c.06.154.108.308.145.462.025-.08.052-.158.082-.235.03-.077.059-.155.086-.234l.574-1.66a.283.283 0 0 1 .117-.143.336.336 0 0 1 .189-.058h.932l-2.066 4.869z"/>
        <path id="b" d="M442.038 176.222h2.013v1.007h-3.273v-5.432h1.26v4.425zm3.803-2.859v3.866h-1.156v-3.866h1.156zm.134-1.059a.61.61 0 0 1-.056.26.682.682 0 0 1-.153.212.748.748 0 0 1-.225.145.7.7 0 0 1-.906-.358.65.65 0 0 1 0-.524.687.687 0 0 1 .632-.413.722.722 0 0 1 .5.197.698.698 0 0 1 .152.217c.037.082.056.17.056.264zm2.938 4.925h-1.052l-1.498-3.866h.962c.082 0 .15.02.207.058a.288.288 0 0 1 .113.143l.537 1.734c.042.142.083.28.121.414.039.134.072.268.099.402.027-.134.06-.268.1-.402.04-.135.083-.272.127-.414l.56-1.734a.29.29 0 0 1 .111-.143.328.328 0 0 1 .194-.058h.917l-1.498 3.866zm3.49-3.926c.255 0 .49.04.702.12.212.08.395.195.548.346.153.152.272.338.358.558.086.22.128.469.128.747 0 .087-.003.158-.01.213a.336.336 0 0 1-.042.13.156.156 0 0 1-.08.067.375.375 0 0 1-.129.019h-2.229c.037.323.136.557.295.703.159.145.364.218.615.218.134 0 .25-.016.346-.049a1.75 1.75 0 0 0 .26-.108l.208-.108a.433.433 0 0 1 .2-.048c.092 0 .161.033.209.1l.335.414c-.12.137-.248.248-.386.334-.138.085-.28.153-.425.201-.145.048-.29.082-.436.1a3.273 3.273 0 0 1-.416.029 2.17 2.17 0 0 1-.762-.133 1.752 1.752 0 0 1-1.044-1.042 2.424 2.424 0 0 1-.155-.902c0-.258.045-.503.133-.734.088-.231.215-.434.38-.608a1.81 1.81 0 0 1 .6-.414c.235-.102.5-.153.796-.153zm.022.798c-.222 0-.394.063-.519.188-.124.126-.206.307-.246.543h1.443a1.02 1.02 0 0 0-.035-.269.588.588 0 0 0-.326-.399.72.72 0 0 0-.317-.063z"/>
    </defs>
    <g fill="none" fill-rule="evenodd" transform="translate(0 1)">
        <rect width="191" height="155" x=".328" fill="#D6F2F1" opacity=".84" rx="18.25" transform="translate(38.644 53.069)"/>
        <rect width="506.881" height="320.475" x="151.794" y="75.437" fill="#EBF7F7" rx="18.25"/>
        <rect width="506.881" height="320.475" x=".053" y=".309" fill="#F8FCFC" opacity=".84" rx="18.25" transform="translate(63.932 95.477)"/>
        <path fill="#DFEFEE" d="M140.854 344.493c-15.08-4.33-25.305-10.984-32.178-20.932-6.494-9.395-10.276-21.91-12.273-40.575a186.661 186.661 0 0 1-.73-19.284c0-11.028-.058-22.368-3.454-32.863 6.421-.051 13.119-3.74 18.031-7.551 5.248-4.089 9.6-9.19 13.885-14.278a71.717 71.717 0 0 0-21.304 7.522 31.981 31.981 0 0 0-7.959 5.757 17.295 17.295 0 0 0-2.915 3.994c-.146.292-.467.882-.773 1.538a49.146 49.146 0 0 0-1.028-2.39 91.104 91.104 0 0 0-10.837-17.223l.124-.094-.263-.088-.641-.83c3.98 0 21.865-1.014 28.832-17.988A50.085 50.085 0 0 0 78.145 206.7c-1.924-2.456-3.899-4.854-5.83-7.23-1.626-1.983-3.317-4.03-5.102-6.072.874-1.195 2.135-2.033 3.083-3.163 1.166-1.392 2.733-2.186 4.212-3.2a39.495 39.495 0 0 0 6.837-5.553c4.781-5.247 6.428-12.696 10.867-18.22-6.75 1.29-13.505 4.073-17.908 9.343-2.645 3.17-4.292 7.033-5.896 10.838a37.455 37.455 0 0 0-1.946 5.415 22.594 22.594 0 0 0-.59 3.04 81.49 81.49 0 0 0-4.942-5.103c.186-.354.333-.728.438-1.115.728-2.441 2.077-4.424 2.915-6.858 1.29-3.768 1.778-7.755 2.245-11.698.787-6.74 1.576-13.483 2.368-20.232-5.517 2.726-11.508 5.94-13.723 11.661-1.16 3.017-1.101 6.363-.802 9.591.33 3.534.924 7.037 1.778 10.481a41.718 41.718 0 0 0 1.4 5.102 48.941 48.941 0 0 0-4.373-3.25c.01-.095.01-.19 0-.285-.372-1.458-2.333-2.31-3.39-3.148a50.056 50.056 0 0 0-6.96-4.643 66.892 66.892 0 0 0-15.539-6.086c-8.899-2.354-18.111-3.243-27.287-3.98 6.56 5.831 13.301 11.851 21.559 14.84 5.43 1.982 11.26 2.507 16.982 2.951 2.915.226 5.874.423 8.797.773.677.08 3.046.649 4.526.488a52.702 52.702 0 0 1 8.214 6.56c-.868-.19-1.779-.284-2.187-.357a22.535 22.535 0 0 0-5.379-.263 33.257 33.257 0 0 0-10.611 2.682c-4.075 1.742-8.054 4.111-10.97 7.5-2.915 3.39-4.78 7.886-4.321 12.39a112.539 112.539 0 0 1 16.93-8.323c3.506-1.37 7.1-2.573 10.386-4.373 2.974-1.654 6.56-4.242 7.886-7.507 1.414 1.458 2.777 2.915 4.104 4.468.065.248.174.4.335.386 1.669 1.939 3.294 3.914 4.905 5.874a388.658 388.658 0 0 1 5.626 6.946c-7.9-2.004-31.784-5.67-48.008 17.492 19 .642 34.576-4.11 49.4-15.677a90.44 90.44 0 0 1 10.649 16.821c.532 1.152.998 2.325 1.457 3.506-2.106-1.377-5.196-1.713-7.565-1.698a88.786 88.786 0 0 0-37.797 8.79l28.869 3.163c3.513.386 7.113.765 10.532-.124a14.628 14.628 0 0 0 4.905-2.332 20.065 20.065 0 0 0 2.747-2.289c2.274 9.234 2.289 19.08 2.31 28.68-.092 6.487.151 12.975.73 19.438 2.026 18.95 5.888 31.638 12.52 41.244 7.078 10.248 17.558 17.077 32.98 21.508.068.007.137.007.205 0a.729.729 0 0 0 .728-.532.729.729 0 0 0-.59-.867z"/>
        <path fill="#274B50" d="M84.348 201.59c-15.204 12.289-31.129 17.34-50.661 16.676 19.678-28.06 50.66-16.675 50.66-16.675z"/>
        <path fill="#006973" d="M82.679 200.665a50.085 50.085 0 0 1 29.634-17.98c-7.886 19.146-29.634 17.98-29.634 17.98z"/>
        <path fill="#274B50" d="M86.243 174.988a39.495 39.495 0 0 1-6.837 5.554c-1.457 1.035-3.046 1.807-4.22 3.2-1.057 1.268-2.521 2.186-3.389 3.644-1.086 1.822-1.144-.525-1.078-1.494.111-1.188.326-2.363.64-3.513a36.602 36.602 0 0 1 1.947-5.416c1.603-3.804 3.25-7.667 5.896-10.83 4.373-5.277 11.159-8.061 17.908-9.344-4.446 5.467-6.086 12.915-10.867 18.2z"/>
        <path fill="#006973" d="M46.878 183.508c-4.132 1.75-8.09 4.118-11.034 7.507-2.945 3.39-4.788 7.886-4.322 12.354a112.24 112.24 0 0 1 16.902-8.323c3.505-1.37 7.091-2.573 10.385-4.373 2.981-1.662 6.56-4.264 7.908-7.551.096-.202.138-.425.124-.649-.146-.954-3.236-1.21-4.001-1.348a21.8 21.8 0 0 0-5.379-.262 33.053 33.053 0 0 0-10.583 2.645z"/>
        <path fill="#274B50" d="M71.418 160.565c-.466 3.935-.962 7.922-2.245 11.697-.83 2.427-2.186 4.41-2.915 6.851-.444 1.458-.977 2.384-2.186.94-1.866-2.186-2.355-5.24-3.025-7.966a70.748 70.748 0 0 1-1.778-10.48c-.3-3.222-.358-6.56.801-9.592 2.187-5.75 8.2-8.964 13.724-11.66-.792 6.724-1.584 13.46-2.376 20.21z"/>
        <path fill="#006973" d="M89.238 233.149a14.577 14.577 0 0 0 4.912-2.332c.831-.605 3.477-2.493 3.448-3.535-.124-5.102-6.035-5.984-9.956-5.962a88.998 88.998 0 0 0-37.834 8.79l28.87 3.185c3.505.364 7.113.729 10.56-.146z"/>
        <path fill="#006973" d="M115.206 216.794c-5.007 3.892-11.894 7.66-18.432 7.558a1.654 1.654 0 0 1-1.26-.46c-.555-.655.969-3.396 1.348-4.132a17.295 17.295 0 0 1 2.915-3.994 32.17 32.17 0 0 1 7.959-5.757 71.921 71.921 0 0 1 21.34-7.493c-4.27 5.087-8.622 10.19-13.87 14.278z"/>
        <path stroke="#274B50" stroke-linecap="round" stroke-linejoin="round" stroke-width="1.458" d="M55.668 173.356c8.425 4.854 14.788 12.528 20.961 20.042 6.655 8.098 13.382 16.304 17.77 25.816 8.162 17.652 4.16 38.249 6.202 57.359 3.746 35.057 14.314 53.328 44.976 62.125"/>
        <path fill="#006973" d="M26.5 170.68c5.43 1.99 11.26 2.515 16.982 2.953 2.915.226 5.83.422 8.79.772 1.078.131 6.297 1.458 5.728-.729-.371-1.457-2.34-2.31-3.389-3.148a50.056 50.056 0 0 0-6.96-4.643 66.892 66.892 0 0 0-15.422-6.064c-8.9-2.354-18.112-3.243-27.288-3.972 6.538 5.853 13.302 11.85 21.56 14.832z"/>
        <path fill="#2F355B" d="M528.724 454.415h-64.575c-16.209 0-28.774-12.886-28.774-28.986v-21.136h-88.86v21.136c0 16.101-13.052 29.154-29.153 29.154H252.76a9.672 9.672 0 0 0-9.737 9.023 9.475 9.475 0 0 0 9.474 9.897h276.228c5.371 0 10.378-4.475 10.138-9.897-.204-5.102-5.197-9.191-10.138-9.191z"/>
        <rect width="533.505" height="297.626" x="93.079" y="118.788" fill="#012448" rx="14.577"/>
        <rect width="494.971" height="258.692" x="112.153" y="138.751" fill="#EBF7F7" rx="8.746"/>
        <path stroke="#BEEDEC" stroke-width=".729" d="M425.026 284.109h76.738M424.99 305.981h147.653M424.99 327.853h157.507M425.018 349.726h149.95M424.99 371.598h153.09"/>
        <path fill="#CEEFEE" d="M130.607 310.427h268.501v31.048a2.915 2.915 0 0 1-2.915 2.916H133.522a2.915 2.915 0 0 1-2.915-2.916v-31.048z"/>
        <rect width="159.986" height="102.051" x="425" y="162" fill="#FFF" rx="3"/>
        <path fill="#DAE5E3" d="M425 258h159.99v3a3 3 0 0 1-3 3H428a3 3 0 0 1-3-3v-3z"/>
        <path fill="#FFF" d="M399.108 310.711H130.607v-147.64a2.915 2.915 0 0 1 2.915-2.915h262.67a2.915 2.915 0 0 1 2.916 2.916v147.64z"/>
        <rect width="13.192" height="3.477" x="149.454" y="178.567" fill="#CEEFEE" rx="1.738"/>
        <rect width="13.192" height="3.477" x="166.83" y="178.567" fill="#CEEFEE" rx="1.738"/>
        <rect width="13.192" height="3.477" x="184.205" y="178.567" fill="#CEEFEE" rx="1.738"/>
        <rect width="13.192" height="3.477" x="201.58" y="178.567" fill="#CEEFEE" rx="1.738"/>
        <rect width="13.192" height="3.477" x="218.956" y="178.567" fill="#CEEFEE" rx="1.738"/>
        <rect width="13.192" height="3.477" x="236.331" y="178.567" fill="#CEEFEE" rx="1.738"/>
        <rect width="13.192" height="3.477" x="253.706" y="178.567" fill="#CEEFEE" rx="1.738"/>
        <rect width="13.192" height="3.477" x="271.082" y="178.567" fill="#CEEFEE" rx="1.738"/>
        <rect width="13.192" height="3.477" x="288.457" y="178.567" fill="#CEEFEE" rx="1.738"/>
        <rect width="13.192" height="3.477" x="305.832" y="178.567" fill="#CEEFEE" rx="1.738"/>
        <rect width="13.192" height="3.477" x="323.208" y="178.567" fill="#CEEFEE" rx="1.738"/>
        <rect width="13.192" height="3.477" x="340.576" y="178.567" fill="#CEEFEE" rx="1.738"/>
        <rect width="13.192" height="3.477" x="357.951" y="178.567" fill="#CEEFEE" rx="1.738"/>
        <rect width="13.192" height="3.477" x="375.326" y="178.567" fill="#CEEFEE" rx="1.738"/>
        <rect width="238.743" height="27.834" x="149.592" y="190" fill="#CEEFEE" rx="4.373"/>
        <rect width="70.784" height="47.556" x="233.955" y="224.804" fill="#CEEFEE" rx="4.373"/>
        <rect width="70.784" height="47.556" x="149.592" y="225" fill="#CEEFEE" rx="4.373"/>
        <rect width="70.784" height="47.556" x="317.734" y="224.804" fill="#CEEFEE" rx="4.373"/>
        <rect width="70.784" height="2.915" x="233.955" y="277.433" fill="#CEEFEE" rx="1.458"/>
        <rect width="70.784" height="2.915" x="233.955" y="285.392" fill="#CEEFEE" rx="1.458"/>
        <rect width="38.614" height="2.915" x="233.955" y="293.635" fill="#CEEFEE" rx="1.458"/>
        <rect width="70.784" height="2.915" x="317.734" y="277.433" fill="#CEEFEE" rx="1.458"/>
        <rect width="70.784" height="2.915" x="317.734" y="285.392" fill="#CEEFEE" rx="1.458"/>
        <rect width="38.614" height="2.915" x="317.734" y="293.635" fill="#CEEFEE" rx="1.458"/>
        <rect width="70.784" height="2.915" x="149.782" y="277.433" fill="#CEEFEE" rx="1.458"/>
        <rect width="70.784" height="2.915" x="149.782" y="285.392" fill="#CEEFEE" rx="1.458"/>
        <rect width="38.614" height="2.915" x="149.782" y="293.635" fill="#CEEFEE" rx="1.458"/>
        <rect width="147.304" height="4.351" x="184.737" y="325.674" fill="#00A9A7" rx="2.172"/>
        <rect width="55.267" height="4.351" x="333.9" y="325.674" fill="#FFF" rx="2.172"/>
        <circle cx="335.146" cy="327.54" r="4.971" fill="#354B63"/>
        <rect width="31.697" height="11.778" x="149.454" y="321.651" fill="#F66" rx="5.889"/>
        <use fill="#000" xlink:href="#a"/>
        <use fill="#FFF" xlink:href="#a"/>
        <path fill="#006973" d="M640.79 274.277c-1.028.08-2.478.226-3.513.335-.686.073-1.188.984-1.108 2.005.226 2.915.641 8.396.729 10.16.262 4.912 2.244 29.408 2.77 34.255 7.17 66.505 12.25 100.396 17.856 160.714.86 9.213.408 8.396 1.96 17.39.292 1.698 1.363 2.799 2.522 2.624a21.668 21.668 0 0 0 3.644-.846 2.58 2.58 0 0 0 1.509-.983c.634-.955-3.688-41.843-7.238-67.396-2.186-15.611-15.866-140.096-17.674-156.553-.138-1.027-.75-1.763-1.457-1.705z"/>
        <path fill="#006973" d="M592.512 466.74h64.239v6.975h-64.24zM590.69 430.8h64.239v6.976h-64.24zM585.967 394.87h64.239v6.975h-64.24zM582.862 358.93H647.1v6.976h-64.24zM578.526 323h64.239v6.975h-64.24zM569.91 287.06h64.24v6.976h-64.24z"/>
        <path fill="#006973" d="M572.221 274.277c-1.028.08-2.485.226-3.513.335-.685.073-1.188.984-1.108 2.005.219 2.915.634 8.396.73 10.16.269 4.912 2.251 29.408 2.776 34.255 7.172 66.505 12.244 100.396 17.856 160.714.86 9.213.408 8.396 1.96 17.39.292 1.698 1.364 2.799 2.523 2.624a21.865 21.865 0 0 0 3.644-.846 2.58 2.58 0 0 0 1.508-.983c.627-.955-3.695-41.843-7.237-67.396-2.186-15.611-15.866-140.096-17.674-156.553-.146-1.027-.758-1.763-1.465-1.705z"/>
        <path fill="#A36550" d="M607.184 368.102l12.902.39-.608 20.143-12.902-.39zM659.11 422.71l-9.832-.298-2.966-14.307 12.9.386z"/>
        <path fill="#2F355B" d="M662.849 418.76a.773.773 0 0 1 .656.788c0 1.581-.124 5.604-.24 8.593-.117 2.871-2.187 5.101-4.672 5.043l-32.893-.991c-1.567-.044-2.018-5.27 2.37-6.253l15.458-4.774 3.032-2.136c.313-.138 2.529-2.594 4.3.89 1.887 3.71 4.584.728 6.5-.591 1.568-1.05 2.326-.926 3.98-.809l1.509.24z"/>
        <path fill="#FFF" d="M642.288 268.177c7.638-.642 17.302-.831 24.139 3.053 9.227 5.24 8.272 21.05 6.793 29.584-1.261 7.288-3.645 14.416-5.037 21.697-1.26 6.749-1.712 13.615-2.718 20.407-1.873 12.529 3.294 32.295 6.406 44a83.459 83.459 0 0 1 2.004 11.464c.331 2.727 1.486 9.693.909 12.14-.578 2.448-2.571 3.517-4.166 3.517-22.785 1.878-34.584 1.468-35.397-1.231-1.209-10.643-.673-18.195-.673-22.761 0-7.534-.503-29.669 0-35.106 1.088-13.18 1.751-23.018 1.99-29.515.042-1.168-.083-2.14-.378-2.915-3.126 1.859-8.109 2.785-7.218 7.463 1.73 9.085 1.397 33.371 1.464 38.128.068 4.757-1.282 9.468-5.775 9.468h-18.888c-6.815 0-9.677-.279-9.677-4.711 0-10.607-2.712-20.615-2.712-31.42 0-5.43-1.355-21.049-1.713-23.957a11.814 11.814 0 0 1 1.713-7.288c2.595-4.614 5.173-8.078 8.676-12.619 7.28-9.433 10.584-13.914 17.778-22.34 1.266-1.571 11.26-2.213 12.801-3.516 2.595-2.056 5.423-3.185 9.679-3.542z"/>
        <path fill="#2F355B" d="M620.63 381.167c.447.256.67.514.67.773 0 1.582 0 5.612-.08 8.6-.058 2.872-2.099 5.16-4.57 5.102-13.298-.15-23.215-.263-29.75-.339l-.672-6.44 15.132-4.962 2.988-2.187c.313-.146 2.478-2.638 4.315.809 1.96 3.644 4.606.612 6.494-.729 1.545-1.086 2.303-.97 3.957-.882l1.516.255z"/>
        <path fill="#A36550" d="M638.217 175.141a3.739 3.739 0 0 0-2.96-3.068h-.05a2.966 2.966 0 0 1-.365-.095c-1.333-.415-9.89-2.85-11.056-1.057-.547.846-3.054 0-4.067.81-1.705 1.34-1.997 3.44-1.859 5.48.13.925.184 1.858.16 2.792-.13 1.319-.728 2.558-.619 3.899.178.796.422 1.576.73 2.332.088.821.236 1.635.444 2.434.205.44.376.896.51 1.363.108.606.08 1.228-.08 1.822-.088.283-.123.58-.102.875.153.947 1.807 1.654 2.638 1.764.564.068 1.12.187 1.662.357.94.306 2.237.896 2.507 1.917a6.392 6.392 0 0 1 0 3.607 11.858 11.858 0 0 1-1.523 2.478c-2.697 4.067-14.766 5.656-15 7.289-.597 4.293 13.783 3.775 19.402 4.19l.678.052c4.132.306 11.756 2.448 14.329-1.662.393-.634 1.078-10.998-.452-17.135-2.624-10.546-4.927-20.444-4.927-20.444zM588.81 197.145c2.186-.86 4.642-1.385 6.31-3.061.53-.427.788-1.108.671-1.779a1.458 1.458 0 0 0-1.61-.852 4.643 4.643 0 0 0-1.786.78 11.829 11.829 0 0 1-3.921 1.741c-.83.16-1.69.16-2.522.343a3.04 3.04 0 0 0-2.077 1.34 3.943 3.943 0 0 0-.342 1.954c0 1.822-.664 4.665-1.145 6.91a9.657 9.657 0 0 0-.138 3.33l.204 1.509c.299 2.063 1.355 3.848 2.092 5.83.583 1.553 0 3.747 2.63 3.23 1.305-.256 4.279 2.638 5.197 1.58.838-.91.663-5.465.919-6.646.466-2.187.065-4.453.488-6.632.452-2.318 1.807-4.68.962-6.88-.32-.853-1.24-1.633-2.07-1.269-.83.365-.838 1.684-.896 2.682-.146.835-.39 1.65-.73 2.427l-1.515-.772c-1.465-.846-2.5-5.073-.722-5.765z"/>
        <path fill="#7F5A4B" d="M588.088 207.1c-1.276.256-1.378-2.66-1.392-3.432-.015-.773 0-1.4.05-2.092-.007-.56.045-1.12.154-1.669.128-.324.396-.573.729-.678.08 0 .174-.05.233 0 .033.04.05.093.044.146a5.16 5.16 0 0 0 3.017 4.176s.08.037.087.08a.131.131 0 0 1 0 .073 31.806 31.806 0 0 1-1.902 2.639 2.04 2.04 0 0 1-.568.575 1.392 1.392 0 0 1-.452.183z"/>
        <path fill="#3A3838" d="M638.603 165.397c-3.134-1.254-6.698-1.37-10.116-1.421a17.157 17.157 0 0 1-3.236-.248c-1.13-.233-2.004-.853-3.178-.81-1.348.06-3.542.14-4.628.985a4.686 4.686 0 0 0-1.297 1.997 25.254 25.254 0 0 0-1.137 3.381 1.567 1.567 0 0 0 .801 2.034 31.34 31.34 0 0 0 7.136 4.001c1.676.67 2.325.97 2.091 2.792a42.275 42.275 0 0 0-.306 3.972c-.03.228.014.46.124.663.235.244.567.37.904.343.4.069.81-.006 1.159-.212.299-.233-.182-2.354-.153-2.777.11-1.523 1.713-2.405 2.915-1.188.647.768.931 1.777.78 2.77-.073.984-.35 1.946-.372 2.915-.065 2.471 1.458 4.68 2.916 6.669a4.927 4.927 0 0 0 3.95 2.289c1.632-.051 3.134-1.028 4.774-.963.378.059.764.031 1.13-.08.64-.284.415-1.618.531-2.186.212-.99.49-1.963.831-2.915.29-.726.517-1.474.678-2.238.124-.729.117-1.458.219-2.223a21.72 21.72 0 0 1 1.224-3.892c.868-2.5 1.188-5.43-.211-7.675a11.465 11.465 0 0 0-2.281-2.434 23.636 23.636 0 0 0-3.31-2.587 13.119 13.119 0 0 0-1.938-.962z"/>
        <path fill="#F3C174" d="M656.911 208.42a40.88 40.88 0 0 0-7.85-3.382c-2.186-.678-4.984-1.618-7.288-1.458-2.303.16-4.846.73-7.288.97-3.695.357-8.301 1.071-12.004.794-5.233-.394-12.135 2.361-12.135 2.361a21.384 21.384 0 0 0-6.348 3.04 10.204 10.204 0 0 0-3.192 3.702 22.084 22.084 0 0 0-1.21 3.929c-.488 1.785-1.18 4.373-2.653 5.56-.445-1.326-.51-2.754-.926-4.095-.415-1.342-.903-2.347-2.274-2.916a8.214 8.214 0 0 0-2.368-.488 95.367 95.367 0 0 0-5.525-.423 87.84 87.84 0 0 0-2.77-.087c-.626 0-1.974-.3-2.44.182a1.837 1.837 0 0 0-.387 1.035 58.627 58.627 0 0 0-.86 8.28c0 3.753-.343 7.463-.336 11.23 0 4.337.3 8.674.146 13.018-.218 6.275-1.071 11.282 5.627 15.05 8.236 4.628 18.585-12.34 19.139-12.944.036-.037 2.252-2.456 5.226-5.83l.036.05c2.682 3.827 2.573 11.137 3.273 15.568.648 4.133 5.007 12.135 1.268 15.553-.62.569-1.385.97-1.99 1.553a2.31 2.31 0 0 0-.794 2.26c.18.428.457.81.809 1.114 3.717 3.768 11.26 4.03 16.209 3.644 8.52-.685 18.95-5.101 27.404-6.267 3.834-.518 8.301.065 11.26-2.916 4.147-4.22 1.137-8.25 1.458-13.024a87.591 87.591 0 0 1 2.573-14.445c.496-2.063.827-4.161.991-6.276.19-2.186.255-4.438.299-6.741a25.203 25.203 0 0 0-.328-5.693 26.646 26.646 0 0 0-1.859-5.218c-.386-.89-.78-1.778-1.18-2.66-1.786-3.936-3.586-8.856-7.289-11.326-1.435-.948-2.908-1.88-4.424-2.704z"/>
        <path fill="#E8B170" d="M596.848 223.762c0-.095 0-.19.037-.292a12.653 12.653 0 0 0-.62-5.415 1.283 1.283 0 0 0-1.202-.977 11.946 11.946 0 0 0-1.597-.335c-.4-.044-.772 0-1.173-.058a37.123 37.123 0 0 0-3.367-.357 37.875 37.875 0 0 0-2.034-.059c-.218 0-.874-.11-1.05 0-.174.11-.116.38-.145.612-.105.74.098 1.491.561 2.078.547.685 1.232 1.26 1.779 1.96.61.785 1.153 1.619 1.625 2.493a8.84 8.84 0 0 1 .911 3.71 21.056 21.056 0 0 1-.773 5.947 43.045 43.045 0 0 0-.99 10.714c0 .444.116.998.539 1.122 1.195.357 5.757-14.27 6.187-15.874a42.6 42.6 0 0 0 1.312-5.27zM656.146 208.784v-.036a20.808 20.808 0 0 0-3.506-2.413c-1.005-.495-2.084-.729-3.12-1.122-.655-.248-1.457-.933-2.186-.875-.728.059-1.705 1.042-2.492 1.341-1.056.34-2.15.544-3.258.605l-11.975 1.203c-.19.459.212.94.598 1.26a19.19 19.19 0 0 0 7.93 3.696c2.106.525 4.212 1.057 6.326 1.56a30.75 30.75 0 0 0 5.918.962 11.88 11.88 0 0 0 5.299-.897l.342-.167a3.09 3.09 0 0 0 1.808-2.384c.029-1.188-.839-2.055-1.684-2.733z"/>
        <path fill="#FFF" d="M648.15 202.421a1.567 1.567 0 0 0-.101-.19 54.623 54.623 0 0 0-1.866-3.213c-.729-.182-1.458.35-2.048.772-2.522 1.815-7.077 2.107-10.328 2.245-3.25.139-5.83-.51-8.891-1.064-2.668-.481-3.732 1.297-4.993 2.915-2.463 3.215 7.237 3.681 8.943 3.805 3.925.27 7.87-.04 11.705-.918 1.888-.438 8.104-1.531 7.755-3.87a1.589 1.589 0 0 0-.175-.482z"/>
        <path fill="#E8B170" d="M650.578 276.216c-.408 0-.817.058-1.203.058h-3.338c-2.186 0-4.373-.058-6.56-.044-8.745.073-11.508-6.086-14.474-13.403-1.297-3.2-1.858-6.516-3.768-9.475a20.99 20.99 0 0 0-6.968-6.822 6.975 6.975 0 0 0-2.5-.954 4.905 4.905 0 0 0-2.018.218c-.904.24-.19.729.16 1.458.28.605.522 1.225.729 1.858.426 1.396.733 2.824.918 4.271.401 2.748.503 5.532.933 8.273.649 4.132 5.007 12.135 1.268 15.553-.62.568-1.385.97-1.99 1.552a2.31 2.31 0 0 0-.794 2.26c.18.429.457.81.809 1.115 3.717 3.768 11.26 4.03 16.21 3.644 4.22 0 8.337-1.1 12.346-2.281 2.427-.73 4.861-1.385 7.288-2.063 2.04-.561 4.052-1.173 6.093-1.72a.233.233 0 0 0 .153-.087.197.197 0 0 0 0-.146 3.826 3.826 0 0 0-.729-2.478 2.34 2.34 0 0 0-.962-.612 4.293 4.293 0 0 0-1.603-.175z"/>
        <path fill="#D2EAEE" d="M640.957 206.794c1.764-.437 7.602-1.53 7.288-3.87a1.574 1.574 0 0 0-.167-.503 1.53 1.53 0 0 0-.095-.19 46.508 46.508 0 0 0-.94-1.785c-.219-.4-.452-1.188-.948-1.4-.626-.269-1.355.416-1.778.73-1.676 1.283-4.06 1.669-6.137 2.223-1.21.32-2.456.452-3.68.729-.802.183-1.59.427-2.354.728a6.56 6.56 0 0 0-2.559 1.852c-.51.656-.976 1.654-.328 2.317l.73.051c3.68.28 7.38-.018 10.968-.882z"/>
        <path fill="#7F5A4B" d="M627.248 191.751l-.452 4.22c0 .343-.102 2.755-.605 2.573a.372.372 0 0 1-.182-.168c-.248-.357 0-.56-.153-1.071-.525-1.851-2.42-2.434-4.147-2.631-.187 0-.371-.05-.532-.146a.386.386 0 0 1-.153-.474.547.547 0 0 1 .32-.21c1.458-.511 2.989-.73 4.016-1.91.232-.271.444-.559.634-.86.153-.248.343-.533.627-.562.532-.08.722.67.627 1.24z"/>
        <path fill="#FFF" d="M597.08 136.994H119.602c-3.535 0-7.448 3.914-7.448 8.746v6.02h494.971v-6.02c0-4.832-3.914-8.746-10.043-8.746z"/>
        <circle cx="122.888" cy="145.099" r="2.165" fill="#ED5A48"/>
        <circle cx="132.924" cy="145.099" r="2.165" fill="#ECC973"/>
        <circle cx="142.96" cy="145.099" r="2.165" fill="#57AAA9"/>
        <path stroke="#BEEDEC" stroke-width=".729" d="M149.797 357.743h37.126M149.782 370.796h84.173M149.782 383.441h84.173"/>
        <rect width="30.837" height="11.778" x="427.511" y="169.012" fill="#F66" rx="5.889"/>
        <use fill="#000" xlink:href="#b"/>
        <use fill="#FFF" xlink:href="#b"/>
        <circle cx="434.566" cy="174.901" r="2.186" fill="#FFF"/>
        <path fill="#FFF" d="M158.689 327.54l-1.88 1.356-1.881 1.348v-5.408l1.88 1.356z"/>
        <path stroke="#007E8C" stroke-width="1.458" d="M380.253 145.398c-3.961-15.202.055-97.646 1.554-145.398"/>
        <path fill="#F4BDB3" d="M384.917 233.517l10.039 7.472-11.319 15.207-10.038-7.472z"/>
        <path fill="#F7F9F9" d="M413.197 188.107c-5.372-2.799-12.813-2.318-18.586-1.647-4.86.569-9.904.343-14.802.452l13.352 13.352c.867.875-14.963 16.588-16.326 18.163-1.749 2.018-3.352 4.147-4.963 6.275-1.298 1.713-2.624 3.513-3.054 5.62-1.13 5.618 5.933 7.674 9.628 10.006 3.695 2.332 7.674 4.373 11.085 7.048 1.254.97 1.363 2.084 3.222 1.232 1.304-.598 1.734-2.391 2.223-3.594 1.246-3.083 3.469-5.648 5.56-8.243 5.042-6.253 9.48-12.969 13.258-20.057 2.916-5.532 7.565-13.228 6.203-19.679a13.28 13.28 0 0 0-6.56-8.818l-.24-.11z"/>
        <path fill="#F4BDB3" d="M395.974 244.271h12.514v25.137h-12.514zM352.674 110.122a48.35 48.35 0 0 0 2.187-4.635c2.653-6.071 4.373-12.558 7.091-18.534a3.921 3.921 0 0 1 3.856-2.303h.452c3.148-.11 7.004-.277 9.985.867 1.61.62 2.186 1.946 3.9 2.529 2.812.977 2.324 3.746 1.887 6.326-.204 1.188-.219 2.405-.846 3.396-.56.868-1.669 1.232-1.632 2.45 0 1.37.984 3.644.43 5.043-.474 1.159-1.633.08-2.537.678-.444.291-.357.947-.371 1.457a2.77 2.77 0 0 1-.868 1.939c-.379.357-.889.656-1.005 1.166-.066.277 0 .569-.037.853a1.458 1.458 0 0 1-1.268 1.093 4.315 4.315 0 0 1-1.764-.24c-1.253-.35-3.505-1.538-4.774-.846a2.915 2.915 0 0 0-1.137 2.004 7.667 7.667 0 0 0-.145 4.075c.197.466.334.956.408 1.457.043.868-.284 1.662-.088 2.559a4.774 4.774 0 0 0 1.968 2.536c1.91 1.458 5.27 2.463 6.392 4.723a3.156 3.156 0 0 1-.576 3.527c-.933.94-3.731-.248-4.708-.561a83.626 83.626 0 0 1-8.622-3.44 268.374 268.374 0 0 1-9.723-4.584c-1.4-.73-2.82-1.37-4.19-2.121-1.575-.853-3.062-.838-4.643-1.56a2.77 2.77 0 0 1-1.75-2.617 2.733 2.733 0 0 1 1.648-2.048 7.879 7.879 0 0 1 2.667-.583c3.958-.371 5.75-.962 7.813-4.606z"/>
        <path fill="#E7A194" d="M363.913 104.598a1.028 1.028 0 0 0-1.042-.321.962.962 0 0 0-.561.853c-.04.28-.04.565 0 .845l.371 2.996c.16 1.275.868 1.29 1.458 2.142.59.853.496 1.917 1.385 2.653a.998.998 0 0 0 .145.095.67.67 0 0 0 .248.153.4.4 0 0 0 .131 0c.044-.204.088-.415.146-.634a2.915 2.915 0 0 1 1.137-2.004c1.268-.73 3.52.495 4.774.845.641.182 2.289.561 1.633-.729-.27-.51-1.1-.626-1.59-.794a24.409 24.409 0 0 1-3.417-1.757c-1.706-.889-3.266-1.61-4.235-3.389a4.278 4.278 0 0 0-.583-.954z"/>
        <path fill="#515050" d="M386.295 86.741c.066-.175.124-.342.183-.517a4.62 4.62 0 0 0 0-2.916 3.127 3.127 0 0 0-2.005-1.997 5.226 5.226 0 0 0-1.581-.123c-2.347.05-4.446.145-6.713-.467-1.931-.525-3.644-1.523-5.677-1.844-2.125-.33-4.3.01-6.225.97-.809.4-1.363 1.1-2.186 1.457-1.458.663-3.294.233-4.876.824a3.272 3.272 0 0 0-1.385.867 5.568 5.568 0 0 0-.692 1.24c-.416.86-1.006 1.624-1.407 2.484-.889 1.895-.641 3.973-.277 5.94l1.458 7.631c.408 2.187 2.762 3.71 4.898 2.384.925-.576.962-2.121 1.137-3.069.298-1.662.437-3.506 1.647-4.81 1.05-1.137 2.85 0 3.25 1.217.321.977-.67 2.98-.13 3.68 1.049 1.334 2.186-1.144 2.404-1.821a2.74 2.74 0 0 1 1.13-1.742c1.334-.73 2.784-.197 2.187-2.187-.963-3.316 2.332-2.813 4.409-1.837 2.42 1.13 4.832 1.633 7.492.642a3.695 3.695 0 0 0 2.42-2.493c.168-.772 0-1.589.124-2.368.1-.395.24-.778.415-1.145z"/>
        <path fill="#F5FFFE" d="M375.4 122.724c2.915 2.602 6.027 5.48 7.01 9.65a17.302 17.302 0 0 1-.502 8.52c-1.589 5.64-4.789 10.51-8.017 15.13-2.296 3.243 3.746 5.495 1.319 8.615-1.21 1.552.554 6.734-1.123 7.478-1.537.685-14.67-2.085-16.282-2.282-7.346-.903-14.416-3.396-21.435-5.874-3.979-1.407-8.206-3.01-10.692-6.844-1.836-2.82-2.456-6.464-3.024-9.985-1.232-7.601-2.303-16.173 1.567-22.696 2.34-3.935 6.115-6.391 9.912-8.14a26.187 26.187 0 0 1 7.12-2.347c2.187-.307 4.57.32 6.458-1.065 1.378-1.005 2.47-3.09 4.373-3.097.403.017.802.086 1.188.204l8.316 2.186c.656.175 1.356.3 1.99.525 1.42.503 2.019 1.655 2.186 3.112.022.488.184.959.467 1.356.422.503 1.457.67 1.997 1.093.79.56 1.615 1.07 2.47 1.523 1.673.8 3.25 1.785 4.701 2.938z"/>
        <path fill="#DCF2F4" d="M370.24 129.502c-.249-1.684-.227-3.754-.86-5.313a17.71 17.71 0 0 1-1.531-4.628l-.547-4.016a2.376 2.376 0 0 0-.306-1.028 2.281 2.281 0 0 0-.838-.641 6.078 6.078 0 0 0-2.405-.926 2.092 2.092 0 0 0-2.143 1.13c-.729 1.793.772 4.016.16 5.83-.729 2.26-4.038.86-5.721 1.123a1.75 1.75 0 0 0-.824 3.287c.665.425 1.39.75 2.15.962 3.207 1.151 6.195 3.804 6.429 7.208.145 2.1-.766 4.3 0 6.26.466 1.196 1.457 2.122 1.865 3.339.686 2.186-.94 5.102 1.181 6.778 1.618 1.297 4.184 1.1 4.883-1.013.86-2.573 0-6.385-.27-9.038-.32-3.097-.772-6.202-1.224-9.314z"/>
        <path fill="#FFF" d="M418.947 254.314v-.197a1313.937 1313.937 0 0 0-6.282-31.34c-1.997-9.336-2.617-18.315-6.254-27.382-.947-2.368-2.048-4.759-3.936-6.472a15.262 15.262 0 0 0-5.473-2.915c-6.151-2.084-12.2-2.055-18.593-2.055h-51.36c0 14.037 5.612 25.414 19.926 25.414h27.965c1.735 0 5.481-.415 6.99.583 2.186 1.458 1.173 4.424.787 6.625-.634 3.645.364 7.325.364 10.998 0 6.67-.729 13.221.284 19.876.054.865.35 1.699.853 2.405a4.803 4.803 0 0 0 2.369 1.283c4.613 1.457 9.293 2.638 13.942 3.95 4.155 1.166 7.624 3.017 12.106 3.36 3.491.277 7.114.27 6.312-4.133z"/>
        <path fill="#2FC8AD" d="M382.513 143.466v-.918c.087-2.464.729-4.854 1.013-7.288a12.463 12.463 0 0 0-1.064-7.289c-.773-1.589-3.47-3.068-4.701-4.314-1.232-1.247-2.639-2.406-4.009-3.543-.729-.575-1.406-1.144-2.113-1.705a8.017 8.017 0 0 0-2.23-1.56 2.536 2.536 0 0 0-1.626-.058 1.013 1.013 0 0 0-.394.226c-.342.35-.174.853-.116 1.268.605 4.628.838 9.293.991 13.965.08 2.441.226 4.897.226 7.339.058 1.924 1.18 26.828-.729 26.675-1.202-.095-2.106-2.42-2.536-3.287a75.908 75.908 0 0 1-3.302-8.148c-2.675-7.456-4.963-15.05-7.237-22.638-1.735-5.78-3.287-11.661-5.299-17.346-.291-.83-.677-2.31-1.712-2.463a2.565 2.565 0 0 0-1.16.196c-3.92 1.29-7.929 1.407-11.974 2.107-3.054.532-6.69 1.027-9.336 2.762-5.83 3.819-8.17 11.873-5.999 18.49.642 1.946 1.611 3.761 2.304 5.685.896 2.471 0 12.164 1.413 14.387 1.925 3.069.795 8.79.656 12.172-.145 3.542-1.603 11.355.853 14.409 1.727 2.186 6.56 1.64 9.118 1.844 4.22.335 8.447.54 12.682.649 8.476.218 16.96.058 25.428-.19 4.548-.131 9.191-1.239 8.856-6.501-.314-4.84.422-9.125 1.29-14.045.67-3.768 1.713-7.652 2.04-11.472.241-3.053-1.275-6.224-1.333-9.409z"/>
        <path fill="#2FC8AD" d="M383.125 129.546c1.108 2.361 2.186 6.625 3.272 8.986 3.054 6.516 5.882 13.28 9.432 19.591a.83.83 0 0 0 .444.46c.164.03.334.012.488-.052l5.255-1.596a78.714 78.714 0 0 0 13.367-5.444c1.21 1.224 3.856 3.389 4.3 5.101.729 2.916-2.296 5.67-4.22 7.34a217.006 217.006 0 0 1-12.71 10.203c-5.474 4.09-13.178 8.746-20.248 8.513a9.475 9.475 0 0 1-4.074-.918 13.41 13.41 0 0 1-2.988-2.34 221.766 221.766 0 0 1-5.153-5.101"/>
        <path fill="#2ABA9E" d="M411.098 165.178c-1.961-1.064-4.308.131-6.356 1.006a21.552 21.552 0 0 1-6.472 1.654 9.096 9.096 0 0 1-4.76-.56c-3.36-1.553-4.372-5.73-5.203-9.344-.518-2.304-1.327-4.825-2.77-6.596a12.893 12.893 0 0 0-.19-2.048 9.322 9.322 0 0 0-1.129-3.047 4.242 4.242 0 0 0 1.458-3.506 7.609 7.609 0 0 0-1.932-3.425l-1.457-1.815a15.823 15.823 0 0 0-3.31-3.309 6.057 6.057 0 0 0-2.914-1.006 1.334 1.334 0 0 0-1.4 1.553c.199 1.013.535 1.993.999 2.915.976 1.91.962 2.61-1.123 3.054-.663.138-5.765 1.108-5.794 1.83a19.16 19.16 0 0 0 0 2.346c.182 1.458 1.953 2.187 3.294 2.617.94.303 1.915.48 2.901.524h.226a13.36 13.36 0 0 1-.328 4.738 6.48 6.48 0 0 0-.729 1.538l.234.043c-.066.168-.117.328-.183.496-.94 2.434.306 5.423.685 7.871.773 5.037 1.363 10.102 2.376 15.102a6.56 6.56 0 0 0 .656 2.033c.372.642.73 1.99 1.392 2.267 2.048.823 5.38.787 7.872.087a31.223 31.223 0 0 0 7.951-3.083c5.999-3.527 10.875-7.251 16.18-11.238.351-.215.632-.526.81-.897a1.647 1.647 0 0 0-.984-1.8z"/>
        <path fill="#F4BDB3" d="M418.743 149.581c-1.006.598-2.34.977-2.587 2.187a2.806 2.806 0 0 0 .867 2.747c.89.73 2.135.73 3.28.73 1.035 0 2.077.072 3.112.167.663.065 2.288.612 2.77 0 .164-.226.26-.494.276-.773.024-.413.085-.822.183-1.224.153-.481.728-.911.524-1.458-.204-.546-.648-.685-.729-1.326-.08-.73.314-1.779-.473-2.187a5.226 5.226 0 0 0-1.8-.372 8.28 8.28 0 0 0-2.712.205c-.964.296-1.878.736-2.711 1.304z"/>
        <path stroke="#007E8C" stroke-width="1.458" d="M379.226 183.96c.109-11.88.729-10.743 0-17.915-.438-4.147.05-45.967-.67-49.961"/>
        <path fill="#012448" d="M392.673 151.782s3.002 1.458 4.467 2.31a.27.27 0 0 0 .38-.342l-1.983-4.446c-4.33-4.22-12.39-13.76-14.766-16.42a.729.729 0 0 0-1.042-.073l-1.094.91a.83.83 0 0 0-.05 1.181c2.594 2.916 12.863 15.146 14.088 16.88z"/>
        <path fill="#F4BDB3" d="M376.274 147.344l4.978-3.79c1.079-.831 2.26-1.691 3.644-1.764a6.938 6.938 0 0 1 2.74.612l7.908 2.952c.244.063.457.214.598.423a.955.955 0 0 1 0 .605l-.729 3.906a1.618 1.618 0 0 1-1.786 1.67l-22.12 2.39"/>
        <path fill="#E7A194" d="M382.899 153.123a3.12 3.12 0 0 1-1.268-.335c-.27-.175-.423-.641-.554-.918-.729-1.59-2.012-3.098-2.26-4.89-.116-.824-.05-1.75.97-1.728a6.246 6.246 0 0 1 2.281.612c.685.284 3.542 1.4 4.373 1.582a7.383 7.383 0 0 0 2.5.08c1.264-.24 2.49-.65 3.644-1.217.81-.365 1.728-.73 2.558-.408.293.115.546.312.73.568.225.306.109.62.065.984a18.113 18.113 0 0 1-.226 1.516c-.102.503-.168 1.064-.24 1.596-.007.346-.13.68-.35.948-.114.11-.251.195-.401.247-.336.11-1.888.234-2.267.277-.729.095-1.523.183-2.281.263-1.53.19-7.077.823-7.274.823z"/>
        <path fill="#2FC8AD" d="M327.45 116.871c-4.373.765-7.85 4.475-9.548 8.622-1.698 4.147-1.939 8.746-2.187 13.185-.284 5.736-.124 11.377-.998 17.054-.729 4.621-1.99 9.417-.38 14.103 1.386 3.994 5.343 6.698 9.476 7.573 9.759 2.077 18.76-3.025 27.586-6.108 10.415-3.644 21.617-5.583 32.17-9.06.375-.08.715-.274.977-.553.245-.446.297-.972.146-1.458a53.7 53.7 0 0 0-4.555-13.665c-1.96-4.176-3.768-3.083-7.668-1.793l-19.146 6.348c-1.589.532-3.455 1.028-4.832.073a5.444 5.444 0 0 1-1.64-2.347 86.731 86.731 0 0 1-6.363-18.316"/>
        <path fill="#2ABA9E" d="M341.713 175.36a49.116 49.116 0 0 1-10.685 1.931c-1.144.059-2.522.285-3.644-.058-1.341-.415-4.708-1.356-6.632-3.477-1.035-1.144.408-3.323 1.596-4.307a10.422 10.422 0 0 1 4.198-1.837 18.104 18.104 0 0 0 4.373-1.457c1.625-.897 2.879-2.362 4.46-3.331 2.362-1.458 5.248-1.72 8.017-1.851 6.815-.328 13.695-.11 20.451-1.174 3.375-.532 6.523-1.967 9.847-2.514 2.245-.372 5.83-1.742 7.959-1.421 2.128.32 3.039 2.915 3.498 5.014a1.035 1.035 0 0 1-.729 1.523 260.025 260.025 0 0 1-29.386 9.03c-4.439 1.123-8.856 2.69-13.323 3.929zM359.372 147.548c-1.035-2.478-3.33-3.295-5.502-4.956-3.52-2.69-4.373-7.289-6.166-11.057-.984-2.077-2.835-4.045-5.139-4.023-4.307 0-2.652 3.703-3.44 6.939-.954 3.92-3.695 13.592-3.41 13.723-.897 1.298-.503 2.493 1.807 2.646 3.032.197 6.268-1.72 9.183-2.34 2.326-.45 4.701-.585 7.063-.4 2.084.124 4.103.896 6.202 1.02-.262-.627-.43-1.137-.598-1.552z"/>
        <path fill="#E7E0DF" d="M404.553 140.34l19.3 2.463a.97.97 0 0 1 .684.292c.158.28.21.61.146.925a20.662 20.662 0 0 1-1.61 5.634 293.087 293.087 0 0 1-7.31 16.938c-.212.673-.5 1.319-.861 1.924-.437.46-1.53.124-2.033.044-.788-.124-1.56-.328-2.34-.518a111.941 111.941 0 0 0-13.702-2.543c.649-1.604 1.305-3.222 1.83-4.883.524-1.662.896-3.31 1.282-4.978l.467-2.048c.27-1.152.67-2.23 1.027-3.36l3.12-9.89z"/>
        <path fill="#456788" d="M406.433 143.35c0 .379.08.728.087.91 0 1.08.08 2.15.175 3.23a7.106 7.106 0 0 0 1.247 3.826 13.2 13.2 0 0 1 1.822 2.412c.544 1.47.749 3.046.597 4.606a30.502 30.502 0 0 1-.816 4.862.896.896 0 0 0 .62 1.173c2.317.314 8.28 1.363 8.957 1.458 1.652.223 3.306.437 4.963.641.649.08 2.755.532 3.214.525a1.458 1.458 0 0 0 1.269-1.064 9.774 9.774 0 0 0 .59-4.235c-.328-2.434-2.077-4.57-3.185-6.829a11.887 11.887 0 0 1-1.341-5.51c.08-.886.256-1.76.525-2.609.132-.63.174-1.275.124-1.917a.838.838 0 0 0-.73-.853c-1.829-.196-3.6-.597-5.458-.801-1.676-.175-3.367-.35-5.022-.656-1.975-.372-3.943-.481-5.918-.824-1.975-.342-1.873.204-1.72 1.655z"/>
        <path stroke="#264B60" stroke-linecap="round" stroke-linejoin="round" stroke-width=".729" d="M411.003 148.262c.925-.445 1.13.058 2.099.364.568.175 2.281.234 2.842.43 1.11.267 2.248.391 3.39.372 1.814.058 2.091.729 3.913.787M413.24 154.107c1.29-.124 2.515.43 4.555.816.73.146 1.837.059 2.58.205 1.24.233 1.903.502 3.135.728M414.144 160.572a2.952 2.952 0 0 1 2.427-.255c.816.197 2.04.597 2.427.663.82.135 1.655.147 2.478.037 2.515-.234 2.784.619 5.153.728"/>
        <path stroke="#D3D1D1" stroke-linecap="round" stroke-width="1.458" d="M416.41 143.648c.249-1.924-.597-3.294-1.829-3.381a2.004 2.004 0 0 0-2.113 1.253M410.493 143.073c.24-2.456-.73-3.95-2.078-3.9a2.361 2.361 0 0 0-2.077 1.363M418.422 142.081a1.859 1.859 0 0 1 2.07-1.042c1.312.233 2.136 1.567 1.757 3.644"/>
        <path fill="#2F355B" d="M376.238 242.806a.794.794 0 0 0-1.035.08c-1.123 1.159-3.973 4.089-6.05 6.297-2.077 2.209-2.142 5.24-.335 6.975l24.139 23.104c1.151 1.108 5.255-2.281 2.842-6.158l-7.55-14.577-.613-3.71c-.116-.328.08-3.68-3.702-2.485-4.03 1.275-3.768-2.828-4.205-5.102-.35-1.888-.984-2.34-2.245-3.455l-1.246-.969z"/>
        <path fill="#2F355B" d="M395.209 258.862a.78.78 0 0 0-.962.394c-.729 1.457-2.551 5.102-3.87 7.827-1.261 2.624-.46 5.642 1.793 6.742l29.984 14.744c1.458.73 4.315-3.768.845-6.734l-11.595-11.661-1.706-3.353c-.218-.277-1.042-3.528-4.285-1.246-3.455 2.434-4.446-1.553-5.554-3.644-.904-1.691-1.647-1.94-3.185-2.617l-1.465-.452z"/>
        <path stroke="#007E8C" stroke-width="1.458" d="M335.146 150.208c10.106-28.872 3.505-104.331.223-150.208"/>
        <path stroke="#007E8C" stroke-linecap="round" stroke-linejoin="round" stroke-width="1.458" d="M330.292 182.932c-.46 8.25 16.763 10.204 16.72 24.89M314.505 207.144c3.994-2.609 2.282-10.582 8.878-15.349 2.689-1.939 8.826-9.19 7.645-13.899"/>
        <path fill="#354B63" d="M350.838 206.561c-13.287.102-36.07-.262-37.68-.262-4.512 0-2.763 5.182-1.335 5.342 11.02 1.261 30.75.299 37.368.503 8.104.255 34.867-.496 34.473-.496-.925-1.195-1.953-1.778-5.422-2.142-7.143-.758-18.753-1.407-27.404-2.945zM202.725 275.079l1.77 4.314a.525.525 0 0 1 0 .445.568.568 0 0 1-.313.32l-1.552.73a.517.517 0 0 1-.416 0 .627.627 0 0 1-.32-.321l-1.677-4.096-2.762 2.828a.474.474 0 0 1-.605.124.547.547 0 0 1-.35-.54V265.21a.517.517 0 0 1 .35-.517.503.503 0 0 1 .605.11l9.045 9.306a.54.54 0 0 1 .11.62.517.517 0 0 1-.526.364l-3.36-.014z"/>
        <path fill="#A3DAE4" d="M423.203 432.95c.4-.397.826-.768 1.276-1.107l-4.14 3.134c.219-.153.437-.306.649-.466.714-.525 1.48-1.028 2.215-1.56z"/>
        <path fill="#3A3838" d="M441.585 356.97c-1.341-1.516-2.726-3.112-3.375-5.233-1.006-3.258-.11-7.2-1.458-10.203-2.186-4.694-9.35-3.98-12.812-1.203-1.903 1.523-2.916 4.293-1.932 6.516.35.58.597 1.216.729 1.88.095 1.254-1.137 2.187-2.318 2.638-1.18.452-2.521.664-3.396 1.575a2.915 2.915 0 0 0-.656 2.696c.452 1.655 2.813 1.458 3.353 3.236.605 1.954-1.4 3.834.167 5.831 1.057 1.341 3.316 1.8 3.579 3.491.153.977-.489 1.939-.343 2.916.182 1.246 1.538 1.946 2.77 2.186a9.847 9.847 0 0 0 3.724.058 8.746 8.746 0 0 1 3.076-.342c.81.234 1.592.557 2.332.962 3.739 1.56 8.083-3.71 9.54-6.516 2.005-3.87-.386-7.514-2.98-10.488z"/>
        <circle cx="427.788" cy="361.431" r="3.899" fill="#ECC973"/>
        <path fill="#DB7376" d="M438.618 372.888a2.96 2.96 0 0 0-3.039-4.672c-3.644.867-4.883-.08-5.102-2.82-.102-1.458-2.726-4.155-2.456-6.29.612-4.818-.729-5.488-.044-8.163 2.092-7.886 6.873-5.102 7.9-6.56 1.495-2.142 1.276-4.424-.888-4.118-.212 0 13.315 5.612 13.687 5.773l3.95 16.763 2.66 11.282c1.72 7.288 2.34 15.502-5.684 18.63-6.042 2.36-17.084 2.09-19.679-5.3a8.338 8.338 0 0 1 .583-6.748c.235-.447.549-.847.926-1.181a6.712 6.712 0 0 1 1.108-.693c2.609-1.494 4.35-3.585 6.078-5.903z"/>
        <path fill="#C46060" d="M437.532 365.877a6.21 6.21 0 0 1 1.4-.474 5.78 5.78 0 0 1 3.243.102 1.72 1.72 0 0 1 .947 1.734 5.036 5.036 0 0 1-.685 1.976c-.393.728-.78 1.516-1.173 2.266a4.927 4.927 0 0 1-1.188 1.618c-.277.219-1.895.73-1.691.11.102-.292.445-.627.634-1.08a3.17 3.17 0 0 0-.729-3.22c-1.647-1.531-3.972 0-5.889-.62-.16-.051-.335-.16-.32-.32.014-.161.24-.234.422-.249a8.017 8.017 0 0 0 2.405-.495c.46-.197.897-.437 1.334-.67.438-.234.838-.474 1.29-.678zM448.487 379.382a7.791 7.791 0 0 0 2.186-3.098 11.938 11.938 0 0 0-.444-8.884c-1.269-2.39-4.782-5.328-1.852-7.434a37.076 37.076 0 0 0 3.04-2.413c.306.933 2.222 9.519 2.485 10.649.561 2.434 1.013 4.912 1.683 7.288.67 2.376 1.961 4.373.962 6.829-1.158 2.842-3.345 2.915-5.867 3.309a8.41 8.41 0 0 1-5.444-1.363c-.59-.357-1.217-.867-1.232-1.567 0-1.057 1.261-1.53 2.245-1.931a7.813 7.813 0 0 0 2.238-1.385z"/>
        <path fill="#3A3838" d="M469.09 362.757c-.13-1.188-.86-2.252-.276-3.374 1.457-2.916 4.788-3.2 2.711-7.289a13.024 13.024 0 0 0-2.966-3.542c-1.59-1.457-.634-3.812-1.181-5.714a4.832 4.832 0 0 0-2.864-2.915c-2.325-.977-4.956-.627-7.165-1.706-2.602-1.26-3.994-4.169-6.392-5.714a7.522 7.522 0 0 0-8.702.598c-1.341 1.152-2.405 2.857-4.14 3.149a5.83 5.83 0 0 1-1.873-.095c-2.376-.372-4.169-.32-5.575 1.982a4.905 4.905 0 0 0-.27 4.271 6.56 6.56 0 0 0 2.07 2.748c.729.583 1.596.853 1.807 1.917.212 1.064-.546 2.186-.444 3.338.116 1.363 1.457 2.303 2.733 2.726 1.705.553 3.957.604 5.204 2.091 1.246 1.487 1.071 4.089 0 5.627-1.21 1.713-4.585 4.956-.94 6.596 2.776 1.253 1.297 1.69 1.166 4.096a2.12 2.12 0 0 0 1.1 1.822c1.611.984 3.346.35 4.709-.765 1.56-1.283 3.381-2.588 5.437-1.261.656.422 1.137 1.078 1.778 1.538 1.946 1.414 5.517 1.137 6.392-1.261 1.217-3.324.583-3.71 3.899-4.862 1.552-.546 3.229-1.37 3.724-3.112a2.66 2.66 0 0 0 .059-.889z"/>
        <circle cx="447.029" cy="361.431" r="3.899" fill="#ECC973"/>
        <path fill="#DB7376" d="M386.507 492.511V469.91h11.967v22.601z"/>
        <path fill="#2F355B" d="M398.897 485.645c.37.041.65.356.649.73.043 1.457.138 5.24.167 8.016.03 2.777-1.815 4.884-4.125 4.927l-30.742.583c-1.458 0-2.128-4.824 1.924-5.947l14.205-5.167 2.733-2.128c.284-.146 2.238-2.537 4.052.626 1.932 3.382 4.315.445 6.042-.845 1.414-1.057 2.129-.97 3.645-.933l1.45.138z"/>
        <path fill="#DB7376" d="M458.355 480.026h22.601v11.967h-22.601z"/>
        <path fill="#2F355B" d="M469.688 478.794a32.316 32.316 0 0 1 4.373-4.846c1.997-1.8 4.862-1.866 6.421-.16l20.75 22.695c.991 1.079-.474 2.967-1.873 2.405l-18.767-5.83a4.861 4.861 0 0 1-3.965-5.467c.291-3.877-2.478-3.848-4.628-3.972a2.478 2.478 0 0 1-2.318-2.478l.007-2.347z"/>
        <path fill="#DB7376" d="M385.8 376.087c-2.077-3.002-3.455-6.967-5.168-10.305a3.396 3.396 0 0 0-1.02-1.341 2.573 2.573 0 0 0-2.077-.182c-.685.196-1.327.532-2.012.728a9.963 9.963 0 0 1-3.6.248 3.76 3.76 0 0 0-1.64.124c-.544.18-.9.703-.867 1.276.173.552.634.966 1.202 1.078 1.895.598 4.03-.802 5.343.685 1.078 1.232 1.326 2.806 1.938 4.118l7.9 3.571z"/>
        <rect width="100.79" height="38.555" x="276.75" y="355.089" fill="#FFF" rx="3.644" transform="rotate(-13.57 327.145 374.367)"/>
        <circle cx="295.468" cy="382.29" r="10.218" fill="#00BBC9"/>
        <path fill="#FFF" d="M299.543 381.306l-2.894 2.748-2.893 2.755-.94-3.885-.933-3.877 3.826 1.13z"/>
        <path fill="#DAE5E3" d="M312.173 371.838l50.413-12.164a1.99 1.99 0 0 0 1.458-2.405 1.982 1.982 0 0 0-2.398-1.458l-50.406 12.157a1.99 1.99 0 0 0 .933 3.87zM365.983 365.264a1.99 1.99 0 0 0-2.398-1.457l-50.413 12.171a1.99 1.99 0 1 0 .933 3.863l50.413-12.164a1.99 1.99 0 0 0 1.465-2.413zM337.711 378.507l-22.593 5.46a1.99 1.99 0 0 0 .933 3.862l22.593-5.459a1.99 1.99 0 1 0-.933-3.863z"/>
        <path fill="#2ABA9E" d="M428.786 456.572a41.113 41.113 0 0 1-6.88-2.806 397.106 397.106 0 0 1-8.848-4.482c-1.786-.926-5.517-4.052-7.244-1.589a5.044 5.044 0 0 0-.664 3.12 19.35 19.35 0 0 0 1.458 6.741c.991 2.362 2.5 4.818 1.851 7.289a21.471 21.471 0 0 1-1.334 2.915 12.026 12.026 0 0 0-.59 6.457c.197 1.458 1.647 3.594-.255 4.373a5.036 5.036 0 0 1-2.187.219l-19.882-1.02c-1.808-.095-3.695-.204-5.262-1.115-1.786-1.035-2.916-2.981-4.774-3.914-.867-.445-2.055-.955-1.917-1.917.12-.427.376-.803.729-1.072 5.7-5.407 7.616-13.592 9.256-21.274a44.83 44.83 0 0 0 1.093-6.72c.102-1.807 0-3.644.19-5.415.254-2.17.935-4.268 2.004-6.173.875-1.582 1.458-3.47 2.697-4.818 2.791-3.032 7.609-2.624 11.661-1.924.729.131 1.458.277 2.187.423 7.055 1.336 14.1 2.682 21.136 4.037 7.091 1.363 14.737 3.79 21.938 4.184 5.67.306 8.578-1.771 9.708 5.83.728 5.197-.634 11.079-4.913 14.446-2.186 1.72-4.868 2.638-7.5 3.528-5.262 1.88-9.38 1.88-13.658.677z"/>
        <path fill="#2FC8AD" d="M441.023 426.574a20.998 20.998 0 0 1 7.026-2.187c6.122-.729 13.476-5.714 14.992 3.178a53.839 53.839 0 0 1-2.602 27.637c-1.683 4.519-4.285 9.103-8.673 11.108-1.844.838-12.004 2.055-9.824 4.97 1.071 1.458 4.212 1.195 5.787 1.341 2.828.272 5.683.057 8.44-.634 1.763-.444 3.76-1.057 5.29-.08 2.326 1.458 2.741 6.042 3.36 8.505.875 3.44 1.575 6.932 2.107 10.445.24 1.588.175 3.454-1.275 4.511-1.276.933-3.353.423-4.81.313l-13.12-.976a49.189 49.189 0 0 0-5.284-.204c-1.836.058-3.644.328-5.51.393-4.22.146-8.389-.729-12.448-1.85a14.11 14.11 0 0 0-5.423-.606c-1.93.287-3.88.423-5.83.408a11.523 11.523 0 0 1-9.745-16.121c.962-2.23 2.74-3.973 4.373-5.758a62.038 62.038 0 0 0 7.587-10.204c2.45-4.118 4.84-7.565 8.375-10.75a34.16 34.16 0 0 0 8.746-12.427c.801-1.99 1.457-4.074 2.594-5.83a15.459 15.459 0 0 1 5.867-5.182z"/>
        <path fill="#DB7376" d="M378.584 371.496s-.408.729-.43.729c-1.26 1.727-3.739.211-4.941-.73-.598-.604-1.276-1.457-2.077-1.194-.802.262-.853 1.26-.583 1.982.772 2.033 3.032 2.5 4.497 3.834 1.632 1.457 2.346 3.695 3.92 5.335 1.575 1.64 3.047.765 4.374 1.683 1.056.73 1.647 1.8 2.602 2.631a43.73 43.73 0 0 1 3.257 3.105c2.07 2.187 3.922 4.6 5.773 6.99l3.49 4.518a8.229 8.229 0 0 0 2.268 2.253c1.384.787 3.083.728 4.664.532a48.285 48.285 0 0 0 14.876-3.754c1.26-.568 2.638-1.385 2.864-2.748.057-.583 0-1.172-.168-1.734l-1.304-5.685a3.484 3.484 0 0 0-.824-1.83 3.047 3.047 0 0 0-2.587-.459c-3.047.518-5.685 2.238-8.535 3.331-2.995 1.144-4.876 1.458-7.616-.342-1.757-1.145-3.55-2.187-5.335-3.193-1.786-1.006-3.404-2.915-4.993-4.329a35.771 35.771 0 0 1-5.962-6.326l-7.23-4.6z"/>
        <path fill="#C46060" d="M407.738 391.488a.729.729 0 0 0-.204-.285.612.612 0 0 0-.489-.138 3.214 3.214 0 0 0-.51.117 4.33 4.33 0 0 1-2.449-.226 2.252 2.252 0 0 0-1.18-.321.292.292 0 0 0-.19.087c-.124.146.095.73.146.853a17.725 17.725 0 0 0 2.31 3.965c.167.283.387.53.649.729.272.207.635.25.947.11.33-.264.52-.665.518-1.087.102-.729.328-1.421.444-2.135.147-.547.15-1.122.008-1.67z"/>
        <path fill="#F5FFFE" d="M430.572 377.407a23.556 23.556 0 0 0-4.213 2.033l-6.37 3.506c-1.42.787-4.263 1.662-4.293 3.644 0 .685.51 1.356.73 1.99.287 1.122.492 2.265.612 3.418.371 2.31.547 4.649.524 6.99-.07.865-.04 1.735.088 2.594.136.87.64 1.637 1.385 2.106 1.093.59 2.441.175 3.644.423 2.15.445 2.186 2.143 2.106 3.98-.095 2.055-.67 4.227.641 6.041.678.933 1.713 1.553 2.435 2.45 1.363 1.698 1.377 4.066 1.333 6.238a16.916 16.916 0 0 1 0 3.273c-.437 1.967-1.268 2.186.212 4.023a10.932 10.932 0 0 0 3.345 2.74c4.198 2.15 8.812 3.506 13.017 5.736 4.635 2.464 9.978 3.273 15.218 3.498 2.427.102 4.942.073 7.164-.896 2.223-.97 4.118-3.09 4.111-5.517 0-3.185-2.34-6.64-2.835-9.876-.729-4.475-1.582-9.016-1.975-13.57-.816-9.315-.27-19.19-4.628-27.77-3.528-6.945-12.492-12.185-19.897-6.887-2.187 1.582-3.215 3.557-6.21 4.133a3.68 3.68 0 0 1-2.748-.43c-1.618-1.072.343-3.12-1.042-3.907a3.076 3.076 0 0 0-2.354.037z"/>
        <path fill="#DCF2F4" d="M455.483 416.851a9.92 9.92 0 0 0 1.232-3.571c.182-1.67-.729-1.509-1.552-.314l-2.413 3.564c-.11.19-.262.352-.444.474a1.108 1.108 0 0 1-.46.124 12.594 12.594 0 0 1-2.28-.11 2.966 2.966 0 0 0-2.566.795 23.541 23.541 0 0 1-3.047 2.354c-.97.765-1.88 1.59-2.798 2.42-1.59 1.458-3.164 3.105-5.037 4.118-2.42 1.304-5.714-.182-7.959 1.246-2.58 1.633 1.181 2.996 2.806 4.118 3.528 2.434 8.52 3.805 12.464 5.576.694.33 1.413.608 2.15.83.502.175 1.05.175 1.552 0 1.093-.495 1.152-2.973 1.32-3.957a51.462 51.462 0 0 1 1.027-5.255c1.26-4.606 3.79-8.309 6.005-12.412z"/>
        <rect width="100.79" height="38.555" x="296.994" y="420.105" fill="#FFF" rx="3.644" transform="rotate(-34.7 347.39 439.382)"/>
        <circle cx="321.021" cy="457.695" r="10.218" fill="#00A9A7"/>
        <path fill="#FFF" d="M316.85 457.14l4.724-3.624 3.624 4.725-4.725 3.624z"/>
        <path fill="#DAE5E3" d="M332.967 441.93l42.644-29.518a1.99 1.99 0 0 0 .503-2.77 1.99 1.99 0 0 0-2.77-.502l-42.637 29.518a1.99 1.99 0 0 0 2.26 3.272zM380.77 416.406a1.997 1.997 0 0 0-2.769-.51l-42.636 29.525a1.99 1.99 0 0 0 2.266 3.273l42.659-29.547a1.982 1.982 0 0 0 .48-2.74zM359.19 438.942l-19.124 13.243a1.99 1.99 0 0 0 2.266 3.272l19.125-13.243a1.99 1.99 0 1 0-2.267-3.272z"/>
        <path fill="#DB7376" d="M448.902 409.096a13.848 13.848 0 0 0-2.872-3.207c-1.457-1.253-4.547-3.644-6.61-2.572-3.367 1.814-5.459 7.288-7.325 10.378a5.299 5.299 0 0 1-1.764 2.048c-.532.271-1.11.44-1.705.496-7.718 1.188-15.612-.663-23.396-.059-1.734.132-3.564.38-5.145-.35a15.546 15.546 0 0 1-3.885-2.317 10.153 10.153 0 0 0-7.055-2.405c-.153 0 .649.853.663.874.272.394.492.82.656 1.269l-.51-.044a40.523 40.523 0 0 1-4.519-.729c-1.785-.408-3.71.095-5.539-.19l-2.113-.342c-.656-.11-1.414-.605-2.085-.437a1.356 1.356 0 0 0-.729 1.807 3.928 3.928 0 0 0 1.458 1.589 3.994 3.994 0 0 1 1.458 1.582c.473 1.18-.168 2.784.772 3.644.824.729 2.376.364 2.988 1.29.162.338.287.692.372 1.057.569 1.457 2.522 1.734 4.11 1.734a50.362 50.362 0 0 0 6.465-.255c2.777-.35 5.197.343 7.93.525 3.644.248 7.289.802 10.933 1.377 7.07 1.13 14.183 2.45 21.369 2.187 3.593-.146 5.962-1.778 8.52-4.038a169.876 169.876 0 0 0 8.265-7.828c.389-.356.712-.778.955-1.246.641-1.457-.933-4.613-1.662-5.838z"/>
        <path fill="#F5FFFE" d="M458.88 380.978c1.035 4.708 1.997 9.052 2.915 13.184 1.013 4.578-.54 6.852-2.58 10.816-2.04 3.965-4.883 7.427-7.747 10.816-3.295 3.921-7.886-2.63-10.328-5.102-1.589-1.603-8.68-8.228-5.663-10.932 4.373-3.87 6.931-9.475 11.297-13.309"/>
        <path fill="#DCF2F4" d="M447.86 390.613a4.045 4.045 0 0 0-.846-1.254c-2.915-2.915-4.657 1.167-5.531 3.455l-2.296 6.006c-.394 1.02-.627 2.12-.999 3.12a11.21 11.21 0 0 1-1.545 2.52c-.729 1.043 0 1.459.729 2.34.729.882 1.567 1.8 2.398 2.66.83.86 1.574 1.517 2.266 2.348.077.095.165.18.263.255a.262.262 0 0 0 .262-.139c1.458-2.186 2.82-6.56 2.981-7.543a47.6 47.6 0 0 1 1.837-7.289c.475-1.275.774-2.609.889-3.964a5.714 5.714 0 0 0-.408-2.515z"/>
        <path fill="#E2AD79" d="M243.022 495.186a1.224 1.224 0 1 0 0-2.376c-.56.188-.879.777-.73 1.348.176.567.771.89 1.342.729h.05-.546l-.48-.284v-1.254l.488-.284h.539-.044a1.1 1.1 0 0 0-1.348.729 1.13 1.13 0 0 0 .729 1.348v.044z"/>
        <path fill="#FCD685" d="M502.427 198.31c-1.268 2.698-3.046 5.197-2.5 8.914.183 1.24.525 2.45.73 3.688.308 2.701.259 5.431-.146 8.12-.16 1.457-.372 2.995-1.414 3.994-1.662 1.523-4.628.794-6.086-1.014-1.458-1.807-10.32 2.442-10.845.205-.554-2.362 4.001-8.55 1.968-10.03-1.837-1.333-1.086.802-3.098 1.663-3.33 1.457-7.084-1.946-7.704 1.253-.247 1.276-2.295 11.48-5.582 6.793a3.506 3.506 0 0 1-.489-1.53c-.444-2.807-.729-5.656-1.246-8.44-.379-2.136-2.186-3.463-2.493-5.707a11.997 11.997 0 0 1 1.305-7.201 16.763 16.763 0 0 1 2.762-3.644c1.123-1.123 1.232-2.872 1.37-4.46.241-2.814.81-5.715 2.464-8.018a10.145 10.145 0 0 1 6.13-4.33 6.268 6.268 0 0 1 1.603-.189c.503 0 .998.124 1.501.175 2.66.24 4.687-1.516 7.252-1.56a7.288 7.288 0 0 1 5.977 2.916c.976 1.377 1.413 3.054 2.376 4.431a21.632 21.632 0 0 0 2.587 2.835c1.939 1.895 4.519 3.149 4.694 6.188a9.978 9.978 0 0 1-1.116 4.949z"/>
        <path fill="#F9C475" d="M497.952 204.273a8.294 8.294 0 0 0-.459-2.267 3.958 3.958 0 0 0-.459-.867c-.729-1.086-1.931-1.837-1.684-3.397.16-1.013.933-1.778 1.378-2.696a4.482 4.482 0 0 0 .343-2.916 3.302 3.302 0 0 0-.678-1.377 8.425 8.425 0 0 0-1.458-1.028 3.797 3.797 0 0 1-.408-.43c-.408-.48-.416-1.414-.408-2.842.007-1.429-.503-3.112-1.735-3.863l-.204-.117a2.12 2.12 0 0 0-.372-.16 2.084 2.084 0 0 0-1.865.357c-.513.42-.885.987-1.065 1.625a.525.525 0 0 0 0 .234c0 .226.328.16.489.16.16 0 .59.036.845.036.247.013.492.055.73.124.486.141.945.366 1.355.664a4.599 4.599 0 0 1 1.457 2.317 2.974 2.974 0 0 1-.466 0c-.518-.095-1.188 0-1.246.634a18.017 18.017 0 0 0-.088 3.375c.139 1.406.612 2.412.255 3.79a11.239 11.239 0 0 1-1.8 3.892c-.86 1.166-1.946 2.128-2.784 3.309a5.27 5.27 0 0 0-1.1 4.117c.27.943.792 1.794 1.508 2.464 1.982 2.055 5.102 2.274 7.624 1.21 2.113-.962 2.456-4.293 2.295-6.348z"/>
        <path fill="#F9C475" d="M493.332 185.06l-.044-.218a.306.306 0 0 0-.343.095l.139.124a.568.568 0 0 1 .248 0z"/>
        <path fill="#FFA2C0" d="M467.546 256.063c-.186-.19-.4-.35-.635-.473-2.04-.999-7.937.575-9.08-1.458a1.458 1.458 0 0 1-.117-.678c0-2.762 1.21-5.306 1.603-8.017.264-2.583.151-5.19-.335-7.74-.32-2.187-.977-4.533-2.77-5.83a5.772 5.772 0 0 0-1.822-.846 7.747 7.747 0 0 0-8.637 3.644 15.145 15.145 0 0 0-1.253 3.695c-.991 4.06-1.625 8.192-2.515 12.274-.728 3.294-3.462 8.381-2.565 11.705 1.523 2.915 7.004 2.186 9.672 2.135 5.582-.102 11.1-1.224 16.631-1.385 1.684-.05 3.236.73 4.76 1.298 1.45.475 2.924.874 4.416 1.195.773.138-.838-.51-.102-.59.62-3.31-1.581-5.831-4.373-7.289-.728-.364-1.508-.59-2.186-1.005a4.89 4.89 0 0 1-.692-.635z"/>
        <path fill="#FFAECB" d="M467.546 256.063c-.186-.19-.4-.35-.635-.473-2.04-.999-7.937.575-9.08-1.458a1.458 1.458 0 0 1-.117-.678c0-2.762 1.21-5.306 1.603-8.017.264-2.583.151-5.19-.335-7.74-.32-2.187-.977-4.533-2.77-5.83a5.772 5.772 0 0 0-1.822-.846 7.747 7.747 0 0 0-8.637 3.644 15.145 15.145 0 0 0-1.253 3.695c-.991 4.06-1.625 8.192-2.515 12.274-.728 3.294-3.462 8.381-2.565 11.705 1.523 2.915 7.004 2.186 9.672 2.135 5.582-.102 11.1-1.224 16.631-1.385 1.684-.05 3.236.73 4.76 1.298 1.45.475 2.924.874 4.416 1.195.773.138-.838-.51-.102-.59.62-3.31-1.581-5.831-4.373-7.289-.728-.364-1.508-.59-2.186-1.005a4.89 4.89 0 0 1-.692-.635zM509.176 236.618c-.27 1.582.43 3.141.868 4.68.94 3.257 1.887 7.426-1.072 9.613-1.99 1.457-4.373 2.514-6.494 3.811-2.273 1.4-11.245 6.37-8.119 10.11 2.026 2.419 4.373.138 6.56-.57 2.915-.932 5.78-1.26 8.666-2.557 4.249-1.895 10.866-4.33 13.155-8.82 1.458-2.834.248-7.288 0-10.276-.24-2.871-.649-6.064-2.915-7.871"/>
        <path fill="#ED9DBE" d="M517.099 250.4l-3.768-2.427a5.641 5.641 0 0 0-1.793-.852.517.517 0 0 0-.532.109.612.612 0 0 0-.08.277 5.597 5.597 0 0 1-.54 1.61 5.379 5.379 0 0 1-.48.846 6.778 6.778 0 0 1-1.976 1.625c.093.04.191.068.292.08h.444c.357 0 .73.044 1.072.059.692 0 1.392.036 2.091 0a31.857 31.857 0 0 0 4.162-.365c.458-.013.891-.21 1.203-.546a.306.306 0 0 0 .072-.27.415.415 0 0 0-.167-.146z"/>
        <path fill="#5E64B6" d="M470.716 210.307c6.457-.16 12.835-.058 19.292-.211 4.14-.102 8.185-1.312 12.332-1.29 3.753 0 6.895-.408 10.473 1.312a11.035 11.035 0 0 1 5.211 4.927 30.56 30.56 0 0 1 1.385 4.081c.729 2.238 1.764 5.03 3.207 6.91 1.443 1.88 3.017 3.483 4.125 5.706.73 1.509 1.349 3.236.875 4.854-.729 2.551-4.213 3.324-6.407 4.17a25.94 25.94 0 0 1-6.144 1.64c-1.34.167-3.717.772-4.759-.394a3.28 3.28 0 0 1-.605-1.312c-.16-.569-.692-3.834-1.457-3.9-.766-.065-.503 3.069-.518 3.586a11.77 11.77 0 0 1-.991 4.643c-.729 1.458-2.04 2.522-2.915 3.892-2.828 4.33-1.188 7.099-1.108 11.661-5.102 1.735-10.692 1.596-16.115 1.458l-15.036-.445c-5.356-.153-4.329-3.287-3.556-7.215.816-4.184-2.763-4.73-2.988-8.36-.052-.86.109-1.72.08-2.587a2.915 2.915 0 0 0-.97-2.26c-.211 1.02.27 1.728-.729 2.522-2.011 1.647-5.553 1.261-7.973 1.356-2.85.116-5.772.605-8.615.554-8.396-.146-2.572-11.75-.78-15.772 1.414-3.178 2.675-6.05 3.849-9.351a12.58 12.58 0 0 1 2.31-4.373c2.143-2.369 5.612-3.076 8.571-3.885 2.96-.809 6.786-1.844 9.956-1.917z"/>
        <path fill="#FFAECB" d="M467.72 210.009c-.327.047-.637.18-.896.386-1.18 1.064 4.548 2.915 5.357 3.6 1.297 1.05 1.669 2.187 2.31 3.644 1.32 3.01 3.95 10.131 7.646 10.984 4.453 1.02 7.208-4.016 7.733-7.558.078-1.187.283-2.362.612-3.506.729-1.96 3.156-3.556 4.832-4.642 1.808-1.174 5.102-4.308 1.516-4.17-1.859.066-3.753.73-5.597.467-1.072-.146-3.17-.131-3.557-1.458-.19-.67-.43-4.14.89-3.753.728.226 2.339.62 3.002.066.663-.554.554-1.968.729-2.734.204-1.056.656-1.457 1.115-2.28.729-1.276.4-2.187.218-3.237a5.262 5.262 0 0 1-.05-1.807c.203-1.363.816-2.034.655-3.542a15.306 15.306 0 0 0-.444-2.493c-.445-1.625-1.261-3.396-3.149-3.6-2.441-.256-4.613 1.72-6.756 2.565-1.203.467-4.665 1.458-5.058 2.952-.583 2.26-1.334 4.482-1.778 6.785-.73 3.572.794 9.038-2.58 11.538a6.727 6.727 0 0 1-2.479 1.078c-1.399.321-2.886.408-4.27.715z"/>
        <path fill="#ED9DBE" d="M488.106 203.53c-.343-.249-1.414-.103-1.822-.321-.872-.601-1.827-1.07-2.835-1.392-1.166-.22-2.187-.073-3.375-.576a2.23 2.23 0 0 0-1.079-.285c-.378.037-.728.387-.648.73a.882.882 0 0 0 .226.356c1.385 1.524 3.469 1.94 4.81 3.382.452.481 3.6 4.555 3.987 1.808.04-.787.127-1.57.262-2.347.124-.445.729-.729.561-1.261a.204.204 0 0 0-.087-.095z"/>
        <path fill="#FCD685" d="M489.92 180.265a5.102 5.102 0 0 0-1.967-.474c-2.806-.255-5.605.663-8.127 1.924a6.297 6.297 0 0 0-2.303 1.67c-1.202 1.566-1.363 3.716-1.253 5.597.138 2.296-.059 4.49 1.29 6.508a25.137 25.137 0 0 0 3.105 3.6c.129.146.278.271.444.372a1.013 1.013 0 0 0 1.458-.823c0-.904-.868-2.332-1.254-3.185-.583-1.283-1.006-2.42-.444-3.827 1.086-2.71 3.986-3.17 6.085-4.78a10.342 10.342 0 0 0 3.484-4.563c.386-1.057.095-1.662-.517-2.019z"/>
        <path fill="#FFAECB" d="M481.27 266.143c-1.903-.62-3.645.11-5.583-.146a8.25 8.25 0 0 1-4.133-2.084c-2.587-2.114-6.173-2.69-9.008-4.533a1.509 1.509 0 0 1-.467-.416 1.407 1.407 0 0 1-.138-.729c.006-.782.082-1.563.226-2.332.023-.181.091-.354.197-.503.23-.197.529-.294.83-.27 2.427-.094 4.854-.167 7.289-.167 1.94.004 3.872-.254 5.743-.765a5.05 5.05 0 0 1 4.307.532 25.859 25.859 0 0 0 3.958 2.07c2.267.889 3.826 2.58 5.634 4.205.213.164.377.383.473.634.056.33-.008.669-.182.955l-1.166 2.587a7.208 7.208 0 0 1-1.013 1.75 3.513 3.513 0 0 1-2.915 1.158c-1.407-.146-2.427-1.312-3.703-1.83l-.35-.116z"/>
        <path fill="#ED9DBE" d="M458.027 258.345c.19 0 .379 0 .561.043.763.134 1.54.159 2.31.073a7.143 7.143 0 0 0 1.64-.466c.518-.226.963-.583 1.458-.802a5.597 5.597 0 0 1 3.236-.474 2.799 2.799 0 0 1 1.4 1.203c.595.87 1.268 1.685 2.011 2.434.882.904 2.507.612 3.178 1.779.089.205.199.4.328.583.955 1.115 1.793-1.4 1.822-2.02.036-.874-.058-1.821.415-2.557.226-.343.547-.605.73-.962.164-.416.281-.849.349-1.29.211-.73 1.21-.846 1.334-1.458a.423.423 0 0 0-.131-.386 6.144 6.144 0 0 0-2.471.175 21.632 21.632 0 0 1-5.743.765c-2.427 0-4.854.073-7.289.167a1.582 1.582 0 0 0-.612.117c-1.458 0-2.915 0-4.162-.794a1.975 1.975 0 0 0-1.05-.481 1.684 1.684 0 0 0-.59.153c-1.807.728-3.644 1.457-5.364 2.361a5.678 5.678 0 0 0-1.654 1.108.612.612 0 0 0-.197.342.488.488 0 0 0 .306.46c.187.067.386.092.583.072l5.532-.065c.693-.037 1.392-.102 2.07-.08z"/>
        <path fill="#FFAECB" d="M490.664 272.287c1.53-1.282 3.404-1.253 5.102-2.223a8.177 8.177 0 0 0 3.046-3.49c1.611-2.916 4.716-4.804 6.655-7.58.13-.162.223-.352.27-.555a1.377 1.377 0 0 0-.146-.728 13.41 13.41 0 0 0-1.086-2.078 1.071 1.071 0 0 0-.372-.393 1.137 1.137 0 0 0-.867.065 178.777 178.777 0 0 0-6.815 2.573 21.493 21.493 0 0 1-5.612 1.458 5.05 5.05 0 0 0-3.79 2.106 25.24 25.24 0 0 1-2.915 3.404c-1.764 1.676-2.58 3.834-3.644 6.013-.14.23-.213.495-.212.765.079.325.267.613.532.816l2.056 1.96c.465.492 1 .912 1.588 1.247a3.506 3.506 0 0 0 3.164 0c1.253-.663 1.763-2.12 2.755-3.083l.291-.277z"/>
        <path fill="#ED9DBE" d="M485.373 269.263l1.202.08c.298.032.599.012.89-.059a2.53 2.53 0 0 0 .67-.371 26.238 26.238 0 0 0 2.682-2.23 8.49 8.49 0 0 0 1.67-2.785 5.102 5.102 0 0 0 .51-2.099c0-.772-.35-2.485-1.327-2.63-.157-.014-.314-.001-.467.036l-1.69.306c-.372.073-1.254.182-.576.663.466.328.525 1.086.729 1.618.307.56.422 1.205.328 1.837-.365 1.385-1.56 1.72-2.792 2.033-.853.219-1.523.824-2.39.926l-1.728.153c-.153 0-.4-.037-.532.044-.131.08-.364.546-.48.728-.117.183-.35.634-.518.955a.138.138 0 0 0 0 .117c0 .044.05.065.094.087a5.83 5.83 0 0 0 1.844.387c.62.087 1.247.153 1.88.204z"/>
        <path d="M456.14 486.462l-2.187 4.606 2.325-4.62zM431.49 489.654l.598-.08a97.776 97.776 0 0 1-2.47-.452l1.872.532z"/>
        <path fill="#CEEFEE" d="M564.056 192c-16.034 0-33.84.08-50.544 0-2.245 0-4.104.204-5.46 1.552-1.355 1.349-1.763 2.537-1.763 4.745 0 4.125-.102 17.492-.117 19.234 0 .649-.991.794-1.647.773-1.246 0-2.718-1.006-3.732-2.005a.649.649 0 0 0-1.093.343 7.864 7.864 0 0 0 1.647 6.253c1.458 1.902 3.645 2.464 4.628 3.929.335 1.083.553 2.2.65 3.33.218 2.755 1.318 4.191 3.942 5.051 1.356.437 7.383.255 10.677.219 4.417-.051 8.827.05 13.236 0 7.288-.088 26.967-.328 29.467-.328 3.527 0 5.583-1.254 5.583-5.102v-32.936c0-2.864-1.567-5.058-5.474-5.058z"/>
        <path fill="#F4FFFF" d="M516.392 202H559.9a1.8 1.8 0 1 1 0 3.6h-43.51a1.8 1.8 0 0 1 0-3.6zm0 10H559.9a1.8 1.8 0 1 1 0 3.6h-43.51a1.8 1.8 0 0 1 0-3.6zm0 10h18.107a1.8 1.8 0 0 1 0 3.6h-18.107a1.8 1.8 0 0 1 0-3.6z"/>
        <g>
            <path fill="#CEEFEE" d="M609.412 130.023a4.745 4.745 0 0 0-2.128-2.799c-1.888-1.188-4.257-1.224-6.487-1.224-9.708 0-19.416.24-29.095.095-10.036-.153-24.38.094-34.379.554-4.883.226-6.705 2.798-6.705 7.682 0 8.017-.059 26.624 0 35.13 0 4.256 1.662 7.156 5.029 8.148 2.441.728 7.397.728 9.948.772 3.061 0 6.13-.036 9.19 0 12.26.153 24.526-.153 36.785 0a5.102 5.102 0 0 1 2.186.357c1.123.547.992 1.706 1.458 2.668a10.094 10.094 0 0 0 2.784 3.243 7.624 7.624 0 0 0 7.442 1.305c-1.458.56-3.295-5.058-3.17-5.97.59-4.285 6.187-1.975 7.805-5.67a8.928 8.928 0 0 0 .437-3.98c-.328-7.725-.597-30.902-.765-34.764-.051-1.903.175-3.87-.335-5.547z"/>
            <path fill="#F4FFFF" d="M541.392 155h58.666a1.8 1.8 0 0 1 0 3.6h-58.666a1.8 1.8 0 0 1 0-3.6zm0-10h58.666a1.8 1.8 0 0 1 0 3.6h-58.666a1.8 1.8 0 0 1 0-3.6zm0-10h58.666a1.8 1.8 0 0 1 0 3.6h-58.666a1.8 1.8 0 0 1 0-3.6zm0 30.202h35.013a1.8 1.8 0 1 1 0 3.6h-35.013a1.8 1.8 0 0 1 0-3.6z"/>
        </g>
        <g transform="translate(41.864 245.685)">
            <path fill="#FFA2C0" d="M17.23 40.013c2.857-2.187 5.043-2.639 4.795-6.888a105.44 105.44 0 0 0-2.405-15.72 3.47 3.47 0 0 1 1.793-3.645h.044l.32-.211c1.137-.824 8.542-5.947 10.284-4.869 1.145.73 3.054-.874 4.235-.962 1.946-.145 4.256 1.174 6.056 1.852.321.093.611.272.839.517.165.257.268.549.298.853.255 1.4.197 2.34 1.064 3.49a32.74 32.74 0 0 0 2.872 3.077c.627.655 1.552 1.603.875 2.405-.489.583-1.596.335-2.129.969-.772.926-.16 1.603-.094 2.536a7.39 7.39 0 0 1-.868 3.484c-1.304 2.711-5.83 2.034-5.371 5.83.124 1.058.816 1.998.89 3.062-.028.68-.106 1.357-.234 2.026-.372 3.928 5.175 6.975 7.857 8.957.889.656 3.2 1.852 3.49 3.04.132.554 0 1.363-.8 1.42 0 0-37.237 2.64-41.136.117-1.851-1.173 3.134-8.155 7.325-11.34z"/>
            <path fill="#7F5D6B" d="M46.85 25.458c.31.635.4 1.356.254 2.048-.17.43-.417.824-.728 1.166l-1.13 1.458c-.224.315-.489.6-.787.845-1.604 1.188-5.503.831-7.34.598a2.493 2.493 0 0 1-.998-.277c-.911-.547-.663-3.28-.729-4.234a14.008 14.008 0 0 0-1.05-5.62 12.529 12.529 0 0 1-1.158-2.667 14.234 14.234 0 0 1 0-2.23c-.08-1.925-.73-5.67 2.398-5.489 1.734.102.787 1.414.247 2.187a2.252 2.252 0 0 0-.328 2.449c.73 2.062 1.808 4.329 3.645 5.619 1.836 1.29 2.288.124 3.972-.35.976-.27 2.915-.364 3.469.729.445.926-.153 1.771-.088 2.682.067.376.185.742.35 1.086z"/>
            <path fill="#DD8EAF" d="M22.295 26.74c1.028.096 1.982.43 2.988.54.642.066 1.261-.182 1.895-.124a1.72 1.72 0 0 1 1.509 1.407c.37 1.082.67 2.187.896 3.309.255 1.567.831 3.046 1.181 4.606a16.26 16.26 0 0 0 1.83 5.146c.728 1.173.284 1.661-.78 2.28a7.784 7.784 0 0 1-2.413.912c-2.33.438-4.72.473-7.062.102-1.545-.211-3.644-.598-4.89-1.647a1.662 1.662 0 0 1-.62-1.662c.156-.396.406-.749.729-1.028a12.39 12.39 0 0 0 3.462-6.056c.524-2.274-.066-4.869 0-7.216 0-.247.058-.554.284-.641a.685.685 0 0 1 .364 0c.207.038.417.063.627.073z"/>
            <path fill="#7F5D6B" d="M22.769 12.623c1.516-.809 3.2-1.457 4.416-2.39 1.356-1.072 2.755.94 3.798-.284 1.705-1.99 4.132-3.732 6.85-3.754 1.327 0 3.645.765 3.222 2.558-.488 2.223-5.102 2.223-6.56 3.506-1.763 1.552-1.268 3.221-.138 4.963.357.547 2.063 2.187.948 2.697-1.116.51-2.362-1.64-3.645-1.327a1.764 1.764 0 0 0-1.29 1.976c.153.728.773 1.26 1.072 1.931.525 1.188 0 2.595.357 3.834.09.206.125.432.102.656a.977.977 0 0 1-.415.524c-1.808 1.37-3.776 1.283-5.882 1.538-4.6.561-4.657-2.711-6.334-5.954-.729-1.458-1.603-2.916-1.742-4.607a6.027 6.027 0 0 1 .117-2.427c.576-1.683 3.637-2.645 5.124-3.44z"/>
            <path fill="#5C6451" d="M25.823 15.852a27.79 27.79 0 0 1-6.32 1.64c-.823.117-1.822-.139-1.938.83-.197 1.59.845 4.097 1.326 5.598l1.115 3.462c.095.387.283.745.547 1.042.37.3.823.477 1.297.51 2.056.466 4.196.41 6.225-.16.128-.03.249-.085.357-.16a.991.991 0 0 0 .291-.83 5.335 5.335 0 0 0-.197-1.174c-.539-2.187-1.239-4.264-1.734-6.421a41.186 41.186 0 0 1-.729-4.373"/>
            <path fill="#007E8C" d="M42.556 9.898c.846-1.895-2.507-6.509-3.994-7.77C36.456.343 33.461.233 30.677.415c-4.373.277-9.286.977-12.12 4.541-2.836 3.564-4.374 8.192-2.377 12.623.064.178.166.34.299.474.663.576 4.293-.67 5.328-.91 2.85-.65 5.677-1.91 8.447-2.843l5.83-1.954c1.553-.517 5.059-.954 6.225-2.062.106-.112.19-.243.247-.386z"/>
            <rect width="20.903" height="3.477" x="32.058" y="7.442" fill="#007E8C" rx="1.538" transform="rotate(167.06 42.51 9.18)"/>
            <path fill="#FFA2C0" d="M95.827 16.107c.656-.357 1.13-.845.998-1.538-.073-.357-.291-.728-.19-1.056.14-.46.78-.613.948-1.065.204-.59-.517-1.115-.554-1.734-.036-.62.73-1.32.489-1.953a1.071 1.071 0 0 0-.54-.489c-2.077-.947-7.82 2.034-9.744 2.967-4.978 2.397-4.6 3.644-5.83 10.203-.73 3.907-3.834 12.82-5.329 16.355-1.319 3.12-2.091 6.982-4.613 9.417-3.644 3.535-9.132-2.34-12.959.998a13.316 13.316 0 0 0-2.915 4.439c-1.582 3.28-3.207 6.749-2.915 10.378.004.81.273 1.595.765 2.238 1.006 1.115 2.77.947 4.242.67a177.325 177.325 0 0 0 24.693-6.56c.385-.102.743-.289 1.05-.546.343-.415.559-.921.619-1.457a130.833 130.833 0 0 0 2.572-28.425c0-1.516-.24-3.578.525-4.97.576-1.05 1.676-1.283 2.42-2.23.838-1.08.692-2.741 1.458-3.645.539-.867 3.95-1.523 4.81-1.997z"/>
            <path fill="#DD8EAF" d="M76.003 49.925c.138-1.21-.766-1.494-1.524-2.187-.517-.459-1.844-1.843-2.521-1.049a3.812 3.812 0 0 1-1.618.926 5.933 5.933 0 0 1-1.152.174c-.415.066-.838.117-1.26.146-.278 0-1.225-.102-1.415.073-.357.343.46.518.627.576a94.63 94.63 0 0 0 6.064 1.633 7.04 7.04 0 0 0 2.186.262.51.51 0 0 0 .583-.474.43.43 0 0 1 .03-.08z"/>
            <path fill="#FFA2C0" d="M97.03 10.714c-.044-.685.728-1.32.488-1.953a1.071 1.071 0 0 0-.54-.489c-2.077-.947-7.82 2.034-9.744 2.967-4.978 2.397-4.6 3.644-5.83 10.203l-.285 1.567a20.21 20.21 0 0 1 3.928-7.704 5.554 5.554 0 0 1 4.716-2.186c.962 0 3.236 0 3.287 1.4.044 1.282-1.844.99-2.587 1.173a2.587 2.587 0 0 0-1.64 1.414 4.818 4.818 0 0 0-.416 2.077c-1.377.48-3.527 1.385-2.565 3.352.874 1.793 3.323-.59 3.935-1.537.42-.706.76-1.457 1.014-2.238.553-1.53 3.36-2.084 4.948-2.915.73-.365 1.196-.787 1.086-1.378-.073-.35-.291-.729-.19-1.05.14-.458.78-.611.948-1.063.204-.496-.517-1.02-.554-1.64zM16.56 236.324v17.594c0 6.953 10.8 6.967 10.8 0v-17.594c0-6.946-10.8-6.96-10.8 0zM62.68 213.949l-3.645 30.72c-.809 6.91 9.985 7.441 10.787.561l3.586-30.72c.809-6.91-9.985-7.449-10.787-.561h.059z"/>
            <path fill="#5E64B6" d="M77.402 177.354c.204-3.04.364-6.071.46-9.11.094-3.04-.096-6.443-1.459-9.155a37.666 37.666 0 0 0-3.95-5.78 126.904 126.904 0 0 1-9.57-15.472c-6.158-11.217-11.792-22.689-17.535-34.132-4.563-9.095-18.68-5.386-26.726-6.435-5.831-.765-9.06 2.697-10.634 8.09-2.048 7.026-5.4 13.899-6.304 21.187-.948 7.638-.204 15.378.648 22.987a754.779 754.779 0 0 0 3.513 27.193c1.232 8.345 3.17 16.392 2.558 24.824-1.26 16.122-2.959 27.339-1.275 43.453.01 1.01.342 1.99.947 2.799a4.614 4.614 0 0 0 2.74 1.151c6.983 1.232 12.471.656 19.388-1.122 1.035-.277 2.186-.62 2.777-1.523.379-.668.589-1.419.612-2.187 2.026-17.324 1.115-29.569 3.804-46.798.35-1.774.525-3.578.525-5.386a31.384 31.384 0 0 0-.729-4.643c-1.567-7.886-1.669-15.969-1.457-23.986 0-1.457-.73-7.616 1.195-7.565 1.458.044 2.755 3.914 3.163 4.883 2.536 6.057 9.147 12.908 8.017 19.883a162.53 162.53 0 0 0-2.026 29.802c.095 3.731-.445 10.619-.35 14.277.066 2.413.787 4.891.67 7.289-.13 2.82-1.07 4.832 1.247 7.237 1.859 1.932 3.433 1.538 5.685 1.545 4.657 0 9.664 1.698 14.278.838 2.726-.503 9.27-1.158 9.387-4.249.139-3.44-.568-6.763-.729-10.16-.422-7.973-1.457-19.445-.729-27.411.605-6.96 1.32-13.913 1.815-20.881-.022-.46.007-.962.044-1.443z"/>
            <path fill="#FFF" d="M47.695 43.431c.568.153 1.13.284 1.69.416l-1.69-.416z"/>
            <path fill="#FFF" d="M62.46 46.645a2.799 2.799 0 0 0-.692-1.137 2.974 2.974 0 0 0-1.902-.466c-4.744-.073-10.08-.24-13.971-3.295-.788-.619-1.604-1.384-2.61-1.377a3.644 3.644 0 0 0-1.457.394c-3.856 1.625-6.472 2.317-10.692 1.814-1.932-.233-3.79-.728-5.7-1.078-1.457-.372-2.762-.911-4.19-1.414-1.94-.67-5.481-.612-7.209.525a10.816 10.816 0 0 0-2.915 3.148C7.033 49.91 5.204 57.235 4.278 64.472c-.48 3.717-2.288 5.882-1.727 9.592.532 3.527-.59 7.077-.948 10.626-.553 5.496.73 11.027.525 16.552-.167 4.482-1.334 8.877-1.516 13.36a30.822 30.822 0 0 0 1.108 9.547c.084.41.273.792.547 1.108.432.329.965.499 1.508.481 3.308.169 6.623.093 9.92-.226 7.774-.568 15.548-1.21 23.322-1.924 3.827-.35 7.879-1.458 11.72-1.21 2.558.153 5.393.503 6.982-2.186.729-1.261.729-2.836.532-4.293-1.457-13.403-7.055-25.393-5.75-39.16.182-1.924-.43-6.05.532-7.69 1.064-1.807 4.417-.976 6.26-.969 1.735 0 4.585.102 5.7-1.53.991-1.458.918-4.89 1.057-6.618.415-4.453.13-9.125-1.59-13.287z"/>
            <path fill="#DCF2F4" d="M49.816 81.848a34.809 34.809 0 0 0-1.633-3.9 15.808 15.808 0 0 0-2.04-2.266 35.443 35.443 0 0 1-5.911-7.412c-1.254-2.26-2.362-4.694-4.68-6.064-.67-.401-5.896-2.981-5.48-.919.087.467.568.73.976.97 2.187 1.312 3.6 3.644 4.89 5.83.963 1.662 1.903 3.331 2.916 4.978.729 1.167 2.442 2.223 2.47 3.645 0 .51-.196 1.005-.145 1.508.147.566.394 1.102.729 1.582.823 1.662.408 3.782 1.406 5.342 1.342 2.114 5.489 2.048 7.53 1.305.444-.131-.234-2.427-1.028-4.6z"/>
            <path fill="#FFA2C0" d="M88.998 80.171c.11-.82.389-1.608.816-2.317.328-.401.86-.824.678-1.312a.816.816 0 0 0-.525-.437 2.223 2.223 0 0 0-1.8.262c-.649.394-1.057 1.05-1.67 1.458a8.87 8.87 0 0 1-2.28.772 5.277 5.277 0 0 0-3.39 3.71"/>
            <path fill="#FFD3A0" d="M93.582 137.793c-.197-8.447.729-16.865.78-25.305.102-29.255.78-58.51.35-87.766a973.981 973.981 0 0 0-.489-20.349 5.83 5.83 0 0 0-.342-2.187c-.481-.954-2.631-.78-3.47-.4-.838.379-.553 2.055-.568 2.857 0 .976-.036 1.946-.058 2.915-.059 2.988-.122 5.979-.19 8.972-.087 4.16-.177 8.32-.27 12.485-.517 23.147-.357 45.916-.386 69.064-.335 11.566-.379 23.133-.284 34.7.051 5.961-.102 12.156 0 18.373.16 12.354 1.232 24.832 6.56 35.866 2.791 5.743 9.474 11.77 11.143 18.469 1.276 5.182-4.307 11.268-11.041 15.014-4.862 2.711-7.784 11.515-4.118 16.202 4.562 5.83 12.477 7.062 19.627 7.572 11.223.8 22.499.424 33.643-1.122 4.074-.561 8.207-1.283 12.274-.729.976.131 2.04.408 2.565 1.203 1.159 1.763-1.348 3.644-3.418 4.336a136.707 136.707 0 0 1-42.046 6.786c0 1.457-1.05 5.495-.08 6.792 1.99 2.66 9.044 0 11.66-.277 5.78-.678 11.567-1.64 17.26-2.835 8.906-1.851 28.074-3.571 23.089-16.61a9.344 9.344 0 0 0-5.736-5.437 15.356 15.356 0 0 0-4.074-.656c-8.746-.488-16.567 2.07-25.145 3.003-8.578.933-17.193.372-25.218-2.755-2.113-.824-4.212-1.917-5.546-3.68-3.564-4.753 1.888-8.645 5.452-11.283 4.176-3.105 8.017-5.874 7.908-11.42-.11-5.547-2.639-10.707-5.722-15.386-2.186-3.353-5.277-6.108-7.478-9.475-3.79-5.831-3.994-12.157-4.657-18.753-.503-5.015-1.195-10.022-1.275-15.065l-.7-13.12z"/>
            <path fill="#F7C79A" d="M165.773 241.856a9.344 9.344 0 0 0-5.736-5.438 15.356 15.356 0 0 0-4.074-.656c-5.313-.298-10.32.773-15.546 1.458-5.743.729-11.428 1.851-17.164 2.617-4.929.745-9.92.989-14.898.728-3.899-.276-9.343-.728-12.652-3.06-2.806-1.998-3.39-6.137-2.136-9.344s3.914-5.634 6.67-7.697c3.702-2.77 10.094-6.005 10.094-11.333 0-3.958-2.996-8.06-5.066-11.195-2.186-3.353-5.451-6.85-7.645-10.204-3.79-5.83-5.102-14.642-5.758-21.238-.503-5.014.073-11.085 0-16.129v-.94l-.204-21.493c-.131-13.12-.26-26.253-.386-39.4 0-.679.05-1.371 0-2.042a3.127 3.127 0 0 1-.102-1.268c.408-1.275 2.23-1.13 3.2-1.618a.67.67 0 0 0 .283-.226.787.787 0 0 0 .059-.452c-.051-.728 0-1.158-.73-1.523-.728-.364-2.003-67.92-2.025-69.18 1.035-.19 0 0 .91-.533 2.515-1.457-.415-2.186-.91-2.704-.678-.655-.153-2.266 0-3.039.233-1.071.772-2.587.175-3.6a1.028 1.028 0 0 0-1.327-.467 1.458 1.458 0 0 0-.532.875l-.525 1.603c-.08.22-.14.448-.182.678a4.912 4.912 0 0 0 0 .868c0 1.027-.058 2.055-.065 3.082.082.894.113 1.792.094 2.69-.218 1.64.102 3.294.066 4.941-.088 4.16-.177 8.321-.27 12.485-.517 23.148-.357 45.917-.386 69.064-.335 11.567-.38 23.133-.284 34.7.05 5.962-.102 12.157 0 18.374.16 12.354 1.231 24.831 6.56 35.866 2.79 5.743 9.474 11.77 11.143 18.468 1.275 5.182-4.307 11.268-11.042 15.014-4.861 2.711-7.784 11.516-4.118 16.202 5.365 6.851 16.938 8.615 25.007 7.69 5.706-.657 11.165-1.08 16.843-2.02a215.115 215.115 0 0 1 19.576-2.34c2.252-.16 4.577-.283 6.735.409 2.157.692 4.14 2.383 4.526 4.614a6.144 6.144 0 0 1-2.056 5.335 13.527 13.527 0 0 1-5.225 2.762c-8.958 2.915-18.63 2.062-28.01 2.915-2.71.248-5.415.642-8.133.78-1.516.08-5.284-.729-6.122.729-.73 1.246.517 4.118 1.91 4.264 4.088.422 8.199-.175 12.25-.868 11.662-2.004 13.703-2.099 14.17-2.55 6.479-6.334 28.023-3.616 23.038-16.654z"/>
            <path fill="#FFA2C0" d="M92.197 79.741c-2.445.397-4.92.58-7.397.547-2.406 0-3.44 2.085-5.525 2.813-2.5.868-5.947.409-8.593.503l-19.482.67a9.985 9.985 0 0 1-2.288-.101c-1.946-.401-3.426-1.932-4.832-3.331a48.832 48.832 0 0 0-4.33-4.009c-1.508-1.158-2.915-.852-4.635.073-2.12 1.13-4.169 2.369-6.304 3.462-2.916 1.458-6.1 2.704-8.09 5.277a.962.962 0 0 0-.277.947 32.929 32.929 0 0 1 7.252 5.24c2.026 2.078 4.292 4.024 6.508 5.89 2.216 1.866 4.635 3.826 7.529 4.19 7.69.963 17.44-4.103 24.613-6.326 5.058-1.567 11.508-4.992 16.865-3.753 2.616.612 4.978-1.276 7.696-1.028 1.414.131 3.134.328 3.98-.809.845-1.137.255-2.04 1.027-3.148.408-.583 1.115-.897 1.567-1.458 1.123-1.378.219-3.433 1.232-4.788.474-.642 2.398-1.88.882-2.639-.86-.437-2.915.496-3.797.729-1.196.299-2.303.816-3.491 1.042l-.11.007zM85.507 14.839a15.495 15.495 0 0 1 6.464-3.127c.42-.148.884-.11 1.276.102 1.078.802-.336 2.719-1.145 3.112-.634.314-1.457.365-1.902.897-.729.816-.634 2.791-1.297 3.746-.911 1.334-2.318 2.085-3.258 3.404a8.112 8.112 0 0 0-1.115 3.68"/>
            <path stroke="#000" stroke-width=".5" d="M92.598 6.013h2.296M92.598 19.57h2.296M92.598 26.355h2.296M92.598 33.133h2.296M92.598 39.91h2.296M92.598 46.689h2.296M92.598 53.474h2.296M92.598 60.253h2.296M92.598 67.03h2.296M92.598 73.809h2.296M92.598 94.974h2.296M92.598 100.929h2.296M92.598 107.707h2.296M92.598 114.492h2.296M92.226 121.27h2.296M91.862 128.048h2.288M92.598 134.827h1.552M92.598 141.612h1.552M93.02 148.39h1.553"/>
            <path fill="#DCF2F4" d="M63.153 60.785c-1.785-.234-3.6-.336-5.393-.503a12.922 12.922 0 0 1-4.876-1.115c-.765-.409-1.509-.984-2.376-.962-1.166.036-2.026 1.239-2.106 2.397a7.055 7.055 0 0 0 .874 3.353c.292.598.576 1.188.86 1.786.41 1.085.69 2.215.831 3.367-.05-.226.685-.663.846-.729.306-.168.65-.255.998-.255.962 0 1.946.153 2.915.182a38.628 38.628 0 0 0 4.373-.328c.7-.021 1.39-.164 2.041-.423.991-.459 1.312-1.399 1.509-2.397.24-1.238.38-2.494.415-3.754a.67.67 0 0 0-.065-.357c-.095-.211-.642-.24-.846-.262z"/>
            <path fill="#2F355B" d="M14.577 251.52a.729.729 0 0 0-.67.729 604.337 604.337 0 0 0-.227 8.243c-.05 2.747 1.83 5.014 4.191 5.102l31.53.809c1.5.043 2.186-4.927-1.932-6.108l-14.533-5.4-2.784-2.187c-.3-.153-2.281-2.624-4.17.62-2.003 3.447-4.423.415-6.18-.912-1.457-1.093-2.186-1.013-3.768-.99l-1.457.094zM57.913 244.268a.729.729 0 0 0-.663.729c0 1.516-.102 5.371-.11 8.236 0 2.755 1.895 4.992 4.257 5.021l31.536.394c1.502 0 2.187-4.964-2.011-6.086l-14.577-5.204-2.813-2.186c-.299-.146-2.318-2.588-4.155.678-1.96 3.469-4.424.473-6.202-.831-1.458-1.072-2.186-.984-3.775-.933l-1.487.182z"/>
        </g>
    </g>
</svg>
