<svg xmlns="http://www.w3.org/2000/svg" width="620" height="447" viewBox="0 0 620 447">
    <defs>
        <filter id="a" width="130.1%" x="-15.1%" filterUnits="objectBoundingBox">
            <feGaussianBlur in="SourceGraphic" stdDeviation="6.912"/>
        </filter>
    </defs>
    <g fill="none" fill-rule="evenodd">
        <path fill="#EBF7F7" d="M550.19 93.456c-8.295-9.262-18.518-16.347-29.722-22.056a76.252 76.252 0 0 0-6.414-3.456 173.53 173.53 0 0 0-24.254-9.193v.318c-7.797-2.543-15.586-4.838-23.093-7.001a531.03 531.03 0 0 1-79.909-30.53C328.227-6.428 257.691-9.566 201.503 27.64c-15.074 9.98-28.677 22.643-45.5 29.258-16.824 6.615-35.618 6.615-53.554 9.677C45.453 76.176-1.382 120.959.415 181.148c.49 16.588 4.68 33.378 14.28 46.904 7.554 10.645 18.109 18.814 29.21 25.685a192.615 192.615 0 0 0 111.738 28.27c25.235-1.48 49.876-7.928 74.649-12.905a646.61 646.61 0 0 1 142.226-12.441c42.592.995 81.983 1.686 122.397-10.576l.497 18.068c24.835-10.015 51.563-21.641 64.468-45.107 4.52-8.205 7.002-17.363 9.18-26.48 2.709-11.35 5.017-22.878 5.183-34.56a96.02 96.02 0 0 0-24.053-64.55z"/>
        <path stroke="#19CCC7" stroke-linecap="round" stroke-linejoin="round" d="M163.446 227.057V179.6a14.01 14.01 0 0 0-14.017-14.01h-4.189a14.017 14.017 0 0 1-14.017-14.018v-13.568M260.552 147.832V71.56M250.627 121.602h-13.299c-5.787 0-10.479-4.692-10.479-10.479a10.478 10.478 0 0 0-10.506-10.478h-10.215"/>
        <path fill="#DCF2F4" d="M544.494 314.493l.58-1.079c13.237-24.565 9.505-71.24-5.529-94.5-21.69-33.495-70.64-37.29-106.616-39.964-46.124-3.456-92.475 1.05-138.142 7.465-72.555 10.181-145.261 25.09-218.355 20.376-14.563-.947-30.053-2.488-42.971 4.3-21.427 11.273-17.916 52.972-25.367 73.397-4.956 13.582-6.22 28.339-4.915 42.716 2.668 29.534 16.423 57.901 36.751 79.328 8.543 8.986 18.248 17.031 29.3 22.671 9.953 5.087 20.812 8.15 31.746 10.458 45.336 9.56 91.929 6.456 137.9 6.269a294.02 294.02 0 0 0 87.243-13.7c28.014-8.854 52.662-23.445 79.01-36.024 27.966-13.34 59.843-23.902 90.933-26.155 25.201-1.825 37.947-35.721 48.432-55.558z"/>
        <path fill="#FFF" d="M231.992 23.584h74.02v50.409h-74.02z"/>
        <path fill="#2FC8AD" d="M242.2 55.765a15.296 15.296 0 0 0 12.014-.774c1.873-.974 3.331-2.412 4.907-3.794 3.277-2.869 5.8-3.104 10.043-2.496 4.244.609 7.32 0 10.693-2.668 4.037-3.186 9.331-10.333 15.151-6.614 1.127.725 2.17-1.072 1.044-1.79-9.525-6.097-15.587 9.503-24.289 9.31-4.893-.11-8.425-1.742-12.656 1.541-2.018 1.562-3.628 3.546-5.944 4.721a13.326 13.326 0 0 1-10.41.567c-1.264-.429-1.81 1.576-.552 1.997z"/>
        <path fill="#F66" d="M243.991 40.13c8.087-6.773 18.904 8.184 25.104 12.048 2.765 1.714 6.055 3.062 9.345 2.281 2.247-.532 4.147-2.613 6.539-2.509 3.096.131 4.963 3.684 6.22 6.055.623 1.182 2.413.138 1.79-1.044-1.893-3.615-4.948-8.025-9.676-6.85-2.647.692-4.596 2.668-7.486 2.482-3.172-.2-6.172-2.364-8.584-4.258-6.304-4.935-15.98-17.01-24.738-9.677-1.023.857.45 2.316 1.465 1.466l.021.007z"/>
        <circle cx="260.552" cy="91.942" r="3.719" fill="#ECC973"/>
        <path fill="#FFF" d="M127.739 82.694h79.466v55.302h-79.466z"/>
        <path fill="#F66" d="M161.843 110.68a14.971 14.971 0 0 0 14.978 14.972v-14.971h-14.978z"/>
        <path fill="#2FC8AD" d="M176.821 110.68v14.972c8.268 0 14.971-6.703 14.971-14.971h-14.971zM191.792 110.68c0-8.268-6.703-14.97-14.971-14.97v14.97h14.971z"/>
        <path fill="#ECC973" d="M176.821 95.71c-8.27 0-14.974 6.701-14.978 14.97h14.978V95.71z"/>
        <path fill="#2FC8AD" d="M140.367 92.91h7.949v7.949h-7.949z"/>
        <path fill="#F66" d="M140.367 106.043h7.949v7.949h-7.949z"/>
        <path fill="#ECC973" d="M140.367 119.175h7.949v7.949h-7.949z"/>
        <circle cx="176.821" cy="110.681" r="6.739" fill="#FFF"/>
        <path stroke="#19CCC7" stroke-linecap="round" stroke-linejoin="round" d="M110.218 182.475c0 .304 41.305.152 61.917.055 6.318-.026 11.425-5.156 11.425-11.474v-5.916c0-6.338 5.136-11.477 11.474-11.48h20.673M38.914 228.847v71.884c0 7.36 5.967 13.326 13.326 13.326h33.648"/>
        <path stroke="#19CCC7" stroke-linecap="round" stroke-linejoin="round" d="M38.914 205.34v26.348c0 7.36 5.967 13.326 13.326 13.326h69.071"/>
        <path fill="#FFF" d="M38.403 165.306h88.424v55.586H38.403z"/>
        <circle cx="184.307" cy="164.773" r="3.719" fill="#5E64B6"/>
        <path fill="#2FC8AD" d="M62.339 188.578h5.212v22.353h-5.212z"/>
        <path fill="#F66" d="M70.972 175.922h5.212v35.009h-5.212z"/>
        <path fill="#ECC973" d="M80.13 194.481h5.212v16.45H80.13z"/>
        <path fill="#57AAA9" d="M89.046 179.088h5.212v31.85h-5.212z"/>
        <path fill="#F66" d="M97.679 190.569h5.212v20.363h-5.212z"/>
        <rect width="26.466" height="5.91" x="59.415" y="242.871" fill="#579CAB" rx="2.951"/>
        <rect width="9.469" height="9.469" x="57.659" y="308.86" fill="#37456D" rx="4.735"/>
        <path fill="#F66" d="M35.762 259.419h5.91v5.91h-5.91z"/>
        <rect width="156.638" height="104.025" x="292.554" y="85.708" fill="#FFF" rx="8.986"/>
        <circle cx="299.929" cy="92.046" r="1.479" fill="#F4F4F4"/>
        <circle cx="306.786" cy="92.046" r="1.479" fill="#F4F4F4"/>
        <circle cx="313.643" cy="92.046" r="1.479" fill="#F4F4F4"/>
        <path fill="#FFF" d="M385.637 167.165h-85.106a2.765 2.765 0 0 1-2.765-2.765v-10.762h90.636V164.4a2.765 2.765 0 0 1-2.765 2.765z"/>
        <rect width="49.482" height="40.29" x="394.498" y="97.852" fill="#EBF7F7" rx="2.765"/>
        <path fill="#EBF7F7" d="M300.53 97.852h85.107a2.765 2.765 0 0 1 2.765 2.765v53.146h-90.636v-53.146a2.765 2.765 0 0 1 2.765-2.765z"/>
        <path stroke="#EDEDED" stroke-width=".691" d="M394.678 147.355h30.558M394.664 156.064h49.31M394.664 164.773h49.31M394.671 173.482h49.303M394.664 182.192h49.31M297.766 173.8h20.245M297.766 182.192h45.902"/>
        <rect width="168.872" height="112.146" x="249.942" y="109.049" fill="#FFF" rx="8.986"/>
        <circle cx="257.891" cy="115.885" r="1.59" fill="#EFEFEF"/>
        <circle cx="265.287" cy="115.885" r="1.59" fill="#EFEFEF"/>
        <circle cx="272.676" cy="115.885" r="1.59" fill="#EFEFEF"/>
        <path fill="#FFF" d="M350.51 196.872h-92.184a2.765 2.765 0 0 1-2.764-2.764v-11.813h97.714v11.813a2.765 2.765 0 0 1-2.765 2.764z"/>
        <rect width="53.346" height="43.435" x="359.849" y="122.155" fill="#EBF7F7" rx="2.765"/>
        <path fill="#EBF7F7" d="M258.326 122.155h92.185a2.765 2.765 0 0 1 2.765 2.764v57.514h-97.714V124.92a2.765 2.765 0 0 1 2.764-2.764z"/>
        <path stroke="#EDEDED" stroke-width=".691" d="M360.042 175.522h32.95M360.029 184.908h53.166M360.029 194.294h53.166M360.042 203.688h53.153M360.029 213.074h53.166M255.562 204.026h21.828M255.562 213.074h49.496"/>
        <rect width="177.968" height="118.194" x="215.749" y="132.191" fill="#FFF" rx="9.677"/>
        <circle cx="224.126" cy="139.393" r="1.68" fill="#EAEAEA"/>
        <circle cx="231.916" cy="139.393" r="1.68" fill="#EAEAEA"/>
        <circle cx="239.706" cy="139.393" r="1.68" fill="#EAEAEA"/>
        <path fill="#FFF" d="M321.889 224.748H224.43a2.765 2.765 0 0 1-2.764-2.764v-12.6h102.987v12.6a2.765 2.765 0 0 1-2.764 2.764z"/>
        <rect width="56.222" height="45.778" x="331.579" y="145.994" fill="#EBF7F7" rx="2.765"/>
        <path fill="#EBF7F7" d="M224.437 145.994h97.458a2.765 2.765 0 0 1 2.765 2.765v60.762H221.672V148.76a2.765 2.765 0 0 1 2.765-2.765z"/>
        <path stroke="#EDEDED" stroke-width=".691" d="M331.78 202.236h34.725M331.766 212.134h56.028M331.766 222.032h56.028M331.78 231.923h56.014M331.766 241.82h56.028M221.672 232.282h22.996M221.672 241.82h52.158"/>
        <rect width="137.637" height="207.254" x="253.994" y="143.623" fill="#B4F0F0" filter="url(#a)" rx="10.368" transform="rotate(-79.05 322.813 247.25)"/>
        <rect width="137.637" height="207.254" x="255.649" y="142.164" fill="#FFF" rx="10.368" transform="rotate(-79.05 324.468 245.791)"/>
        <circle cx="243.929" cy="168.651" r="1.956" fill="#ED5A48"/>
        <circle cx="252.831" cy="170.372" r="1.956" fill="#ECC973"/>
        <circle cx="261.741" cy="172.1" r="1.956" fill="#2FC8AD"/>
        <path fill="#FFF" d="M337.254 287.95l-112.305-21.737a2.765 2.765 0 0 1-2.191-3.242l2.875-14.833 117.738 22.81-2.876 14.853a2.765 2.765 0 0 1-3.241 2.15z"/>
        <rect width="65.47" height="53.305" x="359.677" y="205.687" fill="#EBF7F7" rx="2.765" transform="rotate(10.95 392.412 232.34)"/>
        <path fill="#EBF7F7" d="M242.403 176.166l112.31 21.729c1.499.29 2.479 1.74 2.189 3.24l-13.523 69.896-117.739-22.78 13.523-69.896c.29-1.5 1.74-2.48 3.24-2.19z"/>
        <rect width="5.626" height="1.749" x="246.865" y="185.464" fill="#FFF" rx=".874" transform="rotate(11.27 249.678 186.338)"/>
        <rect width="5.626" height="1.749" x="254.129" y="186.911" fill="#FFF" rx=".874" transform="rotate(11.27 256.942 187.786)"/>
        <rect width="5.626" height="1.749" x="261.4" y="188.352" fill="#FFF" rx=".874" transform="rotate(11.27 264.213 189.226)"/>
        <rect width="5.626" height="1.749" x="268.662" y="189.805" fill="#FFF" rx=".874" transform="rotate(11.27 271.475 190.68)"/>
        <rect width="5.626" height="1.749" x="275.919" y="191.251" fill="#FFF" rx=".874" transform="rotate(11.27 278.732 192.126)"/>
        <rect width="5.626" height="1.749" x="283.182" y="192.698" fill="#FFF" rx=".874" transform="rotate(11.27 285.996 193.573)"/>
        <rect width="5.626" height="1.749" x="290.445" y="194.145" fill="#FFF" rx=".874" transform="rotate(11.27 293.258 195.02)"/>
        <rect width="5.626" height="1.749" x="297.708" y="195.593" fill="#FFF" rx=".874" transform="rotate(11.27 300.522 196.467)"/>
        <rect width="5.626" height="1.749" x="304.979" y="197.04" fill="#FFF" rx=".874" transform="rotate(11.27 307.792 197.914)"/>
        <rect width="5.626" height="1.749" x="312.234" y="198.485" fill="#FFF" rx=".874" transform="rotate(11.27 315.048 199.36)"/>
        <rect width="5.626" height="1.749" x="319.498" y="199.933" fill="#FFF" rx=".874" transform="rotate(11.27 322.311 200.807)"/>
        <rect width="5.626" height="1.749" x="326.762" y="201.38" fill="#FFF" rx=".874" transform="rotate(11.27 329.575 202.254)"/>
        <rect width="5.626" height="1.749" x="334.024" y="202.834" fill="#FFF" rx=".874" transform="rotate(11.27 336.837 203.708)"/>
        <rect width="5.626" height="1.749" x="341.288" y="204.274" fill="#FFF" rx=".874" transform="rotate(11.27 344.101 205.148)"/>
        <rect width="101.757" height="13.997" x="243.737" y="200.148" fill="#FFF" rx="4.147" transform="rotate(11.27 294.616 207.147)"/>
        <rect width="30.171" height="23.908" x="275.246" y="217.482" fill="#FFF" rx="4.147" transform="rotate(11.27 290.331 229.436)"/>
        <rect width="30.171" height="23.908" x="240.06" y="210.47" fill="#FFF" rx="4.147" transform="rotate(11.27 255.145 222.424)"/>
        <rect width="30.171" height="23.908" x="310.268" y="224.461" fill="#FFF" rx="4.147" transform="rotate(11.27 325.354 236.415)"/>
        <rect width="30.171" height="1.465" x="272.179" y="244.101" fill="#FFF" rx=".733" transform="rotate(11.27 287.264 244.834)"/>
        <rect width="30.171" height="1.465" x="271.306" y="248.471" fill="#FFF" rx=".733" transform="rotate(11.27 286.391 249.204)"/>
        <rect width="16.457" height="1.465" x="270.536" y="251.648" fill="#FFF" rx=".733" transform="rotate(11.27 278.764 252.38)"/>
        <rect width="30.171" height="1.465" x="307.201" y="251.081" fill="#FFF" rx=".733" transform="rotate(11.27 322.286 251.814)"/>
        <rect width="30.171" height="1.465" x="306.329" y="255.451" fill="#FFF" rx=".733" transform="rotate(11.27 321.415 256.183)"/>
        <rect width="16.457" height="1.465" x="305.558" y="258.627" fill="#FFF" rx=".733" transform="rotate(11.27 313.787 259.36)"/>
        <rect width="30.171" height="1.465" x="236.986" y="237.09" fill="#FFF" rx=".733" transform="rotate(11.27 252.07 237.823)"/>
        <rect width="30.171" height="1.465" x="236.12" y="241.466" fill="#FFF" rx=".733" transform="rotate(11.27 251.205 242.199)"/>
        <rect width="16.457" height="1.465" x="235.35" y="244.636" fill="#FFF" rx=".733" transform="rotate(11.27 243.578 245.369)"/>
        <rect width="65.788" height="2.295" x="245.261" y="266.322" fill="#C1E5E4" rx="1.058" transform="rotate(10.95 278.155 267.47)"/>
        <rect width="24.682" height="2.295" x="311.044" y="275.072" fill="#EAEAEA" rx="1.058" transform="rotate(10.95 323.386 276.22)"/>
        <circle cx="311.825" cy="273.837" r="2.322" fill="#023A47"/>
        <rect width="14.156" height="6.207" x="230.29" y="256.303" fill="#E0444E" rx="3.103" transform="rotate(10.95 237.368 259.406)"/>
        <path fill="#FFF" d="M234.55 258.955l-1.238.457-1.237.449.256-1.327.262-1.327.975.87z"/>
        <text fill="#FFF" font-family="Lato-Black, Lato" font-size="3.484" font-weight="700" transform="rotate(10.972 236.754 259.084)">
            <tspan x="235.029" y="260.084">Pl</tspan>
        </text>
        <path stroke="#EDEDED" stroke-width=".691" d="M350.898 275.627l64.06 12.4M348.707 286.942l64.06 12.4M346.53 298.257l64.045 12.4M344.325 309.571l64.06 12.394M220.567 274.307l26.293 5.094M218.452 285.207l59.636 11.543"/>
        <rect width="16.243" height="6.207" x="367.885" y="207.094" fill="#F66" rx="3.103" transform="rotate(10.95 376.007 210.198)"/>
        <text fill="#FFF" font-family="Lato-Black, Lato" font-size="4.161" font-weight="700" transform="rotate(10.972 375.409 209.96)">
            <tspan x="373.684" y="211.461">Li</tspan>
        </text>
        <circle cx="371.661" cy="209.383" r="1.154" fill="#FFF"/>
        <path fill="#F4BDB3" d="M410.956 234.598c-.44-.88-.777-1.808-1.003-2.765-.01-.673.033-1.346.132-2.011.096-1.963.173-3.926.255-5.89l.408-9.303a3.055 3.055 0 0 0-1.859-2.937h-.042l-.276-.139c-.995-.553-7.43-3.912-8.66-2.681-.498.497-1.514-.215-2.074-.229-1.085 0-1.383.823-1.942 1.639a8.55 8.55 0 0 0-.892 1.486c-.49 1.147 0 2.073-.16 3.2-.158 1.127-1.133 2.073-1.112 3.297 0 .926-.062 1.9 0 2.82.138.71.221 1.428.249 2.15-.048.476-.477.891-.498 1.306-.041.85.767 1.113 1.445 1.292 1.382.367 3.456.346 3.297 2.33-.16 1.686-1.963 2.875-1.721 4.486.11.732 1.016 1.258.691 2.19-.235.637-1.23.92-1.507 1.84-1.189 3.905 3 8.757 7.057 8.383a7.527 7.527 0 0 0 3.823-1.755 18.503 18.503 0 0 0 3.179-3.145 6.774 6.774 0 0 0 1.597-3.256 4.513 4.513 0 0 0-.387-2.308z"/>
        <path fill="#E7A194" d="M403.816 224.54c-.318.146-.574.395-.878.56a2.813 2.813 0 0 1-2.24.084c-.235-.056-.47-.11-.69-.152a8.53 8.53 0 0 0-2.766.152c-.504.09-1.016.166-1.52.235l-.795.11c-.16 0-.456 0-.588.11.85.257 1.7.499 2.544.768.601.194 1.244.47 1.34 1.175.017.417-.039.833-.165 1.23-.022.17-.068.335-.138.491-.042.083-.097.208 0 .263a.131.131 0 0 0 .083 0c.356.016.713-.045 1.043-.18a6.566 6.566 0 0 0 2.592-1.5 12.4 12.4 0 0 1 2.357-1.617c.567-.339 1.59-1.037.823-1.714a.899.899 0 0 0-1.002-.014z"/>
        <path fill="#515050" d="M410.202 207.71c-.908-.6-1.74-1.31-2.474-2.115-1.873-1.762-4.113-1.921-6.394-2.764a6.974 6.974 0 0 0-2.827-.602 2.378 2.378 0 0 0-2.198 1.61c-.097.402-.062.872-.338 1.176a2.032 2.032 0 0 1-.526.345c-.8.501-1.184 1.464-.947 2.378.284 1.016.194 1.956 1.244 2.474.92.457 1.984.256 2.966.484.981.228 2.764.277 3.456.968.69.691 1.147 2.074 1.956 2.875.248.22.448.488.587.788.059.207.087.421.083.636 0 .691-.304 3.594.436 3.753.74.16.891-1.23 1.175-1.714.767-1.32 2.868-2.433 3.829-.691.4.74-.055 1.631-.505 2.336-.898 1.424-1.168 2.24-.566 3.933.046.17.129.328.241.463.326.254.77.292 1.134.097 1.147-.47 1.818-1.638 2.405-2.723.692-1.348 1.459-2.682 2.17-4.03a5.184 5.184 0 0 0 .505-4.147c-.449-1.182-.643-2.723-1.52-3.691-.878-.968-2.558-1.14-3.816-1.811l-.076-.028z"/>
        <path fill="#FFF" d="M420.895 266.068c.041-.66.097-1.316.166-1.97.463-4.327 1.7-8.55 2.129-12.884.228-2.309.207-4.742-.837-6.815-.912-1.804-2.502-3.159-4.057-4.458l-3.774-3.173a23.646 23.646 0 0 0-2.675-1.7l.042-1.839a1.251 1.251 0 0 0-.277-1.002 1.23 1.23 0 0 0-.69-.214c-4.743-.491-9.27-1.528-13.963-2.302a1.7 1.7 0 0 0-1.486.214 2.42 2.42 0 0 0-.38.595c-1.507 2.765-7.603 2.488-10.292 3.235-2.205.615-3.007 2.211-4.451 3.843-.519.587-1.044 1.168-1.507 1.797-.463.629-.774 1.14-1.154 1.714-1.57 2.336-3.532 4.382-5.13 6.697a26.265 26.265 0 0 0-4.374 11.205 4.541 4.541 0 0 0 .31 2.986c.85 1.382 2.765 1.596 4.39 1.72 1.77.146 3.497.498 5.26.692 1.32.159 2.71.083 4.057.193 2.074.166 4.037.042 6.041.484 1.548.339 3.09.691 4.645 1.03 2.46.532 4.963.567 7.437.968 1.894.31 3.629 1.382 5.481 1.997 4.369 1.383 9.103 2.447 13.637 1.217.373-.065.716-.244.982-.512.235-.358.349-.782.325-1.21.048-.822.09-1.665.145-2.508z"/>
        <path fill="#0A758E" d="M370.217 267.754c.877-.163 1.77-.224 2.66-.18.45 0 .9.042 1.342.084.442.041.636.145.981.2.161.017.323.017.484 0 .308.047.61.128.899.242.326.08.66.127.995.138l1.258.097c.864.069 1.728.11 2.585.193a6.525 6.525 0 0 1 1.97.643 10.147 10.147 0 0 1 3.4 2.516c.443.505.83 1.327.367 1.804-.257.2-.573.308-.899.304l-15.005 1.383c-1.5.138-3.187.214-4.307-.816a3.539 3.539 0 0 1-.421-4.244 5.53 5.53 0 0 1 3.69-2.364z"/>
        <path fill="#F4BDB3" d="M386.743 273.83c-1.21-.187-1.977-1.251-2.993-1.832-1.016-.58-2.073.138-3.152.18-1.59.062-2.861-1.48-4.45-1.562-1.473-.083-2.766 1.113-4.203 1.272a.733.733 0 0 1-.346 0 .823.823 0 0 1-.373-.332c-1.037-1.465-.74-2.723-.691-4.34a.968.968 0 0 1 .11-.505c.095-.114.213-.206.346-.27l4.258-2.336a4.189 4.189 0 0 1 2.267-.767c.558.183 1.099.414 1.617.69a52.834 52.834 0 0 1 5.053 1.888c1.7.753 2.889 1.845 4.368 2.868a.4.4 0 0 1 .166.173.373.373 0 0 1 0 .194l-.435 4.209a.408.408 0 0 1-.388.442c-.38.08-.77.09-1.154.028z"/>
        <path fill="#2F355B" d="M570.587 221.638H522.61a22.512 22.512 0 0 0-20.204 12.573l-65.234 132.453a22.526 22.526 0 0 0 20.203 32.486h113.21c12.441 0 22.527-10.085 22.527-22.526v-132.46c0-12.44-10.086-22.526-22.526-22.526z"/>
        <path fill="#EBF7F7" d="M510.792 240.722l-75.064 152.422a14.798 14.798 0 0 0 13.27 21.337h119.923c8.173 0 14.798-6.626 14.798-14.799V247.26c0-8.173-6.625-14.798-14.798-14.798h-44.845a14.798 14.798 0 0 0-13.284 8.26z"/>
        <path fill="#15192D" d="M580.097 347.794l-48.079.263c-2.661 0-5.447.09-7.603 5.025-2.703 7.859-.567 14.868 1.977 17.197 1.569 1.438 3.283 1.43 4.956 1.382l47.733-.78a2.606 2.606 0 0 0 2.019-.65c1.52-1.473 2.211-5.8 2.509-9.76.242-3.131.325-6.566-.318-9.331-.643-2.765-2.24-4.348-3.277-2.454"/>
        <path fill="#FFA2C0" d="M468.98 387.988l7.826-18.581 9.835 4.142-7.826 18.582z"/>
        <path fill="#2F355B" d="M481.547 386.633a.643.643 0 0 1 .297.801c-.483 1.23-1.707 4.362-2.647 6.663-.94 2.302-3.186 3.38-5.094 2.62l-25.477-10.167c-1.217-.484-.076-4.7 3.635-4.224l13.472.692 2.986-.81c.283 0 2.716-1.312 3.11 1.922.422 3.456 3.394 1.853 5.26 1.383 1.534-.373 2.074-.062 3.345.504l1.113.616z"/>
        <path fill="#FFA2C0" d="M519.853 308.963a46.455 46.455 0 0 0-4.334 7.21c-2.467 5.218-4.32 10.554-7.437 15.448 3.027.4 5.474 1.002 8.71.69l4.278-.407a1.182 1.182 0 0 0 1.195-.83c2.938-5.626 6.484-10.658 10.009-15.96 1.258-1.886 3.048-3.593 4.105-5.529 1.245-2.301 1.618-5.274 2.074-7.817a5.129 5.129 0 0 0 .07-2.267c-.402-1.452-1.97-2.309-2.524-3.705-.504-1.279-.145-2.951-1.154-3.885a2.468 2.468 0 0 0-2.903-.048c-4.147 2.606-4.783 7.43-7.5 11.06-1.568 2.017-3.124 4.001-4.589 6.04z"/>
        <path fill="#4F579E" d="M498.668 331.296a23.742 23.742 0 0 0-7.105 1.382c-8.094 3.332-9.864 16.298-13.506 23.3a41.285 41.285 0 0 1-2.544 4.43c-2.17 3.146-6.138 5.634-7.458 9.318-1.845 5.129 3.207 6.345 6.912 8.985 2.322 1.673 5.377 2.074 8.01 2.855 3.118.933 2.538 2.074 5.31-.733 5.833-5.992 9.676-14.88 14.812-21.544a7.887 7.887 0 0 1 2.073-2.074c3.242-1.949 6.36-.788 9.774-.69a85.957 85.957 0 0 0 12.296-.526c9.13-1.037 30.454-3.733 32.866-15.441 2.323-11.288-20.736-12.297-27.302-11.695l-21.358 1.942c-3.601.387-8.39.166-12.78.49z"/>
        <path fill="#15192D" d="M509.36 334.302a28.349 28.349 0 0 0-.877-1.216c-2.288-3-4.493-5.792-7.921-8.253a71.884 71.884 0 0 0-12-7.202c-3.89-1.763-11.957-4.071-11.5.691.518 5.447 7.126 11.688 12.759 15.642 4.389 3.082 9.676 6.006 14.923 7.465 4.015 1.105 6.822-1.383 5.965-4.383a9.76 9.76 0 0 0-1.348-2.744z"/>
        <path fill="#15192D" d="M488.694 331.213l-36.218 59.857 3.608 2.696 36.902-60.355z"/>
        <path fill="#FFA2C0" d="M480.838 400.352l10.142-17.426 9.224 5.369-10.142 17.425z"/>
        <path fill="#2F355B" d="M493.463 400.567c.263.19.343.545.187.83a683.816 683.816 0 0 1-3.456 6.269c-1.21 2.163-3.587 2.95-5.384 1.949l-23.964-13.347c-1.147-.636.518-4.673 4.147-3.719l13.271 2.392 3.062-.422c.283 0 2.868-.947 2.84 2.309 0 3.456 3.132 2.274 5.04 2.073 1.562-.18 2.073.2 3.255.926l1.002.74z"/>
        <path fill="#5E64B6" d="M516.445 336.777a32.237 32.237 0 0 0-4.195 1.5c-5.91 2.62-7.396 5.95-10.271 11.273a390.96 390.96 0 0 1-21.973 36.053l19.782 10.368a3.843 3.843 0 0 0 1.963.6c.967-.068 1.707-.842 2.35-1.568 6.075-6.864 12.192-13.824 16.658-21.793 2.336-4.189 4.23-8.682 7.299-12.366 5.412-6.504 11.653-5.675 19.229-5.847 4.264-.097 8.598 0 12.704-1.127 6.117-1.728 21.648-15.628 12.62-21.856-4.23-2.916-16.339.408-21.274.83l-21.268 1.838c-4.514.408-9.207.844-13.624 2.095z"/>
        <path fill="#FFA2C0" d="M565.997 276.477a16.478 16.478 0 0 0-3.007-2.834l-.974-.746c-1.023-.767-2.212-1.486-2.765-2.661-.691-1.445-.58-3.187-.809-4.742a11.702 11.702 0 0 1-.159-3.504c.415-2.917.104-5.93 0-8.868a2.944 2.944 0 0 0-2.211-2.654h-.042l-.304-.111c-1.113-.456-8.294-3.221-9.49-1.984-.802.816-2.696-.11-3.691.049a4.693 4.693 0 0 0-1.445.546l.54-1.106a17.715 17.715 0 0 1-3.712 1.617c-.173.049-.373 2.074-.422 2.309-.246.802-.397 1.63-.45 2.467.042.415.34.691.409 1.113.325 1.929-2.074 3.518-2.661 5.267a.38.38 0 0 0 0 .214c.028.068.08.124.145.16.69.435 1.562.09 2.115.58.553.49.933 2.433 1.043 3.186.104.602.16 1.237.222 1.846-.024.364.028.728.152 1.071.587.968 2.198.49 3.048.346a5.792 5.792 0 0 1 2.177-.118c.472.178.841.555 1.01 1.03a8.184 8.184 0 0 1 .69 3.539 11.91 11.91 0 0 1-.829 4.838c-.968 2.157-2.668 4.058-4.147 5.848-.608.691-2.281 2.17-2.281 3.214 0 .484.276 1.126.94 1.016l2.599-.442c4.963-.871 9.918-1.798 14.86-2.827 2.765-.567 5.6-1.57 8.378-1.818 1.168-.104 2.564 0 2.806-1.424s-.87-3.29-1.735-4.417z"/>
        <path fill="#7F5D6B" d="M548.026 263.566c-.256-1.839-.843-3.982-.083-5.64a7.54 7.54 0 0 0 .588-4.763.36.36 0 0 0-.049-.152.304.304 0 0 0-.124-.104 4.541 4.541 0 0 0-1.383-.518 1.7 1.7 0 0 0-.69 0 .753.753 0 0 0-.54.422c-.228.566.16 1.735.145 2.384a5.087 5.087 0 0 1-.318 1.901c-.525 1.272-1.783 1.839-3.062 2.115a4.652 4.652 0 0 0-2.806 1.313 4.189 4.189 0 0 1-.615.692 2.157 2.157 0 0 1-.594.29c-.498.08-.99.191-1.473.332-.539.27-.601 1.693-.463 2.19.092.23.231.437.408.609.53.633.866 1.406.968 2.226.016.373.072.744.166 1.106.836 2.474 4.07 1.949 6.027 1.783a2.426 2.426 0 0 0 1.458-.477c1.383-1.251 2.613-2.703 2.516-4.7a5.515 5.515 0 0 0-.076-1.01z"/>
        <path fill="#F39ABA" d="M560.737 271.964a5.122 5.122 0 0 1-1.514-1.708c-.69-1.444-.58-3.186-.808-4.741a8.916 8.916 0 0 0-.194-1.783c-.318-.837-.117-.519-.995-.692a8.633 8.633 0 0 1-2.385-.753c-.808-.422-2.26-1.783-3.11-.899-.691.74 0 2.074.193 2.876.29 1.258.464 2.54.519 3.829.138 2.516-.055 5.039-.118 7.555-.117 4.838 4.79.58 6.394-.961a7.645 7.645 0 0 0 2.018-2.723z"/>
        <path fill="#7F5D6B" d="M555.622 249.52a21.786 21.786 0 0 1-3.829-1.057c-1.237-.601-1.956 1.348-2.979.56-1.673-1.293-3.85-2.226-5.951-1.68-1.023.263-2.647 1.383-2.032 2.765.767 1.728 4.327.767 5.688 1.528 1.632.912 1.542 2.391.982 4.07-.173.505-.443.975-.574 1.494a1.728 1.728 0 0 0 0 .753c.042.297 0 .588 0 .892 0 .097.048.207.145.221a.18.18 0 0 0 .16-.07c.29-.255.296-.614.476-.932.124-.186.267-.358.429-.512 2.626-3.13 2.71 1.01 3.324 3.028a6.753 6.753 0 0 0 1.238 2.633c1.168 1.313 4.313.83 5.591-.27 1.583-1.382 1.383-3.635 1.86-5.529a11.39 11.39 0 0 0 .532-4.147 5.398 5.398 0 0 0-.519-1.977c-.732-1.23-3.255-1.396-4.54-1.77z"/>
        <path fill="#007E8C" d="M537.803 251.504c-1.085-1.382.774-5.896 1.75-7.23 1.381-1.9 3.877-2.592 6.22-2.992 3.656-.636 7.88-1.037 10.934 1.34 3.056 2.378 5.226 5.924 4.486 9.981a1.03 1.03 0 0 1-.159.45c-.435.608-3.684.304-4.59.31-2.487 0-5.08-.449-7.56-.69a629.594 629.594 0 0 0-5.192-.457c-1.382-.124-4.382.208-5.53-.47a1.085 1.085 0 0 1-.359-.242z"/>
        <rect width="17.799" height="2.958" x="528.741" y="249.611" fill="#007E8C" rx=".954" transform="rotate(-.573 537.64 251.09)"/>
        <path fill="#FFF" d="M580.25 306.122c-.989-8.75-.104-8.225-1.293-16.948-.304-2.246-.65-4.555-1.804-6.504a14.881 14.881 0 0 0-5.156-5.35c-2.254-1.486-4.77-2.536-6.816-4.347a13.278 13.278 0 0 0-1.97-1.61 5.122 5.122 0 0 0-2.142-.816 1.9 1.9 0 0 0-.74.055.774.774 0 0 0-.56.629 4.39 4.39 0 0 1-.483 1.97 7.748 7.748 0 0 1-1.832 1.88 13.969 13.969 0 0 1-5.267 2.689c-2.074.587-4.354 1.285-5.896-.768a5.66 5.66 0 0 1-.967-3.891.36.36 0 0 0-.056-.304.339.339 0 0 0-.221-.07 4.838 4.838 0 0 0-2.965.692c-.657.477-1.092 1.161-1.873 1.52-2.074.961-4.548 1.383-6.684 2.31-2.136.925-4.223 2.377-5.129 4.533-.691 1.632-.629 3.456-.691 5.233a28.049 28.049 0 0 1-2.205 9.635c-.74 1.728-4.451 5.592-1.638 6.857a8.253 8.253 0 0 0 1.97.456 24.586 24.586 0 0 1 5.702 2.018 1.382 1.382 0 0 1 1.044 1.714 193.493 193.493 0 0 0-.118 20.045c-.037.561.098 1.12.387 1.603.795 1.044 2.98 1.507 4.1 2.26 1.465.982 2.764 2.157 4.354 2.987 3.027 1.548 6.345 2.232 9.428 3.587 8.916 3.062 11.48 4.064 20.929 4.838 1.707.145 3.74.125 4.714-1.279.587-.884 4.921-26.3 3.877-35.624z"/>
        <path fill="#DCF2F4" d="M560.233 325.379c.29.523.672.991 1.126 1.382 1.86 1.576 2.032 2.814-.567 3.532-1.54.429-3.096.049-4.617.526-4.451 1.382-8.66 3.02-13.27 3.877a2.336 2.336 0 0 1-1.957-.235 2.074 2.074 0 0 1-.36-2.073c.74-2.952 3.325-5.004 5.164-7.43a16.52 16.52 0 0 0 2.765-5.579c.168-.81.466-1.587.885-2.301.53-.772.968-1.602 1.306-2.475 1.617-4.727.456-6.725 5.744-7.554a5.986 5.986 0 0 1 1.258-3.989 76.494 76.494 0 0 1 1.382 14.903c-.014 2.515-.083 5.356 1.14 7.416z"/>
        <path fill="#FFA2C0" d="M560.08 315.682v-.049c-1.645-4.949-9.745-10.554-14.37-6.324-2.902 2.66-3.13 6.912-4.492 10.368-1.756 4.458-5.53 4.727-9.677 6.352a28.809 28.809 0 0 0-3.387 1.714 29.272 29.272 0 0 1-8.114 3.318c-2.17.532-4.369.981-6.553 1.465-1.776.4-3.656 1.078-5.474.498-2.488-.788-4.728-2.198-7.216-2.98a8.142 8.142 0 0 0-3.02-.552c-2.005.138-3.892 1.728-5.827 1.182l-.574.608c0 .45.511.691.94.822l3.352 1.051c-1.272.187-2.53.726-3.829.816l-1.832.11c-.566 0-1.3-.242-1.824 0a1.168 1.168 0 0 0-.263 1.645c.4.487.93.85 1.527 1.05.598.205 1.13.565 1.542 1.045.615.898.38 2.363 1.327 2.903.83.47 2.074-.146 2.765.511.196.254.368.528.511.816.754 1.133 2.44.974 3.767.69a43.386 43.386 0 0 0 5.357-1.43 9.891 9.891 0 0 1 5.136-.767c2.985.283 6.22-.118 9.268-.38 4.148-.35 8.295-.869 12.442-1.556 3.877-.642 8.875-.946 12.441-2.578 2.682-1.223 5.267-4.949 7.182-7.209 2.184-2.578 3.94-5.481 6.435-7.776 1.762-1.569 3.29-2.813 2.46-5.363z"/>
        <path fill="#F39ABA" d="M551.807 308.14c-2.177-.614-4.382-.407-6.11 1.169-2.903 2.66-3.131 6.912-4.493 10.368-1.756 4.458-5.53 4.727-9.677 6.352a28.809 28.809 0 0 0-3.387 1.714 29.272 29.272 0 0 1-8.114 3.318c-2.17.532-4.368.981-6.553 1.465-1.776.4-3.656 1.078-5.474.498-2.488-.788-4.728-2.198-7.216-2.98a8.142 8.142 0 0 0-3.02-.552c-2.005.138-3.892 1.728-5.827 1.182l-.574.608a.58.58 0 0 0 .125.339 14.57 14.57 0 0 1 5.28.193c1.652.435 3.145 1.327 4.721 1.99 4.189 1.77 8.923 1.936 13.402 1.155 4.48-.781 8.758-2.454 12.926-4.272 3.172-1.382 6.38-2.861 9.821-3.241 2.019-.228 4.148-.097 5.93-1.113 1.784-1.016 2.669-2.875 3.457-4.673a92.62 92.62 0 0 0 4.354-11.805c.175-.563.318-1.135.429-1.714z"/>
        <path fill="#FFF" d="M559.984 285.304a10.845 10.845 0 0 1 2.764 1.866c3.36 3.117 4.618 7.99 4.362 12.566-.256 4.575-1.832 8.985-3.4 13.257l-2.247 6.22c-.114.381-.296.737-.54 1.051-1.817 2.074-10.851-1.873-12.945-2.702-1.777-.692-7.603-2.765-6.518-5.689 2.018-5.246 1.748-11.135 3.76-16.374"/>
        <path fill="#37456D" d="M424.766 273.906h12.635V377.35h-12.635z"/>
        <path fill="#007E8C" d="M605.768 365.24c0-3.78-.083-6.51-.131-7.54-.138-2.71-.346-5.613-2.074-7.714-2.398-2.945-6.725-3.194-10.52-3.2l-34.172-.084c-2.309 0-4.673 0-6.864.733-4.734 1.597-7.34 6-10.368 9.621a30.08 30.08 0 0 1-10.72 7.818c-2.378 1.023-4.956 1.458-7.465 2.073a52.033 52.033 0 0 0-20.266 10.237c-5.197 4.258-8.239 10.914-13.347 14.909-1.562 1.23-3.594 1.68-5.53 1.984a56.125 56.125 0 0 1-14.991.29l-.104-.249c-3.456-7.686-10.23-13.464-17.646-16.83-7.81-3.546-12.683-4.839-21.164-4.984-2.903-.062-6.4-.366-9.076 1.058-3.856 2.073-2.923 6.497-2.972 10.285-.073 6.308-.101 12.62-.083 18.938 0 3.336.026 6.677.076 10.023.035 2.827-1.548 8.508 2.344 8.985a198.663 198.663 0 0 0 26.797 1.839c6.22.055 12.442-.166 18.662-.477 46.144 1.47 92.302 1.38 138.474-.27 1.127.02 1.285-39.972 1.14-57.445z"/>
        <path fill="#0A758E" d="M545.303 376.596c12.87-8.239 43.732-1.52 50.36-19.464 1.037-2.813 1.016-5.398.92-8.39a1.638 1.638 0 0 0-2.074-1.888c-11.854-.041-23.75-.152-35.624-.152-2.309 0-4.673 0-6.864.733-4.734 1.597-7.34 6-10.368 9.621a30.08 30.08 0 0 1-10.72 7.818c-2.378 1.023-4.956 1.458-7.465 2.073a52.033 52.033 0 0 0-20.28 10.237c-5.197 4.258-8.239 10.914-13.347 14.909-1.562 1.23-3.594 1.68-5.53 1.984-1.934.304-4.146.055-6.22.041-2.62 0-5.1.297-7.707-.124a1.908 1.908 0 0 0-.69 0 .636.636 0 0 0-.505.4.843.843 0 0 0 .103.602c.484 1.064 1.196 1.963 1.632 3.062a36.495 36.495 0 0 1 1.257 3.705 42.854 42.854 0 0 1 1.514 10.554c.035 1.687.235 3.76 1.783 4.41 2.04.85 7.078-1.804 9.193-2.42 3.138-.905 6.38-1.851 9.124-3.69 7.41-4.963 10.734-16.589 19.644-17.107 2.37-.138 4.707.636 7.091.691 5.198.125 9.87-3.152 13.555-6.822 3.684-3.67 6.836-7.983 11.218-10.783z"/>
        <path fill="#15192D" d="M542.662 422.616c1.072 2.364 5.675 1.5 7.714 1.562 6.22.208 12.442.65 18.704 1.071 6.704.457 13.416.899 20.141 1.017 4.652.082 13.762 1.479 17.556-1.991 2.91-2.661 2.337-8.792 2.44-12.324.132-4.313-.124-8.62-.38-12.925-.2-3.456.27-7.534-1.68-10.583-2.363-3.69-8.12-2.764-11.874-2.868-5.205-.18-10.437-.546-15.649-.546-3.172-.104-6.4-.214-9.49.553-4.147 1.03-7.188 4.25-10.236 7.092a71.373 71.373 0 0 0-11.93 14.515c-2.316 3.725-7.147 10.596-5.378 15.296l.062.131z"/>
        <circle cx="582.807" cy="412.469" r="21.69" fill="#2F355B"/>
        <circle cx="446.352" cy="406.836" r="22.892" fill="#2F355B"/>
        <path fill="#15192D" d="M459.643 407.313a18.745 18.745 0 0 0-.152-2.765 10.852 10.852 0 0 0-4.5-7.271c-6.69-4.77-17.577-2.813-21.012 4.921-1.534 3.456-1.555 7.603.519 10.845a16.9 16.9 0 0 0 4.147 4.41c6.518 4.838 16.803 3.774 19.934-4.451a17.162 17.162 0 0 0 1.064-5.689zM591.661 403.318a17.536 17.536 0 0 0-1.942-1.742 10.368 10.368 0 0 0-7.921-1.866c-7.707 1.3-13.713 9.932-10.817 17.446a10.97 10.97 0 0 0 7.603 6.912c1.892.408 3.843.469 5.757.18 7.603-1.148 13.824-8.758 10.41-16.403a16.195 16.195 0 0 0-3.09-4.527z"/>
        <rect width="7.451" height="26.604" x="473.149" y="266.953" fill="#15192D" rx="2.772"/>
        <path fill="#2F355B" d="M457.666 233.526a9.269 9.269 0 0 1-.124-1.16c0-.872-.325-1.88-1.147-2.164a2.412 2.412 0 0 0-.92-.083l-5.398.145a2.447 2.447 0 0 1-1.59-.318c-.725-.56-.608-1.652-.573-2.564a4.645 4.645 0 0 0-.691-2.765c-1.058-1.555-3.885-1.382-5.592-1.687a30.08 30.08 0 0 0-6.912-.69c-1.721.09-2.191 1.264-2.343 2.384-.353 2.613-1.645 8.066-2.247 11.19-5.28 27.53-11.418 58.358-17.487 85.66a12.51 12.51 0 0 1-3.456 6.4c-4.707 4.382-16.893 6.719-22.118 8.122a2.544 2.544 0 0 0-1.61 2.115l-.457 2.765c-1.099 6.51-19.139 6.4-23.908 8.294a8.17 8.17 0 0 0-2.862 1.638 3.497 3.497 0 0 0-1.092 3.083 2.972 2.972 0 0 0 2.074 2.073c.973.223 1.98.256 2.965.097 15.94-1.583 32.14-4.458 47.326-9.677 11.432-3.919 17.971-9.828 21.863-21.31 8.135-24.066 11.335-49.696 15.717-74.648.263-2.116.85-4.18 1.742-6.117.995-1.894 1.576-2.979 3.663-3.456 2.088-.477 2.385-.795 4.148-.816 1.997-.13 1.34-4.264 1.03-6.51z"/>
        <path fill="#37456D" d="M442.502 228.93a2.675 2.675 0 0 0-3.36-.221c-3.082 1.742-3.248 6.767-.891 9.124 1.085 1.078 2.765 2.073 2.585 3.58-.097.96-.906 1.666-1.673 2.246-3.815 2.903-8.488 7.285-6.338 11.605.968 1.957 3.138 3.062 4.202 4.97 3.56 6.338-7.23 12.442-6.649 19.727.311 3.912 3.968 7.167 3.546 11.059-.553 5.135-6.76 7.603-8.122 12.593-1.002 3.684 2.945 11.163-.532 13.658-1.61 1.155-4.195.92-5.177 2.655-1.61 2.854-.11 6.22-3.573 8.418-2.122 1.341-5.703.408-7.016 2.965-.45.878-.428 1.95-.926 2.765-.899 1.542-3.014 1.714-4.776 1.542-1.763-.173-3.733-.45-5.115.69-1.134.906-1.493 2.475-2.398 3.609-2.033 2.53-6.366 2.488-7.894 5.357 1.998 1.755 5.053.96 7.548.069 4.403-1.562 8.522-3.145 12.98-4.535 4.148-1.285 8.184-3.062 11.336-6.124 4.39-4.25 6.435-10.367 8.336-16.18 3.684-11.35 7.382-22.754 9.345-34.56 1.963-11.806 2.163-23.888 5.135-35.465.92-3.58 2.115-7.147 2.205-10.845.056-2.163-.746-6.905-2.778-8.702z"/>
        <path fill="#EBF7F7" d="M618.66 82.833l1.008-1.017a1.037 1.037 0 1 0-1.465-1.465l-1.016 1.016a1.039 1.039 0 0 0 1.472 1.466z"/>
        <rect width="217.608" height="144.515" x="141.625" y="199.485" fill="#FFF" rx="10.368"/>
        <circle cx="151.876" cy="208.291" r="2.053" fill="#E6E6E6"/>
        <circle cx="161.4" cy="208.291" r="2.053" fill="#E6E6E6"/>
        <circle cx="170.925" cy="208.291" r="2.053" fill="#E6E6E6"/>
        <path fill="#FFF" d="M272.026 312.654H151.634a2.765 2.765 0 0 1-2.765-2.765v-16.021h125.922v16.021a2.765 2.765 0 0 1-2.765 2.765z"/>
        <rect width="68.739" height="55.973" x="283.258" y="216.364" fill="#EBF7F7" rx="2.765"/>
        <path fill="#EBF7F7" d="M151.634 216.343h120.392a2.765 2.765 0 0 1 2.765 2.765v74.932H148.869v-74.932a2.765 2.765 0 0 1 2.765-2.765z"/>
        <path stroke="#EDEDED" stroke-width=".691" d="M283.507 285.13h42.453M283.486 297.234h68.51M283.486 309.33h68.51M283.5 321.432h68.497M283.486 333.528h68.51M148.87 321.875h28.124M148.87 333.528h63.775"/>
        <rect width="17.059" height="6.518" x="287.778" y="221.541" fill="#E6E6E6" rx="3.256"/>
        <text fill="#FFF" font-family="Lato-Black, Lato" font-size="4.368" font-weight="700">
            <tspan x="293.937" y="226.301">Li</tspan>
        </text>
        <circle cx="291.676" cy="224.797" r="1.21" fill="#FFF"/>
        <rect width="232.137" height="154.164" x="109.844" y="227.008" fill="#FFF" rx="11.059"/>
        <circle cx="121.373" cy="236.575" r="2.191" fill="#E6E6E6"/>
        <circle cx="131.534" cy="236.575" r="2.191" fill="#E6E6E6"/>
        <circle cx="141.695" cy="236.575" r="2.191" fill="#E6E6E6"/>
        <path fill="#FFF" d="M249.728 347.905h-128.77a2.765 2.765 0 0 1-2.764-2.765v-17.28h134.299v17.28a2.765 2.765 0 0 1-2.765 2.765z"/>
        <rect width="73.329" height="59.705" x="261.527" y="245.187" fill="#EBF7F7" rx="2.765"/>
        <path fill="#EBF7F7" d="M120.959 245.187h128.769a2.765 2.765 0 0 1 2.765 2.765v80.095H118.194v-80.095a2.765 2.765 0 0 1 2.765-2.765z"/>
        <path stroke="#EDEDED" stroke-width=".691" d="M261.79 318.543h45.286M261.769 331.455h73.086M261.769 344.36h73.086M261.79 357.264h73.065M261.769 370.175h73.086M118.166 357.734h30.005M118.166 370.175H186.2"/>
        <rect width="18.192" height="6.953" x="266.344" y="250.703" fill="#E6E6E6" rx="3.477"/>
        <text fill="#FFF" font-family="Lato-Black, Lato" font-size="4.666" font-weight="700">
            <tspan x="272.918" y="256.103">Li</tspan>
        </text>
        <circle cx="270.512" cy="254.179" r="1.293" fill="#FFF"/>
        <rect width="246.113" height="163.446" x="72.928" y="257.338" fill="#FFF" rx="11.059"/>
        <circle cx="84.519" cy="267.305" r="2.322" fill="#ED5A48"/>
        <circle cx="95.288" cy="267.305" r="2.322" fill="#ECC973"/>
        <circle cx="106.064" cy="267.305" r="2.322" fill="#2FC8AD"/>
        <path fill="#FFF" d="M220.767 385.333H83.911a2.765 2.765 0 0 1-2.765-2.765v-18.49h142.386v18.49a2.765 2.765 0 0 1-2.765 2.765z"/>
        <rect width="77.745" height="63.299" x="233.105" y="276.429" fill="#EBF7F7" rx="2.765"/>
        <path fill="#EBF7F7" d="M83.883 276.429H220.74a2.765 2.765 0 0 1 2.765 2.765v85.065H81.118v-85.065a2.765 2.765 0 0 1 2.765-2.765z"/>
        <rect width="6.864" height="2.136" x="90.104" y="283.292" fill="#FFF" rx="1.068"/>
        <rect width="6.864" height="2.136" x="99.152" y="283.292" fill="#FFF" rx="1.068"/>
        <rect width="6.864" height="2.136" x="108.192" y="283.292" fill="#FFF" rx="1.068"/>
        <rect width="6.864" height="2.136" x="117.24" y="283.292" fill="#FFF" rx="1.068"/>
        <rect width="6.864" height="2.136" x="126.281" y="283.292" fill="#FFF" rx="1.068"/>
        <rect width="6.864" height="2.136" x="135.329" y="283.292" fill="#FFF" rx="1.068"/>
        <rect width="6.864" height="2.136" x="144.369" y="283.292" fill="#FFF" rx="1.068"/>
        <rect width="6.864" height="2.136" x="153.41" y="283.292" fill="#FFF" rx="1.068"/>
        <rect width="6.864" height="2.136" x="162.458" y="283.292" fill="#FFF" rx="1.068"/>
        <rect width="6.864" height="2.136" x="171.499" y="283.292" fill="#FFF" rx="1.068"/>
        <rect width="6.864" height="2.136" x="180.546" y="283.292" fill="#FFF" rx="1.068"/>
        <rect width="6.864" height="2.136" x="189.587" y="283.292" fill="#FFF" rx="1.068"/>
        <rect width="6.864" height="2.136" x="198.635" y="283.292" fill="#FFF" rx="1.068"/>
        <rect width="6.864" height="2.136" x="207.676" y="283.292" fill="#FFF" rx="1.068"/>
        <rect width="124.27" height="17.093" x="90.194" y="290.011" fill="#FFF" rx="4.147"/>
        <rect width="36.847" height="29.196" x="134.091" y="311.687" fill="#FFF" rx="4.147"/>
        <rect width="36.847" height="29.196" x="90.277" y="311.687" fill="#FFF" rx="4.147"/>
        <rect width="36.847" height="29.196" x="177.699" y="311.687" fill="#FFF" rx="4.147"/>
        <rect width="36.847" height="1.79" x="134.091" y="344.56" fill="#FFF" rx=".892"/>
        <rect width="36.847" height="1.79" x="134.091" y="350.006" fill="#FFF" rx=".892"/>
        <rect width="20.1" height="1.79" x="134.091" y="355.626" fill="#FFF" rx=".892"/>
        <rect width="36.847" height="1.79" x="177.699" y="344.56" fill="#FFF" rx=".892"/>
        <rect width="36.847" height="1.79" x="177.699" y="350.006" fill="#FFF" rx=".892"/>
        <rect width="20.1" height="1.79" x="177.699" y="355.626" fill="#FFF" rx=".892"/>
        <rect width="36.847" height="1.79" x="90.277" y="344.56" fill="#FFF" rx=".892"/>
        <rect width="36.847" height="1.79" x="90.277" y="350.006" fill="#FFF" rx=".892"/>
        <rect width="20.1" height="1.79" x="90.277" y="355.626" fill="#FFF" rx=".892"/>
        <rect width="78.126" height="2.723" x="107.639" y="373.445" fill="#2FC8AD" rx="1.058"/>
        <rect width="29.313" height="2.723" x="186.753" y="373.445" fill="#EAEAEA" rx="1.058"/>
        <circle cx="187.41" cy="374.613" r="2.758" fill="#023A47"/>
        <rect width="16.81" height="7.368" x="88.929" y="370.929" fill="#F66" rx="3.684"/>
        <path fill="#FFF" d="M93.96 374.703l-1.34.808-1.334.802V373.099l1.334.802z"/>
        <text fill="#FFF" font-family="Lato-Black, Lato" font-size="4.133" font-weight="700">
            <tspan x="94.617" y="376.021">Pl</tspan>
        </text>
        <path stroke="#EDEDED" stroke-width=".691" d="M233.367 367.887h77.483M233.367 381.573h77.483M233.388 395.259h77.462M233.367 408.937h77.483M81.118 395.756h31.81M81.118 408.937h72.133"/>
        <rect width="19.291" height="7.368" x="238.22" y="282.283" fill="#F66" rx="3.684"/>
        <text fill="#FFF" font-family="Lato-Black, Lato" font-size="4.942" font-weight="700">
            <tspan x="245.187" y="287.995">Li</tspan>
        </text>
        <circle cx="242.629" cy="285.967" r="1.369" fill="#FFF"/>
        <path fill="#0A758E" d="M235.192 351.817c0 .767-.808 1.279-1.085 1.998-.408 1.064.47 2.19 1.43 2.813 1.307.85 3.035 1.258 4.438.574a6.573 6.573 0 0 0 1.625-1.28l5.28-5.149a2.55 2.55 0 0 0 .595-.767 1.887 1.887 0 0 0-.415-1.804 4.88 4.88 0 0 0-4.88-1.527c-2.765.622-5.592 3.283-6.677 5.813-.22.373-.22.836 0 1.21"/>
        <path fill="#DB7376" d="M263.649 328.628l-.747-.125a4.672 4.672 0 0 0-3.103.38c-2.281 1.14-3.277 7.085-4.182 9.276a1.79 1.79 0 0 1-1.528 1.383c-4.776 1.299-9.345 3.214-14.176 4.492a3.74 3.74 0 0 0-.905.332c-.302.201-.57.448-.795.733l-2.15 2.44a3.193 3.193 0 0 0-.691 1.002c-.263.691-.042 1.48-.125 2.226-.082.746-.407 1.299-.442 1.976-.069 1.21 2.198 2.606 3.297 2.074.733-.339 1.383-2.502 1.624-3.18.087-.253.19-.5.311-.74a2.862 2.862 0 0 1 2.185-1.382c.283 0 .65.139.601.415-.048.277-.311.311-.49.463-.17.178-.286.401-.333.643a2.378 2.378 0 0 0-.13 1.154.816.816 0 0 0 .829.692c.518-.076.69-.692.94-1.175.395-.506.88-.935 1.43-1.265a5.668 5.668 0 0 0 1.797-2.364c.47-1.168 1.023-2.074 2.35-2.184 3.25-.235 6.594-.042 9.857-.152.64.03 1.277-.1 1.852-.38a3.864 3.864 0 0 0 1.21-1.487l4.983-8.881a9.829 9.829 0 0 0 1.57-4.196c-1.694-.892-3.146-1.79-5.04-2.17z"/>
        <path fill="#3A3838" d="M281.481 300.137a79.335 79.335 0 0 0-1.292-8.37 10.154 10.154 0 0 0-.691-2.392c-1.604-3.318-7.348-4.68-9.677-1.286-.733 1.085-.933 2.578-2.018 3.318a8.018 8.018 0 0 1-2.226.733c-1 .292-1.838.978-2.322 1.9a2.765 2.765 0 0 0 .276 2.91c.622.74 1.61 1.03 2.468 1.486.857.457 1.672 1.334 1.444 2.281-.228.947-1.327 1.383-1.762 2.226a2.212 2.212 0 0 0 .463 2.426 4.5 4.5 0 0 0 2.288 1.217c.326.04.63.183.87.407.353.436.09 1.1-.255 1.542-.346.442-.802.891-.788 1.458 0 .995 1.348 1.327 2.343 1.334 2.42 0 4.838-.069 7.25-.27a2.35 2.35 0 0 0 1.431-.449c1.14-1.009 1.715-3.566 2.074-4.997.295-1.127.398-2.295.304-3.456a57.695 57.695 0 0 0-.18-2.018z"/>
        <circle cx="270.374" cy="302.964" r="2.544" fill="#ECC973"/>
        <path fill="#DB7376" d="M278.157 310.691c.546-1.935.518-3.801-1.846-3.29-.85.18-1.983.401-2.765-.11-.933-.616-1.016-1.666-1.237-2.668-.29-1.314-1.486-2.544-1.278-3.92.525-3.456-.45-3.967.11-5.882 1.638-5.647 5.046-3.573 5.806-4.624 1.113-1.513.995-3.165-.567-2.979-.159 0 9.497 4.265 9.767 4.396 0 0 5.046 23.93 5.06 23.943.013.014 9.918 1.5 8.55 3.456-2.295 3.27-16.783 7.652-20.176 7.223l-.553-.069a12.206 12.206 0 0 1-5.599-2.35c-1.05-.767-3.58-2.606-3.843-3.94a3.456 3.456 0 0 1 .297-1.914 1.5 1.5 0 0 1 .456-.692c.234-.145.5-.23.774-.248 2.074-.34 4.638-1.017 5.682-2.993a18.662 18.662 0 0 0 1.362-3.339z"/>
        <path fill="#C46060" d="M290.702 318.702c2.343-.553 4.797-.553 7.085-1.272a.242.242 0 0 0 .138-.09c.048-.09-.055-.186-.145-.241-1.383-.823-3.048-1.058-4.604-1.383l-1.03-.207a3.456 3.456 0 0 1-.746-.221c-.318-.16-.325-.491-.408-.823-.227-.96-.4-1.93-.518-2.91-.042-.283-.083-.56-.138-.836a2.723 2.723 0 0 0-.235-.809 1.79 1.79 0 0 0-1.66-.885 2.668 2.668 0 0 0-1.741.85 3.601 3.601 0 0 0-.933 3.72c.246.663.282 1.387.103 2.073a7.396 7.396 0 0 0-.062 2.467 2.004 2.004 0 0 0 2.6 1.915c1.257-.124 1.969-.836 3.096-1.258 1.349-.47 2.653-1.06 3.898-1.763.138-.069.258-.168.353-.29a.366.366 0 0 0 0-.421.54.54 0 0 0-.325-.146h-.097M277.763 306.44c-.65.327-1.333.58-2.04.754-.2.055-.42.076-.628.117-.07 0-.767.166-.47.29a.366.366 0 0 0 .173 0c.77-.137 1.548-.227 2.329-.269a1.147 1.147 0 0 1 1.237.857c.074.396.1.8.076 1.203 0 .124-.173.615 0 .65a.249.249 0 0 0 .214-.104c.429-.415.526-1.203.802-1.728.31-.43.567-.893.767-1.383a1.044 1.044 0 0 0-.497-1.223c-.733-.318-1.175.353-1.687.691l-.276.145z"/>
        <path fill="#3A3838" d="M298.671 304.685c.187-.049.367-.104.546-.166a4.748 4.748 0 0 0 3.042-5.15 23.203 23.203 0 0 0-.816-2.515 3.262 3.262 0 0 1 .09-2.565c.201-.275.375-.569.518-.878a1.604 1.604 0 0 0-.857-1.72 9.248 9.248 0 0 0-1.963-.692c-2.993-.933-2.108-3.407-3.324-5.592-.781-1.423-2.655-1.762-4.279-1.77-1.624-.006-3.387.14-4.707-.794-.76-.54-1.286-1.382-2.074-1.825-1.327-.74-2.985-.228-4.382.38-1.97.871-3.94.961-5.944 1.652-.408.116-.79.308-1.127.567a3.573 3.573 0 0 0-.891 2.309c-.353 2.688 1.921 4.306 3.933 5.723.656.463 1.534.691 1.942 1.382.691 1.19-.49 2.813.124 4.05.774 1.542 4.147 1.293 4.306 3.014.056.795-.732 1.341-1.223 1.97-.636 1.272-1.057 3.456.691 4.147 1.016.422 2.765-.352 3.546.567.223.319.404.665.54 1.03a4.686 4.686 0 0 0 6.655 1.756c1.77-1.258 2.55-3.726 4.548-4.576.361-.129.73-.23 1.106-.304z"/>
        <path fill="#FFF" d="M304.464 330.653c0-.104 0-.214.034-.325.38-2.476.33-5-.152-7.458a9.31 9.31 0 0 0-.54-1.99 7.852 7.852 0 0 0-2.895-3.083c-4.873-3.38-10.368-.595-15.898-.588-2.073 0-4.264 0-6.324-.145-2.33-.159-4.749-.857-7.05-1.272-2.454-.442-5.15-.843-7.292.429-1.5.891-2.447 2.467-3.325 3.981a37.463 37.463 0 0 0-1.86 3.539c-.85 1.95-1.416 4.092-2.833 5.682-.353.4-.747 1.07-.304 1.382a.87.87 0 0 0 .477.11c1.686.063 5.156-.905 6.296.81.526.787.132 2.163.367 3.068.352 1.382 1.382 2.468 1.541 3.892.332 2.702-1.597 5.149-2.212 7.651-.193.788-.878.636-.31 1.43.269.38 1.845.526 2.294.623 1.365.289 2.753.462 4.147.518 1.846.07 3.629-.47 5.46-.338 2.765.193 5.53.083 8.295.138 5.419.11 10.833-.012 16.243-.367.895-.039 1.787-.14 2.668-.304.351-.04.682-.187.947-.421.26-.33.392-.742.373-1.161.083-1.466-.138-2.966.277-4.376.207-.69.573-1.382.788-2.073.28-1.338.365-2.71.255-4.071.07-1.77.248-3.533.533-5.281z"/>
        <path fill="#EBF7F7" d="M288.856 330.584c-.294.29-.506.652-.615 1.05-.926 2.993-1.458 6.221-3.352 8.792-.691.92-1.659 2.074-1.058 3.263a2.26 2.26 0 0 0 2.371 1.092c2.136-.408 4.23-2.219 4.5-4.362.2-1.54.07-3.103-.38-4.59a7.237 7.237 0 0 1-.463-2.902c.048-.65.656-2.247-.367-2.51a.691.691 0 0 0-.636.167z"/>
        <path fill="#DB7376" d="M299.39 334.012c-.731.055-1.466.055-2.198 0-1.873-.11-5.813-1.223-6.283 1.382-.193 1.023.242 2.26.104 3.346-.152 1.244-.56 2.44-.802 3.663a1.23 1.23 0 0 1-1.161 1.224c-1.382.373-2.765.463-4.147.774-1.631.36-3.263.725-4.9 1.078-3.664.788-7.341 1.527-11.06 2.136l-4.278.69c-.588.105-1.148.264-1.735.374a3.36 3.36 0 0 0-1.66.436c-.198.183-.362.4-.483.642-.636 1.1-1.168 2.24-1.79 3.346a1.707 1.707 0 0 0-.325 1.189c.166.445.55.774 1.016.87.47.084.933.21 1.382.374.29.145.54.366.83.518.391.195.83.276 1.265.235.456-.112.917-.2 1.382-.262.353 0 .615.31.96.4.468.092.951.034 1.383-.165.595-.25 1.113-.692 1.687-.975a5.53 5.53 0 0 1 1.223-.498c.242-.054.475-.142.691-.262a.691.691 0 0 0 .374-.636c0-.208-.18-.408-.132-.615a.691.691 0 0 1 .25-.318c.475-.463.994-.88 1.547-1.245a5.716 5.716 0 0 1 2.44-.387l2.855-.186c1.908-.118 3.808-.235 5.716-.339 3.81-.221 7.624-.42 11.44-.594l.912-.042c.788 0 2.073.076 2.765-.45.69-.524.815-1.513.933-2.239.387-2.398.83-4.727 1.382-7.091.422-1.797 2.571-6.912-.691-6.504a4.96 4.96 0 0 1-.892.131z"/>
        <path fill="#C46060" d="M290.806 337.35c-.042.692-.146 1.383-.222 2.074a15.448 15.448 0 0 1-.345 2.184c-.079.457-.24.895-.477 1.293-.322.35-.744.592-1.21.691a31.981 31.981 0 0 1-3.082.885.691.691 0 0 0-.263.096.235.235 0 0 0-.11.235c.09.36.884.222 1.126.194.242-.028.657-.159.988-.18a16.354 16.354 0 0 0 3.456-.69c1.915-.526 2.565-1.439 2.73-3.457a5.792 5.792 0 0 1 1.611-3.31 26.307 26.307 0 0 1 2.924-2.496c.394-.332.573-.795-.118-.85-.96-.083-1.914-.159-2.875-.228a7.942 7.942 0 0 0-2.585-.076c-1.43.394-1.535 1.755-1.514 2.979-.014.207-.02.435-.034.657z"/>
        <circle cx="286.306" cy="302.245" r="2.544" fill="#ECC973"/>
    </g>
</svg>
