<svg xmlns="http://www.w3.org/2000/svg" width="620" height="430" viewBox="0 0 620 430">
    <g fill="none" fill-rule="evenodd">
        <path fill="#B8E3F2" d="M569.305 378.67a44.937 44.937 0 0 0-13.868-9.918c-21.227-9.787-44.839-4.44-67.245-5.4-54.635-2.365-109.316-4.604-163.997-5.724-32.4-.658-64.873-.658-97.194 1.976-25.245 2.068-67.62 1.607-87.457 19.995-20.324 18.842 2.88 37.539 20.819 43.17 19.178 6.032 40.036 6.645 59.99 6.71 55.716.185 111.438.554 167.147-.282 27.854-.415 55.702-1.133 83.537-2.325 30.687-1.317 61.559-.527 90.454-12.513 5.27-2.2 10.456-5.592 12.979-10.781 4.506-9.286 1.133-18.105-5.165-24.908z"/>
        <path fill="#B8F4F1" d="M601.929 183.578c-19.06-19.85-46.9-24.862-72.963-28.32-63.206-8.39-148.706-14.324-199.046 33.279-17.689 16.734-7.339 34.246 12.096 42.808 9.223 4.076 19.21 5.88 29.073 7.903 20.996 4.3 42.091 9.878 60.663 20.93 19 11.3 35.47 25.368 56.533 33.199 34.666 12.882 81.975 2.529 109.843-21.075 22.11-18.704 27.511-50.02 13.67-75.322a63.1 63.1 0 0 0-9.87-13.402z"/>
        <path fill="#E6EAFF" d="M400.814 117.313c-4.803-23.32-46.182-28.978-64.359-28.543-27.933.658-54.833 9.28-82.35 13.204a837.756 837.756 0 0 1-113.836 8.39c-35.714.192-72.904-6.67-106.516 8.997-3.723 1.732-7.491 3.853-9.678 7.323-3.558 5.651-1.766 13.442 2.569 18.52 4.335 5.077 10.653 7.975 16.898 10.34 47.586 18.018 97.741 12.513 147.218 9.081 59.602-4.129 121.464-5.143 180.032-17.597 6.674-1.422 13.44-3.076 19.23-6.671 5.792-3.596 10.542-9.49 11.141-16.287a23.438 23.438 0 0 0-.349-6.757z"/>
        <path fill="#B8D9F2" d="M265.561 241.599a28.621 28.621 0 0 0-5.797-31.02c-5.027-5.084-11.8-8.08-18.631-10.227-22.775-7.172-42.283-2.319-65.064.5-24.034 2.97-47.981 6.75-71.672 11.789-21.918 4.67-45.767 12.23-57.066 31.612-10.304 17.637-5.718 40.463 4.25 57.297 16.99 28.707 48.83 37.875 80.486 36.472 19.547-.87 38.797-7.686 52.777-21.733 14.184-14.232 21.082-34.905 38.25-46.325 13.934-9.22 35.155-11.255 42.467-28.365z"/>
        <path fill="#602E3F" d="M262.972 184.868l.053-.355a4.23 4.23 0 0 1-.659.131l.606.224z"/>
        <path fill="#456788" d="M165.87 92.008a51.75 51.75 0 0 0 22.308 5.4c5.27.06 10.633-.658 15.324-2.963 11.338-5.625 16.47-19.699 16.259-32.785-.494-29.274-33.421-45.126-57.132-32.488-8.564 4.564-15.33 12.514-17.63 22.313-4.38 18.684 6.088 33.147 20.871 40.523z"/>
        <rect width="6.661" height="37.315" x="169.059" y="41.152" fill="#FFF" rx="1.074"/>
        <rect width="6.661" height="20.001" x="179.06" y="58.466" fill="#FFF" rx="1.074"/>
        <rect width="6.661" height="30.644" x="189.054" y="47.817" fill="#FFF" rx="1.074"/>
        <path stroke="#456788" d="M161.206 75.715l17.254-8.562a3.453 3.453 0 0 1 3.835 0l7.45 3.464c.922.52 1.96.796 3.018.804 1.028-.156 2-.564 2.833-1.186a41.327 41.327 0 0 1 9.665-4.36"/>
        <path fill="#354B63" d="M333.906 91.54a52.428 52.428 0 0 0-1.456-1.508 3.334 3.334 0 0 0-3.347-1.258c-6.41.488-12.78 1.199-19.105 2.279-.942.165-1.555.85-1.318 1.488 0 0 12.3 28.418 13.064 30.638.307.616.982.958 1.66.843a126.287 126.287 0 0 0 14.883-2.279l7.425-1.475c1.588-.31 5.033-.106 4.987-2.364a5.017 5.017 0 0 0-.751-2.167c-4.592-8.562-9.44-17.123-16.042-24.197z"/>
        <path fill="#354B63" d="M360.963 95.116c-.527-2.752-17.129-22.57-19.105-25.177a1.16 1.16 0 0 0-1.977.296c-3.142 5.815-7.951 16.827-8.38 17.65A1.705 1.705 0 0 0 331.74 90c3.05 4.92 17.353 26.284 18.38 27.733a1.265 1.265 0 0 0 2.135-.092c2.708-4.59 9.27-19.566 8.71-22.524z"/>
        <path fill="#FFF" d="M341.687 71.875a1.456 1.456 0 0 0-.508-.494c-.467-.178-.876.316-1.087.77-2.635 5.684-4.611 9.952-7.247 15.517a1.79 1.79 0 0 0 0 1.976c.982 1.613 15.337 23.05 17.38 26.192a.883.883 0 0 0 1.436-.152l7.662-18.526c.324-.79.354-1.671.085-2.483-.955-1.976-12.102-16.26-17.721-22.8z"/>
        <path stroke="#A36550" stroke-linecap="round" stroke-linejoin="round" stroke-width=".528" d="M336.561 89.005l5.481 2.693 5.989 6.25 1.97 5.901"/>
        <path stroke="#14A5A1" stroke-linecap="round" stroke-linejoin="round" stroke-width=".528" d="M337.905 87.055l2.662 6.105 9.724.883 2.536 8.331"/>
        <path stroke="#A36550" stroke-linecap="round" stroke-linejoin="round" stroke-width=".528" d="M342.16 78.948l1.813 2.075"/>
        <path stroke="#14A5A1" stroke-linecap="round" stroke-linejoin="round" stroke-width=".528" d="M341.113 80.555l1.812 2.075"/>
        <path fill="#FFA2C0" d="M334.736 98.805a34.835 34.835 0 0 0-3.36-2.826c0-.224.31-.349.33-.573a.474.474 0 0 0-.165-.336 4.44 4.44 0 0 0-2.57-1.501.336.336 0 0 0 .04-.21c-.04-.264-.29-.442-.514-.587-.89-.573-1.377-.968-2.437-1.027-2.543-.119-4.895.902-7.458.79a11.296 11.296 0 0 0-1.766 0c-.81.092-1.541.474-2.319.658-.777.185-1.759.303-2.635.409a96.648 96.648 0 0 1-8.841.658 197.13 197.13 0 0 1-5.587.1c-.76.03-1.52-.01-2.273-.12a12.178 12.178 0 0 1-2.042-.618l-4.52-1.68a34.32 34.32 0 0 0-6.245-1.534c-1.416-.237-3.294 0-3.828 1.554-.48 1.317-1.258 3.951-.619 5.308.527 1.113 3.024 1.857 4.085 2.45 1.65.909 3.23 1.937 4.73 3.076 1.495 1.12 3.584 1.402 5.27 2.173.72.394 1.506.653 2.32.764a5.865 5.865 0 0 0 2.371-.527c2.635-.968 5.224-1.857 7.833-2.766 4.39-1.53 8.873-2.784 13.42-3.754a5.931 5.931 0 0 1 1.733-.184c1.278.125 1.976 1.027 3.057 1.593.692.338 1.416.605 2.16.797 1.042.31 2.32.145 3.4.185.257 0 .58 0 .698-.25a.553.553 0 0 0 0-.343c-.131-.823-1.218-.948-1.805-1.278-1.377-.764-.079-.79.79-1.376.43-.385.992-.59 1.569-.573.293.076.567.213.804.402 1.317.882 2.536 1.587 4.17 1.475.118 0 .27-.06.263-.171a.25.25 0 0 0-.059-.158zM113.66 104.943a41.519 41.519 0 0 0-4.467-.264 4.791 4.791 0 0 0-2.325.376 3.128 3.128 0 0 0-1.127 1.514l-2.536 5.539c-.159.256-.195.57-.1.856.245.58 1.094.784 1.747.85a103.575 103.575 0 0 1 22.59 5.064c.659-5.077 4.645-5.499 6.522-10.043l-8.07-3.688c-3.67.928-7.985.217-12.214-.204M107.803 104.943l-1.318-.126"/>
        <path fill="#EBF7F7" d="M113.163 118.878c-.384 1.698.453 2.62 2.903 3.008 4.318.68 12.65 1.332 17.017 1.53 8.693.537 19.696 1.073 29.207 1.073 6.373 0 9.951-1.567 16.223-1.073 2.668.204 5 1.014 7.583 1.436 3.386.546 6.772.889 10.139 1.593 6.357 1.318 12.774-1.053 18.98.033 4.612.817 8.387 1.225 11.108-3.846 1.778-3.293 1.653-7.422.322-10.939-1.33-3.517-3.742-6.527-6.403-9.187a28.393 28.393 0 0 0-6.628-5.157c-5.165-2.746-11.134-2.904-16.813-2.18-5.415.698-9.631 1.423-15.02 1.153-12.294-.613-24.692-.435-36.992-.31-7.372.08-16.093.077-23.84.202-1.095 0-1.26.694-1.557 1.724l-5.264 17.37c-.132.409-.58 1.872-.965 3.57z"/>
        <path fill="#FFA2C0" d="M148.577 80.726l-1.318.033a502.404 502.404 0 0 1-12.662-16.668c-1.944 1.712-4.684 3.095-6.41 5.018-.228.21-.388.483-.462.784a1.6 1.6 0 0 0 .192.83c3.366 7.692 8.432 15.47 13.327 22.293 2.451-4.092 4.895-8.189 7.333-12.29z"/>
        <path fill="#2F355B" d="M138.635 66.422a.705.705 0 0 0 .066-.922c-.856-1.14-3.03-4.037-4.684-6.158-1.654-2.12-4.289-2.601-6.061-1.251l-23.559 17.953c-1.12.863 1.285 4.92 5.014 3.339l13.835-4.61h3.34c.303-.06 3.208.58 2.681-2.898-.56-3.708 2.998-2.917 5.066-2.977 1.707-.052 2.188-.54 3.334-1.495l.968-.981zM111.888 104.475a.698.698 0 0 0-.191-.896 778.63 778.63 0 0 0-6.24-4.61c-2.187-1.594-4.848-1.277-6.166.514l-17.537 23.9c-.837 1.14 2.635 4.353 5.751 1.785l11.958-8.318 3.195-.968c.27-.145 3.241-.356 1.752-3.544-1.587-3.391 2.05-3.635 4.019-4.28 1.614-.534 1.976-1.14 2.774-2.378l.685-1.205z"/>
        <path fill="#2FC8AD" d="M288.75 102.685c.086-.375.291-.818.357-1.18.435-2.51 4.045-7.37 3.465-9.642-.58-2.272-8.801-4.34-11.061-5.269a22.629 22.629 0 0 0-3.887-1.317 17.629 17.629 0 0 0-5.132-.184 46.734 46.734 0 0 0-18.901 5.868c-1.588.876-3.294 1.923-3.795 3.662-1.904 6.928 8.565 8.482 12.708 9.055 7.195.995 14.81 1.469 22.19 2.417a4.613 4.613 0 0 0 1.771 0c1.443-.435 1.93-1.882 2.285-3.41z"/>
        <path fill="#FFF" d="M236.211 103.178c.098-.985.138-1.975.119-2.964-.178-6.125-9.691-6.658-14.026-6.369-6.977.468-13.486-2.535-20.66-1.672-2.771.386-5.52.918-8.235 1.593-4.902 1.113-11.615 3.333-16.57 2.147-5.27-1.258-9.882-5.393-13.551-9.147-2.787-2.852-5.37-5.928-8.136-8.792-2.392-2.496-5.132-6.073-8.42-7.39a1.318 1.318 0 0 0-.659-.131 1.423 1.423 0 0 0-.724.447c-2.247 2.13-5.457 7.074-10.72 8.845-6.457 1.606-6.457 7.253-8.61 10.432a.928.928 0 0 0-.21.566c.041.173.13.33.256.455 2.418 2.812 5.93 4.682 8.565 7.33 5.679 5.69 10.87 11.854 16.371 17.69 2.74 2.924 5.653 5.835 9.29 7.527 6.166 2.878 12.952 1.712 19.487 1.831l21.787.382 18.789.336c5.04.085 10.54 1.87 12.9-3.543 1.607-3.649 1.837-7.686 2.035-11.611.119-2.53.672-5.302.922-7.962z"/>
        <path fill="#FFA2C0" d="M291.802 123.008l4.354-1.021c4.129-.957 8.24-1.98 12.333-3.07 1.608-.427 3.064-1.316 4.678-1.718 1.976-.514 3.01.132 4.756.863a6.972 6.972 0 0 0 2.477.355c1.654.053 3.677.659 5.27.441.593-.17 1.193-.308 1.8-.414a6.722 6.722 0 0 0 2.18-.185c1.08-.441-.118-1.192.099-1.436.362-.401 1.252-.573 1.285-1.257.04-.87.217-.771.85-1.357a.797.797 0 0 0 .31-.494c0-.402-.482-.6-.877-.659.694-.272 1.373-.58 2.036-.922.32-.112.582-.35.724-.658a.89.89 0 0 0-.658-1.001 2.788 2.788 0 0 0-1.318 0c-2.021.36-4.077.488-6.127.382-1.001-.053-3.775-.435-1.878-1.844.574-.428 1.516-.738 1.647-1.528.159-.916-.757-1.252-1.535-.955-.51.26-1.001.558-1.469.889-1.746.968-4.124.29-5.751 1.449-.6.428-1.028 1.073-1.64 1.488a5.22 5.22 0 0 1-2.425.711c-4.157.442-8.334 0-12.517 0-3.756 0-7.643 1.021-11.365.211-4.611-1.007-9.401-3.484-13.677-5.473-3.386-1.567-4.611 7.811-3.26 9.22l2.582 2.7a17.885 17.885 0 0 0 3.043 2.734c.705.46 1.476.823 2.2 1.251 2.458 1.43 3.73 2.832 6.648 2.338a86.183 86.183 0 0 0 5.225-1.04z"/>
        <path fill="#FCD685" d="M292.915 73.824a6.235 6.235 0 0 1 .461-3.859c.45-.732.969-1.42 1.548-2.055a9.988 9.988 0 0 0-1.034-13.395 4.223 4.223 0 0 0-1.772-1.093 9.108 9.108 0 0 0-1.977-.1c-4.051-.098-7.853-2.35-11.516-3.8a12.198 12.198 0 0 0-9.486.475c-3.953 1.785-6.009 5.216-8.703 8.364-1.62 1.883-3.255 4.096-3.222 6.698.033 2.094.988 4.215 1.258 6.302.528 4.117.705 8.299 1.048 12.434 2.74-.204 5.494-1.132 8.202-.98 2.026.178 3.987.8 5.745 1.823 1.456.784 3.004 2.635 4.552 3.076 2.972.817 5.712-3.649 8.69-4.241 1.16-.23 2.306 0 3.459-.053a3.756 3.756 0 0 0 3.142-1.66c1.37-2.298.007-5.15-.395-7.936z"/>
        <path fill="#FFA2C0" d="M258.617 77.657a22.704 22.704 0 0 0-5.731 6.35c-.303.533-.567 1.237-.198 1.725.18.204.406.362.659.46 4.388 2.082 12.78 8.345 17.834 5.73 5.844-3.036-.08-12.039 8.854-11.716.936 0 1.832.613 2.728.85a1.74 1.74 0 0 0 1.87-.442c.134-.252.253-.511.357-.777.316-.599.975-.948 1.357-1.508.764-1.093.705-2.285 1.778-3.214a6.587 6.587 0 0 0 1.727-1.778c.081-.147.126-.312.131-.48a1.277 1.277 0 0 0-.204-.567c-.659-1.205-1.206-2.634-.77-3.919.157-.467.434-.895.546-1.376.075-.397.09-.803.046-1.205l-.125-2.371c-.053-.942-.145-2.154-.982-2.76a5.872 5.872 0 0 0-2.892-.744c-2.055-.118-4.084.428-6.14.382-2.055-.046-4.407-.896-6.259.178-2.305 1.317-3.09 5.321-4.387 7.528-2.477 4.228-6.549 6.704-10.199 9.654z"/>
        <path fill="#DD8EAF" d="M279.798 80.344c.738.093 1.47.415 2.194.494-1.838-1.363-3.88-2.496-5.765-3.806a5.171 5.171 0 0 1-1.317-1.192c-.402-.573-.56-1.278-.936-1.864-.145-.23-.56-.659-.83-.296-.132.164 0 .467 0 .658a6.972 6.972 0 0 0 .264 1.917c.303.797.942 1.462 1.093 2.298a2.14 2.14 0 0 1-.935 2.127c-.35.224-.758.336-1.12.527a1.126 1.126 0 0 0-.376 1.897c.573.705.224 1.39-.105 2.186-.21.494-.751 2.035.112 2.24.296.072.79-.264 1.067-.356.277-.092.824-.204 1.008-.606.057-.16.083-.33.08-.5.105-1.937.56-4.057 2.312-5.164.862-.5 1.86-.714 2.852-.612.123 0 .257.017.402.052z"/>
        <path fill="#FCD685" d="M291.841 56.84a6.89 6.89 0 0 0-2.22-1.693c-3.406-1.877-7.451-2.279-11.338-2.088a8.857 8.857 0 0 0-3.834.837c-2.392 1.317-3.789 3.951-4.691 6.368-.705 1.897-1.608 3.748-1.977 5.75a11.62 11.62 0 0 0-.31 2.41c.06.804.838 1.442 1.2 2.114.744 1.383.27 3.128.757 4.61a.441.441 0 0 0 .112.204c.145.132.376.053.534-.052a4.313 4.313 0 0 0 1.687-2.905c.217-1.126.23-2.292.52-3.405 1.509-5.723 7.695-4.438 12.102-5.512a14.297 14.297 0 0 0 6.944-3.826c1.087-1.094 1.094-2.022.514-2.812z"/>
        <path fill="#2FC8AD" d="M269.343 118.41a2.8 2.8 0 0 1 .995 0c.524.183.995.493 1.37.903.968.77 2.069 1.554 3.294.73.25-.206.472-.445.659-.71 1.364-1.627 3.524-1.976 5.033-3.478 1.015-1.027 4.849-4.695 3.801-6.381a50.176 50.176 0 0 1-5.303-11.638c-2.18-7.007-4.869-14.91-11.654-18.65-5.508-3.03-12.155-1.318-16.78 2.45-3.867 3.167-6.977 7.066-11.127 9.918-.83.566-1.78 1.435-2.767 1.718-.96.21-1.937.335-2.919.376a35.588 35.588 0 0 1-7.003-.132c-4.612-.46-9.177-1.357-13.802-.915-.593.059-1.318.217-1.509.783-.19.567.04 1.68.066 2.233l.461 8.12c.058 2.122.278 4.235.66 6.323.717 3.359 2.246 6.474 3.76 9.55 1.358 2.765 2.142 7.033 5.62 7.33 4.612.401 9.349-1.318 13.947-1.7 2.22-.197 4.48-.296 6.68-.593l11.912-1.613c3.88-.527 7.873-1.093 11.266-3.056.744-.5 1.526-.94 2.338-1.317a4.303 4.303 0 0 1 1.002-.25z"/>
        <path fill="#FCD685" d="M268.552 57.9c-.441-.336-.909-.659-1.377-.929a3.789 3.789 0 0 0-1.12-.527c-1.403-.329-2.635.837-3.794 1.706-2.906 2.213-6.549 2.78-9.843 4.143-2.57 1.067-3.828 3.536-4.552 6.21a23.543 23.543 0 0 0-.547 6.013c-.052.868.03 1.739.244 2.582a5.098 5.098 0 0 0 2.035 2.634c.399.944.981 1.799 1.713 2.516a9.884 9.884 0 0 0 4.85 2.338c1.858.48 3.824.334 5.592-.415 1.713-.837 3.005-2.7 2.728-4.61-.435-2.957-.718-3.293 1.574-5.23 2.115-1.79 2.603-3.688 3.294-6.184.699-2.634 2.563-5.09 1.318-7.903a6.461 6.461 0 0 0-2.115-2.344z"/>
        <path fill="#DD8EAF" d="M296.907 99.108c-.105-.257-.243-.501-.362-.751a1.56 1.56 0 0 1-.145-1.16c.119-.329.422-.599.435-.948a.797.797 0 0 0-1.272-.625c-.658.533-1.521 1.633-1.502 2.535l.04 1.976a.816.816 0 0 0 .237.658.797.797 0 0 0 .692 0c.5-.164.995-.355 1.482-.566a.876.876 0 0 0 .474-.362.75.75 0 0 0 0-.435 3.055 3.055 0 0 0-.079-.322zM294.964 112.477l-.106-.106a1.193 1.193 0 0 0-.658-.177c-.475 0-.949-.08-1.423-.152a3.506 3.506 0 0 0-1.898 0c-.731.303-.784 1.153-1.225 1.712-.608.84-1.158 1.72-1.647 2.635a.415.415 0 0 0-.08.204c0 .178.245.244.422.237 1.08-.04 1.944-.856 2.9-1.357 1.159-.612 2.588-.816 3.478-1.784.18-.183.307-.41.369-.659a.777.777 0 0 0-.132-.553z"/>
        <path fill="#0CBC9C" d="M267.485 115.335a430.131 430.131 0 0 0-3.69-3.293c-1.91-1.686-4.09-3.089-5.817-4.999a3.65 3.65 0 0 0-4.19-1.185c-.319.069-.61.232-.836.468-.488.599-.06 1.257.04 1.896.097.69.132 1.386.105 2.081a14.327 14.327 0 0 1-1.37 4.894 16.363 16.363 0 0 1-1.055 2.226 17.783 17.783 0 0 1-3.333 4.05 15.468 15.468 0 0 1-2.102 1.594c-.375.243-1.75 1.082-1.74 1.363.012.281 4.484-.532 5.64-.632 1.973-.17 3.753-.422 5.703-.731 1.95-.31 4.166-.283 6.057-.764.81-.192 1.609-.432 2.391-.718.822-.346 1.621-.744 2.392-1.192l2.069-1.14a6.59 6.59 0 0 1 1.541-.69 12.963 12.963 0 0 1 1.667-.034 45.525 45.525 0 0 0-3.472-3.194zM288.75 101.145c-.296-.297-2.779-2.637-3.583-3.341-.533-.475-1.067-.949-1.594-1.43-.527-.48-.949-.658-1.416-1.053-1.087-.87-2.313-1.535-3.44-2.338-.572-.409-1.04-.962-1.607-1.364-1.146-.816-.79.77-.533 1.271.619 1.206 1.1 2.49 1.62 3.741.764 1.831 1.522 3.662 2.3 5.493.322.764.658 1.528.994 2.285.608 1.019.666 1.375 1.144 1.441.56.056 2.037.279 2.723.331.938.08 1.907-.181 2.519-1.033.307-.468.843-2.153.949-2.703.163-.639.405-.853-.076-1.3z"/>
        <path fill="#2FC8AD" d="M86.273 209.743a27.734 27.734 0 0 0-.31-1.054c-3.234-10.577-10.751-19.639-20.152-25.467-20.753-12.869-51.704-5.973-61.928 17.07-7.517 16.972-3.67 38.778 11.68 50.053 8.565 6.283 19.343 9.022 29.93 8.878 13.176-.172 28.988-7.337 36.386-18.685 5.85-8.937 7.234-20.481 4.394-30.795z"/>
        <g transform="translate(23.337 206.635)">
            <rect width="40.82" height="26.534" fill="#456788" rx="2.174"/>
            <path fill="#FFF" d="M16.78 13.205V9.2a1.008 1.008 0 0 1 1.588-.816l2.595 1.844 3.024 2.16a.994.994 0 0 1 0 1.633l-3.024 2.16-2.595 1.844a1.002 1.002 0 0 1-1.588-.796v-4.024z"/>
        </g>
        <path fill="#A36550" d="M140.796 162.562l.797-3.951a.658.658 0 0 0 0-.415.659.659 0 0 0-.276-.23 12.77 12.77 0 0 0-2.188-1.041c-.12-.248-.27-.48-.448-.692a4.572 4.572 0 0 0-1.106-.823c-1.483-.876-3.03-2.272-4.75-.909-1.318 1.054-4.803.929-6.41 1.199-.277.046-.547.098-.817.164a13.494 13.494 0 0 0-6.068 3.181 9.174 9.174 0 0 0-2.47 3.478c-.95 2.522-.132 5.874-1.628 8.173-1.18 1.804-2.813 3.293-3.953 5.268a57.433 57.433 0 0 0-3.037 6.323c-.362.882-1.317 2.443-1.173 3.444.39 3.102 4.612 5.091 7.34 5.565 1.33.12 2.641.407 3.9.856.487.204 5.35 2.806 5.455 2.635.92-1.271 1.75-2.605 2.483-3.991.287-.47.472-.995.54-1.541.04-.606-.368-.494-.447-.758a2.739 2.739 0 0 1 0-1.212c.16-1.149.405-2.284.73-3.398.258-.889.66-3.187 1.516-3.681 1.054-.6 2.484.283 3.617-.139 1.133-.421 1.614-1.574 2.023-2.634a16.003 16.003 0 0 1 2.319-3.477c1.054-1.403 2.081-3.49 2.009-5.27a4.32 4.32 0 0 1 .659-3.009c.374-.426.703-.89.981-1.383.103-.27.18-.55.23-.836l.172-.896z"/>
        <path fill="#7F5A4B" d="M113.12 172.033c.51-1.089.95-2.209 1.317-3.353.23-.619 1.147-3.951 2.05-2.733.185.32.253.696.19 1.06a17.322 17.322 0 0 1-.79 3.293 10.119 10.119 0 0 0-.046 3.425 21.727 21.727 0 0 0 1.864 6.915c.79 1.713 1.825 3.438 1.726 5.315a2.496 2.496 0 0 1-.903 1.943c-.402.243-.85.4-1.317.46-1.318.264-2.807.501-3.953-.216a5.527 5.527 0 0 1-1.318-1.285l-2.088-2.634a5.696 5.696 0 0 1-1.423-3.998c.145-1.705 1.673-4.103 2.635-5.48.442-.598.955-1.152 1.384-1.764.245-.3.47-.618.672-.948z"/>
        <path fill="#735E5E" d="M135.256 176.643l-.132.329a.658.658 0 0 1 .132-.33z"/>
        <path fill="#3A3838" d="M123.325 145.623a8.244 8.244 0 0 1 2.964-.546c2.596-.066 4.645.783 7.036 1.58 2.939.968 6.094 1.192 8.94 2.45a6.898 6.898 0 0 1 2.8 1.976 3.22 3.22 0 0 1 .475 3.293c-.317.658-.91 1.146-1.048 1.837a6.965 6.965 0 0 0 .086 1.522c.079 2.298-2.668 3.8-4.645 3.372-2.213-.475-4.223-2.108-6.529-2.18a2.873 2.873 0 0 0-2.088.711 3.998 3.998 0 0 1-.817.784c-.856.46-1.7-.35-2.556-.37-1.977-.039-2.352 2.523-2.635 3.952a.441.441 0 0 1-.119.27c-.145.126-.356 0-.54 0-.185 0-.52.191-.79.165-.943-.086-.159-3.043-.324-3.714-.395-1.647-2.457-1.252-3.544-.547-2.2 1.43-1.45 4.86-1.318 7.113a.718.718 0 0 1-.046.408.804.804 0 0 1-.527.323c-1.317.388-3.103.415-3.953-.87-.73-1.093-.73-2.502-.698-3.82-.028-2.789.23-5.574.77-8.31.482-2.075 1.437-4.255 3.36-5.177 1.147-.547 1.8-.777 2.636-1.752a8.827 8.827 0 0 1 2.886-2.404c.072-.028.147-.05.224-.066z"/>
        <path fill="#2DB2B2" d="M85.66 223.758a23.96 23.96 0 0 0-5.06-1.805c-1.468-.402-2.885-.658-4.103-1.007a4.613 4.613 0 0 1-2.207-.692l-.106-.079 16.661 14.838a44.409 44.409 0 0 0-1.686-7.053 8.253 8.253 0 0 0-3.498-4.202z"/>
        <path fill="#F3C174" d="M153.491 214.215c-1.054-5.137-3.623-10.366-5.356-15.319-1.087-3.102-2.266-6.355-4.756-8.502-1.878-1.614-4.223-2.035-6.259-3.365-2.036-1.33-4.012-2.602-6.331-3.023-1.377-.25-3.215-.152-4.052 1.152-1.653 2.569-5.395 2.24-8.255 1.798a15.246 15.246 0 0 1-9.104-4.906 6.225 6.225 0 0 0-1.522-1.45c-.975-.54-2.18-.381-3.294-.21a608.926 608.926 0 0 0-15.35 2.634c-2.4.336-4.74 1.001-6.957 1.976a11.468 11.468 0 0 0-5.054 5.407c-1.245 2.483-.44 5.104-1.462 7.534-.481 1.146-1.2 2.18-1.772 3.293-2.043 3.952-2.122 8.562-2.161 12.968l-.046 4.847c0 1.1 1.087 1.258 1.976 1.225 2.635-.092 6.041-.138 8.117 1.943 2.075.889 4.308 1.435 5.975 3.062 1.528 1.495-.402 10.472.5 12.414 3.782 8.127 10.97 10.768 17.597 16.959 7.807 7.29 18.27 1.923 26.827-1.469a6.213 6.213 0 0 0 2.668-1.646c.758-.935.923-2.206 1.054-3.412.363-3.246.751-6.46 1.358-9.648.606-3.187.382-6.474.803-9.642a6.98 6.98 0 0 1 .547-2.18 6.08 6.08 0 0 1 1.851-2.015 36.698 36.698 0 0 1 5.08-3.056c3.294-1.732 8.327-2.779 7.378-7.37z"/>
        <path fill="#14A5A1" d="M115.88 243.812l.217.145z"/>
        <path fill="#E8B170" d="M135.117 250.753c-.777-.803-3.663-1.62-4.473-2.147-1.673-1.08-3.03-2.588-4.671-3.727a15.596 15.596 0 0 0-2.405-1.318c-3.537-1.607-7.319-1.06-10.949-2.357-2.905-1.034-6.654-1.884-8.05-5.019a19.589 19.589 0 0 0-.771-1.89c-.66-1.146-1.977-1.758-3.19-2.272-.414-.171-.948-.336-1.528-.507-2.384-.711-5.632-1.587-5.323-4.037.31-2.45 4.744-5.071 2.636-7.673a8.3 8.3 0 0 0-.778-.744 4.477 4.477 0 0 1-1.001-4.024 13.215 13.215 0 0 1 1.706-3.951 45.77 45.77 0 0 1 3.294-5.236c.797-1.126 2.55-3.53.165-3.715-8.32-.619-5.857 9.53-8.09 14.49a3.898 3.898 0 0 0-.52 1.975c.203 1.778-.113 3.47.098 5.269.237 1.975-.086 3.141-.553 5.012-1.127 4.504.184 6.144 3.742 8.344l5.507 3.398 11.352 7.02a8.73 8.73 0 0 0 1.594.83 8.363 8.363 0 0 0 2.141.35l7.583.572c.62.047 1.317.158 2.029.25 2.596 1.772 4.967 3.761 8.393 3.399.817-.092 2.556-.784 2.28-1.976a.659.659 0 0 0-.218-.316z"/>
        <path fill="#A36550" d="M175.021 220.755c.949 5.492-5.191 6.5-9.592 8.825l-10.383 5.48c-2.319 1.224-5.863 3.95-8.452 1.909a9.003 9.003 0 0 1-2.286-3.458 38.437 38.437 0 0 0-2.293-4.221c-.534-.87-1.831-2.18-1.759-3.22a3.806 3.806 0 0 1 .81-1.851 35.515 35.515 0 0 1 6.147-6.882c1.43-1.239 3.663-2.391 5.158-.56.804.988.66 2.404 1.456 3.45 1.167 1.601 3.294 1.555 5.113 1.357l14.79-1.672a1.226 1.226 0 0 1 1.048.21c.14.183.225.403.243.633z"/>
        <path fill="#A36550" d="M174.297 211.179c.6-.764 1.976-2.16 3.096-1.745 1.845.698-.217 3.022-1.028 3.714a8.456 8.456 0 0 0-2.635 3.596 17.426 17.426 0 0 1-3.353 4.735l-2.892 3.135c-.203.26-.448.482-.725.658a1.977 1.977 0 0 1-1.146.152 3.03 3.03 0 0 1-2.53-2.871c.015-.665.179-1.318.48-1.91a4.795 4.795 0 0 1 1.93-2.299 5.745 5.745 0 0 0 1.463-.81c.28-.37.52-.767.719-1.185.724-1.153 2.147-1.588 3.399-2.121 1.594-.691 2.253-1.785 3.222-3.05z"/>
        <path fill="#FFF" d="M103.784 179.685c.501-1.146 1.977-1.442 2.972-2.245 1.403-1.166 2.081-2.26 3.504-.66 1.193 1.318 2.484 2.583 3.65 3.952 1.318 1.542 2.352 2.997 4.17 3.985a16.244 16.244 0 0 0 6.022 1.883c.229.04.463.04.692 0 .247-.081.473-.218.659-.401a7.705 7.705 0 0 0 2.213-3.293c.303-.896 2.537.843 2.734 1.165.358.71.581 1.481.659 2.273l.362 2.166a.915.915 0 0 1 0 .481.955.955 0 0 1-.428.408c-2.55 1.555-4.901-.144-7.398-1.152a8.692 8.692 0 0 0-1.265-.435c-1.002-.224-2.563-.23-3.446.369-.659.448-1.16 1.35-1.72 1.923-1.403 1.442-3.148 2.424-5.092 1.258-1.647-.981-2.273-2.977-3.426-4.492-1.317-1.732-3.392-2.871-4.5-4.741a2.732 2.732 0 0 1-.362-2.444z"/>
        <path fill="#7F5A4B" d="M123.694 177.295c.797.994 1.62 1.975 2.404 2.976.224.297.395.626.659.91.106.123.236.224.382.296.14.094.285.18.435.256.067.04.15.04.217 0a.21.21 0 0 0 .053-.079c.15-.329.314-.652.494-.968a1.08 1.08 0 0 1 .955-.513h1.239a.099.099 0 0 0 .086-.033.072.072 0 0 0 0-.092c-.046-.04-.112-.06-.165-.1l-.105-.072-.27-.184a15.06 15.06 0 0 0-.738-.461 49.603 49.603 0 0 0-1.977-1.107 23.716 23.716 0 0 0-2.062-.98 3.954 3.954 0 0 0-1.456-.422c-.151 0-.316.052-.31.23a.658.658 0 0 0 .159.343z"/>
        <path fill="#1E1F23" d="M75.449 296.834a4.446 4.446 0 0 0-2.102 2.753c-.329 1.093.238 2.26.916 3.181a20.026 20.026 0 0 0 6.186 5.21c2.34 1.396 4.375 1.468 7.083 1.284a3.249 3.249 0 0 0 1.225-.264 2.549 2.549 0 0 0 1.16-1.672c.73-2.747-.916-5.533-2.636-7.778a8.49 8.49 0 0 0-2.28-2.22 7.743 7.743 0 0 0-2.595-.836c-2.319-.395-5.04-.731-6.957.342z"/>
        <path fill="#A36550" d="M91.853 293.72c0-.343.396-.66.725-.916l12.234-9.728c.323-.256 5.27 1.976 5.745 2.167l4.262 1.607c1.595.606 2.273.547 4.105.547l-10.456 7.066a55.93 55.93 0 0 1-7.86 4.716c-.267.144-.56.238-.862.276a1.911 1.911 0 0 1-.778-.158c-2.015-.744-3.676-1.258-4.96-2.76l-1.865-2.205a.836.836 0 0 1-.29-.613z"/>
        <path fill="#2F355B" d="M83.21 306.39a8.56 8.56 0 0 1-.316-1.488 7.535 7.535 0 0 0-4.757-5.585c-.83-.303-1.772-.487-2.345-1.159-1.694-1.976 2.832-3.161 3.893-3.59 3.064-1.23 6.1-2.535 9.184-3.714.995-.382 2.075-.401 3.024-.895 1.377-.725 2.681-1.62 4.038-2.391.291-.193.623-.317.969-.362.413.023.812.16 1.153.395.751.348 1.456.79 2.095 1.317.503.669.84 1.448.981 2.272a7.512 7.512 0 0 1-.428 4.874c-.138.303-.263.73 0 .902.264.171.58-.08.876-.053.373.08.614.443.54.817a1.903 1.903 0 0 1-.54.935c-1.278 1.482-2.78 3.293-4.611 4.116a14.362 14.362 0 0 0-4.078 2.852c-1.581 1.62-2.392 3.576-5.014 3.464a6.537 6.537 0 0 1-3.538-1.317 3.51 3.51 0 0 1-1.06-1.12 1.975 1.975 0 0 1-.066-.27z"/>
        <path fill="#EBF7F7" d="M101.577 284.67c-.915.659-2.292-.033-2.852-1.14a7.723 7.723 0 0 1-.501-3.687c.176-6.055.35-12.11.52-18.164.033-.955.093-1.976.692-2.634a3.064 3.064 0 0 1 1.766-.79c4.289-.837 8.683-.89 13.031-1.318a76.397 76.397 0 0 0 21.826-5.545c8.156-3.412 15.654-10.491 25.035-9.168 4.1.553 7.738 2.911 9.915 6.428 2.234 3.734 2.517 8.562 1.443 12.79-1.074 4.228-3.367 7.903-5.969 11.117-14.263 17.782-36.775 23.63-56.078 34.167-.948.52-1.976 1.067-3.024.942-2.635-.316-4.65-5.427-6.212-7.567-3.176-4.373-6.213-8.865-9.414-13.211-.396-.534 30.476-22.748 33.348-24.618 5.198-3.385 11.154-6.033 15.337-10.887 2.372-2.74 4.744-4.9 7.557-6.315"/>
        <path fill="#FFA2C0" d="M148.438 248.488a13.703 13.703 0 0 0-2.635 2.028c-.659.659-1.45 2.028-2.253 2.47-.804.441-2.583-.218-3.432-.303-1.002-.099-2.01-.119-3.011-.224-1.18-.119-.659-.902-.198-1.752a9.984 9.984 0 0 1 1.417-1.87 22.643 22.643 0 0 1 7.668-5.664c2.108-1.001 4.217-1.976 6.298-3.003a15.112 15.112 0 0 0 5.324-4.077c1.838-2.384 2.543-5.42 3.65-8.226a28.935 28.935 0 0 1 3.201-5.927 29.355 29.355 0 0 1 2.141-2.713c.66-.738 1.49-1.317 2.122-2.049a7.773 7.773 0 0 1 1.976-1.93c5.462-3.404 12.09-4.227 18.48-4.971l1.403 4.452c.236.664.395 1.354.474 2.054.033.323.277 1.357 0 1.555a.62.62 0 0 1-.243.072c-2.9.389-5.838.553-8.703 1.146a17.165 17.165 0 0 0-7.906 3.576c-2.233 1.976-3.656 4.663-4.83 7.39-1.172 2.726-2.167 5.558-3.754 8.067a12.746 12.746 0 0 1-5.323 4.94c-2.49 1.112-4.988 2.304-7.577 3.227a25.66 25.66 0 0 0-4.289 1.732z"/>
        <path fill="#C985A6" d="M183.25 218.845c.118 0 .204-.04.21 0a2.41 2.41 0 0 0-.204-.54 4.165 4.165 0 0 0-.975.25s.178.46.139.468c-.04.006.533-.119.83-.178zM170.232 227.215a1.594 1.594 0 0 0-.396-.23.112.112 0 0 0-.065 0l-.04.046-.217.395a2.114 2.114 0 0 1-.205.33v.052c.057.014.112.031.165.053 0 0 .336.171.31.204l.46-.692s.047-.065.034-.105a.105.105 0 0 0-.046-.053zM165.89 234.5a.402.402 0 0 0-.395-.547c-.155-.01-.31.003-.461.04-.682.11-1.372.165-2.062.164-.351.02-.703.02-1.054 0a1.456 1.456 0 0 0-.989.099 1.535 1.535 0 0 0-.467.658 7.205 7.205 0 0 1-1.35 1.936c-.232.244-1.562 1.041-1.101 1.47.132.124.415.124.58.216.29.158.56.323.85.475.58.29 1.181.54 1.798.744.323.12.66.197 1.001.23a.5.5 0 0 0 .264 0 .62.62 0 0 0 .171-.151 15.489 15.489 0 0 0 3.182-5.19.797.797 0 0 0 .033-.145zM168.308 228.262a14.947 14.947 0 0 0-3.86-.56c-1.318-.078-1.233.66-1.667 1.76-.238.612-.448 1.23-.66 1.85-.155.349-.257.72-.302 1.1a.382.382 0 0 0 0 .151.27.27 0 0 0 .158.112c.58.249 1.22.33 1.845.237a14.545 14.545 0 0 1 2.272-.06.33.33 0 0 0 .178 0 .362.362 0 0 0 .093-.124c.691-1.462 1.39-2.99 1.943-4.466zM171.068 221.94a8.282 8.282 0 0 0-1.864-1.152c-.422-.238-.824-.567-1.278-.323-.455.244-.58.856-.817 1.185a32.723 32.723 0 0 0-1.528 2.279c-.277.461-1.318 1.778-.95 2.331.238.376 1.55.409 1.977.52.742.229 1.517.331 2.293.304a.606.606 0 0 0 .323-.086.593.593 0 0 0 .184-.237c.659-1.153 1.654-2.463 2.01-3.721a1.073 1.073 0 0 0-.35-1.1zM177.334 218.542l-1.239-1.825c-.33-.487-.83-1.501-1.495-1.422-.494.053-1.186.724-1.674.922a5.97 5.97 0 0 0-.784.336 4.295 4.295 0 0 0-.659.494c-.466.388-.906.806-1.317 1.251-.613.659-1.239.942-.297 1.607.83.593 1.7 1.133 2.55 1.693.164.126.35.222.547.283.573.151 1.686-.659 2.194-.935.658 0 1.805-1.087 2.226-1.555a.659.659 0 0 0 .165-.257.658.658 0 0 0-.158-.474l-.06-.118zM185.279 216.882c-.297-.658-.6-1.363-.922-2.041a11.563 11.563 0 0 0-.784-1.746.184.184 0 0 0-.066-.059.171.171 0 0 0-.1 0c-.954.138-1.903.316-2.858.494-1.529.283-3.064.566-4.566.988a.264.264 0 0 0-.105.053c-.066.072 0 .184.033.263l1.126 1.798 1.173 1.883a.244.244 0 0 0 .079.086c.05.02.107.02.158 0 1.067-.092 2.121-.316 3.176-.507a78.904 78.904 0 0 0 3.247-.659c.205-.046.455-.145.462-.349a.474.474 0 0 0-.053-.204zM190.99 215.558a22.83 22.83 0 0 0-.27-.889l-.862-2.535a33.65 33.65 0 0 0-3.617.474c-.23.04-.843.053-1.008.23-.165.178.092.659.165.883a15.521 15.521 0 0 0 1.456 2.97c.031.06.08.11.138.145a.29.29 0 0 0 .197 0c1.015-.119 2.043-.151 3.044-.336.243-.035.483-.088.718-.158.224-.086.218-.099.165-.316a8.643 8.643 0 0 0-.125-.468z"/>
        <path fill="#A36550" d="M169.62 289.517a1.127 1.127 0 0 0-.798-.421l-11.305-2.252c-.303-.066-2.576 4.149-2.8 4.504l-2.069 3.333a7.16 7.16 0 0 1-2.372 2.39l9.224.903c2.223.295 4.47.356 6.706.184a1.41 1.41 0 0 0 .66-.184c.176-.133.322-.301.427-.494.989-1.568 1.839-2.773 2.082-4.61.119-.896.23-1.792.35-2.694.039-.225.001-.457-.106-.659z"/>
        <path fill="#2F355B" d="M187.367 294.39c-.092-3.075-.658-6.157-2.879-8.146-2.714-2.41-6.344-2.015-9.612-1.212-1.68.422-3.353.89-5.033 1.318-.659.17-1.199.52-1.851.71-.98.187-1.976.264-2.971.231a6.148 6.148 0 0 0-3.446 1.054 4.076 4.076 0 0 0-1.436 3.682 5.156 5.156 0 0 0 2.088 3.43c.455.337 1.212.56 1.456 1.107.151.338.114.73-.099 1.034-.112.158-.276.303-.29.5 0 .317.336.508.66.593 1.506.284 3.052.284 4.558 0 1.318-.17 2.53.317 3.815.376 2.84.784 12.24 3.951 14.434.705.47-.867.683-1.85.613-2.832.013-.837.02-1.693-.007-2.55z"/>
        <path fill="#FFF" d="M158.176 289.129c-2.774 4.94-9.8 13.48-12.916 17.36-.96 1.197-2.314 2.022-4.109 1.493-5.546-1.635-14.52-6.454-18.624-7.881-19.158-6.658-39.251-13.936-52.434-29.347-2.846-3.332-5.422-7.363-5.145-11.742.336-5.407 5.152-9.734 10.396-11.117 5.244-1.383 10.804-.408 16.061.928 11.154 2.826 21.26 7.535 31.465 12.718 5.718 2.904 11.483 5.73 17.228 8.594 4.19 2.095 12.571 7.851 16.692 9.094 3.022.744 4.576 2.186 4.576 3.827 0 1.562-1.109 3.07-2.03 4.34a12.063 12.063 0 0 0-1.16 1.733z"/>
        <path fill="#A36550" d="M177.94 227.03c.351-.196.666-.452.929-.756.52-.659.757-1.515 1.317-2.154.56-.639 1.377-.724 2.102-1.251a2.634 2.634 0 0 0 .659-3.385c-.606-1.087-1.667-1.976-2.405-2.97-.738-.995-1.318-2.134-2.042-3.122-1.318-1.739-2.148-.046-2.102 1.39 0 .803.191 1.824-.494 2.192-.234.097-.48.159-.731.185-.94.235-1.6 1.08-1.601 2.048a3.7 3.7 0 0 1-.04 1.574c-.448.929-1.89.711-2.457 1.6-.362.56-.158 1.265-.711 1.72-.331.243-.711.411-1.114.493-.216.033-.42.122-.593.257-.382.362-.158.994.106 1.449a13.595 13.595 0 0 0 2.918 3.135c.284.297.652.501 1.054.586.659.06 1.193-.527 1.555-1.08.362-.553.764-1.192 1.41-1.317.247-.032.495-.048.744-.046a3.796 3.796 0 0 0 1.496-.547zM133.365 255.396c-.461-.435-1.318-.369-1.858-.566l-1.851-.659c-.659 0-1.779-.87-2.3-1.205-.303-.198-.691-.362-.31-.573a4.613 4.613 0 0 1 1.457-.119 3.123 3.123 0 0 0 3.248-1.765c.197-.335.382-.81.085-1.066a.87.87 0 0 0-.658-.126 19.303 19.303 0 0 1-3.38-.065 8.37 8.37 0 0 1-1.805-.37c-.376-.131-.738-.302-1.1-.467a6.834 6.834 0 0 0-2.181-.658c-.81.006-1.618.072-2.418.197a13.8 13.8 0 0 1-2.708-.132 5.931 5.931 0 0 0-1.923-.131c-.552.15-1.096.33-1.628.54-1.495.448-2.18-.297-3.294-1.12-1.113-.823-2.121-1.6-3.182-2.404-2.246-1.705-5.007-2.805-7.121-4.682-2.787-1.976-6.588-3.234-8.618-6.086-1.614-2.245-.355-6.045-.092-8.653.198-1.917.376-3.952-.428-5.69-1.799-.224-3.558.111-5.33 0-1.515-.093-3.096-.66-4.611-.857a19.995 19.995 0 0 0-6.417.224c-2.326.514-1.581 2.635-1.278 4.42.105.658.21 1.264.303 1.903.382 2.634.21 5.196.593 7.81.336 2.28 0 4.821.606 6.949.106.573.33 1.118.659 1.6.803.929 2.826.784 3.906 1.528 1.66 1.14 2.636 3.062 4.329 4.188a11.92 11.92 0 0 0 4.045 1.462c3.755.857 8.189 1.239 11.615 3.05 1.047.56 2.147 1.04 3.142 1.673.995.632 2.3.763 3.367 1.106 1.072.447 2.173.825 3.294 1.133a10.997 10.997 0 0 1 4.756 2.153 45.994 45.994 0 0 0 5.073 3.05c1.278.698 2.958 1.363 4.065.421a4.71 4.71 0 0 1 .77-.659c.897-.474 1.977.52 2.959.284 1.133-.27 1.317-1.844 2.226-2.582a3.664 3.664 0 0 1 1.885-.62 3.572 3.572 0 0 0 1.877-.625 1.238 1.238 0 0 0 .23-1.81z"/>
        <path fill="#FCD685" d="M147.826 252.097c-4.704-1.495-9.573-.534-14.606-.396-.81 0-1.496.317-2.3.04a2.7 2.7 0 0 1-1.587-1.442c-.23-.54-.283-1.16-.553-1.68a4.281 4.281 0 0 0-1.008-1.146 10.205 10.205 0 0 0-2.412-1.758 5.213 5.213 0 0 0-4.335.75c-.472.38-.744.956-.737 1.562a11.645 11.645 0 0 0 2.358-.35c.56-.23.744-.533 1.43-.421a6.754 6.754 0 0 1 3.083 1.64c.909.817.863 1.666.902 2.773 0 .263.066.507-.164.704a1.74 1.74 0 0 0-.27.224c-.593.659.58 1.021.975 1.251.458.23.943.405 1.442.52.33.075.652.179.962.31.554.23 1.621.218 2.03.659.507.573-.211 1.475.256 2.022.14.13.318.216.508.243 1.342.222 2.652.61 3.9 1.153 1.358.627 2.827.98 4.322 1.04a35.99 35.99 0 0 0 8.248-.717 3.064 3.064 0 0 0 1.153-.363c.362-.207.56-.614.5-1.027a59.193 59.193 0 0 1-6.456-.89c-.527-.098-5.139-.895-3.92-1.646.448-.27 2.365 0 2.939-.059l7.246-.494c.06-.533-.454-.942-.922-1.205a14.397 14.397 0 0 0-2.984-1.297z"/>
        <path fill="#FFA2C0" d="M135.888 254.316c-.797.033-1.245.336-1.851 1.377-.79 1.317-1.16 2.904-2.128 4.142a11.113 11.113 0 0 1-2.846 2.338l-6.094 3.951a17.266 17.266 0 0 0-4.012 3.208c-2.247 2.693-2.636 6.493-4.612 9.404-.092.145 3.373 1.127 3.762 1.153.757.046 1.509-.046 2.26 0 .596.069 1.197.095 1.798.079a.54.54 0 0 0 .488-.29.974.974 0 0 0 0-.31c.028-.227.09-.449.184-.658.218-.58.277-1.192.494-1.765.218-.573.494-1.08.659-1.633.113-.516.304-1.011.567-1.469.44-.65.99-1.22 1.627-1.68a24.12 24.12 0 0 1 3.182-1.936 29.235 29.235 0 0 0 3.294-1.745c2.82-1.87 4.717-4.827 6.35-7.79a30.588 30.588 0 0 1 1.892-3.524c.612-.823 1.317-1.317 1.462-2.417-1.746-.428-3.696-.264-5.481-.422a7.25 7.25 0 0 0-.995-.013z"/>
        <path fill="#C985A6" d="M131.659 262.937l-.152-.086a.817.817 0 0 0-.343-.131c-.441-.033-.935.658-1.271.902-.54.362-1.1.691-1.667 1.014l-1.238.718c-.29.122-.566.275-.824.454a.184.184 0 0 0-.06.086.151.151 0 0 0 .073.165c.06.031.121.058.185.079.113.053.219.12.316.197.455.35.942.659 1.37 1.06.415.38.855.729 1.318 1.048l.165.04c.112 0 .566-.304.658-.37l.745-.401c.494-.27.988-.554 1.462-.856a5.27 5.27 0 0 0 1.068-.837c.079-.086.981-.975.968-.981a13.676 13.676 0 0 1-1.653-1.377 8.92 8.92 0 0 0-1.12-.724zM138.075 258.768a7.394 7.394 0 0 0-1.278-.21 13.088 13.088 0 0 1-1.746-.383l-.276-.065c-.106 0-.1 0-.145.065-.046.066-.112.29-.178.435a12.922 12.922 0 0 1-2.51 3.34s1.028.598 1.113.658c.728.536 1.51.995 2.332 1.37.139.046.211 0 .297-.126l.856-1.317a7.62 7.62 0 0 0 .81-1.449c.211-.56.416-1.113.66-1.666.094-.184.177-.373.25-.566a.745.745 0 0 0-.185-.086zM140.348 254.533a.217.217 0 0 0-.092 0l-3.538-.184c-.725-.04-.784.224-1.047.81a5.926 5.926 0 0 0-.494 1.89 9.226 9.226 0 0 0 3.577.58c.045.01.093.01.138 0 .178-.08.396-.659.488-.83.197-.382.402-.757.659-1.12.215-.284.343-.625.369-.981a.165.165 0 0 0-.06-.165zM144.532 248.79l-1.206-.869c-.277-.197-.738-.698-1.12-.573a1.08 1.08 0 0 0-.316.204l-1.944 1.653c-.458.339-.847.761-1.146 1.245-.166.267-.267.57-.296.883a.086.086 0 0 0 0 .04.072.072 0 0 0 .052 0c.66 0 1.318-.08 1.977-.04.658.04 1.225.04 1.844.04a.725.725 0 0 0 .238-.047.659.659 0 0 0 .177-.171c.287-.344.612-.653.969-.922.151-.112.349-.204.487-.323.139-.118.264-.303.422-.428.158-.125.52-.23.217-.448l-.355-.243zM147.635 248.046a.053.053 0 0 0 .059 0h-.06zM147.687 248.053h.119a.224.224 0 0 1-.119 0z"/>
        <path fill="#C985A6" d="M147.687 248.053c.03.006.062.006.093 0l-.08-.046s.014.04-.013.046zM152.589 244.793a20.563 20.563 0 0 0-1.7-.659c-.573-.19-1.16-.612-1.706-.533a2.755 2.755 0 0 0-.481.053 34.923 34.923 0 0 0-3.255 1.442c-.606.29-1.188.63-1.739 1.014a.659.659 0 0 0-.198.217.316.316 0 0 0 0 .297.527.527 0 0 0 .139.132c.342.237.711.329 1.054.586.38.32.775.622 1.186.902.17.137.388.201.606.178a.969.969 0 0 0 .342-.165c.66-.448 1.404-.843 2.122-1.231a17.79 17.79 0 0 1 1.924-1.002c.6-.223 1.238-.381 1.85-.599.166-.053.363-.184.304-.349a.33.33 0 0 0-.198-.151l-.25-.132zM160.27 240.519c-.23-.073-.46-.125-.592-.178a35.437 35.437 0 0 1-1.377-.56 25.047 25.047 0 0 1-1.14-.52c-.376-.185-.777.164-1.127.369-.349.204-.81.408-1.212.619-.402.21-.586.408-.916.58-.83.44-1.666.855-2.477 1.316a.158.158 0 0 0-.079.066c-.059.092.046.198.139.257.812.514 1.66.97 2.536 1.363.283.136.576.248.876.336.126.039.258.054.389.046.092-.017.183-.043.27-.079a19.195 19.195 0 0 0 1.977-.783 42.55 42.55 0 0 0 2.009-1.074c.369-.217.725-.454 1.074-.705.21-.151.441-.401.296-.698-.066-.151-.356-.27-.645-.355zM128.12 269.062a2.635 2.635 0 0 0-.889-.823 26.36 26.36 0 0 0-2.081-1.318c-.501-.31-.745.125-1.16.428-.415.303-.935.659-1.397 1.048-.46.388-.75.507-1.106.777-.3.222-.581.466-.844.73a3.293 3.293 0 0 0-.362.442c-.08.119-.25.31-.21.454.039.145.282.198.401.257l2.082 1.028c.21.105.81.546 1.034.513.224-.033.395-.428.56-.658a8.564 8.564 0 0 1 2.207-1.666c.224 0 .784-.488.969-.659.184-.171.546-.362.797-.553zM122.751 273.566l-.118-.079a12.782 12.782 0 0 0-2.359-1.192c-.237-.092-.896-.44-1.126-.31-.23.133-.303.752-.428.989-.481.9-.867 1.846-1.153 2.825-.129.42-.294.828-.494 1.218-.24.412-.423.856-.54 1.318a.145.145 0 0 0 0 .092c.02.028.05.05.085.06a7.453 7.453 0 0 0 2.16.427c.805.098 1.617.12 2.425.066 0 0 .257-1.054.29-1.16.125-.394.277-.79.415-1.191.158-.381.281-.776.37-1.179.057-.358.159-.708.302-1.04.086-.198.336-.488.25-.712a.33.33 0 0 0-.079-.132zM122.501 278.005c-.263-.098-.448-.17-.54.106-.088.281-.15.57-.185.862 0 0 .514.06.587 0 .072-.059.164-.658.21-.81v-.112a.086.086 0 0 0-.072-.046zM123.173 275.72v-.118c0-.014-.356-.284-.454-.231-.1.053 0 0 0 .04a6.038 6.038 0 0 0-.356.98c.046 0 .072.06.112.073.13.044.255.1.375.165a6.15 6.15 0 0 0 .323-.909zM124.22 273.527a.408.408 0 0 0 0-.086 6.315 6.315 0 0 0-.46-.256.053.053 0 0 0-.047 0c-.079.204-.151.414-.23.658 0 .066-.066.138-.086.204-.02.066 0 .092 0 .139 0 .046.066.059.105.079.13.05.254.114.37.19.167-.287.285-.601.349-.928zM116.361 277.15c-.053-.12-.191-.159-.356-.198h-.059a.092.092 0 0 0-.033.052l-.165.422c-.085.217-.171.434-.25.658 0 0 .375.1.408.106.185.052.191 0 .277-.152.12-.233.19-.489.204-.75a.303.303 0 0 0-.026-.139zM117.178 275.193a1.47 1.47 0 0 0-.435-.145h-.06a.092.092 0 0 0-.032.053l-.138.428c-.06.191-.105.387-.132.586l.375.125c.08 0 .112.106.172-.04.059-.144.434-.915.25-1.007zM118.133 273.08a1.423 1.423 0 0 0-.428-.172.066.066 0 0 0-.06 0v.046l-.164.421c-.088.166-.159.34-.21.52.17.047.309.192.48.172.108-.304.245-.598.409-.876a.145.145 0 0 0 0-.112h-.027zM126.052 271.387a.896.896 0 0 0-.25-.27.145.145 0 0 0-.145 0c-.04 0-.06.065-.092.105a.725.725 0 0 1-.152.132c-.151.118-.448.349-.356.546 0 .04.323.303.297.336.21-.204.448-.395.659-.612.092-.093.118-.086.059-.205a.033.033 0 0 0-.02-.032zM128.154 270.267c-.152-.35-.145-.48-.508-.27-.085.053-.184.066-.263.118-.06.048-.115.1-.165.159-.204.158-.283.085-.151.335 0 0 .17.297.145.31l.863-.468a.171.171 0 0 0 .098-.092.165.165 0 0 0-.02-.092zM130.598 269.095v-.08a1.205 1.205 0 0 0-.224-.302c-.237.057-.46.16-.659.303-.184.112-.25.151-.165.355 0 0 .158.29.119.31a6.2 6.2 0 0 0 .837-.376c.059-.092.098-.131.092-.21zM119.411 269.635c0 .04 0 .085-.059.125-.06.04.046.072.08.099.11.082.214.175.309.276l.533-.658a.132.132 0 0 0 .046-.106.119.119 0 0 0-.04-.059 1.502 1.502 0 0 0-.368-.277h-.06c-.02 0-.032 0-.045.04l-.264.369a1.251 1.251 0 0 0-.296.5l.237.178a.27.27 0 0 0 .138.066c.053 0 .106-.046.092-.099M119.056 271.229a.099.099 0 0 0-.04-.06 1.476 1.476 0 0 0-.415-.19.08.08 0 0 0-.066 0l-.033.045c-.066.139-.125.277-.184.415-.06.139-.066.171-.106.257a.349.349 0 0 1 0 .08.507.507 0 0 1-.066.118s-.04.046 0 .072c.145.118.31.208.488.264.079-.033.171-.25.204-.317.033-.065.27-.513.218-.684zM122.185 267.857a1.317 1.317 0 0 0-.297-.343H121.776l-.336.296-.158.178a1.205 1.205 0 0 1-.085.106c.033.04.033.085.059.125.09.103.17.213.244.33l.659-.501c.032 0 .065-.053.065-.093a.138.138 0 0 0-.04-.098zM124.2 266.48a1.488 1.488 0 0 0-.263-.375.08.08 0 0 0-.052 0 .053.053 0 0 0-.053 0l-.369.27c-.062.04-.121.084-.178.131-.04.033-.06.073-.099.1-.04.026 0 .085.046.124.082.112.152.231.211.356l.705-.441a.132.132 0 0 0 .073-.086.092.092 0 0 0-.02-.079zM132.844 267.81l.086-.046v-.033a1.001 1.001 0 0 0-.257-.27.343.343 0 0 0-.086-.04.257.257 0 0 0-.164.054c-.158.092-.778.349-.778.513 0 .046.264.376.218.402.145 0 .448-.25.58-.33l.401-.25zM136.376 264.287a1.495 1.495 0 0 0-.363-.283.066.066 0 0 0-.059 0s-.033 0-.046.033l-.277.362c-.04.06-.092.119-.132.184-.04.066-.04.08-.065.119-.027.04.046.079.085.105.04.027.316.264.297.284l.553-.626a.125.125 0 0 0 .046-.099.112.112 0 0 0-.04-.079zM137.706 262.16a1.318 1.318 0 0 0-.401-.224.092.092 0 0 0-.06 0l-.04.046-.21.402a.856.856 0 0 0-.171.336c.15.089.296.188.434.296l.448-.698s.047-.073 0-.112a.132.132 0 0 0 0-.046zM138.932 259.763a1.384 1.384 0 0 0-.428-.152.112.112 0 0 0-.066 0 .132.132 0 0 0 0 .053l-.139.415c-.04.112-.112.21-.164.322.182.066.36.143.533.23l.316-.763a.105.105 0 0 0-.046-.165l-.006.06zM139.98 257.793a1.482 1.482 0 0 0-.403-.217.092.092 0 0 0-.059 0 .072.072 0 0 0-.04.046c-.131.244-.256.494-.388.731 0 0 .487.23.461.27l.435-.704a.112.112 0 0 0 .033-.106.092.092 0 0 0-.04-.02zM141.106 255.87a1.482 1.482 0 0 0-.402-.217.066.066 0 0 0-.06 0 .079.079 0 0 0-.039.04l-.21.401c-.054.118-.118.23-.192.336 0 0-.033.04 0 .06.054.013.107.03.158.052.033 0 .343.165.323.198l.435-.705a.119.119 0 0 0 0-.112s.013-.033-.013-.053zM138.332 250.345a1.482 1.482 0 0 0-.402-.218.066.066 0 0 0-.059 0 .079.079 0 0 0-.04.04l-.21.402c-.053.119-.12.231-.198.336v.052c.057.01.112.028.165.053 0 0 .342.165.316.198l.441-.705c0-.033.047-.073.033-.112-.013-.04-.026-.026-.046-.046zM140.111 248.23a1.489 1.489 0 0 0-.35-.289h-.058a.105.105 0 0 0-.053.04l-.283.349a1.798 1.798 0 0 1-.257.29s-.033.032 0 .052a1.1 1.1 0 0 1 .151.079s.297.23.27.257l.573-.606c.03-.025.05-.06.053-.099a.138.138 0 0 0-.046-.072zM142.18 246.644a1.317 1.317 0 0 0-.29-.35.066.066 0 0 0-.106 0l-.349.29c-.09.092-.192.172-.303.237 0 0-.04 0 0 .046.048.03.093.065.132.106 0 0 .25.276.217.303l.66-.488s.065-.052.065-.085a.184.184 0 0 0-.026-.06zM146.317 243.983a1.646 1.646 0 0 0-.257-.376s0-.032-.06-.032h-.052l-.369.256c-.1.085-.21.156-.33.211 0 0-.039 0-.032.04.006.04 0 0 0 0a.718.718 0 0 1 .118.125s.224.296.191.316l.719-.422a.132.132 0 0 0 .072-.085v-.033zM154.486 245.596a1.58 1.58 0 0 0-.19-.415.105.105 0 0 0-.047-.046h-.06l-.408.191a1.522 1.522 0 0 1-.355.152s-.047 0-.047.033a.705.705 0 0 1 .1.145s.17.329.138.349l.777-.297a.145.145 0 0 0 .086-.065.112.112 0 0 0 .006-.047zM157.089 244.503a1.455 1.455 0 0 0-.185-.415.086.086 0 0 0-.046-.04.066.066 0 0 0-.06 0l-.408.192c-.171.094-.359.155-.553.178.036.15.089.296.158.434.033.053.079.112.138.106a.204.204 0 0 0 .066-.02c.11-.055.228-.095.35-.119l.44-.171c.04 0 .08 0 .093-.066a.165.165 0 0 0 .007-.079zM159.856 243.272a1.686 1.686 0 0 0-.192-.415.086.086 0 0 0-.046-.04.066.066 0 0 0-.059 0c-.29.132-.593.27-.876.428-.04 0-.08.046-.08.092 0 .047.034.066.06.093a.487.487 0 0 1 .105.177c0 .06.04.139.106.145.02.01.045.01.066 0 .132-.046.244-.105.369-.158.143-.084.298-.144.46-.178.034 0 .073 0 .087-.065a.112.112 0 0 0 0-.08zM162.399 241.645l.098-.08a.178.178 0 0 0 .086-.111.184.184 0 0 0-.04-.099 1.561 1.561 0 0 0-.336-.356 4.684 4.684 0 0 0-.625.52c-.091.091-.19.173-.297.244 0 0-.04.033-.033.053.007.02 0 0 0 0 .05.03.097.065.139.106 0 0 .263.27.23.29.264-.172.507-.363.778-.567zM164.586 239.412c.04-.079.079-.158.112-.243a.06.06 0 0 0 0-.046v-.033c-.172-.152-.428-.435-.573-.152-.047.073-.126.132-.172.204-.046.073-.145.218-.21.33-.068.11-.142.216-.225.316 0 0-.032.04 0 .052a.659.659 0 0 1 .159.066c.125.092.257.139.342.277.23-.225.42-.485.567-.77zM166.081 236.824l.04-.079a.046.046 0 0 0 0-.04v-.032l-.31-.172c-.112-.052-.132-.092-.204 0a2.49 2.49 0 0 0-.283.58c-.054.117-.118.23-.191.336v.052c.056.01.111.025.164.047 0 0 .336.164.317.197a8.37 8.37 0 0 0 .467-.889zM167.076 234.361v-.046a.066.066 0 0 0-.033 0l-.435-.152h-.046c-.013 0 0 0 0 0-.07.18-.128.365-.171.554-.033.125-.08.246-.138.362v.053a.705.705 0 0 1 .164 0c.033 0 .363.111.35.144.079-.155.147-.316.204-.48.048-.142.084-.287.105-.435zM168.124 231.766a1.535 1.535 0 0 0-.429-.158.072.072 0 0 0-.066 0l-.032.046-.152.428a1.39 1.39 0 0 1-.145.356v.06a.718.718 0 0 1 .165 0c.033 0 .362.111.349.15l.33-.763a.125.125 0 0 0 0-.106.152.152 0 0 0-.02-.013zM169.224 229.441a1.364 1.364 0 0 0-.415-.177h-.066c-.02 0 0 0-.033.046l-.171.421c-.046.12-.1.237-.165.35v.052a.732.732 0 0 1 .165 0c.033 0 .349.132.336.164l.375-.737a.165.165 0 0 0 0-.112.158.158 0 0 0-.026-.007zM144.011 245.38a1.58 1.58 0 0 0-.257-.376l-.052-.033a.119.119 0 0 0-.06 0l-.369.263c-.098.082-.207.15-.322.204 0 0-.04 0-.04.046a.718.718 0 0 1 .125.119s.224.296.191.316l.718-.428c.033 0 .066-.04.073-.079a.119.119 0 0 0-.007-.033zM148.623 242.91a1.58 1.58 0 0 0-.204-.409.112.112 0 0 0-.053-.04h-.053l-.408.211c-.11.066-.227.12-.35.158 0 0-.046 0-.039.04.04.041.076.088.105.138 0 0 .185.33.145.343l.771-.323c.033 0 .073 0 .086-.073a.165.165 0 0 0 0-.046zM141.745 254.665c-.04-.04-.178 0-.23-.046h-.231c-.139 0-.119.119-.119.23.169.082.353.125.54.126.04-.02.086-.27.04-.31zM132.594 260.5c-.053-.066-.237-.303-.33-.27a.132.132 0 0 0-.059.04c-.118.125-.224.257-.33.388a1.317 1.317 0 0 0-.203.23c-.046.086 0 .113.066.179.065.065.23.21.217.23l.62-.619s.059-.066.059-.105a.158.158 0 0 0-.04-.073zM133.8 258.531a1.067 1.067 0 0 0-.336-.165 4.254 4.254 0 0 0-.389.725.092.092 0 0 0 0 .04.092.092 0 0 0 .06.078s.355.139.329.178l.434-.705a.138.138 0 0 0 0-.111s-.098-.02-.098-.04zM134.643 256.325a1.153 1.153 0 0 0-.395-.092 7.04 7.04 0 0 0-.31.724c-.079.198.488.23.461.303l.297-.777a.171.171 0 0 0 0-.112.092.092 0 0 0-.053-.046zM135.506 254.362a.613.613 0 0 0-.336.092 1.317 1.317 0 0 0-.119.152c-.077.081-.148.17-.21.263 0 .033-.145.198-.126.237.01.006.023.006.033 0 .132.041.266.072.402.093.06 0 .099.032.145 0a.25.25 0 0 0 .06-.119 3.18 3.18 0 0 1 .31-.659c0-.032.039-.085 0-.098-.04-.014 0 0-.034 0l-.125.04zM134.597 266.309a1.594 1.594 0 0 0-.323-.31.105.105 0 0 0-.06 0l-.045.033-.303.323c-.056.05-.107.105-.152.165 0 .033-.046.079-.072.112-.027.033.032.079.065.112.033.032.284.283.264.302l.6-.553s.059-.059.059-.092a.145.145 0 0 0-.033-.092zM126.553 264.979a1.785 1.785 0 0 0-.152-.27c-.066-.093-.118-.1-.21-.159a3.452 3.452 0 0 1-.402.29c-.112.073-.527.23-.422.389.091.14.17.288.237.441l.876-.507c.04 0 .086-.053.093-.099a.138.138 0 0 0-.02-.085zM130.802 262.239c-.066-.099-.244-.395-.369-.303-.257.19-.514.382-.757.586 0 0 .395.375.362.402l.718-.52a.145.145 0 0 0 .072-.093.165.165 0 0 0-.026-.072zM128.753 263.628c-.046-.098-.171-.408-.31-.388-.138.02-.164.132-.223.171l-.27.171-.33.185c-.165.099.297.474.21.52l.85-.474c.04 0 .086-.053.093-.099a.138.138 0 0 0-.02-.086zM145.19 250.444a1.634 1.634 0 0 0-.349-.297.112.112 0 0 0-.066 0 .086.086 0 0 0-.046.04l-.283.349a.962.962 0 0 0-.237.296c.131.117.254.242.369.376l.58-.6a.119.119 0 0 0 .046-.099.125.125 0 0 0-.014-.065zM147.285 248.804a1.535 1.535 0 0 0-.31-.343.066.066 0 0 0-.105 0l-.322.297a3.05 3.05 0 0 1-.303.204.092.092 0 0 0 0 .04c.128.143.246.295.355.454l.66-.507a.184.184 0 0 0 .065-.093.138.138 0 0 0-.04-.052zM150.929 241.968a1.317 1.317 0 0 0-.211-.402.105.105 0 0 0-.053-.04.072.072 0 0 0-.053 0l-.388.211c-.108.051-.22.093-.336.125a.06.06 0 0 0 0 .046c.088.17.165.347.23.527l.758-.342s.072-.04.086-.073a.112.112 0 0 0-.033-.052zM152.049 246.61l.072-.032h.04c.006 0 0-.06 0-.093l-.172-.309a.119.119 0 0 0-.059-.066c-.04 0-.092 0-.138.04a1.22 1.22 0 0 1-.448.158c-.093 0-.27.066-.317.158-.046.092.165.507.139.52.29-.145.593-.244.883-.375z"/>
        <path fill="#C985A6" d="M149.552 247.48a1.317 1.317 0 0 0-.211-.362s0-.033-.04-.033a.072.072 0 0 0-.052 0c-.224.125-.442.257-.66.375 0 0 .264.415.225.435l.659-.33s.072-.032.079-.065v-.02zM153.67 240.36a1.548 1.548 0 0 0-.244-.342.08.08 0 0 0-.053 0 .072.072 0 0 0-.046 0c-.27.198-.54.35-.817.527l.178.35a.165.165 0 0 0 .092.104c.099.033.25-.118.33-.17l.507-.317s.065-.04.065-.072a.132.132 0 0 0-.013-.08zM156.133 239.142l.119-.079c0-.052-.257-.382-.303-.428a.086.086 0 0 0-.046-.04h-.053c-.137.06-.265.138-.382.231-.15.134-.313.25-.488.35.053.15.191.197.238.361a.165.165 0 0 0 0 .047c0 .032.092 0 .131 0 .303-.145.547-.29.784-.442zM158.136 237.074a.982.982 0 0 0-.402-.276c-.112 0-.165.151-.217.23-.142.202-.3.391-.475.567l.277.362a.079.079 0 0 0 .04.04c.033 0 .072 0 .105-.047.247-.253.468-.531.659-.83a.04.04 0 0 0 .013-.046zM159.724 235.06a2.2 2.2 0 0 0-.376-.205.092.092 0 0 0-.06 0 .112.112 0 0 0-.039.04c-.098.157-.19.322-.303.48-.112.158-.204.277-.178.402.027.125.08.079.152.125s.158.132.237.119c.08-.014.152-.152.198-.211.143-.189.278-.384.402-.586v-.053a.138.138 0 0 0-.033-.112zM161.608 230.377a1.43 1.43 0 0 0-.395-.145.066.066 0 0 0-.06 0v.046c-.085.237-.164.474-.257.711 0 0 .468.145.448.184l.31-.698a.132.132 0 0 0 0-.098.178.178 0 0 0-.046 0zM162.563 227.992a1.41 1.41 0 0 0-.395-.138h-.04a.165.165 0 0 0 0 .046c-.085.244-.164.481-.25.718.033 0 .474.145.461.185l.297-.699a.151.151 0 0 0 0-.105.178.178 0 0 0-.073-.007zM163.598 225.727a1.397 1.397 0 0 0-.376-.178.092.092 0 0 0-.06 0 .079.079 0 0 0-.032.046c-.106.23-.211.461-.323.659 0 0 .455.184.435.224l.369-.659a.112.112 0 0 0 0-.099.119.119 0 0 0-.013.007zM165.054 223.257a1.318 1.318 0 0 0-.35-.23.072.072 0 0 0-.052 0 .06.06 0 0 0-.04.04c-.138.21-.27.427-.415.658 0 0 .428.243.402.283l.455-.612a.105.105 0 0 0 .039-.093.105.105 0 0 0-.04-.046zM166.641 221.11c.046-.085.106-.184.073-.25a3.254 3.254 0 0 0-.356-.296c-.105.085-.158.224-.257.322a2.075 2.075 0 0 0-.389.475c.131.044.252.113.356.204.04.04.086.092.138.079.053-.013.073-.066.1-.106.026-.04.223-.217.29-.349a.494.494 0 0 1 .045-.079zM168.374 219.01a1.41 1.41 0 0 0-.323-.27h-.06l-.039.032-.48.593s.395.296.362.33l.52-.56s.053-.053.046-.093c-.006-.04-.013-.013-.026-.033zM170.462 216.994a1.528 1.528 0 0 0-.31-.277h-.059c-.02 0 0 0-.04.033l-.335.376a2.351 2.351 0 0 1-.29.33l.35.355a.04.04 0 0 0 .058 0c.154-.26.36-.484.607-.659 0 0 .052-.06.046-.092a.119.119 0 0 0-.027-.066zM173.019 215.222a1.41 1.41 0 0 0-.211-.362.086.086 0 0 0-.046-.04.072.072 0 0 0-.053 0c-.211.126-.428.238-.659.37-.23.131-.079.27.046.447.125.178.718-.237.837-.296.118-.06.066 0 .072-.072a.112.112 0 0 0 .014-.047zM175.838 213.833a1.205 1.205 0 0 0-.145-.389.072.072 0 0 0-.04-.046h-.052a8.303 8.303 0 0 0-.935.35.158.158 0 0 0-.053.039v.118l.151.284s0 .046.046.052h.053c.131-.038.259-.087.382-.145l.488-.145c.033 0 .072 0 .085-.059a.092.092 0 0 0 .02-.06zM180.061 212.726a1.416 1.416 0 0 0-.118-.401s0-.04-.033-.046a.138.138 0 0 0-.053 0c-.323.098-.659.177-.975.263a.105.105 0 0 0-.06.033v.105l.165.363v.04h.046c.124-.02.244-.058.356-.113.176-.058.357-.1.54-.125a.132.132 0 0 0 .093-.053.224.224 0 0 0 .04-.066zM183.059 212.252a1.416 1.416 0 0 0-.092-.408s0-.04-.033-.046a.053.053 0 0 0-.053 0c-.316.072-.626.125-.936.19a.072.072 0 0 0-.052 0 .105.105 0 0 0 0 .08c.036.13.087.256.151.375h.033c.292-.017.58-.063.863-.138a.125.125 0 0 0 .092-.046.119.119 0 0 0 .027-.007zM186.307 211.719a1.416 1.416 0 0 0-.119-.402.086.086 0 0 0 0-.046.092.092 0 0 0-.06 0c-.184.053-.375.125-.566.171-.085 0-.349 0-.356.112a.046.046 0 0 0 0 .04l.106.388v.046c.079.086.29-.059.375-.079l.527-.118a.125.125 0 0 0 .093-.046.244.244 0 0 0 0-.066zM189.568 211.258a2.845 2.845 0 0 1-.158-.415c-.28.074-.563.13-.85.165h-.04a.06.06 0 0 0 0 .065c.034.122.076.24.125.356v.033h.033c.306-.007.61-.04.91-.099a.797.797 0 0 0-.02-.105zM186.346 218.252a1.317 1.317 0 0 0-.171-.408.152.152 0 0 0-.046-.046.138.138 0 0 0-.073 0l-.89.204s.238.474.179.48l.916-.151c.046 0 .092 0 .112-.046a.092.092 0 0 0-.027-.033zM189.456 217.784a1.238 1.238 0 0 0-.073-.408s0-.04-.033-.046a.08.08 0 0 0-.052 0l-.942.204a.06.06 0 0 0-.047 0 .04.04 0 0 0 0 .04.909.909 0 0 0 .086.355c.08.158.264.066.389.033s.382-.04.566-.079a.099.099 0 0 0 .093-.04.132.132 0 0 0 .013-.059zM160.692 232.76a1.318 1.318 0 0 0-.395-.138h-.053c-.013 0 0 0-.033.046-.079.237-.158.481-.243.718 0 0 .474.139.454.178l.297-.698a.151.151 0 0 0 0-.105h-.027z"/>
        <path fill="#FFA2C0" fill-rule="nonzero" d="M128.094 307.754a1.41 1.41 0 0 0-.401-.191.237.237 0 0 0-.126-.1l-1.943-.901a5.486 5.486 0 0 1-3.367-5.184c.06-.941.475-1.975.205-2.897a.257.257 0 0 0-.053-.092.145.145 0 0 0-.125 0 2.326 2.326 0 0 0-.936.414c-.167.058-.33.129-.487.211a2.405 2.405 0 0 1-.494.224c-.363.138-.732.25-1.094.382-.108.029-.218.051-.33.066-.151 0-.303.099-.447.145l-.87.29a2.2 2.2 0 0 0-.613.224c-.201.216-.36.468-.468.744a2.93 2.93 0 0 0-.224 1.14c.003.807.123 1.61.356 2.383.16.782.412 1.543.751 2.266a9.293 9.293 0 0 0 1.318 1.81c.226.276.47.535.731.778.437.362.906.682 1.403.955.417.283.881.488 1.37.606.256.015.512-.023.752-.112 1.625-.418 3.203-1 4.71-1.739.323-.171.66-.415.699-.777a.75.75 0 0 0-.317-.645zm-.487-.25h-.046l-.132-.04.178.04z"/>
        <path fill="#C985A6" d="M121.631 304.546l-.04-.072-.223-.54a7.098 7.098 0 0 1-.369-1.225 6.84 6.84 0 0 1-.152-1.271c0-.132-.039-1.252.073-1.278-.777.198-1.542.435-2.3.698-.29.07-.585.123-.882.158-.013.754.013 1.508.079 2.26.114.8.335 1.582.659 2.324a.5.5 0 0 0 .217.283c.109.04.228.04.336 0a7.249 7.249 0 0 0 2.537-.856.296.296 0 0 0 .151-.132c.073-.092-.02-.23-.086-.349zM121.849 301.102a.883.883 0 0 0-.389.053c-.053 0-.118 0-.145.079a.658.658 0 0 0-.04.23c-.03.298.02.598.146.87v.039h.04c.13-.03.255-.073.375-.132h.059c.086-.092 0-.197 0-.276a1.1 1.1 0 0 1-.04-.442c.033-.145.139-.408-.006-.421zM122.145 303.506c-.276.052-.467.072-.421.362.031.154.09.3.171.435.04.079.132.335.23.349a.21.21 0 0 0 .113 0l.349-.139v-.105a2.594 2.594 0 0 1-.244-.487c-.026-.145-.046-.435-.198-.415zM124.715 306.496c-.053.04-.429.336-.303.395.104.064.197.144.276.237.139.132.429.388.66.382.23-.007.309-.244.401-.382a4.065 4.065 0 0 1-.837-.566.132.132 0 0 0-.098-.06.138.138 0 0 0-.1-.006zM126.994 307.773l-.06-.052c-.15-.158-.203-.237-.368-.112-.15.099-.291.211-.422.336v.04c0 .039 0 .058.046.078.207.156.428.293.66.408.037.023.08.037.124.04.132 0 .39-.336.435-.448a2.84 2.84 0 0 1-.415-.29zM123.983 305.916a.224.224 0 0 0-.04-.04 2.05 2.05 0 0 1-.401-.243.757.757 0 0 1-.343-.402s0-.052-.04-.06c-.039-.006-.058 0-.085 0-.026 0-.323.212-.336.324-.013.112.178.329.25.415.153.145.32.273.501.382a.119.119 0 0 0 .066 0 .138.138 0 0 0 .073 0l.072-.066a.257.257 0 0 0 .092-.08c.04-.02.218-.17.191-.23zM121.941 299.245a.092.092 0 0 0 0-.046c-.053-.119-.086-.08-.237-.047-.31.073-.369.086-.409.402a2.765 2.765 0 0 0 0 .738c.139 0 .468 0 .56-.138a.323.323 0 0 0 0-.139c.06-.252.088-.511.086-.77zM117.573 301.18v-.164a.132.132 0 0 0 0-.072c0-.04-.079-.04-.125-.04h-.27c-.086 0-.08 0-.105.08a3.95 3.95 0 0 0-.12.48c-.058.2-.079.41-.058.62v.058a.066.066 0 0 0 .046 0c.092 0 .566.033.573-.085l.06-.876zM117.409 303.203c0-.073 0-.139-.047-.158a.5.5 0 0 0-.17 0 .428.428 0 0 0-.31.072c-.073.08-.047.31-.04.408.023.158.056.315.099.468a.31.31 0 0 0 .151.224c.145.04.297.04.442 0h.04a.099.099 0 0 0 0-.06 1.126 1.126 0 0 0-.14-.329 1.244 1.244 0 0 1-.052-.382c.013-.046.027-.151.027-.243zM118.647 307.082l-.046-.066h-.066c-.145.06-.277.132-.422.184 0 0-.059 0-.059.053a.066.066 0 0 0 0 .046l.5.58c.038.05.092.085.152.099.03.005.062.005.093 0 .177-.066.369 0 .296-.238-.12-.238-.27-.46-.448-.658zM117.593 305.06a1.08 1.08 0 0 0-.303.079.046.046 0 0 0-.04 0v.079c.053.152.106.31.165.461.035.152.09.298.165.435.132.158.52.04.659-.106a1.475 1.475 0 0 1-.422-.658c-.04-.125 0-.25-.165-.297l-.059.007zM119.879 308.485h-.053c-.138.098-.33.105-.454.224 0 0 .118.184.132.197l.197.185c.145.125.3.24.461.342a.165.165 0 0 0 .073 0c.079 0 .138-.06.19-.105.082-.05.159-.104.231-.165 0 0 0-.04-.04-.053a5.56 5.56 0 0 1-.737-.625zM121.941 310.072l-.125-.066-.244-.184a.145.145 0 0 0-.072 0 .105.105 0 0 0-.08 0l-.335.184a.086.086 0 0 0-.053.046v.119a.6.6 0 0 0 .112.059c.191.099.316.31.514.388.197.08.837 0 .764-.217-.026-.112-.316-.263-.48-.33zM125.374 308.623l.388-.138c.095-.014.188-.039.277-.073l-.56-.316a16.747 16.747 0 0 1-2.945-2.081 2.332 2.332 0 0 0-.369.178l-.395.164c-.264.1-.54.191-.81.27a2.979 2.979 0 0 1-.402.1 1.239 1.239 0 0 0-.31.032c-.35.092-.659.165-1.028.283 0 0 .659.89.738.968.27.29.567.554.85.824.132.125.296.224.441.336.356.32.773.567 1.226.724.059.01.119.01.178 0a.593.593 0 0 0 .21-.06c.459-.155.9-.355 1.318-.599.379-.239.778-.444 1.193-.612zM123.819 310.243l-.396.132c-.07.018-.138.042-.204.072a.099.099 0 0 0-.04 0s0 .066.04.08c.081.048.158.103.23.164h.047a22.185 22.185 0 0 0 1.706-.527l.705-.263c.323-.132.659-.27.955-.422l.244-.112c.066 0 .106-.06.046-.118a.896.896 0 0 0-.21-.139c-.106-.066-.205-.171-.337-.178a.494.494 0 0 0-.276.106c-.47.277-.962.517-1.47.718a4.165 4.165 0 0 1-1.04.487z"/>
        <path fill="#E8B170" d="M145 208.762c.19-.678.217-1.391.078-2.081-.131-.54-.533-.975-.533-1.555 0-1.81 1.765-3.095 1.317-5.097-.224-.981-5.777 1.976-6.245 2.358-1.878 1.626-1.733 3.214-1.746 5.624-.033 5.236 1.41 11.09.264 16.22-.08.363-.877 2.3.23 2.043.302-.119.54-.358.659-.659.777-1.502.903-3.24 1.278-4.893a17.048 17.048 0 0 1 2.78-6.026c1.16-1.66 1.35-3.596 1.819-5.579l.098-.355z"/>
        <path fill="#7F5A4B" d="M92.42 234.638a11.598 11.598 0 0 1-.5-.488 2.872 2.872 0 0 1-.396-.5 3.292 3.292 0 0 1-.29-.659c-.224-.658-.105-1.62-1.126-1.245-.33.148-.632.348-.896.593-1.358 1.067-3.024 1.686-4.316 2.865a.316.316 0 0 0-.098.132c-.04.164.17.257.336.283.77 0 1.6.217 2.371.296l2.392.257c.797.092 1.587.191 2.378.316.45.124.921.153 1.383.086a.488.488 0 0 0 .363-.27c.06-.191-.092-.389-.25-.52-.455-.415-.916-.725-1.351-1.146zM154.546 220.985a2.187 2.187 0 0 0-.481-.448 1.877 1.877 0 0 1-.462-.507.178.178 0 0 0-.046-.053.125.125 0 0 0-.085 0 8.09 8.09 0 0 0-1.43.863c-.659.422-1.278.85-1.91 1.284-.16.096-.302.221-.416.37-.11.202-.168.428-.17.658l-.383 3.57a7.194 7.194 0 0 0 1.884-1.39 19.048 19.048 0 0 0 2.74-3.129c.16-.23.334-.45.521-.658.093-.105.277-.29.27-.448a.178.178 0 0 0-.032-.112z"/>
        <path fill="#4D82C1" d="M279.7 318.31c-.08-.302-.165-.599-.251-.895-2.635-8.904-8.782-16.53-16.47-21.443-16.945-10.86-42.217-5.032-50.557 14.376-6.147 14.292-2.998 32.66 9.54 42.15 6.963 5.268 15.81 7.593 24.441 7.481 10.772-.145 23.684-6.184 29.719-15.74 4.77-7.52 5.91-17.242 3.577-25.928z"/>
        <path fill="#FFF" d="M242.279 322.374l-4.13-.04a.85.85 0 0 0-.85.66 1.04 1.04 0 0 0 .177 1.119l7.076 7.949c.16.2.402.316.659.316a.87.87 0 0 0 .658-.303l7.175-7.83c.283-.298.359-.738.191-1.113a.856.856 0 0 0-.837-.66l-4.13-.039.052-7.046a1.258 1.258 0 0 0-.323-.89 1.028 1.028 0 0 0-.79-.368l-3.755-.04a1.048 1.048 0 0 0-.797.356 1.251 1.251 0 0 0-.336.882l-.04 7.047zM253.782 339.32l-17.261-.165.013-1.067 17.254.171z"/>
        <path fill="#19CCC7" d="M343.69 212.792c-8.477.031-16.954.093-25.43.185-4.204.046-8.565-.23-12.729.151-2.72.257-6.47.376-8.597 2.424-3.736 3.596-2.636 12-2.682 16.708-.085 7.179-.178 14.357-.066 21.53.047 2.85.877 6.289 3.163 8.02a8.355 8.355 0 0 0 3.505 1.404c4.018.803 9.17.144 13.261.316 3.914.158 17.083-.33 20.99-.284 2.497.033 6.397-.757 8.34 1.166 3.828 3.807 6.463 6.441 11.701 8.562.491.26 1.048.368 1.6.31 2.55-.54-.849-3.952-1.317-4.795-.58-1.107-1.054-2.41-.711-3.622.514-1.785 5.112-1.199 6.996-1.364 3.235-.29 20.087-.915 23.717-1.442a7.249 7.249 0 0 0 2.767-.823c3.887-2.325 2.853-9.958 2.9-13.93 0-6.262.289-12.552.164-18.822-.08-3.951.606-10.366-1.825-13.566-2.59-3.412-8.143-2.075-11.786-2.101-4.045-.014-24.686-.066-33.962-.027z"/>
        <path fill="#20C1C6" d="M373.435 220.709h-1.272c-17.129 0-31.748.619-48.844.546-4.921 0-9.928.073-14.85.29-1.317.06-2.371-.066-3.023 1.113-.653 1.179.072 2.595 1.396 3.069a7.96 7.96 0 0 0 2.2.349c11.016.705 22.268.165 33.363 0 11.601-.138 20.825-.29 32.426-.428 1.403 0 2.886-.053 4.072-.659 1.864-1 1.785-2.884 0-3.708-1.417-.658-3.637-.619-5.468-.572zM373.435 230.449h-1.272c-17.129 0-31.748.612-48.844.547-4.921 0-9.928.072-14.85.29-1.317.059-2.371-.066-3.023 1.112-.653 1.18.072 2.595 1.396 3.07a8.211 8.211 0 0 0 2.2.348c11.016.705 22.268.165 33.363 0 11.601-.144 20.825-.29 32.426-.428 1.403 0 2.886-.052 4.072-.691 1.864-1.001 1.785-2.885 0-3.708-1.417-.62-3.637-.58-5.468-.54zM373.435 240.196h-1.272c-17.129 0-31.748.612-48.844.547-4.921 0-9.928.072-14.85.29-1.317.052-2.371-.066-3.023 1.106-.653 1.172.072 2.601 1.396 3.075a8.211 8.211 0 0 0 2.2.382c11.016.712 22.268.172 33.363 0 11.601-.144 20.825-.29 32.426-.428 1.403 0 2.886-.052 4.072-.691 1.864-1.001 1.785-2.891 0-3.708-1.417-.652-3.637-.613-5.468-.573zM308.47 250.8c-1.318.058-2.372-.067-3.024 1.112-.653 1.18.072 2.595 1.396 3.07a7.96 7.96 0 0 0 2.2.348c11.016.705 19.567-.224 31.169-.362 1.403 0 4.019-.198 5.376-.375 3.103-.415 2.365-4.215-.218-4.215-4.433.006-31.978.204-36.9.421z"/>
        <path fill="#DB7376" d="M483.413 400.862l-14.025-14.64 7.751-7.42 14.025 14.64z"/>
        <path fill="#2F355B" d="M478.284 394.436a.711.711 0 0 0-.455.817c.31 1.423 1.094 5.038 1.72 7.706.6 2.568 2.872 4.228 5.086 3.734l29.475-6.632c1.403-.316.902-5.098-3.222-5.216l-14.744-1.607-3.103-1.396c-.31-.073-2.734-1.897-3.722 1.554-1.054 3.668-4.012 1.422-5.962.6-1.601-.66-2.254-.429-3.723-.034l-1.35.474z"/>
        <path fill="#15B598" d="M482.5 372.078l-26.497-22.59c-2.398-2.042-4.967-5.064-7.688-6.586-2.253-1.238-4.243-.658-6.68.204-4.56 1.588-10.542 1.462-12.801 6.718a3.193 3.193 0 0 0-.317 2.048c.178.52.47.993.857 1.383l16.042 18.73a60.816 60.816 0 0 0 6.924 7.245c4.776 3.951 10.58 6.237 15.732 9.628.632.506 1.379.85 2.174 1.001.714.01 1.42-.148 2.062-.46l15.087-5.882c1.7-.658 3.782-2.088 3.222-3.951a3.767 3.767 0 0 0-1.318-1.66l-6.799-5.828z"/>
        <path fill="#3A3838" d="M386.453 295.846c1.251-1.416 2.55-2.91 3.155-4.893.936-3.043.1-6.73 1.397-9.55 2.022-4.386 8.742-3.72 11.977-1.126 1.785 1.43 2.754 4.018 1.812 6.092a5.42 5.42 0 0 0-.718 1.759c-.086 1.172 1.067 2.055 2.174 2.463 1.107.408 2.352.619 3.169 1.469a2.72 2.72 0 0 1 .612 2.528c-.402 1.482-1.317 1.034-2.286 1.864-.43.325-.587.898-.382 1.396.257.475.863.6 1.318.863a2.22 2.22 0 0 1 .955 2.635c-.56 1.495-2.635 2.094-2.958 3.655-.198.974.362 2.041-.046 2.937-.27.482-.692.861-1.2 1.08a6.254 6.254 0 0 1-3.992.797c-1.449-.204-2.674-.659-4.038.356-.659.494-1.166 1.257-1.917 1.64a4.132 4.132 0 0 1-1.977.309c-4.704-.092-7.754-2.345-9.882-6.448-1.838-3.642.376-7.053 2.827-9.826z"/>
        <path fill="#DB7376" d="M388.35 310.17a2.917 2.917 0 0 1 3.07-4.563c3.544.908 4.816 0 5.046-2.707.126-1.423 2.76-4.05 2.524-6.165-.534-4.755.823-5.4.164-8.04-1.943-7.812-6.706-5.158-7.695-6.626-1.436-2.134-1.185-4.38.936-4.05.217.039-13.176 5.334-13.585 5.492l-5.652 22.438c-.764 3.043-2.55 6.981-2.635 10.123-.132 7.04 6.785 10.813 12.128 13.639 5.976 3.148 11.773-1.186 16.325-5.269a5.927 5.927 0 0 0 2.128-4.01 8.744 8.744 0 0 0-.856-3.57c-.198-.5-.527-.534-.982-.823a2.748 2.748 0 0 0-1.462-.297c-2.26-.066-5.416-.744-7.056-2.298-.91-.876-1.62-2.226-2.398-3.273z"/>
        <path fill="#C46060" d="M392.138 305.613a1.318 1.318 0 0 0-.296-.125l-.435-.171-.863-.343-1.733-.658-.448-.178c-1.028-.408-2.167-.817-3.221-.468-.35.099-.643.337-.81.659 0 .277-.198.6-.205.902-.01.316.03.632.119.935.212.684.552 1.32 1 1.877.923 1.225 2.162 1.976 3.295 3.036a.659.659 0 0 0 .23.165c.409.158.106-.31 0-.448a9.384 9.384 0 0 1-.737-1.422 2.383 2.383 0 0 1-.152-1.252c.05-.83.5-1.583 1.206-2.021.092-.065.189-.122.29-.172.104-.045.212-.082.322-.112a5.892 5.892 0 0 1 2.254 0c.06.01.123.01.184 0a.092.092 0 0 0 .066 0 .099.099 0 0 0 0-.105l-.066-.099zM378.52 316.42a7.778 7.778 0 0 1-2.088-3.082c-.929-2.575-.784-6.368.547-8.785 1.33-2.417 4.796-5.183 1.976-7.304a33.63 33.63 0 0 1-2.958-2.423c-.323.915-2.345 9.351-2.635 10.458-1.443 5.861-3.992 11.288-3.854 17.472 0 1.317 10.916-.744 12.155-1.475.593-.343 1.212-.836 1.239-1.521.04-1.041-1.226-1.535-2.181-1.937a7.57 7.57 0 0 1-2.2-1.402z"/>
        <path fill="#3A3838" d="M360.772 299.923a10.29 10.29 0 0 0-.158-2.252c-.362-1.318-1.568-2.26-2.115-3.524a5.023 5.023 0 0 1 .323-4.195c.72-1.254 1.66-2.37 2.774-3.293 1.489-1.35.593-3.556 1.107-5.334a4.48 4.48 0 0 1 2.674-2.72 17.793 17.793 0 0 1 3.696-.942c1.08-.191 2.8.382 3.716-.086.296-.176.528-.444.659-.764.388-.816.514-1.745.896-2.568 1.008-2.167 4.98-3.07 7.062-2.292 1.2.448 2.214 1.317 3.393 1.804 1.976.85 4.295.593 6.476.66 2.18.065 4.612.658 5.758 2.515.686 1.22.78 2.686.257 3.984a6.086 6.086 0 0 1-1.944 2.569c-.704.546-1.488.797-1.686 1.791-.198.995.507 2.068.422 3.122-.112 1.277-1.318 2.153-2.563 2.549-1.595.52-3.696.566-4.862 1.975-1.166 1.41-1.002 3.827 0 5.269 1.126 1.6 4.282 4.61.883 6.164a5.126 5.126 0 0 0-1.443.659 2.14 2.14 0 0 0-.389 2.114 8.56 8.56 0 0 1 .494 2.193c-.04 1.976-2.365 3.095-4.322 2.983-1.956-.112-3.807-.98-5.764-1.027-1.957-.046-4.078.784-6.002.184a2.84 2.84 0 0 1-1.877-1.39c-.343-.849-.514-1.758-.936-2.634a6.75 6.75 0 0 0-1.687-2.324c-.981-.804-2.279-1.146-3.294-1.976a4.386 4.386 0 0 1-1.535-2.76l-.013-.454z"/>
        <ellipse cx="385.26" cy="299.021" fill="#ECC973" rx="3.722" ry="3.721"/>
        <path fill="#FFF" d="M416.481 333.847l-.119-.119a.204.204 0 0 0-.072.165c0 .178.362.006.191-.046z"/>
        <path fill="#FFF" d="M415.625 326.668a35.568 35.568 0 0 0-3.505-3.886l-6.97-6.96c-1.246-1.239-3.42-1.805-5.093-2.174a11.42 11.42 0 0 0-4.678-.033c-.375.066-1.864.132-1.87.757 0 .053.045.093.085.125.523.44 1.127.771 1.779.975.461.106 1.054-.079 1.416.33.305.521.445 1.123.402 1.725a2.635 2.635 0 0 1-2.286 2.634c-1.686.145-3.366-1-5.007-1.27a22.853 22.853 0 0 1-7.313-2.464 11.493 11.493 0 0 0-11.555.659 15.15 15.15 0 0 0-2.214 2.048c-.659.659-1.522.942-1.976 1.673a29.296 29.296 0 0 0-3.01 6.072c-1.575 4.406-2.056 9.128-2.168 13.83-.257 11.064-2.05 22.267-2.636 33.417a2.489 2.489 0 0 0 .29 1.613c.374.406.877.669 1.423.744 4.138 1.048 9.224 1.976 13.519 1.673 4.21-.31 9.177-3.2 13.051-4.827 1.976-.573 4.012-.751 5.982-1.317 1.39-.382 2.477-1.192 3.788-1.739 3.716-1.548 7.247-2.404 10.541-4.926.188-.122.343-.29.448-.488a1.152 1.152 0 0 0 0-.836c-.494-1.488-1.845-2.503-2.747-3.793a7.032 7.032 0 0 1-1.114-5.342c.429-2.14 1.832-3.951 2.636-5.986a10.896 10.896 0 0 0-.093-7.989 1.606 1.606 0 0 1-.184-1.1c.21-.586 1.318-1.185 1.799-1.527.806-.49 1.642-.93 2.503-1.318 1.489-.737 3.162-1 4.743-1.514a3.953 3.953 0 0 0 1.318-.659c1.054-.863 1.18-2.634.89-3.866a11.78 11.78 0 0 0-2.194-4.26z"/>
        <path fill="#C46060" d="M424.762 348.994l6.147-3.26c.323-.171.659-.382.764-.737a.909.909 0 0 0-.553-.969 2.689 2.689 0 0 0-1.193-.158l-5.105.106a1.825 1.825 0 0 1-1.048-.191 1.93 1.93 0 0 1-.6-.922c-.73-1.772-2.134-3.208-3.294-4.716a9.7 9.7 0 0 1-1.475-2.311c-1.898-4.992-9.052.658-11.72 2.39-.378.2-.702.49-.943.843-.658 1.153 1.186 2.635 1.76 3.57a37.975 37.975 0 0 0 3.504 4.61 7.68 7.68 0 0 0 2.148 1.877c.653.31 1.344.53 2.056.658 1.911.5 3.865.817 5.837.949 1.759.04 2.193-.909 3.715-1.739z"/>
        <path fill="#DB7376" d="M469.787 407.352l-10.14-17.555 9.295-5.364 10.14 17.555z"/>
        <path fill="#2F355B" d="M465.226 400.41a.711.711 0 0 0-.659.658 508.39 508.39 0 0 0-.164 7.903c0 2.635 1.785 4.795 4.051 4.834l30.2.573c1.443 0 2.095-4.741-1.884-5.835l-13.96-5.077-2.682-2.095c-.283-.145-2.207-2.49-3.985.62-1.898 3.292-4.236.434-5.93-.83-1.39-1.034-2.088-.955-3.61-.916l-1.377.165z"/>
        <path fill="#2FC8AD" d="M470.121 376.082c-6.588-8.068-13.176-16.103-20.225-23.71-2.998-3.24-6.878-8.923-11.042-10.537-4.164-1.613-8.98 1.364-12.61 3.175a204.54 204.54 0 0 0-28.183 17.03c-4.315 3.11-8.4 5.994-13.012 8.72-1.574.929-14.889 7.508-14.783 8.72.705 8.436 3.294 16.959 9.882 21.984 7.721 5.854 16.154 4.51 24.764 1.844 7.557-2.345 14.56-11.361 20.08-16.88 2.55-2.542 5.232-4.966 7.327-7.85 1.278-1.752 3.65-5.605 6.337-4.986 2.05.481 4.44 5.664 5.508 7.337 3.446 5.394 6.588 11.031 10.897 15.806.389.496.884.899 1.45 1.179.8.25 1.657.25 2.457 0 4.493-1.001 9.177-2.279 13.604-3.583 2.49-.731 7.385-1.245 7.122-4.985-.112-1.574-1.153-2.905-2.148-4.13l-5.719-7.027c-.566-.711-1.14-1.41-1.706-2.107z"/>
        <path fill="#0CBC9C" d="M410.611 353.446c-1.851 1.021-3.393 2.555-5.31 3.563-2.846 1.482-5.797 2.74-8.663 4.176-2.3 1.159-4.81 1.876-6.53 3.892-1.975 2.325-3.392 4.366-6.04 6.118-.429.29-.93.817-.66 1.245a.922.922 0 0 0 .343.27l2.748 1.547c1.627.916 3.333 1.858 5.198 1.976 4.203.224 8.432-4.294 11.252-6.968a55.813 55.813 0 0 0 8.657-10.451c1.199-1.87 2.3-4.288 1.18-6.204a8.224 8.224 0 0 0-2.175.836z"/>
        <path fill="#2F355B" d="M421.962 340.966c-.296 1.666-.276 3.86 1.463 4.452.451.13.92.187 1.39.171l36.234.553c.496.069 1-.046 1.417-.322.26-.288.404-.66.408-1.047.172-1.445.203-2.903.093-4.354-13.647.11-27.286.492-40.92 1.146"/>
        <path fill="#2F355B" d="M469.04 306.957c.101-.554.285-1.09.548-1.587.553-.857 2.14-1.186 3.076-.857 1.601.567 1.034.797.435 2.68-1.219 3.867-2.503 7.713-3.755 11.566-2.447 7.538-4.895 15.079-7.346 22.622-1.1 0-2.2-.06-3.294-.099-1.094-.04-.975-.237-.711-1.106.263-.87.566-1.825.856-2.733.738-2.319 1.502-4.61 2.273-6.929 1.7-5.084 3.417-10.157 5.152-15.22.929-2.76 2.01-5.519 2.767-8.337z"/>
        <path fill="#DB7376" d="M436.291 336.06a12.05 12.05 0 0 1-1.258-.659c-.41-.29-.837-.556-1.278-.797-.427-.133-.87-.2-1.318-.198-.415 0-.83-.144-1.251-.197-1.035-.119-2.069-.198-3.09-.343-1.865-.263-3.406-.342-5.08.659-2.055 1.192-4.005 2.634-5.995 3.952a2260.124 2260.124 0 0 1-11.858 7.692l-8.387 5.407c-1.028.658-2.43 2.068-3.722 1.976-1.074-.073-1.819-.982-2.418-1.779l-3.294-4.425c-1.06-1.43-2.036-3.181-3.294-4.433-1.608-1.613-4.69 1.318-6.22 2.266a50.873 50.873 0 0 0-5.685 3.951 2.022 2.022 0 0 0-.659.79c-.243.607.112 1.272.455 1.832 4.954 8.04 10.54 15.806 20.206 18.407a5.668 5.668 0 0 0 2.095.244c1.66-.185 3.076-2.404 4.21-3.517 1.548-1.521 3.043-3.095 4.532-4.676 2.635-2.786 5.468-5.44 7.78-8.45 2.102-2.726 4.691-5.09 6.589-7.982.182-.303.382-.596.6-.876 1.06-1.317 2.351-1.244 3.82-1.106a6.023 6.023 0 0 0 4.098-1.146 5.93 5.93 0 0 1 .988-.731c1.166-.573 2.451-.316 3.683-.125.83.117 1.67.14 2.503.066.245-.003.486-.062.705-.172.33-.275.714-.479 1.127-.599.369-.053.738 0 1.113-.04a1.45 1.45 0 0 0 1.318-.796 3.03 3.03 0 0 1 .711-.817c.306-.19.656-.296 1.015-.31a3.117 3.117 0 0 0 1.08-.5c.508-.316.54-.731-.059-.975l-2.049-.862a27.857 27.857 0 0 1-1.713-.731z"/>
        <path fill="#F4BDB3" d="M336.014 301.069c-.474-1.403-1.08-2.773-1.667-4.13-1.146-2.634-2.272-5.354-2.305-8.212 0-2.068.533-4.116.454-6.177a10.206 10.206 0 0 0-2.352-6.119c-.804-.968-4.308-1.719-5.593-1.857-3.222-.349-6.51-.276-9.73-.356l-4.988-.111c-1.093 0-2.418-.198-3.406.408a1.37 1.37 0 0 0-.428 1.067l-.547 6.355c-.145 1.62 1.041 2.378 1.16 3.952.079 1.1-.185 2.2-.073 3.293a11.78 11.78 0 0 0 1.067 3.543c.587 1.317 1.423 2.746 1.582 4.228.015.423.081.843.197 1.251.35.935 1.384 1.43 2.359 1.633 1.013.219 2.06.23 3.076.033.877-.164 1.377-.382 2.207.1 1.252.73 1.707 2.258 1.977 3.588.454 2.233-.112 5.822 1.219 7.765 1.706 2.483 5.593 3.497 8.314 2.733 4.763-1.317 8.676-3.293 8.327-8.983-.114-1.365-.4-2.71-.85-4.004z"/>
        <path fill="#E7A194" d="M322.383 295.188c.31-.738.613-1.653-.349-2.048-.56-.23-.915.085-1.265.513-.777.942-.961 2.207-1.521 3.293a3.867 3.867 0 0 1-2.53 1.976c-.336.105-3.564.659-3.578.75 0 .198.238.277.435.277 1.68 0 3.9-.691 4.724 1.245.303.718.566 2.299 1.6 1.864.66-.296.587-.902.627-1.528.137-.924.378-1.83.718-2.7a31.05 31.05 0 0 1 .962-3.181c.052-.178.118-.316.177-.461z"/>
        <path fill="#EBF7F7" d="M307.817 371.083l-1.087-.356c-15.423-5.005-28.671-14.212-43.547-20.798-6.094-2.693-11.549-5.09-17.617-.928-5.178 3.543-9.13 10.01-13.011 14.936-8.821 11.196-17.083 22.939-23.058 35.92-.033.065 12.919 1.317 14.237 1.317a96.976 96.976 0 0 0 16.516-1.166c2.43-4.426 5.784-7.956 8.564-12.085 1.977-2.865 3.65-5.763 7.445-6.586 1.318-.29 2.596.218 3.814.718 3.953 1.607 7.959 2.918 11.859 4.413 4.025 1.547 7.807 4.07 11.812 5.762 7.577 3.207 15.917 3.089 23.988 2.279 7.747-.784 15.56-2.24 22.465-6.02 1.607-.875 3.294-2.1 3.564-3.912.369-2.634-2.372-4.51-4.776-5.624-6.819-3.168-14.013-5.539-21.168-7.87z"/>
        <path fill="#5E64B6" d="M324.195 320.418a16.257 16.257 0 0 0-1.212-3.089c-1.594-3.115-2.74-5.927-6.799-5.38-3.044.441-5.679 2.634-7.477 4.998-2.188 2.892-3.545 6.316-5.429 9.418-2.536 4.176-6.476 8.562-10.719 11.084-1.785 1.054-2.945-.125-4.348-1.317-1.943-1.607-3.05-2.503-5.712-2.43l-3.953.105c-.935 0-2.009.125-2.53.89-1.027 1.514.488 4.741.916 6.262.694 2.424 1.382 4.839 2.062 7.245 1.127 3.951 1.977 7.942 3.222 11.914a6.46 6.46 0 0 0 1.18 2.45 6.186 6.186 0 0 0 1.976 1.317 191.633 191.633 0 0 0 15.455 6.586c.38.178.8.259 1.22.237.471-.114.9-.364 1.231-.718 3.386-3.01 5.804-6.658 8.565-10.195a60.58 60.58 0 0 0 11.614-25.915c.956-4.986 1.97-9.05.738-13.462z"/>
        <path fill="#2F355B" d="M284.798 300.878a243.323 243.323 0 0 0-10.125-.25 2.425 2.425 0 0 0-2.352 2.99c.83 3.681 1.087 7.343 1.627 11.156a41.525 41.525 0 0 0 1.845 7.403c.56 1.633 1.317 4.195 1.172 5.927-.099 1.39-.948 2.542.705 3.563.988.606 2.22.619 3.386.658 3.63.058 7.248.417 10.818 1.074 1.937.355 5.89 1.06 5.336-2.364l-4.506-27.773a2.418 2.418 0 0 0-2.22-2.035 145.527 145.527 0 0 0-5.686-.349z"/>
        <path fill="#374162" d="M286.597 311.58c-.21-.504-.6-.912-1.094-1.146a5.384 5.384 0 0 0-1.785-.468 6.09 6.09 0 0 0-3.169.257c-.137.06-.27.13-.395.211a2.634 2.634 0 0 0-1.206 1.673 2.12 2.12 0 0 0 .804 1.587c.955.836 2.385.968 3.597.87a4.778 4.778 0 0 0 2.332-.66 2.1 2.1 0 0 0 .982-2.094 1.363 1.363 0 0 0-.066-.23z"/>
        <path fill="#F4BDB3" d="M282.69 333.616c.073.25.145.494.191.731.297 1.561-1.284 1.976-2.635 2.134a5.97 5.97 0 0 1-2.082-.04c-.487-.125-1.093-.118-1.41-.579a1.6 1.6 0 0 1-.237-.757 22.82 22.82 0 0 0-.659-3.675c-.25-.79-.349-1.614-.658-2.378-.31-.764-.778-1.442-1.035-2.226a15.459 15.459 0 0 1-.342-3.49 21.818 21.818 0 0 1-.119-2.938c.002-.247.056-.492.158-.717.084-.15.188-.288.31-.409 1.41-1.554 2.635-3.227 4.908-3.55a32.2 32.2 0 0 1 5.165-.032c.409 0 .916.085 1.041.474.217.724-1.252 1.317-1.64 1.817a1.12 1.12 0 0 0-.31 1.06c.08.159.187.301.316.422.472.428.615 1.111.356 1.693-.31.474-1.015.606-1.232 1.126-.217.52.283 1.113.389 1.673.197 1.08-.534.658-.804 1.317-.053.2-.053.412 0 .612.099.659.25 1.271.296 1.91a3.476 3.476 0 0 1-.316 1.884c-.12.194-.23.394-.33.6-.44 1.046.39 2.337.68 3.338z"/>
        <path fill="#4D55A3" d="M305.887 346.505a3.16 3.16 0 0 0-.896 1.784 47.706 47.706 0 0 0-.955 5.5c-.514 4.61-6.266 5.73-8.499 8.877-.804 1.133-1.726 2.786-1.186 4.196.85 2.252 5.85 3.47 7.84 4.399.22.132.475.194.731.178.285-.083.533-.26.705-.5a26.08 26.08 0 0 0 4.19-5.928c1.259-2.634 1.239-6.553 1.094-9.444-.066-1.238-.442-2.417-.494-3.662-.022-1.34-.23-2.67-.62-3.951-.263-.804-.77-1.686-1.482-1.62a.837.837 0 0 0-.428.17z"/>
        <path fill="#F4BDB3" d="M189.686 397.255c5.791 1.014 13.177 2.635 19.014 1.607 4.736-.81 8.156-2.2 12.76.837a11.432 11.432 0 0 1 5.232 9.437c.018.23-.037.461-.159.659a1.16 1.16 0 0 1-.757.368 71.313 71.313 0 0 1-34.173-1.501 5.508 5.508 0 0 1-2.437-1.133 3.595 3.595 0 0 1-.758-2.022l-1.047-6.889a1.165 1.165 0 0 1 .158-.968c.428-.58 1.43-.527 2.167-.395z"/>
        <path fill="#FFF" d="M260.363 417.447c13.251-.619 26.49-1.372 39.72-2.259 13.347-.889 31.346 1.2 42.388-7.297 4.697-3.622 7.457-9.305 8.67-15.108.843-4.024.704-8.087.79-12.164.119-5.21 1.048-5.716-4.065-6.585-7.952-1.318-16.068-1.515-24.106-1.858-4.045-.178-4.697-.369-6.91 2.74-3.196 4.492-8.275 3.22-13.388 3.88-5.62.724-11.166 1.883-16.694 3.108-11.054 2.45-22.122 5.268-33.487 5.769-17.985.764-35.474 2.5-53.328 4.305-.472.048-1.234.048-1.643.805-.241.448-.085 1.836 0 2.352 1.06 6.46 1.865 11.973 2.958 18.427.389 2.265.191 4.511 2.227 5.69 2.036 1.179 8.156-.119 10.54-.178a2008.5 2008.5 0 0 0 40.498-1.396l5.83-.23z"/>
        <path fill="#F4BDB3" d="M390.735 409.307c-.25 0-.5 0-.751-.04-1.417-.045-3.13-.164-3.775-1.422-.191-.369-.257-.803-.455-1.165-.547-.982-1.844-1.173-2.964-1.252-2.504-.19-5.1-.593-7.61-.566-1.462 0-3.406.882-4.77 0-1.363-.883-1.68-4.314-2.127-5.881a2.1 2.1 0 0 0-.66-1.186 1.977 1.977 0 0 0-1.317-.25 14.966 14.966 0 0 0-6.357 1.653c-2.787 1.548-2.458 1.317-1.548 3.952a21.903 21.903 0 0 0 3.386 5.88c2.45 3.188 3.235 5.401 7.701 5.493l14.079.303c3.637.08 7.49.31 11.081-.421 3.953-.797 2.846-4.064-.606-4.69a28.865 28.865 0 0 0-3.307-.408z"/>
        <path fill="#FFF" d="M339.52 336.843a36.302 36.302 0 0 0 .552-14.568c-.58-3.477-1.68-7.014-2.009-10.537-.23-2.397.758-4.61.77-6.915 0-2.634-1.508-2.588-3.873-2.331-3.584.381-7.141 1.093-10.771.895-2.636-.145-7.906-.402-7.669 3.563.08 1.245.468 2.634-.23 3.649-.837 1.231-2.866 1.356-3.42 2.74-.13.39-.187.8-.171 1.211l-.362 20.14c-.053 3.293.764 6.842 1.541 10.01.481 1.976 1.1 3.952 2.51 5.374 3.38 3.412 10.818 3.438 14.54.876 3.828-2.634 6.279-6.882 7.748-11.288.336-.929.606-1.864.843-2.819z"/>
        <path fill="#5E64B6" d="M322.713 398.434c-.033.744-.053 1.594.474 2.114.302.248.655.426 1.035.52 11.858 3.735 24.678 2.444 36.82-.118.456-.055.89-.227 1.259-.5.385-.444.617-1.001.658-1.588 1.443-7.323 1.878-14.047 2.326-21.43.5-8.173.415-17.578-.744-25.685-.66-6.368-1.608-12.717-2.636-19-1.172-7.093-4.578-15.062-9.73-20.238a30.16 30.16 0 0 0-7.076-5.006c-1.72-.941-3.294-2.944-5.112-3.628-1.318-.475-2.708 0-3.986.5l-10.442 3.952a5.996 5.996 0 0 0-2.372 1.356 5.926 5.926 0 0 0-1.034 2.048l-8.453 24.15a97.821 97.821 0 0 0-3.392 11.065c-1.707 7.646-1.08 15.286-1.792 22.985-.1 1.08-.25 2.153-.35 3.233-.382 4.281 1.819 5.052 5.363 5.717 3.367.658 5.442 2.272 6.977 5.334 2.141 4.294 2.418 9.563 2.207 14.22z"/>
        <path fill="#4D55A3" d="M341.463 402.952c.454.072.915.118 1.363.158 4.302.356 9.276.257 13.447-.83.942-.243 1.976-.658 2.22-1.633.283-1.278-1.18-2.233-1.608-3.47-.296-.857-.059-1.799-.105-2.708-.158-3.121-2.826-5.426-4.091-8.107-1.812-3.84-2.352-8.561-3.518-12.645a1009.401 1009.401 0 0 0-10.298-33.785c-.362-1.133-.79-2.358-1.554-2.852a1.68 1.68 0 0 0-1.562-.085c-2.536.955-3.887 5.453-3.742 9.43.145 3.979 1.39 7.647 2.346 11.361.955 3.715 1.647 7.903.691 11.63-.988 3.854-3.676 7.364-2.74 11.243.731 3.043 3.195 3.899 5.198 4.992 2.002 1.093 3.913 3.951 3.215 6.678-.824 3.227-8.123 5.137-2.708 9.293a7.406 7.406 0 0 0 3.446 1.33z"/>
        <path fill="#5E64B6" d="M360.957 409.867a87.261 87.261 0 0 0 12.939-3.998 5.39 5.39 0 0 0 2.543-1.64c.882-1.238.52-2.89.118-4.333-3.577-13.014-7.504-25.981-10.738-39.074-2.412-9.727-6.588-18.045-9.948-27.535-1.832-5.144-3.953-10.419-7.623-14.555-3.834-4.327-9.276-5.084-14.909-3.951-4.611.928-6.943 3.365-5.929 7.81 1.193 5.328 16.319 43.467 17.979 47.175 4.533 10.043 7.359 23.38 12.076 33.337.21.508 2.853 6.909 3.492 6.764z"/>
        <path fill="#2F355B" d="M197.579 411.25l-.435-1.449c-.606-1.528-.81-2.252-2.424-3.2-1.937-1.146-3.953-1.64-4.072-4.13-.079-2.055 1.614-3.787.475-5.927-.95-1.811-2.945-1.976-4.612-3.135a15.711 15.711 0 0 1-1.838-1.541c-2.583-2.39-4.651-5.269-7.36-7.554-2.094-1.765-7.483-4.61-7.483.296a9.461 9.461 0 0 0 .659 3.056c3.07 8.996 8.208 17.163 11.555 26.054a7.625 7.625 0 0 0 1.16 2.298c1.58 1.87 4.756.191 6.627-.487 2.543-.916 4.882-2.22 7.333-3.333a.764.764 0 0 0 .415-.948z"/>
        <path fill="#515050" d="M319.946 264.985c-1.594.171-3.209.073-4.836.303-1.976.277-3.228 1.04-4.94 1.824-2.748 1.252-5.74.139-7.663 3.07-1.37 2.08-.19 5.327 2.056 6.467.338.147.699.236 1.067.263 1.401.18 2.804.351 4.21.514 1.258.145 2.266-.086 2.773 1.205.344.885.805 1.72 1.37 2.483.162.27.389.497.66.658.402.128.823.186 1.245.172 1.442.151 2.483 1.376 3.168 2.548.52.896.475 2.253 1.252 2.99 1.542 1.45 1.917-.658 2.3-1.745.428-1.231.797-2.634 2.292-2.924a2.293 2.293 0 0 1 2.128.731c.777.929.659 2.246.988 3.34a44.212 44.212 0 0 1 1.318 4.873c.06.296.145.658.428.757.119.04.245.053.369.04.903 0 1.752.467 2.359-.468.231-.407.385-.854.454-1.317l.455-2.108c.718-3.378 1.278-6.816 1.976-10.155.659-2.944-1.186-6.487-2.918-8.733a13.834 13.834 0 0 0-5.93-4.61c-2.174-.81-3.952-.52-6.16-.21l-.421.032z"/>
        <path fill="#19CCC7" d="M432.24 68.641c.126-.014.25-.043.369-.085-.152.04-.277.06-.37.085zM462.92 16.982a53.499 53.499 0 0 0-.217-6.164c-.448-5.677-2.635-9.122-7.313-10.103-4.341-.909-9.223-.448-13.637-.474-6.206 0-38.211.527-50.267.803-6.022.132-10.508-.052-16.53 0-4.005 0-6.067 1.673-8.162 4.116-2.194 2.556-2.365 4.61-2.365 8.094 0 6.711.164 24.401 0 31.099-.244 9.391 4.196 11.367 12.734 11.788 16.47.81 32.94.488 49.411.936 2.951.079 6.028.421 8.564 2.054 2.306 1.476 3.822 2.793 6.22 4.288 2.496 1.554 12.188 2.944 10.461.323-.948-1.43-3.234-2.543-4.5-3.893-1.488-1.58.08-4.662 2.234-4.9 3.86-.421 7.122 1.048 11.622-1.495 2.266-1.284 2.635-5.927 2.556-7.244-.646-9.945-1.048-18.559-.81-29.228z"/>
        <path fill="#20C1C6" d="M445.416 10.317h-1.272c-17.162 0-34.12.613-51.215.547-4.922 0-9.922.072-14.85.29-1.318.059-2.365-.066-3.024 1.113-.659 1.178.08 2.594 1.397 3.069a7.96 7.96 0 0 0 2.2.349c11.022.704 22.268.164 33.362 0l34.799-.428c1.403 0 2.885-.053 4.078-.659 1.857-1.001 1.778-2.885 0-3.708-1.397-.658-3.617-.619-5.475-.573zM445.416 20.558h-1.272c-17.162 0-34.12.613-51.215.547-4.922 0-9.922.072-14.85.29-1.318.052-2.365-.066-3.024 1.106-.659 1.172.08 2.634 1.397 3.076a8.211 8.211 0 0 0 2.2.342c11.022.711 22.268.171 33.362.033l34.799-.428c1.403 0 2.885-.053 4.078-.659 1.857-1 1.778-2.89 0-3.708-1.397-.678-3.617-.638-5.475-.599zM445.416 30.806h-1.272c-17.162 0-34.12.619-51.215.546-4.922 0-9.922.073-14.85.29-1.318.06-2.365-.066-3.024 1.113-.659 1.179.08 2.595 1.397 3.07a7.96 7.96 0 0 0 2.2.348c11.022.705 22.268.165 33.362 0l34.799-.428c1.403 0 2.885-.053 4.078-.691 1.857-1.001 1.778-2.885 0-3.708-1.397-.626-3.617-.586-5.475-.54zM378.099 41.725c-1.318.06-2.365-.066-3.024 1.113-.659 1.179.079 2.595 1.397 3.07a7.96 7.96 0 0 0 2.2.348c11.022.705 19.567-.23 31.168-.362 1.403 0 4.019-.198 5.383-.382 3.096-.408 2.358-4.208-.218-4.208-4.44.006-31.978.204-36.906.421z"/>
        <path fill="#4D82C1" d="M503.174 35.897a44.632 44.632 0 0 0-1.977 11.196 39.504 39.504 0 0 0 5.468 22.582c13.242 21.589 44.95 22.056 61.757 5.559 13.48-13.231 14.632-45.936-8.565-59.18-11.628-6.632-30.18-6.586-41.425.434a34.815 34.815 0 0 0-15.258 19.409z"/>
        <path fill="#FFF" d="M524.763 37.411l30.048.731a2.075 2.075 0 0 1 2.18 1.91l-.447 18.526a2.049 2.049 0 0 1-2.267 1.798l-30.041-.744a2.082 2.082 0 0 1-2.188-1.91l.448-18.532a2.062 2.062 0 0 1 2.267-1.779z"/>
        <path stroke="#4D82C1" d="M552.3 42.812l-9.881 8.561a4.613 4.613 0 0 1-6.16-.151l-9.487-9.075"/>
        <path fill="#354B63" d="M448.051 84.566c.032-.087.054-.178.066-.27a3.99 3.99 0 0 0-.316-1.824l-3.518-10.478c-.66-1.976-1.443-6.87-3.578-7.903a9.556 9.556 0 0 0-3.952-.6h-.429c-2.45-.46-4.908-.658-5.152.527-.049.39-.008.787.119 1.16.033.105.06.21.092.315a48.721 48.721 0 0 0 1.516 6.896c.658 2.252 1.502 4.432 2.147 6.691.573 2.015 2.141 3.59 3.044 5.466.195.537.524 1.016.955 1.39.51.295 1.099.429 1.687.382 1.522-.21 6.594.151 7.32-1.752z"/>
        <path fill="#FFA2C0" d="M466.403 114.743l2.114-4.79c1.51-3.406 3.269-7.51 3.269-9.584 0-2.957-4.195-3.316-5.822-4.186a35.583 35.583 0 0 0-9.348-3.378c-.83-.178-1.858-.257-2.379.435a2.456 2.456 0 0 0-.362 1.033l-1.133 5.928a6.69 6.69 0 0 1-.975 2.76c-3.07 4.109-8.519-5.777-9.836-7.864-2.392-3.78-2.161-5.19-1.107-9.392.257-1.034-.356-2.054-.132-3.128.144-.427.239-.869.284-1.317-.101-.578-.17-1.16-.205-1.745.08-.843.797-1.634.514-2.43-.198-.554-.817-.863-.981-1.423-.165-.56.17-1.317-.27-1.719a1.127 1.127 0 0 0-.857-.184 36.424 36.424 0 0 0-3.867.546c-1.12.11-2.248.08-3.36-.085-.81-.06-1.977 1.284-2.128 2.015a5.102 5.102 0 0 0 0 1.844c.494 3.813.988 7.528 2.503 11.011 1.213 2.806 1.581 6.119 2.418 9.063a93.691 93.691 0 0 0 7.247 18.071c2.332 4.498 4.994 9.148 10.83 9.003 2.326-.06 4.547-.962 6.628-1.976 4.013-2.008 4.992-4.681 6.955-8.508z"/>
        <path fill="#FFA2C0" d="M430.573 74.911a100.55 100.55 0 0 1 5.481-5.466c.455-.422 1.048-.87 1.62-.659.452.22.716.7.66 1.199-.062.49-.233.96-.501 1.376a26.949 26.949 0 0 1-2.787 4.07 1.759 1.759 0 0 1-.698.587c-.194.061-.396.09-.6.085-.863 0-1.818 0-2.457-.593M475.523 189.59l-5.283 19.699-10.205-2.859 5.283-19.698z"/>
        <path fill="#2F355B" d="M473.132 202.499c.367.027.653.33.659.698.052 1.482.171 5.268.217 8.048.046 2.687-1.746 4.9-4.005 4.959l-30.121.797c-1.443.04-2.121-4.821 1.838-5.967l13.894-5.269 2.635-2.153c.277-.152 2.175-2.556 3.953.606 1.917 3.365 4.23.408 5.93-.89 1.383-1.066 2.075-.987 3.59-.968l1.41.139z"/>
        <path fill="#FFA2C0" d="M432.905 189.413l-10.152 17.59-9.118-5.492 10.159-17.591z"/>
        <path fill="#2F355B" d="M426.923 202.617a.75.75 0 0 1 .165.962c-.771 1.284-2.728 4.55-4.217 6.948-1.488 2.397-4.163 3.161-6.113 1.916l-25.99-16.53c-1.239-.79.836-5.269 4.822-4.011l14.672 3.458 3.432-.303c.323.033 3.248-.929 3.044 2.785-.21 3.952 3.366 2.76 5.508 2.635 1.752-.119 2.299.349 3.577 1.238l1.1.902z"/>
        <path fill="#456788" d="M572.922 174.542a35.304 35.304 0 0 0-1.898-6.882c-3.347-9.352-11.292-11.354-20.18-14.529-2.404-.863-4.861-1.752-6.805-3.293-3.84-3.075-5.033-8.219-8.65-11.518-10.238-9.352-31.497-4.413-41.116 3.194-7.01 5.552-15.963 6.77-18.809 19.204-1.667 7.244-.85 15.437 1.285 22.603a7.243 7.243 0 0 0 1.364 2.878c.843.889 1.976.902 2.984.876l50.92-1.212c13.604-.33 28.638.25 41.932-2.977-.263-2.799-.533-5.598-1.027-8.344z"/>
        <path fill="#3C5C7F" d="M536.114 138.445a16.117 16.117 0 0 0-2.102-2.39 7.326 7.326 0 0 0-2.035-1.542c-3.532-1.594-9.171 1.08-12.557 2.14-4.401 1.364-15.06 8.187-18.756 9.787-5.376 2.318-16.095 3.227-19.534 8.193-1.054 1.528-1.456 3.398-1.818 5.216-1.318 6.638-4.71 23.017 4.38 26.238 10.654 3.78 7.083-14.937 9.224-19.975 3.663-8.529 14.724-12.454 22.992-13.93 4.652-.829 9.48-1.376 13.835-3.365 3.373-1.547 8.967-4.65 7.129-9.009a8.06 8.06 0 0 0-.758-1.363z"/>
        <path fill="#4D55A3" d="M474.338 140.13a212.416 212.416 0 0 0-4.797 4.19c-3.452 3.108-5.823 5.15-7.543 9.536-2.121 5.393-4.223 10.794-6.476 16.128a467.241 467.241 0 0 1-14.283 30.677 2.635 2.635 0 0 1-1.318 1.462 2.313 2.313 0 0 1-1.541-.224 97.63 97.63 0 0 1-25.035-14.489 3.84 3.84 0 0 1-1.489-1.824c-.296-1.034.237-2.127.758-3.082 5.587-10.234 11.588-20.212 17.913-29.972 5.488-8.476 10.113-17.255 17.063-24.638 1.568-1.673 3.241-3.326 5.27-4.248 2.03-.922 4.546-1.034 6.872-1.086l35.444-.87c1.027 0 2.273.086 2.7 1.054.429.968-.414 2.22-1.277 2.983-3.953 3.524-8.426 4.031-12.801 6.435-3.386 1.91-6.463 5.427-9.46 7.969z"/>
        <path fill="#5E64B6" d="M534.658 119.438a41.961 41.961 0 0 0-.527-2.924c-.448-2.061-1.726-3.431-3.874-2.924-2.777.583-5.59.981-8.42 1.192-15.923 1.567-31.86 3.141-47.631 5.802-4.236.711-8.723 1.64-11.78 4.65-1.976 1.93-3.116 4.524-4.223 7.046-.902 2.068-2.101 4.13-2.833 6.244-.948 2.726-1.568 5.558-2.635 8.258-1.317 3.438-11.2 38.752-12.32 43.533a3.786 3.786 0 0 0-.138 1.752c.167.531.466 1.012.87 1.396 3.735 4.024 9.513 5.315 14.961 6.026 6.97.915 14.007 1.219 21.03.909 1.166-.053 2.444-.171 3.294-.988a4.267 4.267 0 0 0 .975-1.805c.882-2.72.73-5.545 1.054-8.337.348-3.255.502-6.527.46-9.8 0-6.586-.467-13.172.12-19.758.414-4.61 3.952-8.238 8.136-9.97 3.294-1.364 6.871-1.772 10.402-2.246 3.531-.474 7.043-1.317 10.541-1.897 3.769-.62 7.438-1.153 10.91-2.865a21.855 21.855 0 0 0 10.455-11.196c1.614-3.978 1.76-8.008 1.173-12.098z"/>
        <path fill="#FFA2C0" d="M489.437 53.948a14.758 14.758 0 0 1-3.254-5.183 30.169 30.169 0 0 1-.876-3.036c-.26-.86-.443-1.742-.547-2.634-.06-.883-.073-1.798-.21-2.674-.245-1.594-1.055-3.227-1.543-4.788a3.248 3.248 0 0 0-3.142-2.18h-.053a3.48 3.48 0 0 1-.362 0c-1.318-.145-9.718-.902-10.64.823-.6 1.127-2.885.718-3.893 1.2-1.404.658-2.57 2.449-3.387 3.753-.882 1.41-.052 3.444.475 4.86.31.68.53 1.398.658 2.134.066.659-.04 1.317.06 1.923a5.82 5.82 0 0 0 .843 1.976 51.365 51.365 0 0 1 2.826 4.92c.547 1.264 1.575 2.147 3.09 1.896a9.114 9.114 0 0 0 1.601-.474 9.706 9.706 0 0 1 1.225-.553c.587-.119.804.514 1.14.948a7.52 7.52 0 0 1 1.799 3.715 4.122 4.122 0 0 0 .323 1.758c.23.382.658.659.81 1.04.303.66-.04 1.502.316 2.135.19.292.463.521.784.658 2.24 1.06 5.231.613 7.51-.072a10.31 10.31 0 0 0 4.322-2.812 10.815 10.815 0 0 0 1.74-2.134c.415-.574.868-1.12 1.357-1.634.383-.487.571-1.1.527-1.718-.125-1.094-1.147-1.805-1.977-2.483a14.295 14.295 0 0 1-1.522-1.364z"/>
        <path fill="#DD8EAF" d="M479.78 57.781l.059-.54a.421.421 0 0 0 0-.257.389.389 0 0 0-.238-.118c-.769-.171-1.57.1-2.075.705-.705.75-1.535 1.376-2.28 2.08a1.613 1.613 0 0 0-.533 1.805c.139.236.302.457.488.659 1.12 1.462.375 2.588.369 4.221-.013.125.01.25.065.363a.613.613 0 0 0 .376.223c1.62.442 2.958-.915 3.116-2.436l.191-1.864.461-4.84z"/>
        <path fill="#7F5D6B" d="M480.188 56.682c-.293.465-.624.905-.988 1.317l-.257.283a14.894 14.894 0 0 1-2.932 2.72 4.863 4.863 0 0 1-3.795.75 7.333 7.333 0 0 1-2.378-1.382l-2.635-2.016a3.432 3.432 0 0 1-1.048-1.086 5.774 5.774 0 0 1-.356-1.515c-.296-1.403-1.317-2.536-1.857-3.86a1.804 1.804 0 0 1-.172-1.205c.207-.472.583-.85 1.054-1.06 1.66-.994 3.65-2.015 5.416-1.238a7.248 7.248 0 0 0 1.693.77 2.28 2.28 0 0 0 2.253-1.488 7.34 7.34 0 0 0 .303-5.025c-.494-1.317-.975-2.76-2.47-3.214a4.613 4.613 0 0 0-.844-.158 17.893 17.893 0 0 0-3.801-.079c-.224 0-.507 0-.593-.204-.086-.204.191-.461.435-.56a14.946 14.946 0 0 1 5.93-1.205c1.27.033 2.568 0 3.833.178.198 2.522-.546 4.998-.52 7.514.033 3.445 4.012 3.51 4.908 6.184.613 1.778-.138 3.939-1.18 5.579z"/>
        <path fill="#7F5D6B" d="M482.467 30.47c-1.561 0-3.34.527-4.717.31-1.6-.257-1.812 2.087-3.228 1.56-2.312-.85-5.1-1.152-7.326.119-1.087.619-2.59 2.344-1.436 3.655 1.423 1.627 5.185-.566 6.977-.191 2.154.454 2.523 2.088 2.41 4.077 0 .58-.414 2.114 0 2.575.66.658 1.318-1.232 1.582-1.765a1.779 1.779 0 0 1 2.563-.488 3.247 3.247 0 0 1 1.317 2.055 7.42 7.42 0 0 1 .04 2.503 1.554 1.554 0 0 0 0 .58c.1.264.277.493.507.658a36.4 36.4 0 0 0 1.865 1.462c.896.658 1.884 1.936 2.885.73a.968.968 0 0 0 .198-.322c.065-.272.025-.56-.112-.803a4.03 4.03 0 0 1-.323-.758c-.244-1.152.33-2.2.712-3.227a5.195 5.195 0 0 0 .19-2.041c-.111-2.516.159-7.903-1.811-9.82a3.295 3.295 0 0 0-2.293-.87z"/>
        <path fill="#007E8C" d="M460.839 40.237c-1.601-1.166-.93-6.632-.27-8.39.942-2.51 3.438-4.064 5.843-5.27 3.795-1.876 8.281-3.68 12.333-2.094 4.052 1.588 7.484 4.71 7.906 9.352.026.179.013.361-.04.534-.29.803-3.953 1.521-4.908 1.824-2.708.836-5.672 1.16-8.446 1.725l-5.804 1.192c-1.548.323-4.71 1.654-6.206 1.318a1.219 1.219 0 0 1-.408-.191z"/>
        <path fill="#007E8C" d="M469.528 38.386l-15.653 4.795a1.628 1.628 0 0 1-2.03-1.12 1.666 1.666 0 0 1 1.094-2.068l15.654-4.795a1.628 1.628 0 0 1 2.029 1.113 1.673 1.673 0 0 1-1.094 2.075z"/>
        <path fill="#FFF" d="M519.604 65.572a25.81 25.81 0 0 0-4.796-4.043c-3.024-1.87-6.588-2.7-10.027-3.497-3.208-.738-8.755-3.952-11.97-2.977-.35.112-1.51 4.472-1.977 5.11a13.524 13.524 0 0 1-4.664 3.952c-6.43 3.339-14.659.04-20.95 4.406a19.385 19.385 0 0 0-4.375 4.689 76.683 76.683 0 0 0-4.888 7.521c-1.239 2.193-1.753 4.518-2.78 6.816-.66 1.522-1.377 3.109-1.377 4.782-.014.24.033.48.138.698.232.32.575.543.962.625 3.294 1.113 6.588 2.154 9.928 2.997 5.495 1.37 8.67 3.813 11.536 8.733 2.194 3.754 5.93 7.04 9.605 9.339a16.89 16.89 0 0 0 11.661 2.45c4.217-.764 33.75-15.775 37.286-19.235 3.538-3.461-4.151-18.033-4.55-19.135-1.607-4.46-4.528-8.87-8.762-13.23z"/>
        <path fill="#FFF" d="M516.192 86.878l.118.58.171-.66h-.046z"/>
        <path fill="#FFA2C0" d="M529.544 95.874c-.869 0-2.661-.043-3.464 0-3.485.125-12.833-1.133-15.673.75-3.162 2.095.343 6.158.876 9.267.165.948.27 2.009-.342 2.786a4.13 4.13 0 0 1-1.535 1.034 65.7 65.7 0 0 1-16.312 5.11c-4.401.777-12.86-1.12-16.101 3.01-2.636 3.34.474 2.845 3.234 2.977 3.452.165 6.891.54 10.344.658 4.862.165 9.724.264 14.579.165 10.212-.21 28.58.729 28.072-13.942-.096-2.768-.646-7.893-.944-10.664a1.559 1.559 0 0 0-.251-.651c-.383-.469-1.338-.5-2.483-.5z"/>
        <path fill="#DD8EAF" d="M458.994 101.32h.224a.27.27 0 0 0-.224 0zM454.138 107.34a4.55 4.55 0 0 0 .132-3.254 6.684 6.684 0 0 0-.764-1.646c-.204-.303-.541-.733-1.06-.915 0 0-.198.605-.385.915-.531.884-1.095 1.215-2.027 1.324-.64.04-1.197-.142-1.738-.469-.074-.05-.283-.17-.348-.233-.091-.062-.117.05-.165.147-.17.345.874 1.035 1.006 1.154a16.708 16.708 0 0 1 2.958 3.734c.224.376.48.797.903.87.566.098 1.001-.488 1.238-1.021.092-.211.178-.409.25-.606z"/>
        <path fill="#FFF" d="M538.022 320.848a29.583 29.583 0 0 0-13.492-7.435c-8.92-2.068-18.533.658-25.694 6.619-8.195 6.816-10.699 16.596-9.54 27.463 2.577 24.117 31.696 29.293 48.318 17.063 14.869-10.912 13.143-31.704.408-43.71z"/>
        <g>
            <g fill="#E01E5A">
                <path d="M510.524 347.86a2.74 2.74 0 0 1-2.743 2.744 2.74 2.74 0 0 1-2.743-2.743 2.74 2.74 0 0 1 2.743-2.744h2.743v2.744zM511.895 347.86a2.74 2.74 0 0 1 2.743-2.743 2.74 2.74 0 0 1 2.743 2.744v6.858a2.74 2.74 0 0 1-2.743 2.744 2.74 2.74 0 0 1-2.743-2.744v-6.858z"/>
            </g>
            <g fill="#36C5F0">
                <path d="M514.638 336.828a2.74 2.74 0 0 1-2.743-2.744 2.74 2.74 0 0 1 2.743-2.743 2.74 2.74 0 0 1 2.743 2.743v2.744h-2.743zM514.638 338.22a2.74 2.74 0 0 1 2.743 2.744 2.74 2.74 0 0 1-2.743 2.743h-6.878a2.74 2.74 0 0 1-2.742-2.743 2.74 2.74 0 0 1 2.742-2.744h6.878z"/>
            </g>
            <g fill="#2EB67D">
                <path d="M525.647 340.964a2.74 2.74 0 0 1 2.743-2.744 2.74 2.74 0 0 1 2.742 2.744 2.74 2.74 0 0 1-2.742 2.743h-2.743v-2.743zM524.275 340.964a2.74 2.74 0 0 1-2.742 2.743 2.74 2.74 0 0 1-2.743-2.743v-6.88a2.74 2.74 0 0 1 2.743-2.743 2.74 2.74 0 0 1 2.742 2.743v6.88z"/>
            </g>
            <g fill="#ECB22E">
                <path d="M521.527 351.95a2.733 2.733 0 1 1 0 5.465 2.733 2.733 0 0 1-2.737-2.733v-2.733h2.737zM521.527 350.583a2.733 2.733 0 1 1 0-5.466h6.864a2.733 2.733 0 1 1 0 5.466h-6.864z"/>
            </g>
        </g>
    </g>
</svg>
