<svg xmlns="http://www.w3.org/2000/svg" width="608" height="470" viewBox="0 0 608 470">
    <g fill="none" fill-rule="evenodd">
        <path fill="#EBF7F7" d="M591.85 202.707a173.847 173.847 0 0 0-85.16-85.173c-26.639-12.152-55.63-17.188-83.8-24.461-23.076-5.955-44.897-15.158-68.236-20.202-22.726-4.922-41.939-16.049-63.347-24.703-26.417-10.685-54.51-17.73-83.13-17.873-50.205-.242-102.92 24.447-124.363 69.809-13.868 29.27-8.986 61.83-26.09 89.71-15.136 24.668-37.485 44.578-49.23 71.383-20.609 46.978-.434 104.228 36.545 139.787 10.084 9.702 21.38 18.243 34.057 24.22 27.08 12.821 58.494 13.163 88.24 9.338 46.927-6.04 94.575-10.806 141.859-12.594 40.948-1.546 79.474-3.562 120.322-.292 40.85 3.27 84.463-.043 118.3-23.15 25.847-17.66 43.592-45.647 52.471-75.657a173.787 173.787 0 0 0-8.437-120.142z"/>
        <path fill="#DCF2F4" d="M527.584 35.723c-29.218-16.547-63.753-21.199-97.354-21.569-33.601-.37-67.21 3.184-100.768 1.51-25.904-1.29-48.901-11.098-74.656-13.94a239.402 239.402 0 0 0-76.01 3.882c-33.866 7.23-66.277 33.06-89.85 57.506-10.427 10.8-20.012 22.795-25.563 36.72-11.332 28.494-4.989 62.636-20.667 88.928-9.62 16.092-26.503 27.204-34.585 44.122-13.497 28.272 2.438 62.55 25.085 84.197 41.54 39.69 106.747 52.442 160.188 31.342 51.71-20.443 88.596-67.614 138.752-91.62 30.815-14.752 65.136-20.059 98.765-26.1 33.63-6.04 67.887-13.291 96.92-31.256s55.472-49.03 52.151-83.022c-3.463-35.538-26.81-66.225-52.408-80.7z"/>
        <path stroke="#19CCC7" d="M119.39 34.719h163.066c6.881 0 13.48 2.733 18.345 7.597a25.923 25.923 0 0 1 7.596 18.339v27.56M156.176 320.918v19.575c0 10.803 8.761 19.56 19.57 19.56h113.088c5.19 0 10.167-2.06 13.835-5.729a19.549 19.549 0 0 0 5.728-13.83c0-5.187-2.061-10.16-5.73-13.827a19.566 19.566 0 0 0-13.833-5.727h-5.85c-10.804 0-19.562 8.754-19.562 19.553v37.426a19.549 19.549 0 0 0 5.727 13.83 19.566 19.566 0 0 0 13.835 5.73h117.08c10.804 0 19.562-8.754 19.562-19.553v-31.627M440.357 131.66h81.298c6.881 0 13.48 2.732 18.345 7.597a25.923 25.923 0 0 1 7.595 18.339v57.235"/>
        <ellipse cx="285.072" cy="359.185" fill="#FCD685" rx="4.433" ry="4.431"/>
        <path fill="#37456D" d="M544.118 178.384v-21.645a3.11 3.11 0 1 1 6.221 0v21.645a3.11 3.11 0 1 1-6.221 0z"/>
        <path fill="#CEEFEE" d="M380.067 291.528h-39.252c-16.27 0-28.877-12.922-28.877-29.07v-21.17H258.69v21.17c0 16.149-13.098 29.24-29.254 29.24H190.14a9.704 9.704 0 0 0-9.798 9.076 9.507 9.507 0 0 0 2.612 7.02 9.516 9.516 0 0 0 6.887 2.952h190.226c5.395 0 10.419-4.494 10.177-9.972-.228-5.158-5.238-9.246-10.177-9.246z"/>
        <rect width="310.335" height="196.026" x="130.129" y="62.379" fill="#B9EAED" rx="14.253"/>
        <rect width="289.982" height="159.768" x="140.298" y="74.495" fill="#FFF" rx="3.592"/>
        <rect width="12.507" height="3.889" x="171.982" y="102.048" fill="#B9EAED" rx="1.126"/>
        <rect width="12.507" height="3.889" x="188.451" y="102.048" fill="#B9EAED" rx="1.126"/>
        <rect width="12.507" height="3.889" x="204.928" y="102.048" fill="#B9EAED" rx="1.126"/>
        <rect width="12.507" height="3.889" x="221.397" y="102.048" fill="#B9EAED" rx="1.126"/>
        <rect width="12.507" height="3.889" x="237.866" y="102.048" fill="#B9EAED" rx="1.126"/>
        <rect width="12.507" height="3.889" x="254.335" y="102.048" fill="#B9EAED" rx="1.126"/>
        <rect width="12.507" height="3.889" x="270.805" y="102.048" fill="#B9EAED" rx="1.126"/>
        <rect width="12.507" height="3.889" x="287.274" y="102.048" fill="#B9EAED" rx="1.126"/>
        <rect width="12.507" height="3.889" x="303.743" y="102.048" fill="#B9EAED" rx="1.126"/>
        <rect width="12.507" height="3.889" x="320.212" y="102.048" fill="#B9EAED" rx="1.126"/>
        <rect width="12.507" height="3.889" x="336.681" y="102.048" fill="#B9EAED" rx="1.126"/>
        <rect width="12.507" height="3.889" x="353.158" y="102.048" fill="#B9EAED" rx="1.126"/>
        <rect width="12.507" height="3.889" x="369.627" y="102.048" fill="#B9EAED" rx="1.126"/>
        <rect width="12.507" height="3.889" x="386.096" y="102.048" fill="#B9EAED" rx="1.126"/>
        <rect width="226.307" height="31.115" x="172.139" y="112.135" fill="#EBF7F7" rx="4.276"/>
        <path fill="#19CCC7" d="M274.98 84.005a4.218 4.218 0 1 0 4.22 4.217 4.209 4.209 0 0 0-4.22-4.217z"/>
        <path fill="#37456D" d="M289.597 92.304h-8.452l4.226-8.028z"/>
        <path fill="#DB7376" d="M292.262 84.518h7.554v7.551h-7.554z"/>
        <rect width="67.103" height="53.147" x="252.083" y="149.454" fill="#19CCC7" rx="4.276"/>
        <rect width="67.103" height="53.147" x="172.289" y="149.454" fill="#B9EAED" rx="4.276"/>
        <rect width="67.103" height="53.147" x="331.5" y="149.454" fill="#5D82A0" rx="4.276"/>
        <rect width="67.103" height="3.255" x="252.083" y="209.296" fill="#B9EAED" rx=".941"/>
        <rect width="67.103" height="3.255" x="252.083" y="218.493" fill="#B9EAED" rx=".941"/>
        <rect width="36.601" height="3.255" x="252.083" y="228.016" fill="#B9EAED" rx=".941"/>
        <rect width="67.103" height="3.255" x="331.5" y="209.296" fill="#B9EAED" rx=".941"/>
        <rect width="67.103" height="3.255" x="331.5" y="218.493" fill="#B9EAED" rx=".941"/>
        <rect width="36.601" height="3.255" x="331.5" y="228.016" fill="#B9EAED" rx=".941"/>
        <rect width="67.103" height="3.255" x="172.289" y="209.296" fill="#B9EAED" rx=".941"/>
        <rect width="67.103" height="3.255" x="172.289" y="218.493" fill="#B9EAED" rx=".941"/>
        <rect width="36.601" height="3.255" x="172.289" y="228.016" fill="#B9EAED" rx=".941"/>
        <rect width="98.666" height="183.916" x="97.133" y="163.173" fill="#EBF7F7" rx="12.728"/>
        <path fill="#FFF" d="M182.522 167.497h-10.775v1.802a5.277 5.277 0 0 1-5.28 5.279h-39.973a5.287 5.287 0 0 1-5.288-5.279v-1.802h-10.789c-5.295 0-9.588 4.288-9.592 9.58v156.1c.004 5.293 4.297 9.581 9.592 9.581h72.105c5.294 0 9.585-4.29 9.585-9.58v-156.1c0-5.292-4.291-9.581-9.585-9.581z"/>
        <rect width="19.327" height="1.204" x="136.806" y="168.929" fill="#B9EAED" rx=".599"/>
        <rect width="78.989" height="19.66" x="106.248" y="196.503" fill="#EBF7F7" rx="2.138"/>
        <path fill="#19CCC7" d="M110.353 182.684a3.67 3.67 0 0 0-2.605 6.26 3.671 3.671 0 0 0 6.268-2.592 3.67 3.67 0 0 0-3.663-3.668z"/>
        <path fill="#37456D" d="M123.06 189.907h-7.348l3.677-6.981z"/>
        <path fill="#DB7376" d="M125.383 183.133h6.571v6.568h-6.571z"/>
        <path fill="#B9EAED" fill-rule="nonzero" d="M175.31 183.895a.342.342 0 0 1-.342-.342v-.855a.342.342 0 0 1 .342-.342h8.88a.342.342 0 0 1 .25.1.32.32 0 0 1 .092.242v.855a.32.32 0 0 1-.093.242.342.342 0 0 1-.25.1h-8.879zm0 3.412a.32.32 0 0 1-.242-.093.342.342 0 0 1-.1-.25v-.854c0-.189.153-.342.342-.342h8.88a.342.342 0 0 1 .25.1.32.32 0 0 1 .092.242v.855a.32.32 0 0 1-.342.342h-8.88zm0 3.412a.32.32 0 0 1-.242-.093.342.342 0 0 1-.1-.249v-.848a.342.342 0 0 1 .1-.249.32.32 0 0 1 .242-.093h8.88a.32.32 0 0 1 .342.342v.848a.32.32 0 0 1-.342.342h-8.88z"/>
        <rect width="78.989" height="33.586" x="106.248" y="221.427" fill="#B9EAED" rx="2.138"/>
        <rect width="78.989" height="2.059" x="106.248" y="259.245" fill="#B9EAED" rx=".941"/>
        <rect width="78.989" height="2.059" x="106.248" y="265.506" fill="#B9EAED" rx=".941"/>
        <rect width="43.086" height="2.059" x="106.248" y="271.974" fill="#B9EAED" rx=".941"/>
        <rect width="78.989" height="33.586" x="106.248" y="283.101" fill="#19CCC7" rx="2.138"/>
        <rect width="78.989" height="2.059" x="106.248" y="320.918" fill="#B9EAED" rx=".941"/>
        <rect width="78.989" height="2.059" x="106.248" y="327.18" fill="#B9EAED" rx=".941"/>
        <rect width="43.086" height="2.059" x="106.248" y="333.648" fill="#B9EAED" rx=".941"/>
        <rect width="241.08" height="152.282" x="340.672" y="196.866" fill="#DCF2F4" rx="10.476"/>
        <rect width="201.728" height="138.904" x="360.348" y="203.555" fill="#FFF" rx="4.048"/>
        <rect width="9.713" height="3.02" x="373.19" y="230.46" fill="#B9EAED" rx="1.126"/>
        <rect width="9.713" height="3.02" x="385.989" y="230.46" fill="#B9EAED" rx="1.126"/>
        <rect width="9.713" height="3.02" x="398.781" y="230.46" fill="#B9EAED" rx="1.126"/>
        <rect width="9.713" height="3.02" x="411.58" y="230.46" fill="#B9EAED" rx="1.126"/>
        <rect width="9.713" height="3.02" x="424.372" y="230.46" fill="#B9EAED" rx="1.126"/>
        <rect width="9.713" height="3.02" x="437.164" y="230.46" fill="#B9EAED" rx="1.126"/>
        <rect width="9.713" height="3.02" x="449.963" y="230.46" fill="#B9EAED" rx="1.126"/>
        <rect width="9.713" height="3.02" x="462.755" y="230.46" fill="#B9EAED" rx="1.126"/>
        <rect width="9.713" height="3.02" x="475.547" y="230.46" fill="#B9EAED" rx="1.126"/>
        <rect width="9.713" height="3.02" x="488.346" y="230.46" fill="#B9EAED" rx="1.126"/>
        <rect width="9.713" height="3.02" x="501.138" y="230.46" fill="#B9EAED" rx="1.126"/>
        <rect width="9.713" height="3.02" x="513.93" y="230.46" fill="#B9EAED" rx="1.126"/>
        <rect width="9.713" height="3.02" x="526.729" y="230.46" fill="#B9EAED" rx="1.126"/>
        <rect width="9.713" height="3.02" x="539.521" y="230.46" fill="#B9EAED" rx="1.126"/>
        <rect width="175.809" height="24.169" x="373.311" y="239.962" fill="#EBF7F7" rx="3.563"/>
        <path fill="#19CCC7" d="M449.999 212.815a4.216 4.216 0 1 0-2.98 7.201 4.22 4.22 0 0 0 7.199-2.99 4.218 4.218 0 0 0-4.22-4.21z"/>
        <path fill="#37456D" d="M464.615 221.114h-8.445l4.22-8.028z"/>
        <path fill="#DB7376" d="M467.28 213.328h7.554v7.551h-7.554z"/>
        <rect width="80.251" height="40.19" x="468.863" y="269.182" fill="#19CCC7" rx="3.563"/>
        <rect width="80.251" height="40.19" x="373.432" y="269.182" fill="#B9EAED" rx="3.563"/>
        <path fill="#B9EAED" d="M471.2 337.544h75.469a2.387 2.387 0 0 1 2.387 2.386v2.53h-79.994a.25.25 0 0 1-.25-.25v-2.272a2.386 2.386 0 0 1 2.388-2.394z"/>
        <path fill="#5D82A0" d="M376.012 337.544h74.97a2.643 2.643 0 0 1 2.644 2.643v2.066a.214.214 0 0 1-.214.213h-80.044v-2.272a2.642 2.642 0 0 1 2.644-2.65z"/>
        <rect width="80.251" height="2.529" x="468.863" y="314.244" fill="#B9EAED" rx=".941"/>
        <rect width="80.251" height="2.529" x="468.863" y="321.232" fill="#B9EAED" rx=".941"/>
        <path fill="#B9EAED" d="M511.678 331.005H469.81a.948.948 0 0 1-.947-.947v-.642a1.019 1.019 0 0 1 .605-.947h41.89c.862 0 1.282.427 1.282.947v.642a.94.94 0 0 1-.962.947z"/>
        <rect width="80.251" height="2.529" x="373.432" y="314.244" fill="#B9EAED" rx=".941"/>
        <rect width="80.251" height="2.529" x="373.432" y="321.232" fill="#B9EAED" rx=".941"/>
        <rect width="43.771" height="2.529" x="373.09" y="328.469" fill="#B9EAED" rx=".941"/>
        <ellipse cx="350.877" cy="273.007" fill="#B9EAED" rx="1.889" ry="1.888"/>
        <ellipse cx="571.726" cy="273.007" fill="#B9EAED" rx="5.623" ry="5.62"/>
        <path fill="#A36550" d="M56.256 447.086v-24.582h13.02v24.582z"/>
        <path fill="#2F355B" d="M55.793 441.742a.784.784 0 0 0-.713.762c-.043 1.603-.15 5.699-.178 8.733 0 2.92 1.974 5.307 4.483 5.357l33.444.634c1.596 0 2.316-5.25-2.088-6.468l-15.457-5.62-2.972-2.315c-.314-.157-2.437-2.757-4.411.712-2.103 3.668-4.69.47-6.57-.926-1.54-1.147-2.317-1.054-3.999-1.019l-1.54.15z"/>
        <path fill="#A36550" d="M20.788 458.94v-24.582h13.02v24.582z"/>
        <path fill="#2F355B" d="M19.783 453.973a.79.79 0 0 0-.713.762c-.042 1.61-.15 5.698-.178 8.733 0 2.92 1.974 5.314 4.483 5.357l33.444.634c1.596 0 2.316-5.243-2.088-6.461l-15.457-5.62-2.93-2.337c-.313-.157-2.436-2.757-4.41.712-2.138 3.669-4.69.478-6.571-.918-1.54-1.147-2.316-1.055-3.998-1.02l-1.582.158z"/>
        <path fill="#602E3F" d="M76.21 432.79l.043-.406c-.245.07-.495.123-.748.156l.705.25z"/>
        <path fill="#FFF" d="M17.994 394.509c.335-13.185-2.508-26.356-3.071-39.62-.478-11.283.712-22.552 2.359-33.7.491-3.327.156-10.635 3.342-12.594 2.772-1.695 7.917.52 10.925.556 7.715.09 15.43.202 23.146.334 3.92.065 11.688-2.963 14.581.3 2.509 2.849 3.77 9.16 4.376 14.78 1.425 13.293 2.893 24.932 2.615 37.077-.3 12.744.527 23.343 1.518 36.094.984 12.587.812 19.781.841 32.46a9.627 9.627 0 0 1-.713 4.439c-1.731 3.383-8.117 1.901-11.274 1.994-5.649.171-11.297.297-16.946.378 0-15.358 1.168-24.697.876-40.055-.292-15.357 1.425-32.24-1.033-47.298-1.169.085-1.54.904-1.632 2.101a258.518 258.518 0 0 0-.335 31.613c.37 9.26-1.425 21.911-2.081 31.157-.506 7.302-2.067 6.02-1.575 13.307.27 3.846.535 7.686.713 11.532.078 1.788 1.34 7.73-.257 8.855a4.698 4.698 0 0 1-2.58.612l-14.609.641c-2.458.107-10.69 1.746-12.271-.15-1.012-1.217-.849-4.986-1.034-6.51a128.875 128.875 0 0 1-.805-20.793c.392-9.26 3.563-12.487 4.532-21.747.214-1.924.342-3.84.392-5.763z"/>
        <path fill="#A36550" d="M41.989 212.545c.235-.186.477-.364.713-.527 1.425-.99 4.867-2.43 5.7-4.046 1.055-2.102 3.186-1.425 4.99-1.254.487.026.968.127 1.425.299.449.218.858.51 1.211.862a23.333 23.333 0 0 1 4.511 4.78c1.354 2.137.677 3.561 1.261 5.755.2.713.592 1.425.799 2.137.42 1.51 0 3.12-.407 4.63l-1.475 5.428a4.9 4.9 0 0 1-.67 1.632c-1.532 2.051-4.097-1.097-5.551 1.923-1.425 2.906.264 6.161 2.373 8.277a5.92 5.92 0 0 1 1.525 1.83c.177.564.235 1.159.171 1.746-.092 1.674-.3 3.34-.62 4.986 0 .185-5.915-.15-6.485-.128-1.42.135-2.818.446-4.162.926-2.85.755-7.839.712-9.62-2.094-.57-.912-.364-2.85-.414-3.868-.114-2.486-.79-5.699-.606-8.163.186-2.465 1.333-3.655 1.66-5.941.414-2.9-1.424-6.04-1.638-8.911a9.919 9.919 0 0 1 .834-4.481 14.39 14.39 0 0 1 4.475-5.798z"/>
        <path fill="#7F5A4B" d="M53.755 230.616c1.9.235 3.75.771 5.48 1.589.14.06.26.155.35.278a.306.306 0 0 1-.05.406.413.413 0 0 1-.264.057c-1.832 0-4.276-.214-4.868 2.08a7.284 7.284 0 0 0 .62 4.986c.863 1.81.848 5.186-1.732 5.848-2.58.663-1.04-3.312-1.425-5.036-.164-.712-.506-1.353-.655-2.059a2.008 2.008 0 0 1 .513-1.98c.156-.135.363-.235.434-.434a.762.762 0 0 0-.064-.556c-.62-1.567-1.924-2.543-2.558-4.067-.221-.527-.378-1.268.114-1.56.492-.292 1.169.107 1.632.178.798.135 1.646.142 2.473.27z"/>
        <path fill="#735E5E" d="M62.542 226.207v.37a.655.655 0 0 1 0-.37z"/>
        <path fill="#3A3838" d="M37.457 205.386c2.494-1.553 6.257-2.337 8.83-3.191a130.193 130.193 0 0 1 11.052-3.12 4.427 4.427 0 0 1 2.715-.05 4.033 4.033 0 0 1 1.76 1.88 17.09 17.09 0 0 1 1.89 5.464c.135.537.135 1.1 0 1.638-.307.89-2.666 3.761-3.628 4.068-2.359.762-4.989-2.002-7.625-1.133-1.49.484-2.374 2.443-2.851 3.676-.264.833-.264 3.19-1.425 3.483-1.825.463-2.409-2.258-4.497-1.425-3.257 1.34-1.568 4.823-.456 6.86.712 1.346.121 2.999-.492 4.402a3.199 3.199 0 0 1-.805.94c-2.274.35-4.02.998-4.775 0-1.204-1.61-3.82-4.466-4.276-6.354-.777-3.112-1.781-6.005-.905-9.26a16.582 16.582 0 0 1 4.49-7.202c.312-.253.646-.48.998-.676z"/>
        <path fill="#F3C174" d="M11.866 252.392c.277-.812.598-1.61.954-2.393a14.424 14.424 0 0 1 1.982-3.248c2.914-3.47 7.903-4.809 12.25-5.2 3.684-.335 7.369-3.398 11.053-2.914 2.437.32 4.532 1.745 6.806 2.543 3.128.92 6.072 2.087 9.314 2.657.39.09.794.09 1.183 0 1.425-.413 2.195-1.845 3.485-2.33 1.49-.562 3.827-.348 5.452-.576 1.895-.264 4.026-.235 5.458 1.033.458.441.858.94 1.19 1.481l12.928 19.07c3.499 5.171-1.368 6.539-5.772 6.539a5.745 5.745 0 0 0-2.466 1.175c-.535.556-.948 1.318-1.497 1.902-.549.584-1.596 1.275-2.066 2.023a13.06 13.06 0 0 0-.856 2.614c-.306.926-.613 1.852-.912 2.785-.84 2.593-1.625 5.215-2.423 7.836-.335 1.118-.798 2.564-.492 3.754 1.675 6.504 3.364 13.185 5.288 19.675.14.307.14.66 0 .968a1.162 1.162 0 0 1-.755.385c-9.977 2.094-19.299.648-29.297.477-4.91-.085-9.813.456-14.723.463-3.506 0-10.49 1.582-11.31-3.163-.648-3.74.713-7.5 1.34-11.24 1.632-9.26-1.162-15.6-4.839-23.849-3.1-6.945-3.77-15.222-1.275-22.467z"/>
        <path fill="#FFF" d="M32.454 237.626a7.126 7.126 0 0 0 1.917-1.425c.169-.234.367-.445.591-.627.841-.591 1.989 0 2.85.549 4.184 2.7 8.888 6.176 14.026 6.368.22.02.444-.005.655-.071.23-.093.432-.24.592-.428 1.304-1.332 2.75-5.976 5.188-2.692 1.51 2.037-.905 7.123-1.967 8.968-.15.27-.35.563-.656.605-.306.043-.634-.235-.862-.491-1.247-1.382-2.78-4.438-4.746-3.013-1.098.79-1.269 2.85-1.91 3.967a1.36 1.36 0 0 1-2.138.627 35.78 35.78 0 0 1-8.345-4.623c-1.775-1.424-5.06-3.326-6.371-5.057-.99-1.332-.014-1.96 1.176-2.657z"/>
        <path fill="#A36550" d="M62.071 228.43c-.23.9-.538 1.78-.919 2.628a22.92 22.92 0 0 1-1.468 2.814c-.2.292-.976 1.603-1.425 1.253a.598.598 0 0 1-.164-.327 6.97 6.97 0 0 1-.214-1.802 5.596 5.596 0 0 0 0-.848c-.107-.755-1.005-2.08-1.839-1.304-.833.777-.25 2.85-.156 3.847.074.786.074 1.578 0 2.365-.107 1.104-.264 2.208-.357 3.312a10.474 10.474 0 0 0 .242 4.395c.221.492.405.999.55 1.518.22 1.047-.264 1.83-.507 2.806-.335 1.382-.598 2.75-1.069 4.103a34.378 34.378 0 0 1-3.727 7.408 89.682 89.682 0 0 1-8.552 10.607c-.19.252-.433.459-.712.605a2.281 2.281 0 0 1-1.098.043c-2.615-.335-5.772-1.909-8.345-1.595-1.56.192-2.786 1.374-3.884 2.493l-3.306 3.369c-1.233 1.254-2.552 2.757-2.36 4.495.193 1.738 1.86 2.97 3.436 3.804a36.078 36.078 0 0 0 12.785 3.989c3.427.399 8.152 1.638 10.404-1.425 4.718-6.41 8.352-13.705 9.913-21.505.4-1.98.663-3.982 1.169-5.934.834-3.22 2.323-6.254 3-9.517a12.107 12.107 0 0 1 2.245-4.794 5.655 5.655 0 0 0 1.183-2.763 6.066 6.066 0 0 0-.15-1.29l-.712-3.618a2.05 2.05 0 0 0-.143-.506 1.66 1.66 0 0 0-.42-.527 5.837 5.837 0 0 0-2.317-1.347c-.135-.035-.292-.092-.334-.227a.349.349 0 0 1 0-.207l.983-4.694c.292-1.368.89-2.686.748-4.118a1.78 1.78 0 0 0-.25-.812.713.713 0 0 0-.712-.334c-.328.085-.506.427-.627.712-.348.96-.646 1.937-.89 2.928zM89.437 279.475c-.87-2.607-1.775-5.207-2.85-7.743-.364-.89-.585-1.816-.998-2.685a1.86 1.86 0 0 0-2.188-1.226 9.98 9.98 0 0 0-1.974.478 23.833 23.833 0 0 1-3.663.805c-.47.045-.936.133-1.39.263-1.425.485-2.423 1.838-3.52 2.85-.478.434-1.048.847-.87 1.574.178.726.884 1.061 1.368 1.517.485.456 1.09 1.04 1.604 1.588a27.027 27.027 0 0 1 3.207 4.21c.15.217.264.458.335.713.04.495-.07.991-.314 1.424-1.575 3.484-3.32 6.853-4.988 10.286-.5 1.012-1.062 1.988-1.54 3.006-.313.656-.577 1.332-.89 1.98-.133.308-.3.6-.5.87-.192.235-.413.399-.455.712-.015.195.007.39.064.577.862 3.455 2.045 6.945 2.252 10.521a.776.776 0 0 1-.129.591.834.834 0 0 1-.413.2c-.435.107-.884.135-1.311.256-.428.121-.813.335-1.269.442.237.49.503.967.798 1.424a31.805 31.805 0 0 1 2.138 4.837c.138.347.255.701.35 1.062a33.105 33.105 0 0 0 1.047 3.412c.11.353.306.673.57.933 1.825 1.51 1.361-6.262 1.083-7.408-.634-2.586-2.63-5.172-1.425-7.836 1.61-3.44 4.889-6.739 7.127-9.823l7.126-9.873c1.09-1.503 2.224-3.091 2.459-4.936a10.745 10.745 0 0 0-.77-4.68c.021-.05-.028-.186-.071-.32z"/>
        <path fill="#7F5A4B" d="M82.303 281.797h-.484a6.823 6.823 0 0 0-2.466 0c-.348.096-.636.341-.784.67a7.25 7.25 0 0 0-.35.755 4.002 4.002 0 0 1-.356.748c-.07.121-.213.328 0 .413.172.07.36.093.542.064.242-.05.48-.12.713-.206.912-.293 1.824-.642 2.75-.877.506-.128 1.055-.1 1.426-.534.598-.819-.285-.976-.99-1.033z"/>
        <path fill="#F66" d="M191.024 30.488h9.264v9.26h-9.264z"/>
        <ellipse cx="353.015" cy="397.308" fill="#006973" rx="3.563" ry="3.562"/>
    </g>
</svg>
