<svg xmlns="http://www.w3.org/2000/svg" width="620" height="458" viewBox="0 0 620 458">
    <g fill="none" fill-rule="evenodd">
        <path fill="#EBF7F7" d="M610.676 193.694c-6.793-11.75-14.353-24.01-19.137-37.24-5.343-14.767-6.521-30.895-9.102-46.38-5.579-33.68-12.149-60.113-40.987-81.784C510.067 4.699 470.014-4.685 431.44 3.323c-23.949 4.971-47.054 13.782-70.738 20.059-36.74 9.774-72.378 5.585-108.922 10.884-27.68 3.994-54.23 26.251-82.05 33.917-63.103 17.385-140.362 13.72-164.283 94.253-6.144 20.785-7.714 41.43-.956 62.284 4.185 12.951 9.764 25.574 11.396 39.168 1.758 14.494-1.046 29.148.697 43.621 1.744 14.473 8.802 29.198 16.738 40.794 21.732 31.781 54.308 42.107 88.976 45.647 43.184 4.391 84.715-.23 127.69-1.864 19.388-.74 41.747-2.332 60.41 4.398 14.422 5.195 24.597 9.076 40.4 8.183a232.723 232.723 0 0 0 74.233-16.791c13.9-5.641 26.07-10.836 37.193-21.204 12.756-11.869 24.612-24.163 39.704-32.716 17.93-10.158 38.065-14.724 57.188-21.902 25.107-9.397 48.121-27.333 56.107-55.804 5.119-18.306 6.395-40.124-1.904-57.53a60.423 60.423 0 0 0-2.643-5.026z"/>
        <path fill="#F4BDB3" d="M447.104 92.508c-.055-1.138-.376-2.242-.537-3.617l-2.79-24.066a4.341 4.341 0 0 0-3.27-3.714h-.056a4.272 4.272 0 0 1-.425-.126c-1.52-.544-11.32-3.819-12.763-1.801-1.018 1.396-4.08-2.409-6.444 4.05-.649 1.759.467 2.974.648 4.614.217 1.983-1.13 3.875-.774 5.928.154.907.586 1.752.698 2.66.104.698 0 1.396.07 2.136a10.634 10.634 0 0 0 1.708 4.971c.92 1.396 2.448 1.033 3.885.957.337-.04.678-.01 1.004.083.795.28 1.109 1.243 1.158 2.095.202 3.184-2.155 4.608-.698 7.75 1.346 2.862-.572 4.384-.892 7.275-.698 6.185 12.95-.203 15.127-1.906a12.772 12.772 0 0 0 3.605-4.127c.542-.962.8-2.059.746-3.162z"/>
        <path fill="#E7A194" d="M436.776 80.345c-.405.28-.698.699-1.095.985-1.032.81-2.044.698-3.132.621-.334 0-.697-.049-1.039-.049-2.357 0-4.61 1.278-6.862 1.837a1.046 1.046 0 0 0-.46.195.363.363 0 0 0-.105.447c.32.517 2.504.133 2.985.105.337-.04.678-.01 1.004.083.795.28 1.109 1.243 1.158 2.095.049.74-.412 1.396-.196 2.164a4.878 4.878 0 0 0 2.093-.544 9.222 9.222 0 0 0 3.298-2.695 17.82 17.82 0 0 1 2.95-2.793c.698-.6 1.988-1.808.76-2.59a1.275 1.275 0 0 0-1.36.14z"/>
        <path fill="#515050" d="M442.013 55.449c-1.213-.3-2.462-.363-3.877-.803a16.236 16.236 0 0 1-3.062-1.564 17.756 17.756 0 0 0-8.662-2.444c-3.996 0-9.833 1.641-8.738 6.71.906 4.224 5.049 4.28 8.578 4.042 4.428-.293 6.911-.593 8.745 4.231.454 1.187.335 4.266 1.074 5.11 1.026 1.174 2.602-.104 2.964-1.151.363-1.048-.076-1.809.963-2.423 1.5-.88 2.929.412 2.936 1.934a13.851 13.851 0 0 1-.53 2.695 7.36 7.36 0 0 0 .056 3.072c.095.55.35 1.06.732 1.466 2.246 2.095 3.724-3.386 4.261-4.58 1.395-3.058 2.03-6.577 1.053-9.774a10.841 10.841 0 0 0-4.024-5.348 6.385 6.385 0 0 0-2.469-1.173z"/>
        <path fill="#006973" d="M518.722 81.742c.21-.664.505-1.298.878-1.885a9.196 9.196 0 0 1 1.828-1.739c1.694-1.396 3.215-3.016 5-4.293 1.785-1.278 3.94-2.22 6.13-2.018-2.273.293-3.912 2.276-5.202 4.189a71.771 71.771 0 0 0-5.58 9.774 71.544 71.544 0 0 0-2.231 5.258 27.57 27.57 0 0 0-1.723 5.04 7.18 7.18 0 0 1-2.357 4.3 1.474 1.474 0 0 1-.258-1.04c0-1.542.44-2.89.565-4.405.146-1.675.167-3.358.397-5.027.363-2.862 1.576-5.417 2.553-8.154zM507.584 73.357c.042-.65 1.437-8.071 2.239-7.68.516.244.697.887.774 1.452l1.562 8.7a112.864 112.864 0 0 1 1.98 14.975c.14 3.1-.41 6.11-.432 9.181a24.462 24.462 0 0 0-.042 3.644c.196 1.278-.397 2.926-1.562 1.23-.97-1.397-1.13-3.869-1.436-5.53a313.763 313.763 0 0 1-1.632-9.775 37.873 37.873 0 0 1-.635-4.677c.076-.976.092-1.955.049-2.933-.405-2.911-1.025-5.634-.865-8.587zM502.074 80.332a43.561 43.561 0 0 1 3.034 6.737 96.43 96.43 0 0 1 3.153 11.59c.774 3.49 1.96 7.156 2.266 10.744.042.475.377 2.89-.174 3.191-.663.363-1.632-2.59-1.87-3.107a203.364 203.364 0 0 1-5.097-12.008c-1.005-2.59-1.925-5.153-2.95-7.68a58.822 58.822 0 0 0-3.104-6.633 110.54 110.54 0 0 1-4.624-9.355c-.753-1.732-1.478-3.54-1.436-5.425a36.647 36.647 0 0 1 10.802 11.946z"/>
        <path fill="#006973" d="M516.002 99.838l1.436-2.185a72.327 72.327 0 0 1 4.987-6.821c1.667-2.025 3.39-4.084 5.67-5.432a21.086 21.086 0 0 1 2.957-1.396 38.126 38.126 0 0 1 13.627-2.646c1.081 0 2.17 0 3.25.056.525-.013 1.05.02 1.57.097.297.14.584.3.857.482l-1.06.21c-3.891.789-7.755 1.738-11.612 2.68a18.545 18.545 0 0 0-5.579 2.025 18.345 18.345 0 0 0-2.294 1.802l-3.53 3.085c-1.087.95-2.092 2.018-3.145 2.954-2.329 2.004-4.805 3.84-7.085 5.906-.307-.02-.23-.53-.05-.817zM514.077 104.188c.174-.193.363-.373.565-.538.66-.534 1.4-.965 2.19-1.277a8.37 8.37 0 0 0 2.245-1.808 31.478 31.478 0 0 1 5.622-4.266 41.062 41.062 0 0 1 5.544-2.479 60.907 60.907 0 0 1 9.478-3.107 34.138 34.138 0 0 1 4.882-.642 50.404 50.404 0 0 1 11.765.88c1.953.349 3.892.775 5.823 1.235.265.063.935.077.928.475-.007.398-.342.314-.579.335a5.915 5.915 0 0 1-1.695-.293 37.149 37.149 0 0 0-3.814-.635c-3.571-.48-7.182-.59-10.775-.328-4.792.446-9.353 2.136-13.795 3.874a28.326 28.326 0 0 0-5.015 2.674c-1.471.95-3.012 1.697-4.428 2.716-2.727 1.97-5.28 4.343-8.474 5.376-1.395.454-1.206-1.096-.697-1.92.068-.097.145-.188.23-.272zM502.137 112.971l-.586-1.585c.134.21.258.427.37.65.049.314.119.628.216.935z"/>
        <path fill="#006973" d="M477.881 70.047c.416.11.815.278 1.186.496l2.615 1.48a38.596 38.596 0 0 1 4.429 2.793 29.21 29.21 0 0 1 4.533 4.517 59.863 59.863 0 0 1 2.74 3.491 66.067 66.067 0 0 1 5.733 9.411c1.479 2.968 2.79 5.977 4.045 9.035a52.215 52.215 0 0 1 2.037 6.38c.39 1.453.788 2.912 1.088 4.385.23 1.09.579 2.025.9 3.072.383 1.243.592 4.643-.796 5.425-.948.538-1.631-2.506-1.876-3.107-.334-.851-.788-1.647-1.164-2.485-.265-.573-.649-1.075-.9-1.64-.342-.783-.607-1.593-.976-2.368-.544-1.117-1.214-2.143-1.702-3.274l-1.68-3.896c-.203 0-.977-2.241-1.096-2.513l-1.136-2.646a143.626 143.626 0 0 0-2.246-4.964 48.828 48.828 0 0 0-3.299-6.382c-.837-1.494-1.492-3.086-2.343-4.573a68.422 68.422 0 0 0-4.45-6.367l-.195-.258a19.588 19.588 0 0 0-5.517-4.594c-.306-.182-.648-.426-.697-.782.014-.594.356-.705.767-.636zM461.631 81.686c1.04.035 2.093.098 3.111.202a29.965 29.965 0 0 1 10.552 3.191 28.725 28.725 0 0 1 5.935 4.015c5.537 4.887 9.331 11.17 12.909 17.53l.265.482c2.44 4.35 4.882 8.741 6.507 13.461.6 1.746 1.08 3.526 1.513 5.32.223.894.426 1.794.628 2.695.125.545.607 1.487.049 1.913a1.129 1.129 0 0 1-1.263-.035 2.96 2.96 0 0 1-.864-1.012 36.502 36.502 0 0 1-1.974-3.945c-.586-1.298-1.276-2.471-1.925-3.728a101.789 101.789 0 0 1-3.822-8.322c-.488-1.201-.955-2.409-1.485-3.589-2.49-5.585-6.521-10.417-10.378-15.08a36.608 36.608 0 0 0-5.844-6.047c-2.288-1.738-4.882-2.792-7.497-4-2.616-1.208-5.956-1.396-8.746-1.48-1.709-.07-3.94.07-5.405-.978 1.611-.698 3.187-.607 4.924-.621.934-.02 1.876-.014 2.81.028zM510.255 112.336a13.796 13.796 0 0 1 2.734-2.849 37.392 37.392 0 0 1 3.529-2.01c1.832-1 3.731-1.87 5.684-2.605a49.334 49.334 0 0 1 5.398-1.48c7.574-1.787 15.385-2.946 23.105-1.445 2.165.445 4.3 1.02 6.395 1.724 1.242.383 2.448.871 3.606 1.46.584.3 1.142.65 1.667 1.047.25.188 1.157.698 1.227 1.02.07.32-.188.502-.446.53-.802.077-2.267-.657-2.95-1.02a24.97 24.97 0 0 0-5.175-1.885 39.596 39.596 0 0 0-5.119-1.047 27.567 27.567 0 0 0-5.035 0c-3.516.19-7.004.73-10.413 1.613a98.053 98.053 0 0 0-10.865 3.693 260.518 260.518 0 0 1-10.915 3.945c-.697.23-1.395 1.089-2.197.914-.802-.174-.676-.837-.23-1.605z"/>
        <path fill="#006973" d="M507.78 118.689a33.21 33.21 0 0 1 4.588-2.31l4.673-2.06 11.403-5.013a40.292 40.292 0 0 1 21.299-3.114 37.398 37.398 0 0 1 7.79 2.157c1.213.44 2.322.992 3.577 1.355 1.256.363 2.602.698 3.899 1.089a26.9 26.9 0 0 1 2.65 1.228c.572.224 1.235.07 1.5.768-.781-.237-1.52-.649-2.274-.963-5.35-2.241-11.054-2.192-16.738-2.667a37.327 37.327 0 0 0-6.723-.16 38.008 38.008 0 0 0-5.635 1.137c-.886.23-1.75.266-2.63.447-1.166.323-2.31.722-3.424 1.194l-8.201 2.898-4.784 1.682c-2.413.852-4.817 1.74-7.212 2.667-1.206.468-2.42.95-3.626 1.438-.474.189-2.86 1.501-2.232.056.163-.32.403-.596.698-.803.446-.37.914-.712 1.401-1.026z"/>
        <path fill="#006973" d="M501.524 129.643v-.035c.087-.203.236-.373.425-.488 3.431-2.472 7.713-3.275 11.417-5.25a58.998 58.998 0 0 1 8.369-3.303c3.061-1.075 6.165-2.046 9.317-2.793a56.259 56.259 0 0 1 11.41-1.668c3.759-.133 7.748-.042 11.347 1.194 4.728 1.626 8.64 5.11 11.577 9.167l-1.074-.901a26.377 26.377 0 0 0-9.213-5.516 17.572 17.572 0 0 0-5.342-1.075 24.51 24.51 0 0 0-4.833.53 236.856 236.856 0 0 0-33.427 8.637c-1.625.545-3.243 1.117-4.882 1.606-1.22.356-3.404 1.361-4.66.761a.803.803 0 0 1-.431-.866zM492.631 149.178v-.042c.106-.207.275-.376.482-.481 3.891-2.444 8.76-3.212 12.958-5.16 3.033-1.396 6.276-2.262 9.547-3.246 3.487-1.055 6.974-2.004 10.587-2.751a72.01 72.01 0 0 1 12.979-1.592c4.282-.098 8.822 0 12.93 1.285a28.357 28.357 0 0 1 13.25 9.25l-1.234-.907a31.567 31.567 0 0 0-10.524-5.586 22.296 22.296 0 0 0-6.095-1.11 31.476 31.476 0 0 0-5.496.489 297.197 297.197 0 0 0-38.002 8.378c-1.84.538-3.682 1.096-5.579 1.57-1.395.357-3.864 1.341-5.3.7a.789.789 0 0 1-.503-.797z"/>
        <path fill="#006973" d="M497.074 138.196l.997-.412a231.921 231.921 0 0 1 28.643-9.935 59.223 59.223 0 0 1 11.856-2.304 56.855 56.855 0 0 1 11.689.74c2.2.288 4.381.717 6.528 1.285a30.976 30.976 0 0 1 12.058 6.549c-1.744-1.34-3.92-1.97-6.06-2.493a88.926 88.926 0 0 0-20.923-2.52 38.742 38.742 0 0 0-8.041.698 56.497 56.497 0 0 0-8.962 3.05 175.664 175.664 0 0 1-24.716 7.68 4 4 0 0 1-2.706 0c-.781-.502-1.137-1.828-.363-2.338z"/>
        <path fill="#006973" d="M465.258 83.948a100.116 100.116 0 0 1 23.817 30.552c1.785 3.547 3.361 7.198 4.819 10.891a170.23 170.23 0 0 1 2.092 5.586 33.862 33.862 0 0 0 1.939 4.887c.363.672.671 1.372.92 2.095a2.285 2.285 0 0 1 0 2.052 1.603 1.603 0 0 1-1.604.629c-1.164-.405-1.499-2.793-1.806-3.84-2.092-6.912-6.758-12.693-10.245-19.012-1.395-2.506-2.58-5.096-3.898-7.638a92.88 92.88 0 0 0-26.732-31.473c4.08.028 7.63 2.618 10.698 5.271z"/>
        <path fill="#006973" d="M507.48 119.548c-1.158 2.541-2.323 5.09-3.446 7.75-1.353 3.197-2.643 6.527-3.954 9.774a467.203 467.203 0 0 1-4.47 10.78c-.942 2.199-3.055 7.735-4.025 8.706.489-2.562 2.009-6.444 2.95-9.028 1.074-2.918 2.17-5.85 3.362-8.531.697-1.557 1.395-3.016 2.092-4.594 1.98-4.552 3.64-9.95 5.684-14.236.635-1.333 1.297-2.534 1.904-3.972.39-.929.746-1.934 1.137-2.863.39-.929.802-1.745 1.213-2.57l4.45-8.831a9.302 9.302 0 0 1 .872-1.536c.446-.552.732-.363.99-.16.258.202-1.395 3.26-1.479 3.455-.774 1.46-1.562 3.33-2.322 4.992l-4.959 10.864zM99.598 224.19a9.877 9.877 0 0 0-1.242-.552c-2.915-1.082-5.454-1.655-8.18.084-.38.21-.703.51-.942.873-.23.509-.32 1.07-.258 1.626.112 5.858.098 11.939.697 17.734.656 6.088.37 12.246 1.116 18.32.208 1.96.908 3.836 2.037 5.453.48.698 1.785 4.293 3.005 3.295.837-.698.935-1.906.956-2.988.153-6.675.46-13.58-.077-20.247-.307-3.812-1.018-7.575-1.527-11.36-.453-3.358-1.13-7.274-.816-10.647.004-.26.076-.515.21-.74.265-.303.65-.476 1.052-.474a5.714 5.714 0 0 1 3.564.698c.809.537 1.193 1.69 2.315 1.654a2.885 2.885 0 0 0-1.025-2.15 4.972 4.972 0 0 0-.885-.58z"/>
        <path fill="#006973" d="M87.086 209.905c-2.141.356-4.547.887-5.705 2.75-1.158 1.865-.537 4.65-1.59 6.703-.446.873-1.172 1.571-1.611 2.444a8.24 8.24 0 0 0-.656 3.267 122.962 122.962 0 0 0 .168 16.812c.279 3.54.55 7.233 2.092 10.473a15.673 15.673 0 0 0 3.069 4.252 17.196 17.196 0 0 0 2.455 2.045c.731.467 1.488.894 2.266 1.278a3.661 3.661 0 0 0-.474-1.529c-1.025-2.346-.781-4.65-1.193-7.107-.844-5.09-2.343-10.047-3.257-15.123a64.37 64.37 0 0 1-.802-16.812c.01-1.042.248-2.069.698-3.009a7.444 7.444 0 0 1 2.587-2.31l8.062-5.181-6.11 1.047zM66.694 214.639c-.642 4.656.467 9.544 1.394 14.04a93.088 93.088 0 0 0 4.98 17.454c.244.587.92 2.297 1.785 2.053a.984.984 0 0 0 .649-.754c.237-.992-.167-2.2-.481-3.121a205.797 205.797 0 0 1-1.834-5.662c-1.095-3.561-1.995-7.115-2.978-10.703-.886-3.212-.914-6.584-.935-9.921-.12-2.3.007-4.605.377-6.877.255-.957.384-1.943.383-2.933a3.873 3.873 0 0 0-2.218 2.34c-.14.32-.265.649-.383.984a16.995 16.995 0 0 0-.74 3.1zM60.96 208.655c-.794.28-1.164 1.194-1.394 2.018a21.037 21.037 0 0 0-.537 5.41c0 1.683-.3 3.324-.272 5.028.037 2.665.48 5.308 1.311 7.84.781 2.374 1.332 4.783 2.302 7.108a15.995 15.995 0 0 0 1.506 2.988c.29.406.62.783.983 1.124.258.251.963.76 1.27.251.16-.258-.147-1.068-.182-1.361a141.026 141.026 0 0 0-.613-4.37 130.256 130.256 0 0 0-1.681-8.379 86.905 86.905 0 0 1-1.953-8.741c-.111-.81-1.165-8.818-.697-8.965l-.042.05z"/>
        <path fill="#006973" d="M55.793 228.525a24.92 24.92 0 0 0-3.661-3.812 22.039 22.039 0 0 0-4.548-2.555 94.939 94.939 0 0 0-9.205-3.56c1.067 2.478 3.996 3.364 6.367 4.607 3.369 1.822 5.963 4.622 8.53 7.422 1.317 1.445 2.643 2.897 4.093 4.189 1.34 1.222 2.971 2.004 4.233 3.26.237.269.51.504.81.698.304.184.672.227 1.01.12a.37.37 0 0 0 .182-.127c.09-.132 0-.307-.063-.453a31.415 31.415 0 0 0-3.626-4.832l-4.122-4.957z"/>
        <path fill="#006973" d="M61.205 235.982c-1.2-.985-2.873-1.397-4.436-1.774-2.699-.607-5.412-1.187-8.16-1.529-1.394-.174-2.789-.167-4.233-.314a15.41 15.41 0 0 0-3.054.042c.634.698 2.092 1.005 2.922 1.362a80.143 80.143 0 0 0 3.961 1.542c3.857 1.397 7.832 2.297 11.717 3.575.83.28 1.945.475 2.406-.272a1.607 1.607 0 0 0-.237-1.662 4.704 4.704 0 0 0-.886-.97zM74.49 247.906c.105-.104.098-.279-.062-.551-.579-.97-2.4-1.92-3.369-2.43-2.929-1.529-6.576-1.745-9.763-2.367-1.29 0-2.79-.537-4.06-.788l-4.26-.824-8.509-1.655a83.146 83.146 0 0 0-8.578-1.396c-.914-.077-8.111-.475-8.132.698 0 .419 6.06.963 6.883 1.103a86.928 86.928 0 0 1 8.523 1.934c1.395.384 2.727.803 4.045 1.32 1.053.411 2.092.88 3.145 1.25 1.626.515 3.291.895 4.98 1.137 2.343.384 4.693.698 7.044 1.04l9.352 1.3c.537.062 2.378.627 2.762.23zM64.288 256.675l13.822 4.015 6.974 2.039c1.137.335 2.309.614 3.439.998.209.07 1.632.97 1.799.573a2.893 2.893 0 0 0-.697-2.919 7.175 7.175 0 0 0-2.658-1.675c-8.585-3.673-18.293-3.805-27.073-6.982-4.359-1.578-8.627-3.938-13.251-3.847-2.165.127-4.304.54-6.36 1.229-2.553.73-5.092 1.503-7.616 2.318-1.256.405-5.914 2.457-3.25 3.91a48.973 48.973 0 0 1 6.904-1.99 46.545 46.545 0 0 1 5.3-.552 64.093 64.093 0 0 1 11.34.09c3.864.448 7.61 1.711 11.327 2.793zM98.642 276.099c-.342-1.446-1.395-3.037-2.127-4.343a8.979 8.979 0 0 0-3.857-3.365 12.802 12.802 0 0 0-2.092-.698 229.064 229.064 0 0 0-14.304-3.435 232.683 232.683 0 0 0-18.83-3.093c-3.162-.382-6.33-.703-9.506-.964-1.59-.125-2.657-.16-4.108.58a20.225 20.225 0 0 0-3.361 2.339 24.528 24.528 0 0 0-4.01 4.105c-.286.37-1.395 1.396-1.395 1.815-.153.943.948.698 1.478.454a148.66 148.66 0 0 1 9.144-4.19 7.072 7.072 0 0 1 4.268-.32 1249.3 1249.3 0 0 1 19.318 3.309c3.04.552 6.242.887 9.199 1.766a121.58 121.58 0 0 1 8.976 3.065c.331.19.688.331 1.06.42 2.287.907 4.554 1.87 6.758 2.974.518.298 1.056.56 1.61.781.614.151 1.258.112 1.849-.111a2.796 2.796 0 0 0-.07-1.09z"/>
        <path fill="#006973" d="M62.488 239.347c-.62-.398-1.332-.97-1.213-1.704 4.303 1.187 7.957 5.411 11.34 8.246 3.842 3.225 7.636 6.52 11.284 9.977 6.8 6.45 13.843 12.993 16.954 22.153a67.297 67.297 0 0 1 2.525 11.764c.725 4.39 1.19 8.82 1.394 13.265.057.476-.015.958-.209 1.396a.92.92 0 0 1-1.172.454 1.397 1.397 0 0 1-.516-.991l-3.11-15.681a32.718 32.718 0 0 0-.997-4.112c-.419-1.243-.977-2.43-1.437-3.652-.914-2.402-1.465-4.978-2.839-7.142-.697-1.068-1.54-2.01-2.26-3.058-1.352-1.955-2.14-4.238-3.416-6.242a43.447 43.447 0 0 0-4.764-6.011c-6.5-6.982-13.53-13.552-21.564-18.662zM61.296 166.667c-.405-.32-.858-.593-1.312-.97-.76-.628-1.394-1.48-2.14-2.13a23.33 23.33 0 0 0-3.23-2.38 18.154 18.154 0 0 0-4.184-1.397 47.298 47.298 0 0 0-15.56-1.564c-.866.004-1.73.107-2.573.308-.802.258-1.067.984-1.632 1.55-.65.589-1.343 1.13-2.071 1.62a28.486 28.486 0 0 0-3.682 3.302 8.672 8.672 0 0 0-2.093 3.17c.254-.01.505-.055.747-.133.244-.126.362-.35.564-.51.58-.46 1.256-.83 1.863-1.264 1.276-.907 2.524-1.864 3.842-2.723a11.217 11.217 0 0 1 2.49-1.319c1.325-.426 2.908-.23 4.282-.126 1.974.16 3.899.615 5.865.594a31.17 31.17 0 0 1 6.535.698c4.54.924 8.93 2.477 13.042 4.615.44-.398-.474-1.145-.753-1.34zM62.377 167.338v.007h.007zM73.228 180.75l-.258-.294a91.323 91.323 0 0 0-16.738-8.448 10.766 10.766 0 0 0-3.005-.803 10.45 10.45 0 0 0-2.902.3c-4.735.978-9.443 2.472-13.474 5.146-4.03 2.674-7.357 6.633-8.55 11.324 2.93-2.352 5.907-4.74 9.36-6.241a30.541 30.541 0 0 1 7.782-2.095 54.734 54.734 0 0 1 27.96 3.212 1.628 1.628 0 0 0-.175-2.102zM66.491 189.525c-4.763.699-9.498 1.634-14.22 2.612-3.02.628-6.228 1.06-9.178 1.975-2.33.699-4.087 2.73-5.51 4.65a16.54 16.54 0 0 0-3.11 6.577 21.862 21.862 0 0 0-.21 3.938c.003.653-.03 1.305-.097 1.955a16.884 16.884 0 0 0-.314 1.682c.246-.193.454-.43.614-.698.349-.489.698-.977 1.018-1.487.698-1.096 1.298-2.241 1.918-3.372 1.22-2.2 2.553-4.448 4.624-5.956a19.14 19.14 0 0 1 5.35-2.394c7.113-2.332 14.261-4.678 21.62-5.907a37.335 37.335 0 0 1 6.234-.593c.55 0 5.44.237 5.482.544-.245-1.955-1.988-3.456-3.878-4.014-1.89-.559-3.906-.35-5.865-.105a93.84 93.84 0 0 0-4.478.593zM82.162 199.048c-1.29-1.117-3.8-1.515-5.05-1.5-5.836.055-10.99 3.644-15.642 7.184-2.622 2.003-5.272 4.056-8.334 5.299-.963.39-2.162.963-2.134 2.01.9.43 1.92.534 2.887.294 8.013-1.173 15.63-4.95 22.24-9.53 1.925-1.334 4.394-3.065 6.842-2.15a2.095 2.095 0 0 0-.809-1.607zM77.657 184.136a43.532 43.532 0 0 1 2.713-7.087 77.903 77.903 0 0 1 1.778-3.49c.3-.573 1.395-1.725 1.346-2.368-.049-.642-.697-.795-1.269-.907-3.376-.698-7.462-.97-7.818 3.49a65.986 65.986 0 0 0-.16 7.68 4.527 4.527 0 0 0 1.101 2.598l.803 1.068c.165.267.375.503.62.698.37.251.81-1.41.886-1.682zM94.848 185.253a1.785 1.785 0 0 0-1.137-.615l-6.974-1.696a.766.766 0 0 0-.467 0 .803.803 0 0 0-.363.447l-2.092 4.566a12.381 12.381 0 0 0-1.395 4.307c-.076 1.34.272 2.653.321 3.994 0 .907-.656 2.36.32 2.988 1.396.9 2.651-1.348 3.188-2.304a36.884 36.884 0 0 1 7.672-9.551c.69-.572 1.394-1.431.927-2.136zM74.086 156.16c.642-.272 1.395.035 2.092.496.615.357 1.19.778 1.716 1.256.44.433.607 1.32 1.27 1.487a5.52 5.52 0 0 0-.475-2.59c-.32-.754-.697-1.5-1.06-2.227-.579-1.11-1.318-2.262-2.483-2.73a3.951 3.951 0 0 0-3.794.803 11.713 11.713 0 0 0-2.496 3.184c-1.849 3.044-3.753 6.241-3.962 9.774a14.837 14.837 0 0 0 .663 4.971 7.346 7.346 0 0 0 1.646 2.793c.306.341.566.722.774 1.13.3.354.634.677.997.964.286-1.166.579-2.318.858-3.49.335-1.346.665-2.698.99-4.057a9.085 9.085 0 0 0 .377-2.758c-.049-.76-.293-1.494-.356-2.255-.188-2.276 1.214-4.342 2.553-6.193.177-.243.415-.436.69-.558z"/>
        <path fill="#006973" d="M59.88 165.53c-1.57-1.683-2.51-3.862-3.982-5.635a13.615 13.615 0 0 0-1.277-1.34c-2.092-1.934-4.637-3.268-6.939-4.923-2.03-1.459-4.143-3.141-4.498-5.78-.07-.325-.07-.66 0-.985.136-.427.404-.798.767-1.061.453-.35.579-.237.697.272.12.695.413 1.348.851 1.9a16.57 16.57 0 0 0 2.609 2.38c.913.698 1.771 1.438 2.726 2.095 2.358 1.626 4.882 3.092 6.786 5.229 1.904 2.136 3.132 5.16 2.28 7.896"/>
        <path fill="#006973" d="M56.525 164.07c.698.454 1.395.936 2.093 1.396.215.163.466.271.732.315a.16.16 0 0 0 .14 0 .203.203 0 0 0 .062-.14 2.886 2.886 0 0 0-.167-1.215c-.76-2.43-2.546-3.742-4.527-5.131a42.916 42.916 0 0 0-16.186-6.982c-4.645-.929-9.513-1.103-13.844-3.037 4.094 3.651 9.527 5.299 14.646 7.17a133.246 133.246 0 0 1 11.159 4.622c1.394.656 2.789 1.34 4.184 2.053a9.56 9.56 0 0 1 1.708.95zM94.89 200.738a2.631 2.631 0 0 0-.907-1.012 26.95 26.95 0 0 0-5.035-3.08c-.293-.139-.663-.265-.92-.062a.936.936 0 0 0-.259.517l-1.694 6.835c-.286 1.166-.58 2.339-.865 3.49-.216.866-.544 2.04-.042 2.87.147.23.345.424.579.566a.502.502 0 0 0 .377.111c.404-.09.9-1.312 1.13-1.64a20.327 20.327 0 0 1 1.61-2.011 20.67 20.67 0 0 1 3.927-3.344c1.185-.754 2.65-1.941 2.099-3.24z"/>
        <path fill="#006973" d="M93.404 238.719c-4.944-11.13-7.713-22.845-9.624-34.909a31.38 31.38 0 0 0-1.987-6.34 34.68 34.68 0 0 0-2.79-5.683c-5.942-9.341-11.382-18.85-19.59-26.272-.377-.342-.795-.81-.628-1.291 2.79 1.32 4.791 4.6 6.765 6.919 2.239 2.639 4.435 5.313 6.514 8.084 4.059 5.397 7.873 10.473 10.398 16.757 2.371 5.899 2.469 11.708 4.303 17.628a151.45 151.45 0 0 0 15.057 33.429c-.955.872-2.531.698-3.584-.05a8.105 8.105 0 0 1-2.302-3.078 77.379 77.379 0 0 1-2.532-5.194z"/>
        <path fill="#DCF2F4" d="M573.894 197.582c-32.82-48.418-82.915-50.463-133.966-66.654-23.328-7.4-45.067-19.353-68.611-26.063-25.735-7.33-52.836-8.182-79.59-7.833-34.054.44-69.503 3.665-100.664 18.599-9.526 4.566-18.523 10.668-25.56 18.613-7.546 8.518-10.078 19.074-13.25 29.826-10.371 35.167-23.015 75.088-58.828 92.159-19.946 9.516-36.586 19.185-52.522 34.706-31.76 30.922-31.927 84.513-8.557 120.434 29.124 44.746 90.434 43.405 137.941 45.57 117.605 5.355 247.833-11.995 349.69-75.403 59.224-36.877 96.606-120.923 53.917-183.954z"/>
        <rect width="140.473" height="46.393" x="191.621" y="214.785" fill="#FFF" rx="9.429"/>
        <rect width="140.473" height="46.393" x="218.332" y="153.556" fill="#FFF" rx="9.429"/>
        <path stroke="#19CCC7" d="M260.344 99.65c-13.25 2.918-26.948 2.87-40.415 4.524-15.008 1.836-27.199 11.101-26.976 26.454.258 17.021 12.965 27.34 21.766 31.927 9.297 4.852 22.018 8.671 32.395 10.214 29.989 4.448 60.16 9.719 90.524 9.077 13.39-.28 32.193-4.308 39.425 10.647 3.703 7.68 2.044 17.454-3.717 23.737-5.44 5.893-13.537 8.379-21.23 10.606-22.414 6.52-40.45 11.973-63.61 9.816-11.8-1.103-23.21 1.117-34.982 1.333-12.63.224-24.633-2.792-36.412 3.31a36.725 36.725 0 0 0-8.99 6.283c-8.878 8.65-10.412 23.403-3.78 33.785 10.566 16.574 28.413 12.993 44.976 10.619 24.298-3.49 48.903-6.332 73.507-5.146 18.384.88 38.895 5.446 48.568 20.652 7.386 11.61 6.033 27.606-2.566 38.4-8.6 10.793-23.656 16.058-37.528 13.9"/>
        <rect width="140.473" height="46.393" x="226.08" y="271.19" fill="#2DB2B2" rx="9.429"/>
        <path fill="#FFF" d="M283.108 288.386v1.739h-3.41v9.607h-2.093v-9.607h-3.424v-1.739z"/>
        <path fill="#FFF" fill-rule="nonzero" d="M288.729 299.732h-.872a.899.899 0 0 1-.425-.084.524.524 0 0 1-.237-.335l-.175-.573c-.19.172-.39.333-.6.482-.189.137-.392.254-.606.35a2.71 2.71 0 0 1-.663.209c-.26.052-.523.078-.788.076a3.086 3.086 0 0 1-.934-.14 2.043 2.043 0 0 1-.747-.411 2.018 2.018 0 0 1-.48-.698 2.544 2.544 0 0 1-.168-.957c.003-.315.084-.625.237-.9.194-.33.467-.606.795-.803a5.2 5.2 0 0 1 1.478-.594 9.656 9.656 0 0 1 2.295-.237v-.489a1.775 1.775 0 0 0-.342-1.2 1.227 1.227 0 0 0-.99-.392 2.487 2.487 0 0 0-.781.105c-.189.067-.37.151-.544.251l-.426.245a.85.85 0 0 1-.432.111.53.53 0 0 1-.335-.104.698.698 0 0 1-.23-.252l-.349-.614a4.74 4.74 0 0 1 3.341-1.27c.432-.009.86.07 1.262.23.72.29 1.275.886 1.514 1.626.141.406.21.834.202 1.264v5.104zm-3.76-1.208c.184 0 .366-.018.545-.056a2.09 2.09 0 0 0 .474-.16c.154-.075.299-.167.432-.273.148-.113.288-.237.419-.37v-1.347a7.9 7.9 0 0 0-1.395.104c-.312.06-.614.161-.9.3a1.22 1.22 0 0 0-.495.392.901.901 0 0 0-.14.481.845.845 0 0 0 .3.733c.226.14.489.209.754.196h.007z"/>
        <path fill="#FFF" d="M295.396 293.232a.397.397 0 0 1-.384.223.634.634 0 0 1-.3-.077l-.404-.146a2.572 2.572 0 0 0-.481-.175 2.09 2.09 0 0 0-.635-.084 1.484 1.484 0 0 0-.9.245.754.754 0 0 0-.334.635.566.566 0 0 0 .174.433c.128.131.28.238.447.314.203.095.413.174.627.237l.698.23c.25.085.488.182.697.287.228.106.44.245.628.412.188.162.34.362.446.587.119.263.176.549.168.837.003.367-.068.73-.21 1.069a2.31 2.31 0 0 1-.62.844 2.907 2.907 0 0 1-1.005.559 4.591 4.591 0 0 1-2.943-.084 4.642 4.642 0 0 1-.697-.314 3.02 3.02 0 0 1-.544-.391l.446-.74a.698.698 0 0 1 .202-.203.564.564 0 0 1 .3-.07c.122.002.24.038.342.105l.37.217c.16.086.325.16.495.223.226.067.461.1.697.098.201.004.401-.024.593-.084.15-.043.29-.117.412-.216a.76.76 0 0 0 .23-.308.943.943 0 0 0 .076-.363.643.643 0 0 0-.167-.46 1.346 1.346 0 0 0-.446-.315 5.039 5.039 0 0 0-.635-.244l-.732-.23a7.165 7.165 0 0 1-.698-.294 2.357 2.357 0 0 1-.634-.425 1.899 1.899 0 0 1-.447-.636 2.222 2.222 0 0 1-.167-.907 2.306 2.306 0 0 1 .195-.943c.13-.3.325-.568.572-.782.28-.235.602-.415.949-.53a3.95 3.95 0 0 1 1.31-.203 4.027 4.027 0 0 1 1.514.272c.42.158.806.395 1.137.699l-.342.698zM299.434 288.072v6.675h.356a.62.62 0 0 0 .307-.056.746.746 0 0 0 .237-.203l1.994-2.471c.082-.097.178-.18.286-.244a.697.697 0 0 1 .39-.091h1.765l-2.503 2.988a2.847 2.847 0 0 1-.272.3 1.75 1.75 0 0 1-.307.245c.11.076.209.167.293.272l.25.335 2.679 3.91h-1.744a.822.822 0 0 1-.383-.084.698.698 0 0 1-.28-.265l-2.043-3.051a.754.754 0 0 0-.237-.238.92.92 0 0 0-.334-.07h-.433v3.687h-1.939v-11.66l1.918.021zM312.999 288.26a4.27 4.27 0 0 1 1.395.224c.394.136.759.347 1.074.622.296.255.534.572.697.928.157.364.238.756.237 1.152.005.323-.037.646-.125.957a2.094 2.094 0 0 1-.914 1.235 3.402 3.402 0 0 1-.753.35 2.964 2.964 0 0 1 1.513.984c.348.48.524 1.062.502 1.654a3.39 3.39 0 0 1-.313 1.495 3.204 3.204 0 0 1-.844 1.096 3.772 3.772 0 0 1-1.235.698c-.48.155-.98.233-1.485.23a4.995 4.995 0 0 1-1.486-.202 3.116 3.116 0 0 1-1.109-.58 3.49 3.49 0 0 1-.78-.984 6.483 6.483 0 0 1-.566-1.292l.858-.349c.14-.063.293-.097.447-.098a.697.697 0 0 1 .362.091.565.565 0 0 1 .244.252c.096.184.2.364.314.537.11.177.243.336.398.475.164.144.353.257.558.335.239.095.495.14.753.133.294.005.586-.05.858-.16.232-.098.443-.24.62-.42a1.69 1.69 0 0 0 .363-.58 1.72 1.72 0 0 0 .126-.635 2.998 2.998 0 0 0-.084-.74 1.166 1.166 0 0 0-.363-.572 2.022 2.022 0 0 0-.788-.37 5.95 5.95 0 0 0-1.395-.133v-1.396c.397.009.793-.033 1.179-.126.273-.062.53-.18.753-.349.177-.138.31-.325.384-.538.079-.224.117-.46.111-.698a1.586 1.586 0 0 0-.44-1.222 1.694 1.694 0 0 0-1.199-.411 1.77 1.77 0 0 0-1.143.363 1.99 1.99 0 0 0-.635.935.81.81 0 0 1-.258.426.641.641 0 0 1-.432.133h-.265l-1.019-.182c.068-.488.222-.961.454-1.396.213-.393.5-.742.843-1.026a3.563 3.563 0 0 1 1.158-.622c.462-.15.945-.224 1.43-.223z"/>
        <path fill="#4D82C1" d="M211.939 322.724l120.15 18.838a9.429 9.429 0 0 1 7.856 10.773l-4.25 27.204a9.429 9.429 0 0 1-10.772 7.859h-.003l-120.15-18.843a9.429 9.429 0 0 1-7.856-10.772l4.25-27.204a9.429 9.429 0 0 1 10.775-7.859z"/>
        <path fill="#FFF" fill-rule="nonzero" d="M242.393 350.621c-.073.478-.2.947-.377 1.397a5.944 5.944 0 0 1-.648 1.215 5.402 5.402 0 0 1-.88.984 5.223 5.223 0 0 1-1.087.698l2.35 3.54-1.715-.265a2.195 2.195 0 0 1-.656-.21 1.395 1.395 0 0 1-.488-.454l-1.353-2.094a5.518 5.518 0 0 1-.837 0 6.403 6.403 0 0 1-.872-.077 6.133 6.133 0 0 1-2.252-.796 5.306 5.306 0 0 1-2.476-3.49 6.29 6.29 0 0 1-.056-2.347c.117-.779.377-1.53.767-2.213a5.381 5.381 0 0 1 1.444-1.64 5.263 5.263 0 0 1 1.98-.915 6.18 6.18 0 0 1 2.385-.063 6.007 6.007 0 0 1 2.246.796c.63.375 1.176.877 1.604 1.473.42.6.715 1.28.865 1.997.181.81.2 1.647.056 2.464zm-2.134-.335a5.34 5.34 0 0 0 0-1.696 3.493 3.493 0 0 0-.51-1.348 3 3 0 0 0-.983-.956 4.257 4.257 0 0 0-2.957-.468 3.088 3.088 0 0 0-1.241.607c-.374.315-.68.702-.9 1.138a5.157 5.157 0 0 0-.509 1.613c-.09.56-.09 1.13 0 1.69.073.482.247.943.51 1.354.26.387.6.713.996.957.444.255.931.425 1.437.502a3.93 3.93 0 0 0 1.52-.042c.45-.106.87-.314 1.228-.607a3.33 3.33 0 0 0 .9-1.131 5.338 5.338 0 0 0 .509-1.613z"/>
        <path fill="#FFF" d="M246.04 348.785l-.788 5.055c-.088.4-.031.818.16 1.18.214.322.564.528.95.558.321.052.651.026.962-.076.327-.113.635-.276.913-.482l.9-5.746 1.91.3-1.24 7.945-1.172-.181a.474.474 0 0 1-.433-.426v-.656a6.89 6.89 0 0 1-.586.377 3.142 3.142 0 0 1-2.043.35 2.871 2.871 0 0 1-1.116-.406 2.247 2.247 0 0 1-.74-.754 2.795 2.795 0 0 1-.369-1.034 4.194 4.194 0 0 1 0-1.25l.788-5.054 1.904.3z"/>
        <path fill="#FFF" fill-rule="nonzero" d="M256.39 350.286a3.93 3.93 0 0 1 1.346.454c.387.214.72.512.976.873.266.37.45.794.537 1.242a4.194 4.194 0 0 1 0 1.571c-.014.12-.038.24-.07.356a.524.524 0 0 1-.111.217.293.293 0 0 1-.147.09.6.6 0 0 1-.223 0l-4.882-.767a2.795 2.795 0 0 0 .377 1.899c.345.456.862.751 1.43.817.27.037.545.037.816 0 .213-.03.423-.079.627-.147.182-.063.342-.119.475-.175a.787.787 0 0 1 .39-.048.383.383 0 0 1 .188.076c.055.041.1.094.133.154l.446.789c-.242.21-.515.38-.809.51a4.375 4.375 0 0 1-1.8.35 6.967 6.967 0 0 1-.87-.071 4.39 4.39 0 0 1-1.5-.517 3.488 3.488 0 0 1-1.11-1.012 3.884 3.884 0 0 1-.62-1.46 5.312 5.312 0 0 1 0-1.884 4.779 4.779 0 0 1 .502-1.495c.24-.432.563-.814.949-1.124.393-.31.847-.533 1.332-.656a3.915 3.915 0 0 1 1.618-.042zm-.174 1.397a1.77 1.77 0 0 0-1.395.265 2.346 2.346 0 0 0-.81 1.25l3.585.558a2.446 2.446 0 0 0 0-.698 1.733 1.733 0 0 0-.223-.628 1.396 1.396 0 0 0-.46-.475 1.861 1.861 0 0 0-.697-.293v.02z"/>
        <path fill="#FFF" d="M265.84 353.477a.6.6 0 0 1-.195.153.46.46 0 0 1-.224 0 .697.697 0 0 1-.286-.125l-.341-.23a4.253 4.253 0 0 0-.447-.252 2.265 2.265 0 0 0-.62-.174 1.47 1.47 0 0 0-.928.097.768.768 0 0 0-.418.58.608.608 0 0 0 .097.454c.107.147.24.275.39.377.187.127.383.239.587.335.223.104.446.216.697.342.251.125.453.251.697.39.213.136.402.306.558.503.162.19.281.41.35.65.077.277.092.568.041.852a2.739 2.739 0 0 1-.377 1.026c-.19.298-.441.55-.739.74a3.018 3.018 0 0 1-1.08.39 4.222 4.222 0 0 1-1.396 0 4.878 4.878 0 0 1-.795-.195 5.144 5.144 0 0 1-.697-.328 4.477 4.477 0 0 1-.614-.412c-.177-.14-.338-.3-.481-.474l.558-.657a.572.572 0 0 1 .23-.167.627.627 0 0 1 .628.125l.334.28c.146.11.3.208.46.293.22.108.456.18.698.21.199.03.401.03.6 0 .151-.028.297-.08.432-.154a.747.747 0 0 0 .28-.273.894.894 0 0 0 .132-.342.65.65 0 0 0-.098-.488 1.556 1.556 0 0 0-.39-.377 3.904 3.904 0 0 0-.593-.336l-.698-.342a6.498 6.498 0 0 1-.697-.398 2.707 2.707 0 0 1-.565-.523 1.977 1.977 0 0 1-.342-.698 2.23 2.23 0 0 1 0-.922 2.39 2.39 0 0 1 .342-.9c.177-.283.416-.521.697-.699.312-.191.658-.32 1.019-.377a3.839 3.839 0 0 1 1.325 0 3.93 3.93 0 0 1 1.45.503c.39.236.727.55.99.921l-.571.622zM269.473 360.73a2.092 2.092 0 0 1-1.492-.83 2.278 2.278 0 0 1-.307-1.704l.697-4.44-.809-.126a.411.411 0 0 1-.25-.14.405.405 0 0 1-.063-.32l.118-.761h1.311l.74-2.095a.377.377 0 0 1 .18-.216.425.425 0 0 1 .3-.042l.991.153-.39 2.507 2.092.328-.21 1.396-2.092-.328-.697 4.308a.846.846 0 0 0 .098.607c.102.16.271.266.46.287a.92.92 0 0 0 .307 0l.223-.056.174-.063a.272.272 0 0 1 .147 0c.05.005.097.027.132.063a.698.698 0 0 1 .09.146l.433 1.02c-.321.19-.676.319-1.046.377a3.54 3.54 0 0 1-1.137-.07z"/>
        <path fill="#FFF" fill-rule="nonzero" d="M276.175 353.512l-1.24 7.945-1.912-.3 1.242-7.945 1.91.3zm.65-2.276a1.062 1.062 0 0 1-.175.454 1.221 1.221 0 0 1-.753.53 1.184 1.184 0 0 1-.496 0 1.108 1.108 0 0 1-.453-.167 1.3 1.3 0 0 1-.544-.74 1.118 1.118 0 0 1 0-.482c.023-.164.08-.32.167-.461.085-.135.194-.254.321-.35.128-.093.272-.161.426-.202.158-.035.322-.035.48 0 .327.052.62.23.817.496.093.13.164.273.21.426.027.165.02.334-.022.496h.021zM281.755 354.252c.553.08 1.085.265 1.569.544.434.254.81.596 1.102 1.006.291.42.493.895.593 1.396a5.34 5.34 0 0 1-.537 3.4 3.79 3.79 0 0 1-.99 1.173 3.576 3.576 0 0 1-1.36.628 4.396 4.396 0 0 1-1.66 0 4.481 4.481 0 0 1-1.577-.537 3.488 3.488 0 0 1-1.108-1.02 3.758 3.758 0 0 1-.6-1.396 5.032 5.032 0 0 1 0-1.745c.08-.581.267-1.142.55-1.655.246-.453.587-.848.998-1.159.414-.306.89-.518 1.395-.621a4.577 4.577 0 0 1 1.625-.014zm-1.081 6.702a1.721 1.721 0 0 0 1.569-.44 4.319 4.319 0 0 0 .614-3.91 1.68 1.68 0 0 0-1.36-.907 1.707 1.707 0 0 0-1.59.447 3.332 3.332 0 0 0-.788 1.878 3.369 3.369 0 0 0 .174 2.025c.28.514.798.855 1.38.907z"/>
        <path fill="#FFF" d="M285.87 363.174l1.248-7.945 1.165.182c.229.016.412.197.432.426v.649c.183-.139.376-.262.579-.37.197-.11.405-.199.62-.265.227-.067.462-.107.698-.119.254-.019.509-.007.76.035.396.056.776.194 1.116.405.302.186.556.442.74.747.191.315.314.667.362 1.033a3.97 3.97 0 0 1 0 1.25l-.795 5.062-1.911-.3.795-5.062a1.72 1.72 0 0 0-.16-1.18 1.269 1.269 0 0 0-.949-.559 2.041 2.041 0 0 0-.962.077c-.33.116-.64.28-.92.489l-.9 5.746-1.918-.3zM303.249 354.294c.475.07.934.219 1.36.44.37.196.699.462.97.782.247.297.428.645.53 1.019.104.384.126.786.062 1.18-.044.319-.136.63-.272.921-.11.244-.264.467-.453.657a2.218 2.218 0 0 1-.642.419 3.373 3.373 0 0 1-.802.237c.567.247 1.04.667 1.353 1.2.267.529.35 1.13.237 1.711-.072.5-.256.977-.537 1.397-.265.385-.61.709-1.01.95a3.631 3.631 0 0 1-1.319.474c-.499.08-1.007.08-1.506 0a4.878 4.878 0 0 1-1.437-.426 3.292 3.292 0 0 1-1.004-.74 3.645 3.645 0 0 1-.642-1.054 6.15 6.15 0 0 1-.356-1.397l.893-.216c.152-.031.308-.031.46 0a.753.753 0 0 1 .342.14c.096.072.17.172.21.286.062.195.139.39.222.586.083.19.19.37.321.53.302.383.74.633 1.22.7.29.06.59.06.88 0 .252-.059.49-.168.697-.322.186-.135.341-.309.453-.51a1.81 1.81 0 0 0 .223-.614 3.04 3.04 0 0 0 0-.747 1.069 1.069 0 0 0-.272-.615 1.98 1.98 0 0 0-.697-.488 5.742 5.742 0 0 0-1.34-.342l.217-1.397c.391.068.79.087 1.186.056.278-.02.549-.098.795-.23.198-.107.36-.27.467-.468a2.18 2.18 0 0 0 .216-.698 1.614 1.614 0 0 0-.244-1.278 1.729 1.729 0 0 0-1.123-.593 1.763 1.763 0 0 0-1.185.188 1.92 1.92 0 0 0-.774.824.824.824 0 0 1-.321.384.697.697 0 0 1-.447.056.927.927 0 0 1-.258-.063l-.976-.328c.147-.489.384-.945.697-1.348.27-.356.607-.657.99-.886.384-.22.805-.367 1.242-.433a4.64 4.64 0 0 1 1.374.056z"/>
        <rect width="140.473" height="46.393" x="208.066" y="209.444" fill="#4D82C1" rx="9.429"/>
        <path fill="#FFF" fill-rule="nonzero" d="M251.138 232.31c.001.49-.053.98-.16 1.459-.098.446-.248.88-.446 1.291-.187.397-.421.77-.698 1.11a5.303 5.303 0 0 1-.962.894l2.873 3.135h-1.736a2.23 2.23 0 0 1-.698-.098 1.395 1.395 0 0 1-.558-.377l-1.66-1.836a6.27 6.27 0 0 1-.816.16 5.9 5.9 0 0 1-.871.056 6.27 6.27 0 0 1-2.35-.433 5.324 5.324 0 0 1-2.986-3.05 6.59 6.59 0 0 1 0-4.623 5.307 5.307 0 0 1 1.172-1.836 5.377 5.377 0 0 1 1.813-1.215 6.27 6.27 0 0 1 2.35-.432c.8-.01 1.595.14 2.337.44a5.293 5.293 0 0 1 2.978 3.044 6.29 6.29 0 0 1 .418 2.31zm-2.162 0a5.22 5.22 0 0 0-.25-1.676 3.492 3.492 0 0 0-.698-1.257 3.062 3.062 0 0 0-1.123-.789 4.18 4.18 0 0 0-2.992 0 3.034 3.034 0 0 0-1.13.789 3.527 3.527 0 0 0-.697 1.257 5.717 5.717 0 0 0 0 3.35c.143.464.38.892.697 1.258a3.11 3.11 0 0 0 1.13.789 4.243 4.243 0 0 0 2.992 0 3.145 3.145 0 0 0 1.123-.79c.318-.364.556-.793.697-1.256a5.22 5.22 0 0 0 .251-1.676z"/>
        <path fill="#FFF" d="M254.458 229.936v5.11c-.027.41.094.817.342 1.145.261.28.636.427 1.018.398.327.004.65-.073.942-.223.309-.157.59-.365.83-.615v-5.815h1.938v8.042h-1.185a.481.481 0 0 1-.496-.349l-.132-.642a4.45 4.45 0 0 1-.516.454c-.174.14-.364.259-.565.356a2.788 2.788 0 0 1-.656.223 3.17 3.17 0 0 1-.725.056c-.4.01-.797-.066-1.165-.223a2.232 2.232 0 0 1-.843-.629 2.794 2.794 0 0 1-.524-.97 4.04 4.04 0 0 1-.174-1.236v-5.11l1.911.028z"/>
        <path fill="#FFF" fill-rule="nonzero" d="M264.92 229.81a3.93 3.93 0 0 1 1.394.244c.413.152.789.39 1.102.698.31.33.547.72.697 1.145.18.497.268 1.022.258 1.55v.363a.594.594 0 0 1-.076.23.307.307 0 0 1-.133.12.648.648 0 0 1-.223.034h-4.966c.002.67.25 1.317.698 1.816a2.05 2.05 0 0 0 1.534.586c.274.003.546-.035.81-.112.203-.064.402-.146.592-.244.174-.09.32-.168.446-.244a.822.822 0 0 1 .377-.112c.07 0 .14.017.202.049a.53.53 0 0 1 .147.132l.565.699a3.09 3.09 0 0 1-.698.635 3.855 3.855 0 0 1-.837.405 4.32 4.32 0 0 1-.885.216c-.301.04-.604.06-.907.056a4.18 4.18 0 0 1-1.555-.279 3.445 3.445 0 0 1-1.256-.824 3.806 3.806 0 0 1-.837-1.347 5.123 5.123 0 0 1-.306-1.864 4.508 4.508 0 0 1 .265-1.543 3.557 3.557 0 0 1 1.98-2.115 3.958 3.958 0 0 1 1.611-.294zm.034 1.396a1.812 1.812 0 0 0-1.325.475 2.375 2.375 0 0 0-.607 1.361h3.634c0-.236-.035-.472-.105-.698a1.495 1.495 0 0 0-.314-.586 1.458 1.458 0 0 0-.53-.398 1.93 1.93 0 0 0-.753-.16v.006z"/>
        <path fill="#FFF" d="M274.739 231.5a.523.523 0 0 1-.16.181.439.439 0 0 1-.224.049.732.732 0 0 1-.3-.077l-.37-.174a3.582 3.582 0 0 0-.487-.182 2.39 2.39 0 0 0-.635-.077 1.484 1.484 0 0 0-.9.245.74.74 0 0 0-.328.635.6.6 0 0 0 .168.433c.128.131.28.238.446.314.203.094.413.174.628.237l.697.23c.251.084.488.182.698.287.228.103.44.24.627.405.187.166.339.368.447.593a1.9 1.9 0 0 1 .167.831c.004.37-.067.735-.21 1.075a2.374 2.374 0 0 1-.62.845 2.907 2.907 0 0 1-1.004.559 4.877 4.877 0 0 1-2.183.125 5.289 5.289 0 0 1-.76-.21 4.642 4.642 0 0 1-.698-.313 3.02 3.02 0 0 1-.544-.391l.447-.74a.621.621 0 0 1 .202-.203.564.564 0 0 1 .3-.07c.12.003.238.037.342.098.104.07.23.147.37.224.157.086.323.159.494.216.226.073.461.108.698.105.2.004.4-.024.593-.084.149-.046.288-.12.411-.217a.76.76 0 0 0 .23-.307.943.943 0 0 0 .077-.363.699.699 0 0 0-.167-.468c-.13-.13-.281-.236-.447-.314a5.067 5.067 0 0 0-.634-.237l-.733-.23a7.165 7.165 0 0 1-.697-.294 2.524 2.524 0 0 1-.635-.426 1.899 1.899 0 0 1-.446-.635 2.334 2.334 0 0 1 .6-2.632c.28-.235.601-.415.948-.53a3.804 3.804 0 0 1 1.311-.203 4.027 4.027 0 0 1 1.514.272c.42.157.807.394 1.136.698l-.37.72zM279.453 238.076a2.126 2.126 0 0 1-1.604-.586 2.285 2.285 0 0 1-.565-1.64v-4.49h-.816a.376.376 0 0 1-.265-.105.391.391 0 0 1-.118-.307v-.768l1.297-.21.405-2.199a.405.405 0 0 1 .146-.244.46.46 0 0 1 .286-.084h1.004v2.534h2.092v1.397h-2.092v4.356a.845.845 0 0 0 .188.587c.126.145.311.225.503.216a.94.94 0 0 0 .3-.042l.209-.09.16-.091a.286.286 0 0 1 .14-.042.244.244 0 0 1 .146.042c.042.037.08.08.112.126l.585.942a2.88 2.88 0 0 1-.976.53c-.367.12-.751.177-1.137.168z"/>
        <path fill="#FFF" fill-rule="nonzero" d="M285.242 227.604a1.167 1.167 0 0 1-.37.851 1.268 1.268 0 0 1-.886.363 1.254 1.254 0 0 1-.474-.097 1.22 1.22 0 0 1-.383-.266 1.257 1.257 0 0 1-.265-.384 1.167 1.167 0 0 1-.098-.467c0-.168.033-.334.098-.49.065-.144.155-.276.265-.39a1.2 1.2 0 0 1 .383-.258 1.157 1.157 0 0 1 .962 0c.15.058.284.146.398.258.113.114.205.246.272.39.065.156.098.322.098.49zm-.286 2.346v8.042h-1.939v-8.056l1.939.014zM290.556 229.81a4.5 4.5 0 0 1 1.632.286 3.487 3.487 0 0 1 2.05 2.13 5.451 5.451 0 0 1 0 3.442 3.736 3.736 0 0 1-.802 1.312 3.529 3.529 0 0 1-1.248.83 4.5 4.5 0 0 1-1.632.287 4.564 4.564 0 0 1-1.639-.286 3.62 3.62 0 0 1-1.255-.83 3.855 3.855 0 0 1-.81-1.313 5.326 5.326 0 0 1 0-3.442c.176-.488.452-.932.81-1.306.356-.36.784-.64 1.255-.824a4.564 4.564 0 0 1 1.64-.286zm0 6.8a1.708 1.708 0 0 0 1.486-.698c.359-.594.527-1.283.48-1.976a3.424 3.424 0 0 0-.48-1.983 1.701 1.701 0 0 0-1.486-.698 1.736 1.736 0 0 0-1.506.698 3.438 3.438 0 0 0-.481 1.983 3.403 3.403 0 0 0 .48 1.976 1.75 1.75 0 0 0 1.507.698z"/>
        <path fill="#FFF" d="M296.03 237.978v-8.042h1.186a.481.481 0 0 1 .496.349l.132.635c.158-.164.328-.316.51-.454.179-.133.37-.25.571-.349.206-.103.424-.18.649-.23.247-.052.5-.078.753-.077.4-.006.796.07 1.165.223.329.14.62.355.85.629.237.282.413.61.516.963.122.4.181.817.175 1.236v5.117H301.1v-5.117a1.712 1.712 0 0 0-.342-1.145 1.276 1.276 0 0 0-1.025-.398 1.986 1.986 0 0 0-.934.223 3.264 3.264 0 0 0-.83.622v5.815h-1.94zM309.038 236.526h2.294v-6.604-.81l-1.625 1.361a.537.537 0 0 1-.21.119.641.641 0 0 1-.495-.035.53.53 0 0 1-.188-.154l-.613-.837 3.452-2.94h1.59v9.9h2.036v1.452h-6.276l.035-1.452z"/>
        <path fill="#FFA2C0" d="M189.215 188.408c.607-1.228.879-2.716 1.925-3.854 1.283-1.396 3.27 0 5.077-.53a1.507 1.507 0 0 0 1.165-.999 1.2 1.2 0 0 0-.795-1.228 3.602 3.602 0 0 0-1.549-.154 9.454 9.454 0 0 1-3.403-.314c-.642-.217-1.241-.552-1.89-.747a2.425 2.425 0 0 0-1.974.126c-.432.32-.773.75-.99 1.242-1.702 3.128-3.096 6.856-5.133 9.656-2.036 2.8-5.258 4.922-7.797 7.373l-8.94 8.615-17.875 17.217a2.737 2.737 0 0 0-.844 1.173 2.04 2.04 0 0 0 .258 1.46c.99 1.828 3.2 2.54 5.21 3.085l7.67 2.095c1.354-3.638 3.342-7.08 5.071-10.543.389-.829.844-1.625 1.36-2.38a16.748 16.748 0 0 1 2.504-2.612l5.175-4.67a42.9 42.9 0 0 0 9.763-13.447c.265-.58.663-1.25 1.298-1.243.28.037.555.112.816.223.983.273 1.96-.412 2.685-1.13"/>
        <path fill="#F39ABA" d="M165.14 214.017c-.816.133-1.813.154-2.378.698a4.192 4.192 0 0 0-.788 2.242c-.181 1.452-.356 2.904-.537 4.35 0 .216-.349 1.535 0 1.633.237.063.774-.999.886-1.18 1.395-2.213 2.225-4.79 3.864-6.821.202-.245 1.513-1.592 1.513-1.592-.16-.496-1.785.454-2.092.545-.154.05-.31.092-.468.125z"/>
        <path fill="#FFA2C0" d="M93.879 391.94c-2.525 2.038-5.58 6.806-6.884 8.58-1.548 2.129-4.456 5.906-3.62 8.622.461 1.487 4.883 4.985 6.396 4.769.263-.066.504-.2.697-.391 5.887-4.888 12.554-11.22 16.452-17.81-2.51-.908-8.766-5.202-11.367-4.686a4.253 4.253 0 0 0-1.674.915z"/>
        <path fill="#2F355B" d="M82.853 404.457a.697.697 0 0 0-.942.196c-.9 1.194-3.18 4.189-4.833 6.5-1.653 2.31-1.395 5.068.502 6.458l24.877 18.473c1.192.88 4.568-2.715 1.904-6.004l-8.634-12.567-.997-3.351c-.147-.286-.356-3.393-3.697-1.857-3.557 1.64-3.794-2.165-4.456-4.19-.544-1.696-1.179-2.045-2.469-2.925l-1.255-.733z"/>
        <path fill="#FFA2C0" d="M191.391 420.299c-.07-1.082-.614-2.632-1.395-4.971a77.06 77.06 0 0 1-3.55-16.247c-4.728.699-10.126.615-14.645 1.683l1.618 8.203c3.696 3.121 5.732 8.804 8.794 13.014.38.645.915 1.184 1.555 1.571a2.947 2.947 0 0 0 1.772 0c4.498-.838 5.97-1.277 5.851-3.253z"/>
        <path fill="#2F355B" d="M179.59 417.87a.698.698 0 0 0-.732.593c-.244 1.438-.871 5.09-1.297 7.805-.425 2.716 1.081 5.013 3.32 5.376l29.835 4.887c1.395.238 2.755-4.398-1.025-6.06l-13.104-7.044-2.35-2.43c-.259-.182-1.828-2.793-4.039.049-2.357 3.009-4.26-.189-5.76-1.683-1.228-1.229-1.932-1.243-3.445-1.396l-1.402-.098z"/>
        <path fill="#F39ABA" d="M180.63 192.87c-1.883 2.031-4.087 3.623-6.095 5.627-3.153 3.149-19.828 18.53-26.537 23.982a5.157 5.157 0 0 0 3.62 3.742c1.101-3.882 2.399-8.05 5.635-10.472 2.183-1.613 4.965-2.2 7.267-3.63 3.487-2.186 5.495-5.956 7.88-9.196 2.483-3.386 5.796-5.34 8.711-8.182 1.89-1.836 7.058-4.63 7.874-7.68 0 0 1.639-6.151 1.632-6.151a4.043 4.043 0 0 0-.398-.168 3.91 3.91 0 0 0-.453-.16 2.606 2.606 0 0 0-1.709 0c-.092.03-.181.07-.265.119-.278.182-.515.42-.697.698-.07.104-.133.21-.195.32l-.112.203-.125.238-.503.963c-1.394 2.828-2.706 5.956-4.456 8.378h-.035c-.316.479-.663.936-1.04 1.369z"/>
        <path fill="#14A5A1" d="M192.11 159.177l118.565-27.101a9.429 9.429 0 0 1 11.293 7.091v.004l6.114 26.846a9.429 9.429 0 0 1-7.093 11.288l-118.563 27.107a9.429 9.429 0 0 1-11.293-7.092v-.004l-6.114-26.846a9.429 9.429 0 0 1 7.093-11.288z"/>
        <path fill="#FFF" d="M245.447 167.163l.384 1.69-3.32.754 2.134 9.37-2.05.467-2.141-9.363-3.334.761-.383-1.69z"/>
        <path fill="#FFF" fill-rule="nonzero" d="M253.447 176.965l-.851.196c-.145.03-.295.03-.44 0a.551.551 0 0 1-.3-.272l-.292-.524c-.15.21-.31.413-.481.607-.157.175-.33.334-.517.475-.185.141-.386.261-.6.356a4.46 4.46 0 0 1-.746.245c-.31.07-.63.094-.948.07a1.98 1.98 0 0 1-.816-.238 1.96 1.96 0 0 1-.62-.559 2.333 2.333 0 0 1-.377-.886 1.943 1.943 0 0 1 0-.936c.117-.364.323-.692.6-.956a4.98 4.98 0 0 1 1.31-.908 9.645 9.645 0 0 1 2.184-.747l-.105-.46a1.774 1.774 0 0 0-.6-1.097 1.22 1.22 0 0 0-1.053-.16c-.26.05-.51.145-.74.279-.169.105-.328.226-.473.363l-.363.335a.9.9 0 0 1-.398.202.585.585 0 0 1-.348 0 .879.879 0 0 1-.28-.195l-.48-.524a4.791 4.791 0 0 1 2.977-1.99 3.19 3.19 0 0 1 1.277-.048c.379.057.74.198 1.06.412.315.221.583.504.788.83.222.365.382.763.474 1.18l1.158 4.95zm-3.934-.342c.18-.041.355-.1.523-.174.152-.071.295-.16.426-.266.132-.104.251-.223.356-.356.12-.143.229-.295.327-.453l-.3-1.313a7.665 7.665 0 0 0-1.353.419 3.542 3.542 0 0 0-.83.468 1.159 1.159 0 0 0-.39.488.804.804 0 0 0-.035.496c.036.28.208.523.46.65.259.108.546.127.816.055v-.014z"/>
        <path fill="#FFF" d="M258.51 169.16a.39.39 0 0 1-.32.307.697.697 0 0 1-.315 0l-.397-.09a2.787 2.787 0 0 0-.51-.064 2.146 2.146 0 0 0-.64.063c-.316.051-.606.206-.824.44a.755.755 0 0 0-.181.698c.03.16.124.3.258.391.158.093.33.161.509.203.219.044.44.074.663.09l.76.063c.25 0 .509.07.76.119.243.054.478.14.697.258.217.12.41.282.565.475.174.229.293.494.349.775.076.36.076.73 0 1.09a2.368 2.368 0 0 1-.412.963 2.79 2.79 0 0 1-.857.768 4.572 4.572 0 0 1-1.298.502 4.515 4.515 0 0 1-.809.112c-.26.018-.52.018-.78 0a3.804 3.804 0 0 1-.698-.16 2.962 2.962 0 0 1-.62-.259l.271-.817a.587.587 0 0 1 .154-.244.502.502 0 0 1 .272-.133.62.62 0 0 1 .355 0l.412.133c.176.047.355.08.537.098.234.02.47.001.697-.056a1.98 1.98 0 0 0 .558-.217c.134-.077.252-.179.349-.3a.817.817 0 0 0 .16-.356.944.944 0 0 0 0-.37.698.698 0 0 0-.265-.412 1.617 1.617 0 0 0-.509-.21 4.57 4.57 0 0 0-.697-.09l-.76-.063a7.28 7.28 0 0 1-.782-.126 2.502 2.502 0 0 1-.697-.272 1.947 1.947 0 0 1-.579-.524 2.242 2.242 0 0 1-.362-.844 2.362 2.362 0 0 1 0-.964c.06-.321.194-.624.39-.886.22-.293.491-.541.802-.734a4.348 4.348 0 0 1 2.79-.558c.446.066.876.22 1.262.454l-.258.747zM261.293 163.218l1.485 6.507.349-.083a.697.697 0 0 0 .286-.12.977.977 0 0 0 .188-.25l1.395-2.856c.057-.114.132-.218.223-.307a.837.837 0 0 1 .363-.175l1.722-.39-1.771 3.49a4.314 4.314 0 0 1-.202.356 1.996 1.996 0 0 1-.244.3 1.2 1.2 0 0 1 .341.203c.105.084.217.174.321.272l3.487 3.212-1.701.39a.822.822 0 0 1-.391 0 .767.767 0 0 1-.335-.195l-2.678-2.52a.6.6 0 0 0-.279-.175.801.801 0 0 0-.355 0l-.433.098.823 3.596-1.89.432-2.56-11.359 1.856-.426zM274.39 160.419c.472-.118.96-.15 1.444-.098.433.045.854.178 1.234.39.364.21.68.493.928.832.266.368.452.79.544 1.236.095.383.124.78.083 1.172a4.696 4.696 0 0 1-.258 1.104 6.51 6.51 0 0 1-.495 1.082c-.202.356-.418.698-.641 1.096l-1.911 3.12c.225-.123.458-.233.697-.327.213-.087.432-.157.656-.21l2.831-.65a.697.697 0 0 1 .53.064c.149.09.25.24.28.412l.257 1.13-7.574 1.732-.146-.628a1.16 1.16 0 0 1 0-.412c.022-.158.08-.308.167-.44l2.588-4.133c.216-.35.404-.698.565-.992.151-.29.28-.59.383-.9a3.39 3.39 0 0 0 .16-.852 2.796 2.796 0 0 0-.07-.859 1.83 1.83 0 0 0-.271-.698 1.319 1.319 0 0 0-.447-.433 1.394 1.394 0 0 0-.578-.195 2.09 2.09 0 0 0-.698.049 1.799 1.799 0 0 0-1.039.6 1.851 1.851 0 0 0-.405 1.061.755.755 0 0 1-.153.475.697.697 0 0 1-.397.223c-.085.02-.172.03-.258.035l-1.04.056a4.347 4.347 0 0 1 .126-1.501c.122-.43.323-.832.593-1.187.277-.347.615-.64.997-.866a4.635 4.635 0 0 1 1.318-.488z"/>
        <path fill="#FFA2C0" d="M187.974 196.884c1.527-1.522 2.252-3.602 3.835-4.978 1.395-1.229 3.571-1.62 4.345-3.533.272-.698.175-1.647-.509-1.892-.683-.244-1.395.531-1.994 1.083-1.088.837-3.25 2.094-4.464.886l-1.583 1.522"/>
        <path fill="#5E64B6" d="M159.861 232.798a18.584 18.584 0 0 0-.844-.698c-4.52-3.603-7.295-9.125-12.344-11.918a2.348 2.348 0 0 0-3.23.23c-2.224 1.83-4.184 3.631-6.457 5.37-3.752 2.792-8.37 4.44-11.856 7.4-1.841 1.564-3.097 3.49-4.75 5.201-1.652 1.71-2.9 2.276-3.424 4.832a56.26 56.26 0 0 0-.97 6.828 15.53 15.53 0 0 0 .342 5.732 16.704 16.704 0 0 0 3.125 5.292c3.055 3.84 7.134 7.736 12.03 7.422 7.316-.468 13.077-7.324 17.024-12.686 4.185-5.683 8.125-11.967 12.358-17.832.37-.446.65-.96.823-1.515.321-1.41-.683-2.646-1.827-3.658z"/>
        <path fill="#4F579E" d="M161.305 234.488l-.042-.07a5.71 5.71 0 0 0-.698-.845 12.69 12.69 0 0 0-1.206-1.082c-.335-.272-.698-.517-.99-.817-.293-.3-.558-.614-.88-.894a2.712 2.712 0 0 0-1.945-.872c-1.472.202-3.403 5.173-4.1 6.423a272.916 272.916 0 0 0-7.672 14.731c-.949 1.976-1.897 4.015-2.037 6.2-.067.42.033.848.28 1.194.41.46 1.15.349 1.757.202 4.714-1.159 4.882-4.119 7.469-7.784 1.8-2.518 3.659-4.997 5.58-7.436l1.038-1.326c.354-.386.674-.802.956-1.243.21-.384.44-.768.697-1.145.177-.102.345-.219.502-.35.305-.288.564-.623.768-.99l.418-.664c.296-.418.5-.894.6-1.396a2.795 2.795 0 0 0-.495-1.836z"/>
        <path fill="#EBF7F7" d="M122.277 293.93c-4.484-.775-5.181-1.997-8.41 3.351-6.368 10.55-1.793 22.209-2.302 33.512-.3 6.619-.104 12.868-1.562 19.41-2.915 13.09-9.443 25.308-18.133 35.446-3.25 3.784-5.035 7.826-.85 11.827 3.933 3.651 9.156 5.438 13.125 8.887 3.11 2.71 5.928 4.364 10.091 4.964 5.3.761 3.543-7.868 4.282-11.059.649-2.792 2.093-4.887 3.543-7.289 3.717-6.123 10.385-11.75 13.251-18.585 3.173-7.491 1.458-16.986 3.23-24.946 2.824-12.727 7.866-26.837 8.368-39.893.628-17.182-12.623-13.53-24.633-15.625z"/>
        <path fill="#FFF" d="M191.447 406.405c2.483-.88 7.525-1.899 4.993-5.767a63.398 63.398 0 0 1-6.423-12.35c-5.23-12.742-14.325-23.312-19.228-36.263-3.661-9.67-8.229-19.207-11.019-29.149-2.336-8.336-9.324-15.43-12.748-23.563-1.179-2.793-2.037-9.076-4.45-10.724-2.748-1.878-9.38-.95-12.644-1.396-5.238-.699-11.417-2.535-16.591-1.271a1.394 1.394 0 0 0-.698.307c-.2.277-.292.617-.258.957-.098 4.468-.181 8.985.753 13.363 2.511 11.736 12.749 19.283 18.189 29.49 2.97 5.586 3.222 11.534 4.68 17.566 2.092 8.595 5.028 16.952 8.103 25.232 2.511 6.751 4.882 13.559 7.323 20.324 1.646 4.531 3.648 16.24 9.067 17.454 5 1.138 10.677.433 15.691-.244a75.025 75.025 0 0 0 15.26-3.966z"/>
        <path fill="#FCD685" d="M152.79 215.91a6.134 6.134 0 0 1-1.333-3.568c.062-.84.2-1.672.412-2.486a9.775 9.775 0 0 0-6.905-11.17 4.131 4.131 0 0 0-2.036-.154 8.643 8.643 0 0 0-1.772.817c-3.563 1.731-7.88 1.487-11.716 1.878a11.944 11.944 0 0 0-8.034 4.691c-2.88 3.659-2.741 9.077-6.975 11.709l13.823 22.041c2.288-1.396 4.261-3.49 6.688-4.552a13.461 13.461 0 0 1 5.796-.991c1.618 0 3.808.95 5.342.62 2.943-.627 3.32-5.745 5.642-7.602.9-.698 2.002-1.04 2.978-1.613a3.68 3.68 0 0 0 1.988-2.855c.181-2.653-2.288-4.518-3.899-6.766z"/>
        <path fill="#FFA2C0" d="M124.718 234.725a22.214 22.214 0 0 0-2.092 8.106c0 .6.056 1.333.6 1.599.247.091.512.125.774.097 4.756-.167 14.869 1.508 18.077-3.05 3.717-5.279-5.482-10.473 2.42-14.188.83-.39 1.869-.293 2.755-.488a1.688 1.688 0 0 0 1.395-1.229 5.591 5.591 0 0 0 0-.838c0-.663.411-1.264.502-1.927.167-1.291-.419-2.297.09-3.595.375-.725.611-1.514.698-2.325a.985.985 0 0 0-.105-.475 1.27 1.27 0 0 0-.432-.405c-1.11-.754-2.225-1.731-2.434-3.058-.077-.482 0-.977-.147-1.452a4.26 4.26 0 0 0-.502-1.068l-1.178-2.004c-.468-.796-1.095-1.808-2.093-1.955a5.742 5.742 0 0 0-2.852.65c-1.834.83-3.355 2.213-5.16 3.1-1.807.886-4.234 1.207-5.357 2.973-1.395 2.2-.293 6.026-.425 8.532-.272 4.783-2.686 8.762-4.534 13z"/>
        <path fill="#DD8EAF" d="M144.364 227.499c.698-.251 1.465-.3 2.135-.566-2.211-.356-4.499-.425-6.724-.698a5.094 5.094 0 0 1-1.708-.433c-.607-.314-1.06-.851-1.653-1.193-.23-.14-.774-.3-.858.111 0 .203.223.405.328.566.292.564.66 1.086 1.095 1.55.62.558 1.471.844 1.98 1.508.803 1.04.238 2.918.189 4.126-.1 1.754-.013 3.514.258 5.25a.88.88 0 0 0 .279.587.83.83 0 0 0 .432.111 6.521 6.521 0 0 0 2.664-.405c.056-.697.042-1.4-.042-2.094-.104-.929-1.01-1.669-1.269-2.674a4.892 4.892 0 0 1 .328-3.77 4.604 4.604 0 0 1 2.169-1.795l.397-.181z"/>
        <path fill="#FCD685" d="M143.918 201.61a6.71 6.71 0 0 0-2.685-.467c-3.815-.105-7.504 1.396-10.796 3.295a8.643 8.643 0 0 0-2.957 2.45c-1.492 2.221-1.52 5.132-1.206 7.68.237 1.97.286 3.987.878 5.886.19.775.464 1.526.816 2.242.412.698 1.395.88 1.995 1.298 1.27.873 1.639 2.604 2.74 3.68a.349.349 0 0 0 .189.125c.181.049.342-.126.44-.286a4.242 4.242 0 0 0 .153-3.282c-.314-1.082-.83-2.094-1.081-3.204-1.27-5.655 4.686-7.33 8.034-10.25a14.048 14.048 0 0 0 4.31-6.464c.432-1.473.035-2.27-.83-2.702z"/>
        <path fill="#FFA2C0" d="M182.604 244.471c4.1-2.848 8.745-4.691 13.25-6.779 2.19-1.02 4.248-2.206 6.375-3.337 2.573-1.396 3.145 0 5.81.181.258.009.517-.022.766-.09l9.694-2.137a5.248 5.248 0 0 0 1.486-.495c1.08-.636 1.527-1.948 1.883-3.15.593-1.954.607-3.49-1.283-3.853-2.093-.412-5.015.517-7.246.363a7.588 7.588 0 0 1-3.62-.936 3.087 3.087 0 0 1-1.5-3.197c-.25.97-5.516 3.756-6.527 4.622-3.717 3.162-6.87 3.42-11.361 4.887a54.61 54.61 0 0 0-13.76 6.654 15.555 15.555 0 0 1-3.529 2.01c-.924.286-1.875.47-2.838.552l-10.378 1.284c-1.61.196 1.088 10.857 3.25 11.625 3.222 1.138 7.602-2.13 10.72-2.73a9.219 9.219 0 0 0 2.092-.558 9.338 9.338 0 0 0 2.036-1.397 74.462 74.462 0 0 1 4.68-3.519z"/>
        <path fill="#F39ABA" d="M179.005 234.585c-3.424 2.172-6.82 4.936-10.559 5.355l-7.065.803c-.97.105-2.134.37-2.427 1.299a1.76 1.76 0 0 0 1.137 1.983c1.897.782 4.484 0 6.388-.329 2.909-.502 6.277-.635 8.858-1.975 3.012-1.543 5.858-3.561 8.8-5.244a285.893 285.893 0 0 1 17.771-9.362 35.979 35.979 0 0 0 3.543-1.808 5.818 5.818 0 0 0 1.478-1.257c.419-.482 1.249-.943 1.493-1.522a.909.909 0 0 0 .056-.433v-1.305c-.572-.12-1.709 1.305-2.17 1.675-.817.668-1.679 1.28-2.58 1.83a44.372 44.372 0 0 1-5.349 2.736c-5.321 2.276-11.06 3.491-16.333 5.872a24.96 24.96 0 0 0-3.041 1.682z"/>
        <path fill="#5E64B6" d="M161.925 256.634c3.669-.147 7.12-.203 7.42-2.549.126-1.026-1.568-3.442-2.015-4.412l-1.82-4c-.697-1.55-2.392-7.548-4.184-7.443a48.586 48.586 0 0 1-12.4-.852c-7.728-1.522-16.906-2.248-24.515.307-6.771 2.276-10.46 10.794-11.158 17.566a15.473 15.473 0 0 0 .635 6.759c.878 2.436 2.594 4.496 3.445 6.94 1.813 5.2-.502 9.9-3.662 13.963-1.569 2.024-5.579 3.93-4.359 6.981.97 2.465 7.247 4.378 9.492 4.978 9.067 2.43 20.267 6.703 29.473 3.526a1.96 1.96 0 0 0 1.004-.621c.208-.402.272-.863.182-1.306-.524-5.927-4.185-8.594-2.204-14.857 1.625-5.215 7.092-8.734 6.653-14.661-.153-2.06-1.311-4.022-1.074-6.075.467-3.812 4.917-4.084 9.087-4.244z"/>
        <path fill="#4F579E" d="M166.786 248.793a8.43 8.43 0 0 0-1.102.182c-.697.153-1.346.272-2.022.377-5.53.858-11.124 1.32-15.922 4.615-2.685 1.843-4.784 4.887-4.63 8.12.09 1.905.927 3.818.438 5.654-1.01 3.785-6.388 4.19-8.905 7.206a6.058 6.058 0 0 0 .822 8.28c.907.733 2.023 1.173 2.944 1.892.92.72 1.652 1.892 1.339 3.016a3.337 3.337 0 0 1-1.13 1.564c-2.371 2.094-5.405 2.946-8.37 3.784-2.496.698-6.276 1.11-2.58 3.49 5.022 3.233 15.51 3.136 20.923 1.265.387-.095.733-.31.99-.615a2.02 2.02 0 0 0 .181-1.291 19.252 19.252 0 0 0-1.255-5.104c-.837-1.557-1.68-3.128-1.702-4.887-.009-.576.069-1.15.23-1.704a11.88 11.88 0 0 1 .545-3.002c1.61-5.152 7.016-8.63 6.576-14.452-.153-2.039-1.29-3.98-1.06-6.011.432-3.798 4.833-4.07 8.948-4.231 3.626-.14 7.037-.203 7.337-2.514.125-1.019-1.556-3.4-1.995-4.363l-.6-1.27z"/>
        <path fill="#FCD685" d="M114.445 217.599c-1.353.845-2.88 1.333-4.135 2.36-2.56 2.094-3.571 6.074-3.487 9.893-.025 1.56.245 3.112.795 4.573a10.74 10.74 0 0 0 4.407 4.887 11.15 11.15 0 0 0 5.789 1.94c1.855.036 3.424.776 5.251.93 1.828.153 3.766-.831 3.94-2.556a8.219 8.219 0 0 0-.383-2.304c-.697-3.553 2.155-6.779 2.867-10.333a8.959 8.959 0 0 0-5.803-10.207 38.747 38.747 0 0 1-4.582-1.976"/>
        <path fill="#F4BDB3" d="M372.837 105.2c-.31-1.379-.9-2.68-1.737-3.819a28.974 28.974 0 0 0-5.732-5.885 65.856 65.856 0 0 1-3.913-4.72.802.802 0 0 0-.237-.223.773.773 0 0 0-.453 0c-.922.147-1.858.189-2.79.125h-.51c-4.142-1.25-8.814-1.333-13.138-2.492-.844.698.16 1.969 1.088 2.527l5.67 3.45c-.35-.21-1.319 3.03-1.395 3.295a8.387 8.387 0 0 0-.119 3.616c.002.317.086.627.244.9.247.291.575.5.942.601 1.8.698 3.612 1.278 5.454 1.815.97.242 1.907.603 2.79 1.076.78.467 1.394 1.124 2.175 1.633a7.004 7.004 0 0 0 3.166 1.145c.851.084 1.716 0 2.56.126 1.792.251 3.354 3.49 5.21 2.548.597-.394.97-1.05 1.004-1.766.138-1.323.044-2.66-.28-3.952z"/>
        <path fill="#E7A194" d="M361.58 96.627a14.349 14.349 0 0 0-1.778-.58c-.341-.104-.697-.23-1.025-.32-.67-.172-1.354-.284-2.043-.336a4.508 4.508 0 0 0-2.155.286c-.196.077-.37.2-.51.356a.699.699 0 0 0-.118.524c.167 1.934 1.632 3.49 3.069 5.048a21.628 21.628 0 0 0 3.912 3.49 5.34 5.34 0 0 0 1.897.824c.83.16 1.69.06 2.462-.286a2.297 2.297 0 0 0 1.346-2.36 5.323 5.323 0 0 0-1.2-2.667c-.48-.628-1.053-1.221-1.61-1.822a18.21 18.21 0 0 1-.698-.789c-.223-.265-.474-.475-.698-.698-.125-.126-.23-.258-.362-.37a2.092 2.092 0 0 0-.488-.3z"/>
        <rect width="140.473" height="46.393" x="218.332" y="72.058" fill="#19CCC7" rx="9.429"/>
        <path fill="#FFF" d="M276.092 89.254v1.732h-3.404v9.606h-2.092v-9.606h-3.417v-1.732z"/>
        <path fill="#FFF" fill-rule="nonzero" d="M281.713 100.592h-.872a.934.934 0 0 1-.432-.083.552.552 0 0 1-.237-.335l-.168-.573a5.036 5.036 0 0 1-.6.482c-.189.137-.392.254-.606.349-.223.1-.457.173-.698.216-.257.05-.519.074-.78.07a3.1 3.1 0 0 1-.942-.14 2.092 2.092 0 0 1-.74-.411c-.214-.191-.379-.43-.48-.699a2.376 2.376 0 0 1-.175-.95c.005-.316.086-.628.237-.907a2.24 2.24 0 0 1 .802-.796 4.92 4.92 0 0 1 1.479-.6 9.65 9.65 0 0 1 2.294-.23v-.475c.036-.431-.085-.86-.342-1.208a1.255 1.255 0 0 0-.99-.391c-.265-.008-.53.03-.781.112-.19.062-.372.144-.544.244l-.432.251a.871.871 0 0 1-.426.105.613.613 0 0 1-.342-.098.851.851 0 0 1-.223-.251l-.355-.621a4.802 4.802 0 0 1 3.347-1.271c.43-.007.856.071 1.255.23.355.144.674.363.935.643.261.284.46.619.586.984.137.405.205.83.202 1.257l.028 5.096zm-3.766-1.207c.185 0 .37-.019.55-.056a2.09 2.09 0 0 0 .468-.189c.153-.074.297-.163.433-.265.15-.114.29-.24.418-.377V97.15a7.308 7.308 0 0 0-1.395.112c-.315.05-.622.142-.913.272a1.13 1.13 0 0 0-.489.384.957.957 0 0 0 .16 1.215c.223.164.492.253.768.252z"/>
        <path fill="#FFF" d="M288.387 94.113a.58.58 0 0 1-.167.175.411.411 0 0 1-.216.056.697.697 0 0 1-.307-.084l-.37-.175a3.185 3.185 0 0 0-.481-.174 2.18 2.18 0 0 0-.642-.077 1.512 1.512 0 0 0-.9.238.775.775 0 0 0-.327.635.615.615 0 0 0 .167.44c.13.127.281.231.447.307.204.096.417.175.634.237l.698.238c.237.081.47.177.697.286.232.1.446.237.635.405.184.168.336.37.446.593.118.26.176.545.167.831.03.371-.018.744-.14 1.096a2.395 2.395 0 0 1-.62.845 2.789 2.789 0 0 1-1.011.559c-.45.143-.922.211-1.395.202a4.522 4.522 0 0 1-1.57-.286 3.687 3.687 0 0 1-.696-.307 3.04 3.04 0 0 1-.544-.398l.439-.733a.747.747 0 0 1 .21-.21.606.606 0 0 1 .292-.07.6.6 0 0 1 .342.105l.376.223c.16.084.326.157.496.217.225.073.46.109.697.105.2.004.401-.025.593-.084.147-.046.284-.12.404-.217a.894.894 0 0 0 .237-.307.971.971 0 0 0 .07-.37.643.643 0 0 0-.167-.46 1.485 1.485 0 0 0-.447-.315 3.903 3.903 0 0 0-.634-.237l-.698-.23a6.67 6.67 0 0 1-.732-.294 2.685 2.685 0 0 1-.635-.433 1.927 1.927 0 0 1-.446-.635 2.222 2.222 0 0 1-.167-.908c.001-.324.068-.644.195-.942.134-.3.331-.567.579-.782.28-.236.601-.416.948-.53a3.95 3.95 0 0 1 1.311-.203 4.055 4.055 0 0 1 1.514.28 3.41 3.41 0 0 1 1.137.697l-.419.691zM292.418 88.94v6.71h.363a.565.565 0 0 0 .537-.266l2.001-2.464c.08-.099.173-.184.28-.252a.787.787 0 0 1 .39-.09h1.806l-2.496 2.988c-.086.107-.177.21-.272.307a2.002 2.002 0 0 1-.307.237c.108.076.204.168.286.272.083.105.167.217.25.343l2.679 3.902h-1.744a.892.892 0 0 1-.383-.076.74.74 0 0 1-.28-.273l-2.05-3.05a.6.6 0 0 0-.23-.231.92.92 0 0 0-.356-.056h-.439v3.686h-1.932V88.94h1.897zM303.2 99.14h2.267V92.53v-.81l-1.625 1.396a.641.641 0 0 1-.21.119c-.069.01-.14.01-.209 0a.634.634 0 0 1-.286-.063.76.76 0 0 1-.195-.154l-.607-.838 3.453-2.946h1.59v9.907h2.036v1.452h-6.277l.063-1.452z"/>
        <path fill="#F4BDB3" d="M362.94 96.438l-.327-.146a5.805 5.805 0 0 0-1.004-.377 8.674 8.674 0 0 0-1.479-.098 8.028 8.028 0 0 1-4.52-1.348c-.397-.314-.94-.39-1.206.175-.265.566.133 1.229.426 1.648a10.77 10.77 0 0 0 2.015 2.339c1.018.81 2.162.942 3.292 1.438 1.304.58 2.357 1.808 3.438 2.716 1.081.907 3.627 2.87 4.457 1.166.627-1.306.076-3.491-.649-4.685a5.337 5.337 0 0 0-1.625-1.508c-.9-.518-1.843-.96-2.817-1.32zM425.68 79.773c0-.049-.084-.077-.119-.112l.196.461a.622.622 0 0 0-.077-.349zM487.973 304.179a117.55 117.55 0 0 0-20.553-16.442c4.045-4.189 1.576-8.036 4.268-12.937l9.018 4.552c2.427 5.32 8.369 9.544 12.274 14.473a5.49 5.49 0 0 1 1.325 2.325 3.494 3.494 0 0 1-.544 2.095 1929.615 1929.615 0 0 1-3.11 6.2 1.144 1.144 0 0 1-.698.697c-.676.175-1.457-.432-1.98-.963z"/>
        <path fill="#FFF" d="M476.11 130.258c.128-.319.235-.645.32-.978.914-3.49-1.708-6.981-2.503-10.284-.976-4.056-.865-8.329-2.448-12.239s-3.654-7.68-7.211-10.207a19.858 19.858 0 0 0-7.532-3.17c-2.588-.516-4.792-.474-7.302-1.543-1.277-.544-2.058-.789-2.476-2.094-.32-.985.411-2.793-.293-3.624-1.074-1.312-3.675 1.103-4.708 1.78a13.364 13.364 0 0 1-3.633 1.795c-1.974.538-3.822-.216-5.789-.223-1.108 0-2.322-.252-3.417.048-2.092.573-1.165 2.507-1.939 3.96-.215.339-.51.622-.858.823a11.15 11.15 0 0 1-5.411 1.836c-1.653.084-3.083.433-4.262 1.76-2.503 2.792-1.771 6.695-1.074 10.067a150.876 150.876 0 0 0 4.561 16.016c1.479 4.552 1.5 10.291 6.556 12.47 4.457 1.92 9.192 2.932 13.948 3.811 6.347 1.187 12.986 1.467 19.298-.041 5.237-1.25 13.885-4.336 16.173-9.963z"/>
        <path fill="#EBF7F7" d="M473.976 258.735c-1.581-1.457-3.15-2.93-4.708-4.42a363.387 363.387 0 0 1-12.553-12.566c-3.034-3.205-7.77-6.773-8.718-11.255-.697-3.24-.328-6.695-1.067-9.984-1.074-4.782-.83-11.799 1.353-16.1 1.304-2.569.551-4.538.314-7.233a705.018 705.018 0 0 1-.698-8.957c-.341-4.992.496-9.314-4.275-11.87-4.77-2.554-10.824-1.689-15.95-3.155l-.306-.09c-3.09-.86-10.692-2.982-13.251-.629-3.975 3.68-1.73 10.473-1.395 15.032a105.88 105.88 0 0 1-.112 21.231c-1.018 8.448-1.22 16.98-2.183 25.434-1.478 13.035 16.04 25.456 23.922 33.75 6.09 6.349 12.181 12.69 18.272 19.025 5.419 5.648 9.478 11.045 16.09 15.227a1.631 1.631 0 0 0 2.552-.223 169.898 169.898 0 0 1 14.06-13.035c3.8-3.023 12.476-9.139 8.745-13.586-2.162-2.577-6.82-5.006-9.547-7.324a295.573 295.573 0 0 1-10.545-9.272z"/>
        <path fill="#F4BDB3" d="M409.953 326.08a112.4 112.4 0 0 0 6.214-24.435c5.238 1.885 7.623-1.795 12.958-1.397l-.404 9.67c-3.683 4.189-5.015 11.073-7.77 16.421a5.201 5.201 0 0 1-1.506 2.094 3.393 3.393 0 0 1-2.016.336l-6.625-.266a1.122 1.122 0 0 1-.879-.32c-.446-.51-.223-1.44.028-2.102z"/>
        <path fill="#2F355B" d="M423.085 321.996c.353.07.594.397.558.754-.118 1.439-.418 5.104-.697 7.82-.258 2.604-2.28 4.545-4.52 4.343l-29.883-2.681c-1.395-.126-1.556-4.888 2.49-5.586l14.324-3.49 2.874-1.788c.3-.112 2.448-2.227 3.87 1.047 1.514 3.491 4.136.88 5.95-.188 1.485-.873 2.161-.698 3.66-.517l1.374.286zM488.552 289.113a.767.767 0 0 1 .976-.245c1.395.698 4.882 2.52 7.49 3.903 2.609 1.382 3.585 4.14 2.462 6.283l-14.973 28.625c-.698 1.397-5.524-.467-4.513-4.775l2.406-15.716-.585-3.602c0-.336-1.214-3.345 2.629-3.421 4.08-.077 2.573-3.757 2.26-5.998-.259-1.843.18-2.457.99-3.868l.858-1.186z"/>
        <path fill="#FFF" d="M445.751 266.799v-.098c.865-7.52 3.09-14.626 3.746-22.341.697-8.455 1.157-17.07 3.933-25.17 2.978-8.67 18.28-28.457 9.143-37.128-11.159-10.577-27.332-21.357-42.96-23.165l2.559 4.328c-1.046 5.467-1.025 11.171-1.095 16.756-.14 11.548-.697 23.096-1.513 34.616-.398 5.543-.586 11.22-1.395 16.756-.698 4.943.237 9.223-.126 14.152a34.082 34.082 0 0 1-1.262 6.283 13159.818 13159.818 0 0 0-9.122 34.21c-1.45 5.46-2.232 11.102-4.073 16.457-1.507 4.37-4.38 9.118.627 12.28 2.518 1.536 23.37 5.725 24.905 2.304 7.246-16.086 14.583-32.534 16.633-50.24z"/>
        <path fill="#DCF2F4" d="M434.76 89.813h-.125a17.884 17.884 0 0 0-2.434-.328c-.97 0-2.009-.063-2.971 0a2.092 2.092 0 0 0-1.632.844c-.76 1.208.314 2.793-.251 4.127-.76 1.78-1.395 3.044-1.583 5.047-.398 5.034-.196 10.11-.565 15.15a64.607 64.607 0 0 1-.663 7.06c-.167.928-1.346 3.001-.607 3.832.74.83 2.706-2.5 3.09-3.107a17.555 17.555 0 0 0 2.253-5.285c.878-3.7.809-8.155 3.842-10.438.795-.593 1.765-.998 2.35-1.794.921-1.243.565-3.114-.474-4.266-1.039-1.152-2.566-1.822-2.86-3.274-.292-1.452.956-2.793 2.19-3.666a22.413 22.413 0 0 1 5.12-2.61c.74-.273 3.264-1.006 2.601-2.284a.697.697 0 0 0-.697-.335c-.268.03-.527.109-.767.23a10.96 10.96 0 0 1-5.817 1.097z"/>
        <path fill="#2FC8AD" d="M471.87 161.5c-.035-.153-.07-.313-.112-.467a62.36 62.36 0 0 1-1.834-11.464c-.237-4.189-1.918-8.287-2.134-12.567-.321-6.283 2.664-13.07 2.79-19.744.062-4.37-.224-8.734-.593-13.09-.112-1.32.355-2.626.174-3.904a7.152 7.152 0 0 0-2.05-4.042 10.09 10.09 0 0 0-2.623-1.578 9.611 9.611 0 0 0-1.248-.482c-2.79-.9-6.005-.824-8.85-1.291-2.441-.405-4.84-1.48-7.246-1.816-3.585-.495-4.185 3.973-5.357 6.556-4.38 9.998-12.211 22.377-12.63 33.45-.167 4.342-.332 8.687-.495 13.034-.132 3.491-.328 7.234-2.273 10.166-1.751-4.3-2.009-9.076-2.246-13.684-.614-12.002 1.597-23.04 2.294-35l.586-10.165a9.785 9.785 0 0 0-.042-2.164.761.761 0 0 0-.223-.496.815.815 0 0 0-.544-.119 57.943 57.943 0 0 0-7.992.88c-3.048.454-6.89.46-8.641 3.38-2.023 3.378-2.873 7.379-5.098 10.765-1.702 2.59-3.738 5.055-4.68 8.015-.39 1.215-.746 2.68-1.939 3.128-1.192.447-2.322-.342-3.284-1.068l-17.959-13.559c-2.343-1.766-5.712-4.796-7.88-1.752-1.681 2.352-2.274 5.69-3.202 8.378-.474 1.396 6.877 10.102 8.767 12.001l14.924 15.01c2.023 2.04 4.645 4.672 7.783 4.483 3.746-.223 6.04-2.143 8.432-4.712.44-.468.998-.985 1.625-.845.371.119.688.366.893.698 4.93 4.943 2.831 13.119 1.604 19.13-1.737 8.531-4.784 17.014-7.35 25.371-.204.47-.241.994-.105 1.487.292.699 1.171.901 1.924.985 15.225 1.675 30.226 3.986 45.66 3.714 6.41-.105 14.96.698 21.104-1.278 3.27-1.033 2.218-3.393 1.946-6.758s-.698-6.64-.9-9.977a54.088 54.088 0 0 0-.976-8.608z"/>
        <path fill="#2ABA9E" d="M400.07 138.67c-.264-1.535.538-3.05 1.507-4.265 1.486-1.864 3.41-3.344 4.798-5.278a12.142 12.142 0 0 0 2.225-6.13c-.004-.39.072-.778.223-1.138a.837.837 0 0 1 .97-.454c.655.251.383 1.229.042 1.843A14.884 14.884 0 0 0 408 130.16c0 2.416.51 4.943-.397 7.184a2.01 2.01 0 0 1-.544.838 2.39 2.39 0 0 1-.962.398l-4.938 1.236a4.229 4.229 0 0 1-2.092.146 1.396 1.396 0 0 1-1.095-1.599M462.427 134.921c-.565-2.855-1.13-5.725-1.94-8.524a23.345 23.345 0 0 0-3.605-7.813c-1.716-2.227-4.184-3.84-6.632-3.79a2.838 2.838 0 0 0-2.734 1.612c-.698 1.704.655 3.7 2.001 4.887 1.346 1.187 2.978 2.388 3.292 4.294.467 2.855-2.406 5.467-1.346 8.14.488 1.25 1.674 1.907 2.79 2.395 6.43 2.856-1.841 4.706 1.82 8.127a5.283 5.283 0 0 0 3.87 1.529c2.728-.202 4.067-2.388 3.6-5.341l-1.116-5.516z"/>
        <path fill="#4D82C1" d="M389.992 121.68l116.715 34.216a9.429 9.429 0 0 1 6.398 11.695l-7.718 26.428a9.429 9.429 0 0 1-11.697 6.403l-.006-.002-116.713-34.222a9.429 9.429 0 0 1-6.397-11.695l7.718-26.428a9.429 9.429 0 0 1 11.702-6.401z"/>
        <path fill="#FFF" fill-rule="nonzero" d="M421.502 154.002c-.133.472-.32.927-.558 1.355a5.962 5.962 0 0 1-.795 1.117 5.342 5.342 0 0 1-2.176 1.452l1.876 3.82-1.666-.49a2.224 2.224 0 0 1-.621-.293 1.32 1.32 0 0 1-.425-.516l-1.081-2.228a6.765 6.765 0 0 1-.83-.07 7.831 7.831 0 0 1-.851-.195 6.149 6.149 0 0 1-2.134-1.075 5.423 5.423 0 0 1-1.395-1.676 5.59 5.59 0 0 1-.607-2.094 6.652 6.652 0 0 1 1.297-4.434 5.442 5.442 0 0 1 1.64-1.438 5.366 5.366 0 0 1 2.091-.65 6.103 6.103 0 0 1 2.372.245 5.947 5.947 0 0 1 2.092 1.082 5.29 5.29 0 0 1 1.395 1.67c.34.65.545 1.362.607 2.094a6.43 6.43 0 0 1-.23 2.325zm-2.092-.607a5.207 5.207 0 0 0 .23-1.676 3.494 3.494 0 0 0-.328-1.396 2.98 2.98 0 0 0-.857-1.075 3.695 3.695 0 0 0-1.353-.698 3.846 3.846 0 0 0-1.514-.16 3.045 3.045 0 0 0-1.31.44c-.411.261-.764.603-1.04 1.004a5.757 5.757 0 0 0-.941 3.219c.013.484.127.96.334 1.396.205.419.5.786.865 1.076.413.324.888.561 1.395.698a3.846 3.846 0 0 0 1.513.16c.46-.05.902-.2 1.297-.44.41-.26.761-.602 1.033-1.005.314-.473.55-.994.697-1.543h-.02z"/>
        <path fill="#FFF" d="M425.36 152.662l-1.438 4.887a1.733 1.733 0 0 0 0 1.194c.167.353.486.61.865.698.315.092.647.11.97.05.339-.07.665-.19.969-.357l1.632-5.585 1.855.544-2.253 7.722-1.136-.335a.468.468 0 0 1-.377-.475l.056-.656a6.33 6.33 0 0 1-.628.293 3.038 3.038 0 0 1-1.339.217 3.177 3.177 0 0 1-.74-.133 2.789 2.789 0 0 1-1.06-.545 2.353 2.353 0 0 1-.634-.844 2.67 2.67 0 0 1-.23-1.076c-.002-.416.059-.83.181-1.228l1.395-4.888 1.911.517z"/>
        <path fill="#FFF" fill-rule="nonzero" d="M435.43 155.483c.46.127.892.337 1.276.621.352.266.645.604.858.991.209.407.335.85.37 1.306a4.466 4.466 0 0 1-.307 1.899.6.6 0 0 1-.133.202.3.3 0 0 1-.167.07.543.543 0 0 1-.224 0l-4.763-1.396a2.795 2.795 0 0 0 .126 1.934c.283.496.757.854 1.31.991.263.082.535.124.81.126.215-.006.43-.03.641-.07l.496-.105a.822.822 0 0 1 .39 0 .565.565 0 0 1 .181.105.426.426 0 0 1 .105.168l.342.838a3.248 3.248 0 0 1-.865.404c-.297.088-.604.14-.914.154a3.992 3.992 0 0 1-.913-.042 6.424 6.424 0 0 1-.858-.181 4.343 4.343 0 0 1-1.395-.699 3.49 3.49 0 0 1-.97-1.145 3.71 3.71 0 0 1-.425-1.529 5.039 5.039 0 0 1 .23-1.87 4.47 4.47 0 0 1 .698-1.397 3.563 3.563 0 0 1 2.49-1.466 3.846 3.846 0 0 1 1.61.09zm-.349 1.34a1.79 1.79 0 0 0-1.395.084 2.36 2.36 0 0 0-.97 1.13l3.488 1.027c.068-.226.1-.462.097-.698 0-.223-.045-.444-.132-.65a1.48 1.48 0 0 0-.405-.53 1.729 1.729 0 0 0-.683-.363z"/>
        <path fill="#FFF" d="M444.384 159.881a.697.697 0 0 1-.209.126.418.418 0 0 1-.223 0 .697.697 0 0 1-.272-.16c-.084-.078-.188-.175-.307-.273a3.487 3.487 0 0 0-.411-.307 2.481 2.481 0 0 0-.593-.252 1.393 1.393 0 0 0-.928 0 .74.74 0 0 0-.495.517.615.615 0 0 0 0 .46c.088.162.204.306.342.427.17.15.351.286.544.405l.62.426c.217.153.42.307.614.474.189.167.353.36.489.573.134.212.225.45.265.698.04.283.017.572-.07.845a2.794 2.794 0 0 1-.502.97 2.441 2.441 0 0 1-.837.642 3.087 3.087 0 0 1-1.123.252 4.556 4.556 0 0 1-1.395-.196 5.13 5.13 0 0 1-.753-.3 4.985 4.985 0 0 1-.697-.412 4.793 4.793 0 0 1-.558-.495 3.197 3.197 0 0 1-.412-.531l.635-.58a.592.592 0 0 1 .858.049c.083.098.18.203.292.314.131.13.27.248.419.357.214.139.45.24.697.3.19.058.388.087.586.084.156-.002.31-.033.453-.091a.851.851 0 0 0 .489-.559.65.65 0 0 0-.035-.488 1.354 1.354 0 0 0-.342-.426 3.488 3.488 0 0 0-.537-.412c-.21-.133-.418-.28-.635-.426a6.81 6.81 0 0 1-.62-.489 2.604 2.604 0 0 1-.488-.586 2.096 2.096 0 0 1-.252-.74 2.48 2.48 0 0 1 .551-1.767c.207-.252.47-.453.768-.586a2.92 2.92 0 0 1 1.06-.245c.446-.016.891.043 1.318.175.504.143.977.38 1.395.698.359.276.66.62.885 1.012l-.586.517zM447.042 167.561a2.092 2.092 0 0 1-1.395-1.02 2.278 2.278 0 0 1-.084-1.73l1.262-4.309-.78-.23a.405.405 0 0 1-.238-.174.433.433 0 0 1 0-.329l.216-.733 1.298.16 1.01-1.996a.405.405 0 0 1 .21-.195.488.488 0 0 1 .3 0l.962.286-.697 2.43 2.03.593-.391 1.326-2.03-.6-1.22 4.19a.804.804 0 0 0 0 .613c.08.173.234.301.418.35.1.029.203.043.307.041h.223l.182-.041a.258.258 0 0 1 .146 0 .23.23 0 0 1 .126.076c.03.051.056.105.076.16l.293 1.07a2.975 2.975 0 0 1-1.08.237 3.532 3.532 0 0 1-1.144-.175z"/>
        <path fill="#FFF" fill-rule="nonzero" d="M454.609 161.229l-2.253 7.728-1.862-.537 2.26-7.722 1.855.53zm.941-2.165a1.117 1.117 0 0 1-.23.42c-.103.12-.229.22-.37.292-.14.078-.294.126-.453.14-.161.021-.325.01-.481-.035a1.222 1.222 0 0 1-.865-1.026 1.027 1.027 0 0 1 0-.482c.045-.16.124-.31.23-.44.099-.124.222-.226.363-.3.138-.078.29-.128.446-.147.162-.02.326-.006.481.042a1.27 1.27 0 0 1 .746.593c.078.141.128.295.147.455.029.162.024.328-.014.488zM460.034 162.674a4.49 4.49 0 0 1 1.486.74c.403.306.734.697.97 1.145.238.456.376.959.404 1.473a5.06 5.06 0 0 1-.21 1.724 4.952 4.952 0 0 1-.76 1.578c-.3.42-.685.772-1.13 1.034-.44.251-.93.404-1.436.446a4.39 4.39 0 0 1-1.646-.181 4.462 4.462 0 0 1-1.492-.74 3.4 3.4 0 0 1-.97-1.152 3.675 3.675 0 0 1-.411-1.48c-.03-.587.04-1.175.209-1.739.16-.564.416-1.096.76-1.57a3.733 3.733 0 0 1 1.137-1.02 3.561 3.561 0 0 1 1.437-.44 4.563 4.563 0 0 1 1.652.182zm-1.904 6.528a1.693 1.693 0 0 0 1.612-.23 3.359 3.359 0 0 0 1.018-1.76c.24-.654.273-1.365.097-2.039a1.695 1.695 0 0 0-1.234-1.075 1.721 1.721 0 0 0-1.639.237 4.29 4.29 0 0 0-1.109 3.791c.203.556.678.967 1.255 1.09v-.014z"/>
        <path fill="#FFF" d="M462.998 172.071l2.26-7.722 1.137.336c.22.05.375.248.37.474l-.05.65c.2-.114.407-.212.621-.294.21-.079.428-.137.649-.174.23-.043.464-.057.697-.042a3.4 3.4 0 0 1 .747.14c.384.106.743.292 1.053.544.277.224.497.512.641.838.145.34.22.705.223 1.075.009.416-.05.831-.174 1.229l-1.437 4.887-1.855-.544 1.437-4.888a1.761 1.761 0 0 0 0-1.187 1.27 1.27 0 0 0-.872-.698 2.041 2.041 0 0 0-.962-.042c-.34.068-.667.188-.97.356l-1.639 5.586-1.876-.524zM481.215 165.466c.47.133.913.345 1.311.629.357.25.659.57.886.942.217.36.354.763.404 1.18a3.2 3.2 0 0 1-.125 1.34c-.107.38-.276.74-.502 1.062-.22.31-.475.594-.76.845a7.17 7.17 0 0 1-.956.698l-1.095.642-3.187 1.788c.252-.002.503.014.753.048.236.023.47.068.697.133l2.79.817c.18.043.336.156.432.314.084.152.1.332.042.496l-.32 1.117-7.463-2.185.181-.622a1.09 1.09 0 0 1 .196-.363c.096-.129.22-.234.362-.307l4.269-2.339c.355-.202.697-.398.976-.593.275-.175.532-.376.767-.6.216-.196.406-.42.565-.664.156-.242.276-.505.356-.782.07-.226.1-.462.09-.698a1.44 1.44 0 0 0-.181-.6 1.396 1.396 0 0 0-.411-.447 1.966 1.966 0 0 0-.621-.294 1.804 1.804 0 0 0-1.2 0c-.36.148-.664.405-.871.733a.81.81 0 0 1-.37.343.697.697 0 0 1-.453 0 1.394 1.394 0 0 1-.244-.098l-.928-.461c.204-.46.487-.88.837-1.243.316-.317.69-.57 1.102-.747a3.4 3.4 0 0 1 1.283-.272c.47-.006.937.058 1.388.188z"/>
        <path fill="#F4BDB3" d="M448.513 193.798c.208.132.453.19.698.168.305-.085.592-.222.85-.405 1.395-.74 3.215.23 4.701-.342 1.806-.698 2.057-3.107 2.092-5.048.116-3.332.54-6.647 1.27-9.9.333-1.226.543-2.482.627-3.75 0-1.55-.404-3.609-1.457-4.81-1.319-1.487-2.009-1.026-4.018-.984-.38-.022-.76.055-1.101.223a2.31 2.31 0 0 0-.593.699c-3.292 5.033-6.34 9.774-9.157 15.178a5.918 5.918 0 0 0-.83 2.304c-.098 1.543 1.018 2.925 2.287 3.812 1.27.886 2.748 1.459 3.962 2.422.213.16.436.304.67.433z"/>
        <path fill="#2FC8AD" d="M447.927 168.908a33.53 33.53 0 0 0-1.98 4.44l9.659 6.62a12.361 12.361 0 0 0 3.354 1.829 4.264 4.264 0 0 0 3.676-.405 6.325 6.325 0 0 0 1.764-2.437c2.643-5.23 5.58-10.284 8.404-15.409 3.152-5.704 6.563-10.577 8.704-16.846l1.011-2.954c.69-1.75 1.13-3.587 1.311-5.46.223-4.621-2.204-9.948-3.564-14.312-1.61-5.173-3.487-10.256-5.46-15.297-1.974-5.04-3.146-11.415-8.606-13.726-4.75-2.045-7.463 2.646-8.858 6.416-3.807 10.27 2.009 22.677 4.54 32.968.412 1.655.817 3.372.51 5.04a12.386 12.386 0 0 1-1.437 3.527 200.62 200.62 0 0 0-7.532 15.848c-1.5 3.568-3.696 6.716-5.496 10.158z"/>
        <ellipse cx="193.211" cy="130.705" fill="#006973" rx="2.79" ry="2.793"/>
        <path fill="#F66" d="M199.307 275.261h8.362v8.371h-8.362z"/>
        <ellipse cx="370.863" cy="217.857" fill="#FCD685" rx="4.003" ry="4.008"/>
        <path fill="#DCF2F4" d="M43.142 282.277a1.047 1.047 0 1 0-.001-2.093 1.047 1.047 0 0 0 .001 2.093z"/>
    </g>
</svg>
