<svg xmlns="http://www.w3.org/2000/svg" xmlns:xlink="http://www.w3.org/1999/xlink" width="620" height="479" viewBox="0 0 620 479">
    <defs>
        <filter id="a" width="153.5%" height="176.9%" x="-26.8%" y="-38.4%" filterUnits="objectBoundingBox">
            <feGaussianBlur in="SourceGraphic" stdDeviation="8"/>
        </filter>
        <path id="b" d="M301.254 137.987v2.482h-1.557v-6.71h2.183c.486 0 .9.05 1.242.15.342.1.621.238.838.416.216.178.374.389.472.631.098.243.147.507.147.792 0 .218-.029.424-.087.618a1.869 1.869 0 0 1-.26.536c-.115.164-.257.311-.424.44a2.25 2.25 0 0 1-.578.318c.104.052.202.116.292.193.091.077.17.17.238.281l1.427 2.335h-1.409c-.261 0-.448-.098-.562-.295l-1.114-1.948a.47.47 0 0 0-.173-.184.578.578 0 0 0-.279-.055h-.396zm0-1.073h.626c.212 0 .393-.027.542-.081a.978.978 0 0 0 .366-.223.85.85 0 0 0 .207-.334c.043-.128.065-.265.065-.412 0-.295-.096-.526-.288-.691-.192-.166-.49-.249-.892-.249h-.626v1.99zm6.614-1.295c.316 0 .606.05.868.148.263.098.488.24.677.428.189.187.336.417.442.689.106.271.16.58.16.923 0 .108-.005.195-.015.263a.416.416 0 0 1-.05.16.193.193 0 0 1-.1.084.464.464 0 0 1-.158.023h-2.754c.046.399.167.688.363.868.197.18.45.27.76.27.166 0 .309-.02.429-.06.12-.04.226-.085.32-.134.093-.05.18-.094.258-.134.078-.04.16-.06.246-.06.114 0 .2.042.258.125l.415.511a2.122 2.122 0 0 1-.477.412c-.17.106-.346.19-.525.25-.18.059-.36.1-.54.123-.179.023-.35.035-.513.035-.334 0-.648-.055-.941-.164a2.164 2.164 0 0 1-.77-.485 2.293 2.293 0 0 1-.52-.802 2.994 2.994 0 0 1-.191-1.114c0-.32.054-.622.163-.908.11-.285.266-.536.47-.75.204-.215.451-.386.742-.512.29-.126.618-.189.983-.189zm.028.986c-.274 0-.487.078-.64.233-.154.155-.256.378-.305.67h1.783a1.26 1.26 0 0 0-.044-.332.804.804 0 0 0-.143-.288.726.726 0 0 0-.26-.205.89.89 0 0 0-.391-.078zm6.383.221a.79.79 0 0 1-.124.124.275.275 0 0 1-.17.047.367.367 0 0 1-.192-.051 39.45 39.45 0 0 0-.191-.113 1.45 1.45 0 0 0-.249-.113 1.07 1.07 0 0 0-.354-.05.994.994 0 0 0-.454.096.84.84 0 0 0-.315.277c-.083.12-.145.266-.185.44-.04.173-.06.369-.06.587 0 .457.089.809.265 1.054a.85.85 0 0 0 .73.369c.166 0 .297-.02.394-.062.097-.042.179-.088.246-.139l.187-.14a.345.345 0 0 1 .214-.064c.114 0 .2.041.258.124l.415.511a2.255 2.255 0 0 1-.965.661 2.58 2.58 0 0 1-.514.124c-.172.023-.34.035-.502.035-.292 0-.57-.055-.836-.166a2.048 2.048 0 0 1-.7-.481 2.305 2.305 0 0 1-.479-.776 2.907 2.907 0 0 1-.177-1.05c0-.344.051-.666.154-.965.103-.3.255-.559.456-.779.201-.22.45-.392.746-.518s.64-.189 1.03-.189c.374 0 .703.06.985.18.283.12.538.295.765.525l-.378.502zm3.16-1.207c.362 0 .692.057.99.17.298.114.553.277.767.49a2.2 2.2 0 0 1 .497.77c.118.303.177.643.177 1.02 0 .381-.059.725-.177 1.03a2.214 2.214 0 0 1-.497.778 2.182 2.182 0 0 1-.767.493 2.725 2.725 0 0 1-.99.173c-.366 0-.698-.058-.998-.173-.299-.115-.557-.28-.773-.493a2.182 2.182 0 0 1-.502-.778 2.833 2.833 0 0 1-.178-1.03c0-.377.06-.717.178-1.02.118-.302.285-.56.502-.77.216-.213.474-.376.773-.49.3-.113.632-.17.998-.17zm0 3.865c.328 0 .57-.116.725-.348.155-.232.233-.584.233-1.057s-.078-.825-.233-1.055c-.155-.23-.397-.345-.725-.345-.338 0-.585.115-.742.345-.157.23-.235.582-.235 1.055s.078.825.235 1.057c.157.232.404.348.742.348zm3.214.985v-4.776h.848c.07 0 .13.006.177.019a.311.311 0 0 1 .12.057c.032.026.057.06.074.104a.934.934 0 0 1 .043.156l.079.447a2.34 2.34 0 0 1 .59-.64c.217-.157.455-.235.713-.235.218 0 .393.052.525.157l-.184 1.05c-.012.064-.037.11-.074.136a.25.25 0 0 1-.147.039.978.978 0 0 1-.184-.021c-.071-.014-.16-.02-.268-.02-.374 0-.669.199-.884.598v2.93h-1.428zm7.158 0a.394.394 0 0 1-.224-.06.32.32 0 0 1-.126-.18l-.11-.363a2.8 2.8 0 0 1-.3.276 1.79 1.79 0 0 1-.73.352c-.14.033-.291.049-.454.049-.249 0-.479-.055-.69-.166a1.592 1.592 0 0 1-.549-.479 2.417 2.417 0 0 1-.361-.767 3.724 3.724 0 0 1-.132-1.034c0-.356.05-.687.148-.992.098-.306.237-.57.416-.792.18-.223.396-.397.648-.523.251-.126.53-.189.833-.189a1.6 1.6 0 0 1 .624.108c.17.072.325.167.463.284v-2.418h1.428v6.894h-.884zm-1.447-1.022c.105 0 .2-.01.284-.03a.996.996 0 0 0 .433-.224c.063-.055.125-.12.186-.193v-2.026a.944.944 0 0 0-.746-.323.841.841 0 0 0-.364.078.741.741 0 0 0-.288.251 1.337 1.337 0 0 0-.19.45 2.79 2.79 0 0 0-.07.667c0 .252.019.464.055.636.037.172.089.31.155.417a.599.599 0 0 0 .237.228.68.68 0 0 0 .308.069z"/>
    </defs>
    <g fill="none" fill-rule="evenodd">
        <path fill="#EBF7F7" d="M602.86 207.264c-19.082-35.428-50.727-63.261-87.431-76.809-26.217-9.665-54.043-12.046-81.294-16.772-22.327-3.854-43.712-11.018-66.223-13.944-21.902-2.835-40.984-12.16-61.944-18.827-25.856-8.227-53.03-12.72-80.132-10.31-47.56 4.251-95.516 33.374-112.224 80.232-10.777 30.227-3.578 62.042-17.572 91.186-10.629 22.143-26.713 41.054-36.612 63.594-20.903 47.609-4.252 101.517 30.575 136.173 23.128 23.029 54.418 34.578 86.027 36.562 34.012 2.126 65.621-9.296 98.648-15.694 28.18-5.456 56.685-9.58 85.319-10.494 46.766-1.488 95.409 13.874 141.6 3.585 44.797-9.984 75.506-44.817 96.926-85.319 24.658-46.61 29.633-116.142 4.337-163.163z"/>
        <path fill="#FFF" d="M243.607.27c.869.637 1.75 1.263 2.643 1.877l1.318-.177-3.961-1.7z"/>
        <path fill="#DCF2F4" d="M514.813 49.012c-28.294-16.014-61.852-21.378-93.922-20.846-31.455.534-62.916.673-94.381.418-28.655-.227-54.638-10.147-82.903-13.392C169.107 6.979 79.87 44.158 52.37 118.643c-7.731 20.79-6.264 43.514-12.252 64.721-4.124 14.604-16.403 22.752-25.126 34.274-17.785 23.482-18.387 59.137-7.199 85.44 11.755 27.634 36.35 45.582 63.609 56.231 35.244 13.768 75.76 14.703 111.097.71 51.414-20.33 88.096-67.259 137.959-91.137 30.638-14.675 64.77-19.954 98.2-25.962 33.43-6.01 67.499-13.222 96.366-31.093 27.45-17.005 50.67-44.434 51.421-78.063.78-34.33-22.398-68.207-51.633-84.752z"/>
        <path fill="#A36550" d="M444 290.547V268h11.94v22.547z"/>
        <path fill="#2F355B" d="M457.097 284.16c.37.03.653.338.652.708 0 1.474.135 5.23.163 8.014 0 2.679-1.814 4.868-4.11 4.91l-30.666.582c-1.467 0-2.126-4.812 1.913-5.931l14.171-5.151 2.721-2.126c.283-.149 2.24-2.53 4.046.63 1.927 3.366 4.301.44 6.023-.843 1.417-1.056 2.126-.97 3.663-.935l1.424.142z"/>
        <path fill="#A36550" d="M477 295.547V273h11.94v22.547z"/>
        <path fill="#2F355B" d="M489.097 292.16c.37.03.653.338.652.708 0 1.474.135 5.23.163 8.014.029 2.785-1.814 4.868-4.11 4.91l-30.666.582c-1.467 0-2.126-4.812 1.913-5.931l14.171-5.151 2.721-2.126c.283-.149 2.24-2.53 4.046.63 1.927 3.366 4.301.433 6.023-.843 1.417-1.056 2.126-.97 3.663-.935l1.424.142z"/>
        <path fill="#602E3F" d="M440.767 263.532l-.057-.376c.232.064.47.109.709.135l-.652.24z"/>
        <path fill="#FFF" d="M491.749 229.23c-.475-6.056-.95-12.12-.964-18.2 0-15.619 5.052-32.063 1.013-47.366a53.736 53.736 0 0 0-3.592-9.879c-.447-.686-5.485-.038-6.186 0-4.72.039-9.438.124-14.172.208-5.52.093-11.046.085-16.566.047-1.863 0-6.193-.98-7.794-.093-2.013 1.094-1.92 4.069-2.424 6.665l-7.142 36.64c-.772 3.977-.79 14.71-1.236 18.748-.935 8.476-.018 9.525.088 17.847.106 8.322.553 16.883.66 25.328.063 5.34-1.276 13.546.864 18.578 3.167 7.436 20.456.994 26.925 3.9 2.438-4.308 1.488-10.511 1.063-15.281-.63-7.012-.29-14.117-1.785-20.92-1.616-7.383-1.672-14.973-1.374-22.586.113-3.02 2.252-24.54 3.16-25.866 2.663-3.899.87.638.998 3.335.213 3.421-.425 21.569-.255 25.445.149 3.413 1.247 6.68 2.126 9.97 2.239 8.477 3.11 22.523 3.543 31.339.106 2.273 0 23.194 2.055 23.116 5.786-.19 11.566-.613 17.338-1.271a8.427 8.427 0 0 0 3.196-.824c5.477-3.083 3.543-26.392 3.62-32.68.107-8.7-2.493-17.546-3.16-26.2z"/>
        <path fill="#A36550" d="M473.326 62.546c-.227-.178-.46-.348-.709-.518-1.417-.963-4.761-2.373-5.548-3.953-1.027-2.055-3.11-1.418-4.91-1.226a4.315 4.315 0 0 0-1.418.29c-.439.216-.84.5-1.19.843a22.61 22.61 0 0 0-4.407 4.677 7.086 7.086 0 0 0-.893 3.28c-.02.574-.086 1.145-.198 1.708-.142.518-.418 1.006-.589 1.517-.333.985-.85 2.253-.51 3.28.488 1.261.83 2.573 1.02 3.912.1 1.055 0 2.125.128 3.188.05.943.453 1.833 1.127 2.494.6.323 1.274.484 1.955.468 1.765.092 2.615-.149 3.458 1.516.843 1.666.447 4.415-.51 6.023-.708 1.198-1.941 2.006-2.53 3.302-.949 2.126-.375 4.755.093 6.909 2.125 0 4.251-.241 6.327-.17 1.39.13 2.759.432 4.074.9 2.757.708 7.674.708 9.41-2.041.553-.9.355-2.792.404-3.79a60.179 60.179 0 0 0-.092-7.328c-.184-2.366-1.077-4.499-1.417-6.738-.411-2.834 1.85-5.669 2.055-8.468a9.665 9.665 0 0 0-.808-4.386 14.171 14.171 0 0 0-4.322-5.69z"/>
        <path fill="#7F5A4B" d="M478.222 83.406c.191-1.935.547-3.85 1.063-5.725.149-.539.276-1.276-.064-1.602a.709.709 0 0 0-.61-.12c-2.316.326-4.662-.34-5.49 3.125-.894 3.734-.745 7.921-1.68 11.712-.36 1.148-.56 2.34-.595 3.543l6.639-.645a.957.957 0 0 0 .914-.531c.094-.337.106-.692.036-1.035a40.14 40.14 0 0 1-.213-8.722z"/>
        <path fill="#735E5E" d="M452.494 77.85v.37a.709.709 0 0 0 0-.37z"/>
        <path fill="#3A3838" d="M477.577 55.765a18.019 18.019 0 0 0-5.668-3.012c-4.634-1.467-9.963-.616-14.767-.673a6.44 6.44 0 0 0-3.054.475 4.251 4.251 0 0 0-1.963 2.735c-.666 2.522-.63 6.47 2.664 6.873 2.707.333 5.47-2.126 8.284-1.183 1.46.474 2.317 2.395 2.756 3.6.255.814.255 3.117 1.368 3.407 1.785.454 2.36-2.21 4.407-1.367 3.181 1.31 1.53 4.719.44 6.717-.71 1.318-.121 2.934.481 4.308.067.197.187.371.347.503.141.076.295.124.454.142 2.218.34 4.683 1.417 6.42-.305 1.417-1.417 1.983-3.79 2.444-5.668 1.48-4.415 2.04-8.319-.617-12.273a18.968 18.968 0 0 0-3.996-4.28z"/>
        <path fill="#F3C174" d="M497.417 102.325a20.244 20.244 0 0 0-9.764-10.21c-6.377-3.076-12.372-3.16-18.557.46-3.147 1.835-5.634 1.608-9.028 1.63a6.044 6.044 0 0 1-3.132-.546 2.352 2.352 0 0 1-1.133-2.834c-.333.708-11.48 1.594-12.896 1.842-3.82.673-6.2 2.126-8.142 5.669-1.417 2.565-2.317 5.399-3.982 7.794-2.048 2.933-3.543 5.094-4.783 8.425.758.942 2.126.999 3.373.893 4.251-.376 8.304 3.62 11.337 6.377.514.413.946.917 1.276 1.488.32.783.464 1.627.425 2.473.255 7.22 2.487 17.973.177 25.052-.86 2.636-1.637 5.29-2.331 7.964-.397 1.53-.766 3.146-.383 4.684 1.17 4.591 7.086 3.146 10.444 3.351 5.017.305 10.034-.063 15.05-.063 5.017 0 10.246-.709 15.306-.447 2.94.142 8.327.923 10.911 1.757 2.615.845 2.814-13.998 2.615-17.824-.198-3.706-1.013-7.327-1.296-11.004-.447-5.846 3.968-6.654 6.171-11.153 1.793-3.664.213-8.85-.056-12.755-.206-2.954 0-5.945-.419-8.871a17.65 17.65 0 0 0-1.183-4.152z"/>
        <path fill="#E8B170" d="M474.034 120.202c-9.516-5.796-21.257-15.589-33.147-14.958-.9.05 2.027 4.195 2.353 4.492 1.325 1.226 2.834 1.821 4.464 2.643 3.776 1.935 6.058 5.322 8.368 8.673 2.72 3.947 5.463 7.795 8.07 11.862 2.736 4.251 6.116 8.368 10.8 10.246 3.585 1.417 8.219 1.19 11.336-1.29 2.743-2.203 7.688-5.668 6.895-9.686a.659.659 0 0 0-.156-.383c-1.028-1.048-3.798-.602-5.137-1.417-1.134-.708-1.835-1.955-2.792-2.834-3.181-2.955-7.376-5.258-11.054-7.348z"/>
        <path fill="#FFF" d="M481.687 88.48c-.39-1.099-1.764-1.475-2.615-2.29-1.219-1.169-1.771-2.231-3.195-.843-1.19 1.162-2.473 2.232-3.642 3.43-1.318 1.346-2.374 2.636-4.124 3.436a14.83 14.83 0 0 1-5.669 1.354 1.616 1.616 0 0 1-.638-.057 1.736 1.736 0 0 1-.574-.418 7.128 7.128 0 0 1-1.828-3.203c-.226-.857-2.409.617-2.614.907a6.037 6.037 0 0 0-.78 2.07l-.467 1.99a.879.879 0 0 0 0 .447c.078.17.207.314.368.41 2.26 1.616 4.55.192 6.93-.587.39-.139.79-.245 1.197-.32a4.599 4.599 0 0 1 3.168.568 12.903 12.903 0 0 1 1.466 1.899c1.212 1.417 2.757 2.466 4.642 1.509 1.587-.8 2.295-2.622 3.464-3.954 1.34-1.53 3.33-2.452 4.479-4.124a2.565 2.565 0 0 0 .432-2.225z"/>
        <path fill="#7F5A4B" d="M461.875 81.372c-1.516.447-3.018.376-4.563.624a.709.709 0 0 0-.34.127.255.255 0 0 0-.064.326h1.205c1.105 0 2.409.085 2.919 1.24.128.29.326 1.651.581 1.772.432.191 1.027-.843 1.176-1.113a26.82 26.82 0 0 1 1.417-2.373c.397-.574.844-1.113 1.198-1.715.248-.425.63-.857.843-1.276.213-.418-.07-.8-.595-.573-.48.272-.873.675-1.134 1.162-.293.524-.694.98-1.176 1.339-.467.216-.96.37-1.467.46z"/>
        <path fill="#A36550" d="M489.077 117.991c-1.332-1.318-3.132-2.232-4.882-.822-2.643 2.126-4.868 1.092-7.674-.708-7.56-4.882-14.809-10.31-23.227-13.548-1.877-.709-4.145-1.516-6.185-1.219a4.634 4.634 0 0 0-3.118 1.53 2.437 2.437 0 0 0 .085 2.757c.393.338.858.58 1.36.709.61.269 1.22.538 1.828.822a24.347 24.347 0 0 1 5.945 3.542c.539.468 1.035.978 1.538 1.488 1.878 1.914 3.84 3.777 5.576 5.818 3.614 4.251 6.725 8.92 10.827 12.712a29.76 29.76 0 0 0 5.938 4.3c1.355.815 2.85 1.37 4.408 1.637 1.417.15 3.139.943 4.534.503a7.71 7.71 0 0 0 2.573-1.608 69.332 69.332 0 0 0 3.464-3.146c.39-.315.685-.732.85-1.205a3.33 3.33 0 0 0-.162-1.594c-.893-3.727-.1-7-2.367-10.36a10.466 10.466 0 0 0-1.31-1.608zM437.67 117.942c-2.125-1.297-4.662-2.268-6.476-3.189-2.402-1.219-3.174.106-5.385.255-1.842.114-3.67-1.162-5.208-2.062-3.656-2.125-6.958-4.832-10.395-7.29-1.92-1.368-4.5-2.708-6.094-4.437-1.218-1.325-.56-3.457-1.764-4.81a16.113 16.113 0 0 0-5.194-4.132c-1.955-.85-3.004-2.366-4.47-3.904a2.55 2.55 0 0 0-1.843-1.056c-1.212.078-1.601 1.814-1.006 2.87s1.736 1.672 2.593 2.53c.61.609 1.736 3.38-.177 2.947-1.063-.234-1.984-3.373-2.714-4.187a1.63 1.63 0 0 0-.708-.504 1.779 1.779 0 0 0-.709-.042 12.79 12.79 0 0 0-3.897.935c-.482.199-1.205.482-1.382 1.042-.177.56.305 1.041.475 1.53.354 1.007-.092 2.055.149 3.061.914 3.82 6.044 6.874 9.154 8.737 1.418.865 2.835 1.261 4.252 2.338 4.598 3.586 9.211 7.192 13.087 11.564 2.126 2.388 3.99 4.96 6.214 7.27 3.975 4.06 10.99 10.629 16.964 6.739a14.554 14.554 0 0 0 2.125-1.8 68.495 68.495 0 0 0 4.535-4.96 10.125 10.125 0 0 0 1.757-2.657 3.833 3.833 0 0 0 0-3.097 9.828 9.828 0 0 0-3.883-3.691z"/>
        <path fill="#A36550" d="M463.044 107.738a1.786 1.786 0 0 0-.311-.198 15.093 15.093 0 0 1-3.72-2.721 4.322 4.322 0 0 0-1.637-1.148 7.008 7.008 0 0 1-3.097-1.941c-1.417-1.708-2.366-3.798-3.613-5.669-1.673-2.466-3.961-4.45-6.222-6.377a2.572 2.572 0 0 0-1.197-.709 2.65 2.65 0 0 0-1.077.107l-5.669 1.36a3.132 3.132 0 0 0-1.353.553c-1.02.878-.496 2.572.383 3.592.658.773 3.33 3.621.39 3.224a6.264 6.264 0 0 1-1.956-.8c-.49-.248-.992-.419-1.496-.624a8.786 8.786 0 0 0-1.332-.553 1.474 1.474 0 0 0-.956.092c-1.9.964.453 3.104 1.474 3.642.807.394 1.643.726 2.5.992l-.183-.056.56.205c.777.341 1.485.821 2.09 1.417.718.763 1.49 1.474 2.31 2.126.517.309 1.055.584 1.608.822.611.365 1.257.669 1.927.907 1.378.411 2.825.534 4.252.361a18.31 18.31 0 0 0 5.172-1.509c.213-.092.433-.22.66-.326a14.618 14.618 0 0 0 5.888 1.949c.439.283.878.552 1.325.808.502.32 1.052.56 1.63.708.594.122 1.21.098 1.792-.07a.489.489 0 0 0-.142-.164z"/>
        <path stroke="#19CCC7" d="M468.557 76.894c.142 10.437 8.666 17.828 19.344 17.714h17.516c10.281 1.141 18.827 9.7 18.812 20.251l-.318 210.857c-.016 10.528-8.555 19.054-19.082 19.054H369.3"/>
        <path fill="#7F5A4B" d="M449.32 97.925a6.561 6.561 0 0 0-1.212-1.58L446.69 94.8a5.57 5.57 0 0 0-3.288-1.991c-1.17-.185-1.68.432-2.594.942a21.604 21.604 0 0 1-3.188 1.658c-.468.17.361 1.878.524 2.07.5.44 1.14.692 1.807.708.738.011 1.45.28 2.012.758.47.57.774 1.26.879 1.991.024.219.084.432.177.63.284.407.733.666 1.226.71 1.192.219 2.42.136 3.571-.242.709-.24 1.587-.595 1.694-1.417a5.003 5.003 0 0 0-.192-2.692zM397.183 96.748a9.863 9.863 0 0 0-2.835-1.218c-.567-.128-1.155-.17-1.707-.333-1.892-.567-4.153-2.48-5.874-.333-1.36 1.849 1.006 2.55 1.977 3.493a9.736 9.736 0 0 0 5.959 2.6c1.899.142 4.038.532 5.796-.446a.61.61 0 0 0 .255-.227.616.616 0 0 0-.114-.602 9.495 9.495 0 0 0-3.38-2.87l-.077-.064z"/>
        <path stroke="#333" stroke-linecap="round" stroke-width="5.669" d="M369.3 89.202c37.796 3.139 87.105 8.24 116.61 11.954"/>
        <path stroke="#333" stroke-width="2.834" d="M404.48 92.724L156.617 64.459M167.627 57.72l-10.133 23.057"/>
        <path fill="#A36550" d="M439.796 96.366c.202-.205.443-.366.709-.475.538-.177 1.098.142 1.665.205a1.977 1.977 0 0 0 1.948-1.027 8.864 8.864 0 0 0 .482-4.322c-.297-1.417-1.325-1.587-2.657-1.517-1.378.102-2.743.34-4.074.709-1.042.255-2.544.113-3.295.992-.751.879-1.304 3.033-1.58 4.081-.15.41-.122.866.078 1.255.249.317.631.5 1.034.496a2.345 2.345 0 0 0 1.956-.915c.113-.141.213-.311.383-.375a.709.709 0 0 1 .644.142c.666.46 1.226 1.346 2.013 1.169.261-.082.5-.226.694-.418zM383.521 94.389a7.752 7.752 0 0 1-.758-.985c-.616-1.212.525-2.012 1.488-2.41l5.548-2.245a3.16 3.16 0 0 1 1.332-.333c.473-.002.895.297 1.05.744.162.673-.554 1.29-.476 1.976.078.688.546 1.007.206 1.744a4.84 4.84 0 0 0-.751 1.835c0 .404.141.8.106 1.204a2.452 2.452 0 0 1-.567 1.162c-1.828 2.495 1.488 3.387 2.735 5.045a.829.829 0 0 1-.354 1.34c-.32.062-.652.043-.964-.057l-1.99-.468c-2.346-.552-5.032-1.304-5.832-3.833a8.156 8.156 0 0 1-.574-2.714c.028-.8.326-1.254-.199-2.005z"/>
        <path fill="#5E64B6" d="M474.559 65.075a5.505 5.505 0 0 1 0-.595 35.315 35.315 0 0 0-1.963-11.883 2.891 2.891 0 0 0-.447-.9c-.566-.708-2.239-.772-3.053-.708a.758.758 0 0 0-.709.538 1.006 1.006 0 0 0 0 .326c.004.057.023.11.057.156.064.064.15.1.24.1.964.127 1.489.283 1.673 1.218a27.5 27.5 0 0 1 .326 3.82c.14 2.543.1 5.093-.12 7.63a6.257 6.257 0 1 0 4.01.291l-.014.007z"/>
        <path fill="#395E7C" d="M265.856 56.381l.305-.057a1.304 1.304 0 0 0-.482-.12c0 .05 0 .106-.036.163l.213.014z"/>
        <path fill="#395E7C" d="M266.317 56.41a.843.843 0 0 0-.156-.086l-.305.057.46.028zM265.63 56.416l.226-.035h-.213zM265.147 56.331l.496.036c0-.057 0-.114.036-.163a.97.97 0 0 0-.532.127z"/>
        <path fill="#2F355B" d="M324.526 309.22h-52.293c-14.88 0-26.465-11.847-26.465-26.649v-19.408h-48.785v19.408c-.004 14.805-12.007 26.805-26.812 26.805h-52.314a8.9 8.9 0 0 0-8.978 8.32 8.715 8.715 0 0 0 8.701 9.111h206.946c4.96 0 9.544-4.116 9.325-9.112-.199-4.698-4.79-8.474-9.325-8.474z"/>
        <rect width="284.364" height="179.701" x="79.19" y="99.157" fill="#012448" rx="14.171"/>
        <rect width="253.321" height="147.936" x="94.708" y="116.22" fill="#FFF" rx="8.503"/>
        <rect width="11.458" height="3.564" x="117.545" y="128.344" fill="#B9EAED" rx="1.12"/>
        <rect width="11.458" height="3.564" x="132.637" y="128.344" fill="#B9EAED" rx="1.12"/>
        <rect width="11.458" height="3.564" x="147.73" y="128.344" fill="#B9EAED" rx="1.12"/>
        <rect width="11.458" height="3.564" x="162.823" y="128.344" fill="#B9EAED" rx="1.12"/>
        <rect width="11.458" height="3.564" x="177.908" y="128.344" fill="#B9EAED" rx="1.12"/>
        <rect width="11.458" height="3.564" x="193.001" y="128.344" fill="#B9EAED" rx="1.12"/>
        <rect width="11.458" height="3.564" x="208.093" y="128.344" fill="#B9EAED" rx="1.12"/>
        <rect width="11.458" height="3.564" x="223.186" y="128.344" fill="#B9EAED" rx="1.12"/>
        <rect width="11.458" height="3.564" x="238.278" y="128.344" fill="#B9EAED" rx="1.12"/>
        <rect width="11.458" height="3.564" x="253.371" y="128.344" fill="#B9EAED" rx="1.12"/>
        <rect width="11.458" height="3.564" x="268.464" y="128.344" fill="#B9EAED" rx="1.12"/>
        <rect width="11.458" height="3.564" x="283.549" y="128.344" fill="#B9EAED" rx="1.12"/>
        <rect width="11.458" height="3.564" x="298.642" y="128.344" fill="#B9EAED" rx="1.12"/>
        <rect width="11.458" height="3.564" x="313.734" y="128.344" fill="#B9EAED" rx="1.12"/>
        <rect width="207.371" height="28.52" x="117.687" y="139.553" fill="#EBF7F7" rx="4.251"/>
        <rect width="61.483" height="48.721" x="190.939" y="175.719" fill="#19CCC7" rx="4.251"/>
        <rect width="61.483" height="48.721" x="117.821" y="175.719" fill="#B9EAED" rx="4.251"/>
        <rect width="61.483" height="48.721" x="263.709" y="175.719" fill="#5D82A0" rx="4.251"/>
        <path fill="#FFF" d="M303.323 207.25H299.7l1.914 4.65a.584.584 0 0 1 0 .478.628.628 0 0 1-.342.342l-1.675.752a.506.506 0 0 1-.444 0 .628.628 0 0 1-.342-.342L297 208.72l-2.974 3.042c-.182.206-.398.251-.649.137a.593.593 0 0 1-.376-.58v-14.7c0-.273.125-.461.376-.564.25-.102.467-.062.65.12l9.742 10.016c.182.182.222.404.12.666-.103.262-.291.393-.565.393z"/>
        <rect width="61.483" height="2.99" x="190.939" y="230.583" fill="#C6EEF0" rx=".935"/>
        <rect width="61.483" height="2.99" x="190.939" y="239.667" fill="#C6EEF0" rx=".935"/>
        <rect width="33.537" height="2.99" x="190.939" y="249.049" fill="#C6EEF0" rx=".935"/>
        <rect width="61.483" height="2.99" x="263.709" y="230.583" fill="#CFF0F2" rx=".935"/>
        <rect width="61.483" height="2.99" x="263.709" y="239.667" fill="#CFF0F2" rx=".935"/>
        <rect width="33.537" height="2.99" x="263.709" y="249.049" fill="#CFF0F2" rx=".935"/>
        <rect width="61.483" height="2.99" x="117.821" y="230.583" fill="#CFF0F2" rx=".935"/>
        <rect width="61.483" height="2.99" x="117.821" y="239.667" fill="#CFF0F2" rx=".935"/>
        <rect width="33.537" height="2.99" x="117.821" y="249.049" fill="#CFF0F2" rx=".935"/>
        <rect width="89.682" height="62.421" x="68" y="197" fill="#19CCC7" filter="url(#a)" rx="9.644"/>
        <rect width="107.682" height="74.421" x="51.506" y="189.486" fill="#EBF7F7" rx="9.644"/>
        <path fill="#F4BDB3" d="M97.173 239.688a17.077 17.077 0 0 0 1.318-3.734 15.737 15.737 0 0 0-.177-2.685c-.127-2.608-.226-5.222-.34-7.837l-.538-12.393a4.06 4.06 0 0 1 2.473-3.918h.05c.128-.055.253-.116.375-.185 1.325-.708 9.92-5.215 11.542-3.542.652.659 2.013-.284 2.778-.305 1.417 0 1.814 1.091 2.586 2.19.463.613.86 1.273 1.184 1.97.651 1.537 0 2.777.22 4.25.219 1.474 1.501 2.729 1.48 4.394 0 1.233.078 2.53 0 3.762-.19.934-.302 1.882-.333 2.835.064.637.63 1.19.66 1.75.056 1.126-1.021 1.474-1.928 1.715-1.828.496-4.641.467-4.386 3.11.212 2.24 2.607 3.826 2.288 5.973-.148.971-1.353 1.673-.9 2.92.312.85 1.637 1.226 2.006 2.444 1.587 5.201-4.004 11.67-9.403 11.174a10.076 10.076 0 0 1-5.088-2.338 24.73 24.73 0 0 1-4.251-4.195 9.027 9.027 0 0 1-2.126-4.329 5.96 5.96 0 0 1 .51-3.026z"/>
        <path fill="#E7A194" d="M106.69 226.282c.418.206.765.525 1.162.751 1.07.596 1.998.355 2.99.114.312-.078.623-.156.956-.206 1.222-.13 2.457-.06 3.657.206.673.12 1.353.212 2.033.312l1.049.141c.212 0 .61 0 .786.149-1.133.34-2.267.666-3.394 1.027-.793.248-1.65.617-1.785 1.566a4.96 4.96 0 0 0 .22 1.63c.03.228.095.45.19.66.057.112.121.275 0 .353a.27.27 0 0 1-.106.036 3.26 3.26 0 0 1-1.417-.248 8.616 8.616 0 0 1-3.45-1.991 16.609 16.609 0 0 0-3.146-2.126c-.752-.453-2.126-1.417-1.092-2.289.39-.3.923-.334 1.347-.085z"/>
        <path fill="#515050" d="M98.173 203.87a17.842 17.842 0 0 0 3.302-2.834c2.5-2.353 5.484-2.558 8.502-3.663a9.296 9.296 0 0 1 3.763-.794 3.16 3.16 0 0 1 2.926 2.126c.128.538.085 1.162.46 1.573.214.186.452.341.71.46a2.87 2.87 0 0 1 1.26 3.16c-.375 1.361-.261 2.601-1.657 3.295-1.226.61-2.643.348-3.954.645-1.311.298-3.656.369-4.606 1.297-.95.928-1.53 2.728-2.6 3.826a3.167 3.167 0 0 0-.787 1.056 2.834 2.834 0 0 0-.106.843c0 .943.404 4.79-.588 4.996-.992.205-1.184-1.63-1.56-2.282-1.027-1.757-3.825-3.238-5.1-.907-.532.978.077 2.168.708 3.11 1.197 1.892 1.559 2.984.75 5.237-.06.226-.168.437-.318.616a1.417 1.417 0 0 1-1.516.128c-1.524-.624-2.417-2.175-3.203-3.628-.957-1.793-1.935-3.543-2.891-5.364-.9-1.686-1.34-3.79-.709-5.54.603-1.581.865-3.636 2.034-4.918 1.275-1.417 3.408-1.53 5.073-2.417l.107-.02z"/>
        <path fill="#FFF" d="M146.568 281.877c-1.417-4.358-2.6-8.765-3.77-13.194-1.339-5.109-3.394-10.019-4.464-15.206-.651-3.139-1.353-5.895-3.479-8.503-2.125-2.607-5.484-3.989-8.772-4.797-2.629-.644-6.377 0-6.78-3.252a2.693 2.693 0 0 0-3.005-2.225c-3.09.298-7.306 1.176-9.346 1.013a44.286 44.286 0 0 1-8.227-1.622c-1.417-.369-3.004.304-3.408 1.608-.63 2.04-4.117.914-5.853 1.417-6.944 2.02-13.03 1.503-16.807 8.425-1.453 2.679-2.452 5.669-3.99 8.22-1.672 2.834-3.38 5.576-4.86 8.503a97.946 97.946 0 0 0-7.086 18.231 25.742 25.742 0 0 0-1.041 5.463c-.415 7.441 4.891 13.98 12.258 15.107 1.155.198 2.345.326 3.543.432 6.866 0 13.569-.092 20.407-.305 3.677-.113 1.374-2.912 3.372-4.882 1.226-1.204 3.104-1.417 4.826-1.417 12.258-.226 24.474 3.848 36.633 2.246 2.735-.36 5.505-1.048 7.794-2.635 2.289-1.588 3.904-4.252 3.685-7.001-.134-1.08-.4-2.139-.794-3.153a63.228 63.228 0 0 1-.836-2.473z"/>
        <path fill="#DCF2F4" d="M84.115 283.733c3.053.475 7.928.397 9.92 2.976.864 1.113.41 2.083 2.054 2.275 1.644.191 4.96-2.062 6.505-2.757.709-.326 1.587-.814 1.63-1.622a1.51 1.51 0 0 0-1.042-1.368 4.365 4.365 0 0 0-1.82-.156c-1.765.092-5.747 1.028-6.314-1.58-.567-2.607 3.181-2.728 4.832-3.38a2.41 2.41 0 0 0 1.566-1.594 2.253 2.253 0 0 0-1.169-2.225 7.454 7.454 0 0 0-2.494-.793 24.375 24.375 0 0 1-6.746-2.09c-2.36-1.248-3.975-3.544-6.32-.56a5.336 5.336 0 0 0-.985 2.621 10.629 10.629 0 0 1-.524 3.04c-.482 1.084-1.496 1.821-2.24 2.742-.744.921-1.19 2.346-.425 3.26a3.181 3.181 0 0 0 1.73.871c.268.092.949.199 1.842.34z"/>
        <path fill="#0A758E" d="M116.978 288.133a11.472 11.472 0 0 0-2.997 0c-.496.05-1 .12-1.495.206-.496.085-.709.227-1.084.326-.178.03-.358.047-.539.05-.347.08-.683.204-.999.368a5.435 5.435 0 0 1-1.105.255l-1.418.22c-.963.149-1.934.276-2.89.446-.77.19-1.501.511-2.162.95a11.869 11.869 0 0 0-3.656 3.387c-.468.659-.843 1.7-.29 2.253.29.224.654.333 1.02.305l16.92.53c1.68.05 3.579 0 4.77-1.352 1.19-1.354 1.154-3.713.198-5.272a5.966 5.966 0 0 0-4.273-2.672z"/>
        <path fill="#F4BDB3" d="M96.578 295.368a29.051 29.051 0 0 0 2.622-1.665 3.5 3.5 0 0 1 1.162-.652 4.386 4.386 0 0 1 1.573.1c1.148.103 2.305.029 3.43-.22 1.558-.263 2.798-.567 4.3-.142 1.319.375 2.785 1.346 4.117.375a3.65 3.65 0 0 1 .709-.496c.23-.07.472-.088.709-.05.611.14 1.231.237 1.856.291a1.46 1.46 0 0 0 1.467-.95 3.45 3.45 0 0 1 .106-.538c.198-.46.836-.489 1.325-.368.462.204.984.225 1.46.056a.496.496 0 0 0 .198-.22c.064-.219-.135-.417-.319-.559L116 286.263c-1.29-.992-2.409-2.494-4.017-2.948-2.551-.708-7.54 1.176-10.04 1.85-2.502.673-4.401 1.941-6.668 3.046a.553.553 0 0 0-.27.199.574.574 0 0 0-.056.27c-.17 2.536-.397 5.051-.454 7.588a7.794 7.794 0 0 0 2.083-.9z"/>
        <rect width="49.614" height="17.707" x="285.292" y="128.344" fill="#F66" rx="8.85"/>
        <use fill="#000" xlink:href="#b"/>
        <use fill="#FFF" xlink:href="#b"/>
        <circle cx="295.092" cy="137.201" r="2.48" fill="#FFF"/>
        <path stroke="#19CCC7" stroke-width=".709" d="M363.547 224.447h27.939c13.959 0 20.64 9.771 20.64 21.831v65.564c0 11.678-9.466 21.144-21.143 21.144h-17.077"/>
        <path fill="#456788" d="M157.731 71.195l6.93 2.987a2.38 2.38 0 0 1 1.244 3.129l-12.078 28.018a6.15 6.15 0 0 1-11.296-4.87l12.078-28.018a2.38 2.38 0 0 1 3.129-1.244l-.007-.002z"/>
        <path fill="#395E7C" d="M164.8 75.491a1.417 1.417 0 0 0-.241-.34c-.801-.815-2.332-.418-3.409-.29a5.08 5.08 0 0 0-2.976 1.183c-.822.772-1.218 2.126-.616 2.969.41.552 1.155.708 1.665 1.176 1 .907.787 2.75 0 4.074a14.512 14.512 0 0 1-2.168 2.63c-.276.29-.546.58-.8.885-1 1.169-1.836 2.692-1.58 4.11.051.242.125.479.219.708.489 1.212 1.417 2.31.9 3.578a4.124 4.124 0 0 1-1.212 1.418 34.288 34.288 0 0 0-2.934 2.834 10.288 10.288 0 0 0-2.65 4.202c-.248.92-.304 2.388.34 3.054.619.612 1.588.69 2.296.184.352-.345.632-.757.822-1.212.9-1.856 1.75-3.755 2.537-5.668.638-1.566 1.226-3.14 1.92-4.684.695-1.545 1.538-3.167 2.36-4.726a28.931 28.931 0 0 0 1.559-3.153c.836-2.254 1.686-4.5 2.522-6.746.531-1.417 1.417-3.125 1.63-4.627a2.487 2.487 0 0 0-.184-1.559z"/>
        <path fill="#EBF7F7" d="M412.126 295.56a3.486 3.486 0 0 1-.999-6.831c.324-.1.66-.15 1-.15a3.543 3.543 0 0 1 3.344 2.495 3.5 3.5 0 0 1-2.346 4.344c-.325.092-.66.14-.999.141z"/>
        <path fill="#2DB2B2" fill-rule="nonzero" d="M412.126 289.288a2.834 2.834 0 0 1 2.665 1.984 2.792 2.792 0 0 1-1.871 3.465 2.72 2.72 0 0 1-.794.114 2.834 2.834 0 0 1-2.664-1.984 2.792 2.792 0 0 1 2.664-3.579zm0-1.417a4.202 4.202 0 1 0-.015 8.404 4.202 4.202 0 0 0 .015-8.404z"/>
        <path stroke="#19CCC7" stroke-width=".709" d="M126.388 294.971l1.013.333"/>
        <path stroke="#19CCC7" stroke-dasharray="2.133" stroke-width=".709" d="M129.442 295.928c14.171 3.975 26.26.864 37.278-2.126 11.79-3.196 21.172-11.734 32.013-17.41 16.148-8.453 27.556-12.307 45.094-17.175 8.97-2.487 19.216-1.304 27.244-6.002 9.212-5.378 17.906-4.776 25.006-3.507 4.96.885 8.87-5.35 10.494-10.14 1.58-4.67-.496-10.331-2.126-15.15"/>
        <path stroke="#19CCC7" stroke-width=".709" d="M304.154 223.405c-.113-.347-.22-.708-.319-1.013"/>
        <rect width="27.719" height="6.186" x="510.671" y="172.633" fill="#37456D" rx="3.093" transform="rotate(-90 524.53 175.726)"/>
        <circle cx="418.369" cy="344.741" r="3.068" fill="#F66"/>
        <path fill="#DCF2F4" d="M523.819 156.049a2.36 2.36 0 0 1-.71-4.627c.23-.068.47-.102.71-.1a2.367 2.367 0 0 1 .708 4.627c-.23.067-.469.1-.708.1z"/>
        <path fill="#F66" fill-rule="nonzero" d="M523.819 152.031a1.68 1.68 0 0 1 1.587 1.183 1.658 1.658 0 0 1-1.587 2.126 1.665 1.665 0 0 1-1.58-1.183c-.13-.418-.084-.87.127-1.254a1.644 1.644 0 0 1 1.453-.872zm0-1.417c-.298 0-.594.044-.88.127a3.075 3.075 0 0 0 .88 6.016c.297 0 .593-.043.878-.127a3.075 3.075 0 0 0-.878-6.016z"/>
        <path fill="#ECC973" d="M372.765 221.528h5.222v5.222h-5.222z"/>
        <path stroke="#19CCC7" d="M79.813 303.127v71.934a17.523 17.523 0 0 0 17.53 17.53h82.138c9.67-.016 17.502-7.86 17.502-17.53 0-9.682-7.849-17.53-17.53-17.53h-7.086c-9.681 0-17.53 7.848-17.53 17.53v26.848a17.53 17.53 0 0 0 17.587 17.565h151.393a17.53 17.53 0 0 0 17.537-17.53v-39.283"/>
        <path fill="#2CA29F" d="M356.695 322.138h21.732a2.537 2.537 0 0 1 2.536 2.537v39.056a4.762 4.762 0 0 1-4.761 4.762h-19.507v-46.355z"/>
        <path fill="#19CCC7" d="M390.302 296.02l-27.634 24.687V289.26a3.543 3.543 0 0 1 2.969-3.465l20.64-3.188a3.5 3.5 0 0 1 4.04 3.465l-.015 9.948z"/>
        <path fill="#19CCC7" d="M282.883 285.675l-10.352 19.72v49.89l10.352 17.296h77.277c7.73 0 14.001-5.612 14.001-12.535v-74.4l-91.278.029z"/>
        <path fill="#33B8B4" d="M390.657 295.9c-.107-1.524.496-10.48-2.048-10.26a2.218 2.218 0 0 0-1.332.835 13.059 13.059 0 0 0-2.884 4.96c-.333 1.05-.532 2.126-.95 3.154-1.204 2.905-4.017 4.804-6.731 6.426-3.543 2.126-7.17 3.954-10.593 6.18v51.52a5.669 5.669 0 0 1-5.669 5.668h-31.39c-5.718 1.757-11.981 2.36-16.934 5.668-.709.496-1.51 1.418-1.07 2.126.312.553 1.048.638 1.68.666 16.155.624 50.194-.46 51.016-.489 1.853.025 3.7-.213 5.485-.708 3.224-1.035 4.584-3.316 5.066-6.654.397-2.77.134-5.753.134-8.538 0-9.367-.07-18.742-.042-28.11 0-4.151.042-8.304.156-12.449.057-1.863-.213-5.243 1.24-6.774.418-.432 12.272-9.615 13.774-10.749a2.99 2.99 0 0 0 .9-.914 3.047 3.047 0 0 0 .192-1.559z"/>
        <path fill="#33B8B4" d="M344.026 351.508c.198-1.835-.971-3.543-2.317-4.797-1.347-1.254-2.955-2.274-4.06-3.748-2.318-3.083-1.92-7.56-.064-10.94 1.856-3.38 4.917-5.91 7.907-8.348 5.591-4.577 11.175-9.176 16.786-13.725a43.081 43.081 0 0 1 3.84-2.77v-7.993a5.669 5.669 0 0 0-5.668-5.668h-68.448a5.669 5.669 0 0 0-5.668 5.668v59.52a5.669 5.669 0 0 0 5.668 5.669h37.059a25.41 25.41 0 0 0 6.143-2.693c2.72-1.729 8.68-8.814 8.822-10.175z"/>
        <path fill="#2CA29F" d="M366.119 358.7v-51.52a43.079 43.079 0 0 0-3.84 2.77c-5.612 4.55-11.196 9.148-16.787 13.725-2.99 2.438-6.05 4.96-7.907 8.347-1.857 3.387-2.254 7.858.063 10.94 1.106 1.475 2.707 2.488 4.06 3.75 1.354 1.26 2.516 2.96 2.318 4.796-.142 1.346-6.101 8.46-8.822 10.182a25.41 25.41 0 0 1-6.143 2.693h31.375a5.669 5.669 0 0 0 5.683-5.683z"/>
        <rect width="68.76" height="36.513" x="291.839" y="320.43" fill="#19CCC7" rx="1.417"/>
        <rect width="56.367" height="19.677" x="298.032" y="325.773" fill="#2CA29F" rx="2.034"/>
        <rect width="13.024" height="12.166" x="292.3" y="303.127" fill="#19CCC7" rx="1.417"/>
        <rect width="13.024" height="12.166" x="310.723" y="303.127" fill="#19CCC7" rx="1.417"/>
        <rect width="13.024" height="12.166" x="329.146" y="303.127" fill="#19CCC7" rx="1.417"/>
        <rect width="13.024" height="12.166" x="347.576" y="303.127" fill="#19CCC7" rx="1.417"/>
        <path fill="#33B8B4" d="M292.3 310.397h13.024v3.04H292.3zM310.723 304.65h13.024v3.04h-13.024zM329.146 307.69h13.024v3.04h-13.024zM347.576 310.397H360.6v3.04h-13.024z"/>
        <path fill="#2CA29F" d="M317.2 255.83v9.608a2.175 2.175 0 0 0 1.685 2.126l25.29 5.746a7.929 7.929 0 0 1 6.334 7.794v4.606h16.488v-12.393a12.18 12.18 0 0 0-9.735-11.932l-37.455-7.681a2.168 2.168 0 0 0-2.608 2.126z"/>
        <path fill="#19CCC7" d="M261.959 305.394l-14.88-13.661v.198h-20.386v73.14a3.181 3.181 0 0 0 3.182 3.18h17.232l14.816-12.754h16.489v-50.103h-16.453z"/>
        <path fill="#33B8B4" d="M272.885 313.968c0-2.459.9-5.605-2.615-5.669-1.24 0-5.923-.141-6.844.185-1.623.574-2.36 2.565-3.281 3.833-1.29 1.779-2.558 3.543-3.706 5.435a9.282 9.282 0 0 0-1.148 2.444 11.202 11.202 0 0 0-.191 2.835c.035 3.542-.666 13.016-2.551 15.07-1.474 1.616-20.917 13.464-22.214 14.81a12.577 12.577 0 0 0-2.536 3.904 15.744 15.744 0 0 0-1.141 4.868c-.1 1.495-.46 3.26.177 4.69a3.82 3.82 0 0 0 2.352 1.928c.992.326 10.452.588 14.08.454a13.25 13.25 0 0 0 3.628-.482c1.566-.524 10.72-9.212 12.754-10.813 1.828-1.467 4.152-1.778 6.427-1.842h3.649c.8 0 2.126.446 2.657-.347.225-.438.333-.926.312-1.418.333-6.469.17-37.32.191-39.885z"/>
        <rect width="27.719" height="6.186" x="210.623" y="416.349" fill="#456788" rx="3.093"/>
        <circle cx="121.371" cy="392.733" r="3.897" fill="#ECC973"/>
        <path fill="#37456D" d="M74.365 313.437h9.651v9.651h-9.651z"/>
        <path stroke="#333" stroke-width=".709" d="M539.698 345.386l-39.333 33.671M478.803 345.386l69.922 59.867"/>
        <path fill="#354B63" d="M545.933 342.24c-1.19 0-14.958 3.812-27.875 4.96h-17.53c-5.669-.914-11.337-2.437-15.419-2.005-3.238.347-4.202.893-5.066 2.005-.368 0 24.056 5.902 31.63 5.669 8.808 0 25.212-4.493 35.507-5.669 1.34-.128 2.969-4.96-1.247-4.96zM485.308 312.629c-2.062.262-10.374.475-11.082 2.834-.922 3.09 4.478 2.24 5.668 3.543 1.19 1.304 1.205 4.251 1.58 5.76l1.573 6.498c.234 1.236.652 2.43 1.24 3.543a4.386 4.386 0 0 0 2.92 2.225c.513.109 1.049.001 1.48-.298.787-.623.61-1.849.355-2.834a199.377 199.377 0 0 0-2.99-10.14c-.751-2.317-3.834-6.377-.057-6.816a250.522 250.522 0 0 1 22.674-1.623c.971 0 2.09-.113 2.657-.907.709-.95.064-2.395-.963-2.969a6.292 6.292 0 0 0-3.444-.488c-3.727.163-7.582.07-11.273.56-3.352.481-6.966 1.112-10.338 1.112z"/>
        <path fill="#DB7376" d="M496.128 389.423l-9.947 7.404-10.58-14.216 9.947-7.403z"/>
        <path fill="#2ABA9E" d="M503.135 375.82l-17.133-34.997 7.71-5.867c1.537-1.17 2.947-2.473 4.563-3.543 1.941-1.29 3.082-1.176 1.296-2.834-2.239-2.09-6.575-1.517-9.282-1.623-8.616-.34-17.714-2.21-26.26-.29-3.096.708-6.108 2.487-7.496 5.35-4.252 8.715.22 16.452 4.421 24.048 3.295 5.952 6.944 16.361 9.14 22.745 1.51 4.4 2.544 8.815 4.337 13.194l27.45-11.975a2.891 2.891 0 0 0 1.254-4.209z"/>
        <path fill="#DB7376" d="M474.637 409.178h-11.691V385.69h11.69z"/>
        <path fill="#2FC8AD" d="M543.297 324.93a27.138 27.138 0 0 1-1.474-9.113c-3.826-1.183-7.929-.985-11.932-.78l-9.757.511c-2.834.149-6.894-.39-9.445 1-2.268 1.232-3.897 3.01-6.512 3.967a42.068 42.068 0 0 1-9.65 2.126c-5.67.652-11.451.708-17.007 2.083-4.747 1.176-9.367 3.614-12.499 7.447-3.252 3.975-3.649 9.8-5.484 14.568-2.218 5.74-4.797 11.338-6.86 17.127-1.912 5.363-4.895 15.156-7.319 20.314-4.591 9.779 14.632 11.77 20.903 11.77h15.072s5.93-40.389 6.093-40.842c2.176-5.86 3.883-6.448 10.445-6.448h26.096c13.357 0 18.607-10.629 18.629-23.695l.701-.035z"/>
        <path fill="#252F51" d="M494.717 384.33a.709.709 0 0 1 .971.077 862.774 862.774 0 0 1 5.669 5.881c1.963 2.062 2.005 4.896.312 6.52l-22.554 21.59c-1.077 1.034-4.91-2.126-2.657-5.761l7.085-13.633.567-3.472c.114-.312-.07-3.437 3.465-2.324 3.77 1.19 3.543-2.636 3.926-4.783.333-1.765.92-2.19 2.125-3.231l1.091-.865z"/>
        <path fill="#252F51" d="M476.989 399.33a.709.709 0 0 1 .9.368 528.59 528.59 0 0 1 3.614 7.313c1.225 2.55.432 5.271-1.673 6.306l-28.024 13.782c-1.332.651-4.031-3.543-.793-6.3l10.84-10.87 1.595-3.138c.206-.255.971-3.295 4.004-1.162 3.23 2.267 4.152-1.453 5.186-3.38.85-1.58 1.538-1.807 2.976-2.445l1.375-.474z"/>
        <path fill="#354B63" d="M548.215 311.85c.659-3.182 2.04-6.279 2.579-9.453.177-1.034-1.162-1.856-2.126-1.474-3.316 1.297-3.932 11.018-5.08 13.966a13.86 13.86 0 0 0-1.262 5.903c0 2.404.024 4.806.071 7.206.1 5.534.192 11.096.758 16.602 1.807-1.276 4.429 1.374 4.443-.837.014-2.21 0-9.686-.078-11.896a58.748 58.748 0 0 0-.63-7.44c-.383-2.58.233-5.67.588-8.227.191-1.46.446-2.912.737-4.35z"/>
        <path fill="#354B63" d="M548.115 299.074c-2.239 5.668-4.4 11.45-3.79 17.714.042.425 4.867.106 5.243-.163a3.274 3.274 0 0 0 1.035-2.204l2.076-11.337c.563-2.41.965-4.855 1.204-7.32a1.042 1.042 0 0 0-.156-.757 1.027 1.027 0 0 0-.708-.255c-1.063-.093-2.26-.142-3.068.56a3.855 3.855 0 0 0-.971 1.629l-.865 2.133z"/>
        <path fill="#3A3838" d="M520.247 244.046c-1.296-1.474-2.65-3.025-3.28-5.087-.978-3.16-.1-7.001-1.453-9.92-2.126-4.564-9.09-3.87-12.457-1.17-1.849 1.488-2.834 4.181-1.877 6.335.34.564.58 1.182.708 1.828.092 1.219-1.105 2.126-2.253 2.565-1.148.44-2.452.645-3.295 1.53a2.884 2.884 0 0 0 .184 4.018c.85.709 2.225 1.056 2.523 2.126.645 2.345-4.443 3.189-3.89 5.555.404 1.715 3.628 2.126 3.16 3.855-.177.659-.893 1.042-1.098 1.693-.383 1.184 1.169 2.09 2.416 2.084 1.58 0 3.082-.631 4.613-1.007 1.53-.375 3.295-.46 4.57.475.709.517 1.205 1.304 1.984 1.7a4.251 4.251 0 0 0 2.027.327c4.889-.1 8.063-2.445 10.28-6.71 1.992-3.763-.31-7.306-2.862-10.197z"/>
        <circle cx="507.613" cy="250.076" r="3.614" fill="#ECC973"/>
        <path fill="#DB7376" d="M516.35 259.125a3.181 3.181 0 0 0-3.273-5.024c-3.876.928-5.244-.085-5.456-3.033-.107-1.552-2.934-4.464-2.643-6.767.666-5.172-.808-5.902-.05-8.772 1.488-5.59 5.846-7.794 11.55-6.859a12.946 12.946 0 0 1 8.984 6.632 18.607 18.607 0 0 1 1.92 11.21c-.247 2.062-.765 4.103-.708 6.172a13.661 13.661 0 0 0 3.097 7.978 21.257 21.257 0 0 0 5.016 4.507c1.743 1.162 3.834.708 5.562 1.856.298.199.56.44.85.645.71.475 1.538.709 2.07 1.367.594.832.673 1.926.205 2.835-1.892 4.102-8.198 6.193-12.11 7.468-3.91 1.276-8.63 3.14-12.753 2.714l-.83-.085c-4.889-.503-9.792-4.252-13.292-7.44a6.462 6.462 0 0 1-2.254-4.407 9.601 9.601 0 0 1 .992-3.876c.227-.553.581-.574 1.085-.886a3.047 3.047 0 0 1 1.594-.298c2.466-.035 5.916-.708 7.73-2.387 1.049-.957 1.85-2.417 2.714-3.55z"/>
        <path fill="#C46060" d="M514.976 251.592a7.886 7.886 0 0 1 1.707-.517 6.228 6.228 0 0 1 3.493.114 1.856 1.856 0 0 1 1.02 1.856 5.413 5.413 0 0 1-.708 2.126c-.418.815-.836 1.63-1.261 2.437-.3.66-.735 1.252-1.275 1.736-.298.241-2.034.765-1.814.12.106-.311.474-.708.708-1.161.318-.96.19-2.013-.347-2.87-.482-.751-1.75-1-2.544-1.254-.978-.312-1.934.212-2.905.099-.97-.113-1.587 0-2.352-.539-.107-.078-.227-.226-.142-.326a.234.234 0 0 1 .17-.07c.319-.036.645-.092.964-.114a22.575 22.575 0 0 0 2.295-.156 4.096 4.096 0 0 0 2.126-.871c.256-.245.548-.45.865-.61zM526.384 265.495c2.423-3.224 3.819-7.001 1.643-11.104-1.176-2.218-4.428-4.96-1.721-6.887a34.203 34.203 0 0 0 2.834-2.232c.283.857 2.062 8.822 2.303 9.863.645 2.835 1.063 5.088 1.962 8.248.631 2.24 4.5 2.416 7.164 2.983.342.13.656.323.928.567.433.44.057 1.183-.404 1.594-1.31 1.17-3.138 1.56-4.896 1.687-3.89.283-7.496 1.07-11.337 1.714a4.96 4.96 0 0 1-2.36 0 2.685 2.685 0 0 1 .383-2.345 13.364 13.364 0 0 1 1.623-1.85 26.146 26.146 0 0 0 1.878-2.238z"/>
        <path fill="#FFF" d="M541.88 265.672a11.571 11.571 0 0 1-4.166-1.417c-2.46-1.56-3.125-.709-5.308 1.084-2.019 1.644-3.982 3.784-6.49 4.5-2.983.857-7.794 2.125-10.664.41-1.283-.765-2.055-2.544-2.884-3.755-.829-1.212-.751-3.21-2.204-3.777a2.898 2.898 0 0 0-1.417-.057 93.83 93.83 0 0 0-8.73 1.56 3.72 3.72 0 0 0-1.154.396c-.557.405-.997.95-1.276 1.58a45.349 45.349 0 0 0-2.126 4.96c-.708 1.814-1.147 4.478-2.742 5.57-.708.467-1.296.51-1.85 1.296-.658.95-.807 2.204-1.168 3.295-.836 2.487-4.252 6.49-1.864 8.914 1.545 1.545 4.535 1.948 6.597 2.232 4.33.602 8.354 0 10.182 4.648 1.297 3.302 1.162 6.795 1.51 10.281a1.779 1.779 0 0 0 1.856 1.914 236.72 236.72 0 0 0 23.447 3.465c2.317.226 8.297 1.828 9.92-.468 1.176-1.658.177-5.973.432-7.957s.078-3.543 1.417-5.308c1.615-2.168 2.303-3.62 5.293-3.635 1.295.07 2.584.216 3.862.44 1.722.184 4.187.22 4.003-2.048-.397-4.925-2.473-9.537-3.713-14.313-.765-2.948-1.233-6.023-2.685-8.694a9.034 9.034 0 0 0-5.137-4.464 28.534 28.534 0 0 0-2.941-.652z"/>
        <path fill="#3A3838" d="M551.269 251.047a5.215 5.215 0 0 0-1.503-2.487c-.708-.617-1.544-1.155-1.828-2.027-.453-1.381.709-2.777.709-4.251a3.855 3.855 0 0 0-2.126-3.075c-.645-.383-1.353-.652-1.984-1.056a5.732 5.732 0 0 1-2.565-4.032c-.1-.744-.042-1.502-.135-2.246a6.193 6.193 0 0 0-6.334-5.244 7.518 7.518 0 0 1-2.07.078c-2.252-.46-2.012-2.834-2.911-4.35a5.86 5.86 0 0 0-6.88-2.459c-1.248.468-2.303 1.36-3.543 1.878-2.126.885-4.464.616-6.739.708-2.275.092-4.804.673-5.98 2.615-.721 1.27-.82 2.8-.27 4.152a6.377 6.377 0 0 0 2.02 2.672c.708.566 1.552.829 1.757 1.863.206 1.035-.531 2.126-.44 3.245.114 1.325 1.418 2.24 2.665 2.65 1.651.539 3.84.588 5.06 2.034 1.218 1.445 1.034 3.975 0 5.463-.54.765-1.283 1.353-1.879 2.062a3.09 3.09 0 0 0-.85 2.55c.34 1.524 2.07 1.992 3.09 2.934 2.77 2.544-.312 6.81 1.615 9.53.8 1.134 2.416 1.418 3.77 1.106a15.163 15.163 0 0 0 3.748-1.786 6.646 6.646 0 0 1 3.954-1.077c1.913.248 3.351 1.857 5.144 2.58 1.7.662 3.61.492 5.166-.461 2.5-1.552 3.649-4.67 5.498-6.852 1.609-1.82 4.55-4.095 3.84-6.717z"/>
        <circle cx="525.951" cy="246.462" r="3.614" fill="#ECC973"/>
        <path fill="#DCF2F4" d="M536.8 299.995a54.666 54.666 0 0 0-1.12-3.238c-.411-1.077-.468-2.083-.843-3.097a.539.539 0 0 0-.078-.156c-.128-.155-.376-.127-.546-.24-.17-.114-.212-.433-.205-.709a19.84 19.84 0 0 0-.071-5.024c-.156-.708-.142-2.834-.709-3.21a1.134 1.134 0 0 0-.765-.163c-1.049.093-1.878.886-2.58 1.673-1.494 1.658-2.833 3.45-4.286 5.15-1.453 1.702-3.295 2.878-4.769 4.465-1.473 1.587-2.444 3.167-4.046 4.528a24 24 0 0 1-5.236 3.387 5.924 5.924 0 0 0-2.126 1.332 1.757 1.757 0 0 0-.127 2.288c.206.196.446.352.708.461 6.3 2.834 13.534 2.615 20.407 1.8 2.494-.298 5.343-.9 6.526-3.118 1.084-1.842.49-4.117-.134-6.129z"/>
        <path fill="#DB7376" d="M514.196 255.532a2.38 2.38 0 0 0-1.97-.786 40.162 40.162 0 0 0-4.117.446 7.752 7.752 0 0 0-5.626 2.225c-5.052 3.996-6.66 8.602-9.572 14.115-3.054 5.782-6.108 11.684-7.61 18.09-1.106 4.69-1.19 9.728.531 14.228.978 2.558 2.615 4.96 5.03 6.25.71 0 1.68.708 2.474.828a4.91 4.91 0 0 0 2.125-.191c2.927-.935 4.457-4.252 5.364-6.951.566-1.681.979-3.41 1.233-5.166.17-1.197.773-3.351-.29-4.308a2.537 2.537 0 0 0-.822-.432c-.858-.326-2.423-.468-2.834-1.353-.312-.617 0-1.743.17-2.381.19-.928.588-1.8.822-2.728.444-1.533.801-3.09 1.07-4.663.39-2.961-.71-5.937-.312-8.892.304-2.494 1.941-4.38 3.954-5.732l3.103-2.077a3.6 3.6 0 0 0 1.127-1.048c.228-.577.406-1.172.531-1.779.46-1.304 1.87-2.062 3.245-2.246a15.022 15.022 0 0 0 2.19-.262 2.012 2.012 0 0 0 1.53-1.417 2.77 2.77 0 0 0-.326-1.502 10.955 10.955 0 0 0-1.02-2.268z"/>
        <path fill="#C46060" d="M496.751 303.545c-1.176-2.175-2.834-4.06-3.947-6.27-1.417-2.835-1.48-5.755-1.686-8.83l-.333-4.917c-.1-1.417-.347-5.527-2.41-2.459a7.653 7.653 0 0 0-.878 2.36c-.921 3.472-2.494 6.533-2.834 10.11a22.674 22.674 0 0 0 1.197 10.31c.978 2.559 2.615 4.96 5.031 6.25.709 0 1.68.709 2.473.83a4.91 4.91 0 0 0 2.126-.192 5.669 5.669 0 0 0 2.225-1.368c.07-.203.127-.412.17-.623a7.9 7.9 0 0 0-1.134-5.201z"/>
        <path fill="#DB7376" d="M495.83 309.065a5.102 5.102 0 0 0-3.954-2.835 8.382 8.382 0 0 1-2.31-.262c-.666-.269-1.183-.808-1.878-1.041a2.126 2.126 0 0 0-1.75.12.751.751 0 0 0-.404.524c-.078.496.518.787.907 1.099a5.669 5.669 0 0 1 1.24 2.02"/>
        <path fill="#ECC973" d="M476.5 278.532l-4.96-2.636c-3.238-1.714-5.945-3.394-6.087 1.503-.205 7.128.71 14.22 1.007 21.335.099 2.437-.9 5.838-.46 8.092.474 2.465 3.747 3.96 5.788 4.84 4.338 1.879 8.79 3.485 13.328 4.81 1.12.333 2.636.482 3.16-.56.13-.314.198-.651.199-.991.555-9.39.21-18.813-1.027-28.138a5.293 5.293 0 0 0-.709-2.402 5.385 5.385 0 0 0-2.005-1.51l-8.234-4.343z"/>
        <path fill="#DB7376" d="M487.681 308.71c-1.028.147-2.065.23-3.103.248h-.106c-1.17 0-2.325-.24-3.543-.276-.85 0-3.005-.482-3.727.106-1.276 1.028.793 1.8 1.374 2.31 1.233 1.077.794 3.196 2.126 4.252.531.432 1.261.58 1.764 1.048.957.886.63 1.892 1.616 2.757.985.864 2.607.361 3.918-.05 2.516-.786 5.13.51 7.476-.595 4.797-2.267 11.578-.347 16.672.1 10.501 1.643 21.3 1.657 31.574-.71a3.826 3.826 0 0 0 3.756-3.854c.29-1.722.311-3.45.524-5.173.187-1.077.45-2.14.787-3.181.113-.404.12-.787.262-1.198l.574-1.615c.708-2.126 1.466-4.21 2.125-6.328.156-.46.277-1.055-.106-1.367a1.176 1.176 0 0 0-.517-.199c-.709-.134-1.417-.085-2.126-.17-.708-.085-1.34-.248-2.005-.34a52.753 52.753 0 0 0-4.308-.44c-.858-.049-1.715-.084-2.565-.198a13.895 13.895 0 0 0-2.395-.368c-.71.004-1.42-.031-2.126-.106a.957.957 0 0 0-.489.064c-.489.255-.531.942-.553 1.417 0 .685-.035 1.372-.106 2.062a23.83 23.83 0 0 1-.588 4.003c-.46 1.87-1.417 3.748-3.274 4.507-1.147.46-9.714 3.259-12.499 3.387-3.784.177-7.475.396-11.287.382-3.434 0-6.876-.035-10.324-.106h-.709"/>
        <path fill="#354B63" d="M542.603 316.98l-37.193-.61a3.344 3.344 0 0 0-1.694.276c-2.593 1.46.624 3.543 1.417 4.557 1.68 2.196.71 5.066.468 7.865a359.857 359.857 0 0 0-.8 11.337c-.071 1.176.311 9.976-1.418 9.92a18.89 18.89 0 0 1 3.883.574l.064-5.435c0-1.467.347-2.905.482-4.386.307-3.515.616-7.034.928-10.558.191-2.175 0-4.96.617-7.036.75-2.437 1.048-1.927 3.805-1.835 9.275.312 18.557-.064 27.825-.446.95-.043 3.5-.617 4.032-1.418 1.828-2.7-2.416-2.806-2.416-2.806z"/>
        <path fill="#C46060" d="M503.086 294.844c-.04-.205-.12-.4-.234-.574-.51-.773-1.573-.872-2.473-1.099a6.377 6.377 0 0 1-1.8-.772c-.453-.29-.92-.39-.758-.914a1.941 1.941 0 0 0-.106 1.467c.152.486.342.96.567 1.417a9.46 9.46 0 0 1 .779 3.472c-.02.44.019.88.113 1.31.227.787 1.644 2.07 2.473 1.333.44-.383.638-1.46.815-1.998.228-.697.415-1.407.56-2.126a3.65 3.65 0 0 0 .064-1.516zM538.847 304.289a6.228 6.228 0 0 0-4.294-1.453c-2.253.114-4.294 1.332-6.306 2.254a47.141 47.141 0 0 1-8.701 3.004c-2.834.709-5.704.822-8.567 1.36-.262.05-.56.128-.659.376-.17.432.411.709.865.836 8.233 1.616 16.927.496 25.175-.496a14.993 14.993 0 0 0 3.04-.843 1.87 1.87 0 0 0 1.14-2.048 3.975 3.975 0 0 0-.864-2.126 5.74 5.74 0 0 0-.829-.864z"/>
    </g>
</svg>
