<svg xmlns="http://www.w3.org/2000/svg" width="500" height="324" viewBox="0 0 500 324">
    <g fill="none" fill-rule="evenodd">
        <path fill="#3E4E67" d="M0 323.65c98.414-120.632 288.944-147.983 422.664-64.529 28.503 17.785 54.683 39.584 77.336 64.53H0z"/>
        <path fill="#F4BDB3" d="M350.331 267.364l-24.024-19.413 10.313-12.709 24.024 19.414z"/>
        <path fill="#2F355B" d="M340.045 259.988a1.084 1.084 0 0 0-.579 1.297c.734 2.081 2.614 7.397 4.078 11.325 1.438 3.746 5.16 5.84 8.41 4.657l43.335-15.7c2.055-.789.397-7.887-5.869-7.265l-22.658.415-4.963-1.511c-.482-.051-4.502-2.332-5.34 3.06-.906 5.719-5.797 2.934-8.9 2.062-2.544-.71-3.496-.215-5.642.673l-1.872.987z"/>
        <g>
            <g transform="translate(153.192 76.397)">
                <path fill="#15B598" d="M189.696 152.892l-40.433-34.4c-3.66-3.11-7.58-7.713-11.732-10.03-3.438-1.885-6.474-1.002-10.194.311-6.956 2.417-16.085 2.227-19.533 10.23a4.854 4.854 0 0 0-.482 3.12c.27.79.717 1.51 1.307 2.105l24.479 28.523a92.694 92.694 0 0 0 10.565 11.032c7.289 6.018 16.145 9.498 24.007 14.663a7.578 7.578 0 0 0 3.317 1.524 6.99 6.99 0 0 0 3.147-.702l23.021-8.956c2.594-1.003 5.77-3.18 4.916-6.017a5.739 5.739 0 0 0-2.01-2.528l-10.375-8.875z"/>
                <path fill="#515050" d="M43.134 36.805c1.91-2.157 3.89-4.433 4.815-7.452 1.427-4.634.15-10.25 2.131-14.542 3.086-6.68 13.34-5.667 18.276-1.715 2.725 2.176 4.203 6.117 2.765 9.277a8.243 8.243 0 0 0-1.096 2.677c-.13 1.786 1.629 3.13 3.318 3.751 1.689.622 3.589.943 4.835 2.237a4.135 4.135 0 0 1 .935 3.851c-.613 2.257-2.01 1.575-3.488 2.838a1.803 1.803 0 0 0-.583 2.126c.392.722 1.317.913 2.01 1.314a3.376 3.376 0 0 1 1.458 4.012c-.855 2.276-4.021 3.19-4.514 5.566-.301 1.484.553 3.109-.07 4.473a3.847 3.847 0 0 1-1.83 1.645 9.56 9.56 0 0 1-6.092 1.213c-2.212-.31-4.081-1.003-6.162.542-1.006.752-1.78 1.915-2.926 2.497a6.317 6.317 0 0 1-3.016.471c-7.178-.14-11.832-3.57-15.08-9.818-2.804-5.546.574-10.741 4.314-14.963z"/>
                <path fill="#F4BDB3" d="M46.029 58.618a4.434 4.434 0 0 1-.119-5.126 4.459 4.459 0 0 1 4.804-1.824c5.408 1.384 7.348 0 7.7-4.122.191-2.167 4.212-6.168 3.85-9.388-.814-7.24 1.257-8.223.252-12.245-2.966-11.895-10.234-7.853-11.742-10.09-2.192-3.249-1.81-6.669 1.427-6.167.332.06-20.106 8.123-20.729 8.364l-8.625 34.17c-1.166 4.633-4.284 17.27-4.415 22.053-.2 10.721 10.748 9.829 18.901 14.131 9.118 4.794 17.965-1.805 24.911-8.023a9.02 9.02 0 0 0 3.247-6.108 13.293 13.293 0 0 0-1.307-5.436c-.301-.762-.804-.812-1.497-1.253a4.2 4.2 0 0 0-2.232-.452c-3.448-.1-8.264-1.133-10.767-3.5-1.387-1.334-2.473-3.39-3.66-4.984z"/>
                <path fill="#515050" d="M3.947 43.013a15.64 15.64 0 0 0-.241-3.43c-.553-2.006-2.393-3.44-3.227-5.366a7.636 7.636 0 0 1 .492-6.389 18.485 18.485 0 0 1 4.233-5.014c2.272-2.056.904-5.416 1.689-8.124a6.828 6.828 0 0 1 4.081-4.142 27.195 27.195 0 0 1 5.64-1.434c1.649-.29 4.272.582 5.67-.13a2.429 2.429 0 0 0 1.005-1.164c.593-1.243.784-2.657 1.367-3.911 1.538-3.3 7.6-4.674 10.777-3.49 1.83.682 3.378 2.006 5.177 2.748 3.016 1.294 6.555.903 9.882 1.003 3.328.1 7.037 1.003 8.787 3.83a7.006 7.006 0 0 1 .392 6.069 9.27 9.27 0 0 1-2.966 3.91c-1.076.833-2.272 1.214-2.573 2.729-.302 1.514.774 3.149.643 4.754-.171 1.945-2.01 3.28-3.91 3.88-2.434.793-5.64.863-7.42 3.01-1.78 2.146-1.528 5.827 0 8.023 1.72 2.437 6.535 7.02 1.347 9.387a7.83 7.83 0 0 0-2.201 1.003 3.253 3.253 0 0 0-.593 3.22c.397 1.075.65 2.198.754 3.34-.06 3.008-3.61 4.713-6.595 4.542-2.986-.17-5.81-1.494-8.797-1.564-2.985-.07-6.222 1.193-9.158.28a4.332 4.332 0 0 1-2.865-2.116c-.523-1.293-.784-2.677-1.427-4.011a10.28 10.28 0 0 0-2.574-3.54c-1.498-1.224-3.478-1.746-5.026-3.01a6.675 6.675 0 0 1-2.343-4.201l-.02-.692z"/>
                <ellipse cx="40.182" cy="38.908" fill="#DB7376" rx="5.567" ry="5.558"/>
                <path fill="#FFF" d="M88.955 94.673l-.18-.181a.31.31 0 0 0-.112.25c0 .272.553.01.292-.07z"/>
                <path fill="#FFF" d="M87.648 83.74a54.202 54.202 0 0 0-5.348-5.916L71.664 67.223c-1.9-1.886-5.218-2.748-7.771-3.31a17.462 17.462 0 0 0-7.138-.05c-.573.1-2.845.2-2.855 1.153 0 .08.07.14.131.191a7.887 7.887 0 0 0 2.714 1.484c.704.16 1.609-.12 2.162.502.464.794.678 1.71.613 2.627a4.015 4.015 0 0 1-3.488 4.012c-2.574.22-5.138-1.524-7.64-1.936a34.92 34.92 0 0 1-11.16-3.75A17.568 17.568 0 0 0 19.6 69.148a23.1 23.1 0 0 0-3.378 3.12c-1.006 1.002-2.322 1.434-3.016 2.547a44.577 44.577 0 0 0-4.594 9.247c-2.403 6.71-3.137 13.9-3.308 21.06-.392 16.85-3.126 33.91-4.02 50.889 0 9.456 6.888 10.99 7.328 11.095 6.057 1.457 9.803-4.527 15.914-4.958 6.423-.471 14.003-4.874 19.914-7.35 3.016-.873 6.123-1.144 9.129-2.007 2.12-.581 3.78-1.815 5.78-2.647 5.67-2.357 11.058-3.661 16.085-7.502.287-.186.523-.441.683-.742.16-.41.16-.864 0-1.274-.754-2.267-2.814-3.811-4.192-5.777a10.69 10.69 0 0 1-1.699-8.133c.654-3.26 2.795-6.018 4.022-9.117a16.562 16.562 0 0 0-.141-12.165 2.442 2.442 0 0 1-.282-1.675c.322-.893 2.01-1.805 2.745-2.327a35.446 35.446 0 0 1 3.82-2.006c2.272-1.123 4.825-1.524 7.238-2.306a6.037 6.037 0 0 0 2.01-1.003c1.61-1.314 1.8-4.012 1.358-5.887a17.927 17.927 0 0 0-3.348-6.49z"/>
                <path fill="#E8A498" d="M101.592 117.74l9.379-4.965c.493-.26 1.005-.582 1.166-1.123a1.384 1.384 0 0 0-.844-1.474 4.11 4.11 0 0 0-1.82-.241l-7.79.16a2.79 2.79 0 0 1-1.6-.29 2.938 2.938 0 0 1-.914-1.405c-1.116-2.697-3.257-4.884-5.027-7.18-.914-1.062-2.815-3.738-3.842-4.876-1.958-2.17-2.939-2.17-4.567-1.437-3.483 1.566-8.024 5.341-10.48 6.932a4.018 4.018 0 0 0-1.438 1.284c-1.005 1.755.563 3.512 1.438 4.936a57.842 57.842 0 0 0 5.348 7.02 11.713 11.713 0 0 0 3.277 2.86c.997.47 2.052.807 3.137 1.002 2.917.76 5.899 1.243 8.907 1.444 2.684.06 3.347-1.384 5.67-2.648z"/>
                <path fill="#F4BDB3" d="M170.296 206.61l-15.471-26.735 14.182-8.168 15.472 26.734z"/>
                <path fill="#2F355B" d="M163.337 196.037a1.084 1.084 0 0 0-1.005 1.003c-.06 2.206-.211 7.842-.252 12.035 0 4.011 2.725 7.3 6.183 7.361l46.083.873c2.201 0 3.197-7.221-2.875-8.886l-21.303-7.733-4.091-3.189c-.433-.22-3.368-3.791-6.082.943-2.896 5.014-6.464.662-9.048-1.264-2.121-1.574-3.187-1.454-5.509-1.394l-2.101.25z"/>
                <path fill="#2FC8AD" d="M170.806 158.99c-10.053-12.286-20.106-24.522-30.862-36.106-4.574-4.934-10.496-13.589-16.85-16.046-6.353-2.457-13.701 2.076-19.24 4.834a312.24 312.24 0 0 0-43.007 25.935c-6.585 4.734-12.818 9.127-19.855 13.279-2.402 1.414-22.72 11.433-22.559 13.278 1.076 12.848 5.027 25.825 15.08 33.477 11.782 8.916 24.65 6.87 37.789 2.809 11.53-3.57 22.217-17.3 30.641-25.705 3.891-3.871 7.983-7.562 11.18-11.955 1.95-2.667 5.569-8.535 9.67-7.592 3.127.732 6.776 8.625 8.405 11.173 5.257 8.213 10.053 16.798 16.627 24.07a6.451 6.451 0 0 0 2.212 1.795c1.22.38 2.529.38 3.75 0 6.856-1.525 14.003-3.47 20.759-5.456 3.8-1.113 11.27-1.896 10.867-7.592-.17-2.397-1.759-4.423-3.277-6.288l-8.726-10.701c-.865-1.084-1.74-2.147-2.604-3.21z"/>
                <path fill="#0CBC9C" d="M79.998 124.52c-2.825 1.554-5.177 3.89-8.103 5.425-4.343 2.256-8.846 4.172-13.22 6.358-3.508 1.765-7.338 2.859-9.962 5.928-3.016 3.54-5.177 6.649-9.219 9.317-.653.44-1.417 1.243-1.005 1.895.139.177.318.318.523.411l4.192 2.357c2.483 1.394 5.087 2.828 7.932 3.009 6.414.34 12.868-6.54 17.17-10.61a85.032 85.032 0 0 0 13.21-15.917c1.83-2.848 3.508-6.53 1.8-9.448-1.162.266-2.279.695-3.318 1.274z"/>
                <path fill="#2F355B" d="M97.32 105.514c-.453 2.537-.423 5.877 2.23 6.78a6.841 6.841 0 0 0 2.122.26l55.291.843a3.142 3.142 0 0 0 2.162-.492 2.414 2.414 0 0 0 .623-1.594c.263-2.2.31-4.42.14-6.63-20.822.168-41.635.75-62.438 1.746"/>
                <path fill="#2F355B" d="M169.158 53.724a8.401 8.401 0 0 1 .834-2.417c.844-1.304 3.267-1.806 4.695-1.304 2.443.862 1.578 1.213.663 4.082-1.86 5.887-3.82 11.744-5.73 17.61-3.733 11.48-7.47 22.964-11.209 34.45-1.679 0-3.358-.09-5.027-.15-1.668-.06-1.487-.36-1.085-1.685.402-1.323.864-2.778 1.307-4.162 1.126-3.53 2.292-7.02 3.468-10.55a3245.923 3245.923 0 0 1 7.861-23.177c1.418-4.203 3.067-8.405 4.223-12.697z"/>
                <path fill="#F4BDB3" d="M119.184 98.042c-.653-.3-1.297-.622-1.92-1.003a19.701 19.701 0 0 0-1.95-1.213 6.7 6.7 0 0 0-2.01-.301c-.634 0-1.267-.22-1.91-.3-1.58-.181-3.157-.302-4.716-.522-2.845-.402-5.197-.522-7.75 1.003-3.137 1.815-6.113 4.011-9.149 6.017a3449.517 3449.517 0 0 1-18.095 11.714l-12.797 8.234c-1.569 1.003-3.71 3.149-5.68 3.009-1.639-.11-2.775-1.495-3.69-2.708l-5.026-6.74c-1.619-2.176-3.107-4.844-5.027-6.75-2.453-2.457-7.157 2.006-9.49 3.45a77.633 77.633 0 0 0-8.675 6.018 3.08 3.08 0 0 0-1.006 1.204c-.372.922.171 1.935.694 2.788 7.56 12.245 16.085 24.07 30.832 28.031a8.665 8.665 0 0 0 3.197.371c2.534-.28 4.695-3.66 6.424-5.355 2.362-2.317 4.645-4.714 6.916-7.121 4.022-4.242 8.344-8.284 11.873-12.867 3.207-4.152 7.158-7.753 10.053-12.156.278-.462.584-.907.915-1.334 1.618-2.005 3.589-1.895 5.83-1.684a9.204 9.204 0 0 0 6.253-1.746 9.046 9.046 0 0 1 1.508-1.113c1.78-.872 3.74-.481 5.62-.19 1.265.178 2.547.212 3.82.1a2.468 2.468 0 0 0 1.076-.26 4.769 4.769 0 0 1 1.719-.913c.563-.08 1.126 0 1.699-.06a2.212 2.212 0 0 0 2.01-1.214 4.617 4.617 0 0 1 1.086-1.244c.467-.288 1-.45 1.548-.471a4.76 4.76 0 0 0 1.649-.762c.774-.482.824-1.114-.09-1.485l-3.127-1.313a42.553 42.553 0 0 1-2.614-1.114z"/>
            </g>
            <path fill="#4D82C1" d="M382.617 68.204c.044-2.495.205-8.028.205-10.505 0-5.281-2.092-9.637-8.898-9.668-6.806-.032-9.611.031-13.761 0-5.835 0-59.583-.336-70.918 0-5.662.16-9.88-.064-15.542 0-3.766 0-6.509 1.464-8.479 4.427-2.062 3.098-1.42 6.153-1.42 10.377 0 8.137.156 29.585 0 37.706-.228 11.387 1.845 14.294 9.9 14.294h13.173c2.778 0 5.39 1.645 7.776 3.625 2.168 1.789 3.592 3.386 5.847 5.199 2.348 1.884 11.46 3.569 9.837.39-.892-1.732-3.042-3.081-4.231-4.718-1.4-1.917.074-5.654 2.1-5.941 3.63-.511 62.74-1.256 68.223-2.09 7.164-1.09 6.263-8.37 6.188-9.967-.607-12.057-.223-20.193 0-33.13z"/>
            <path fill="#3D6CA5" d="M283.326 59.304c-2.324-.027-5.1-.038-6.828.844-2.202 1.103-2.249 3.556.102 4.826 1.507.767 3.362.81 5.116.784l43.518-.068c13.875.015 27.95.515 41.71-.6a9.562 9.562 0 0 0 2.741-.494c1.634-.64 2.518-2.497 1.662-4.02-.857-1.522-2.163-1.34-3.812-1.394-6.167-.194-12.42-.198-18.573-.11-21.372.393-42.59-.1-64.046.209l-1.59.023zm.072 11.881c-2.323-.051-5.1-.103-6.846.781-2.225 1.064-2.323 3.526 0 4.83 1.491.79 3.345.858 5.1.858l43.514.558c13.874.18 27.936.884 41.72-.043a9.89 9.89 0 0 0 2.75-.446c1.648-.575 2.571-2.48 1.747-4.007-.824-1.527-2.133-1.372-3.781-1.441-6.162-.283-12.415-.378-18.57-.378-21.378.086-42.583-.712-64.044-.712h-1.59zm0 12.466c-2.323-.06-5.1-.111-6.846.703-2.225 1.072-2.323 3.524 0 4.827 1.491.831 3.345.9 5.1.9l43.514.557c13.874.214 27.936.917 41.72 0a9.597 9.597 0 0 0 2.75-.454c1.648-.618 2.571-2.46 1.747-3.995-.824-1.535-2.133-1.372-3.781-1.449-6.162-.283-12.415-.377-18.57-.377-21.378.094-42.583-.712-64.044-.712h-1.59zm39.82 14.18c-6.088-.26-40.106-.496-45.591-.503-3.182 0-4.094 4.541-.269 5.03 1.685.22 4.916.456 6.65.456 14.33.157 24.886 1.275 38.501.433a10.138 10.138 0 0 0 2.719-.418c1.627-.566 2.539-2.259 1.725-3.667-.814-1.41-2.108-1.26-3.736-1.33z"/>
            <g>
                <path fill="#19CCC7" d="M173.998 17.316c-.052-2.5-.74-7.031 2.228-11.646 2.967-4.614 10.656-4.548 15.639-4.58 7.005 0 49.415-.336 63.024 0 6.797.16 10.083-.064 16.88 0 5.173 0 9.235 1.204 12.138 4.58 2.902 3.377 1.524 9.499 1.524 13.732 0 8.154-.186 26.171 0 34.31.275 11.41-4.708 14.323-14.375 14.323-5.097 0-10.561.512-13.424 2.496-2.603 1.793-4.956 2.989-7.967 4.44-3.011 1.45-12.81 4.346-10.862 1.162 1.07-1.737 3.65-3.09 5.079-4.73 1.68-1.92 1.415-3.877-1.017-4.166-4.357-.512-50.464 2.497-62.06 0-4.964-1.068-7.547-6.611-7.547-9.22 0-12.092 1.008-27.738.74-40.7z"/>
                <path fill="#1DB5B1" d="M265.686 12.38c2.017-.059 4.427-.11 5.943.74 1.93 1.062 2.017 3.493 0 4.785-1.295.782-2.904.85-4.427.85l-37.773.552c-12.043.213-24.25.91-36.215 0a7.394 7.394 0 0 1-2.388-.45c-1.43-.612-2.232-2.44-1.516-3.96.715-1.522 1.852-1.36 3.282-1.437 5.35-.28 10.777-.374 16.12-.374 18.557.085 36.965-.705 55.594-.705h1.38zm0 12.347c2.017-.05 4.427-.102 5.943.774 1.93 1.055 2.017 3.496 0 4.788-1.295.783-2.904.85-4.427.85l-37.773.554c-12.043.178-24.25.876-36.215-.043a7.617 7.617 0 0 1-2.388-.442c-1.43-.57-2.232-2.458-1.516-3.972.715-1.514 1.852-1.36 3.282-1.429 5.35-.28 10.777-.374 16.12-.374 18.557.085 36.965-.706 55.594-.706h1.38zm0 12.358c2.017-.06 4.427-.11 5.943.697 1.93 1.062 2.017 3.492 0 4.784-1.295.824-2.904.892-4.427.892l-37.773.552c-12.043.213-24.25.91-36.215 0a7.395 7.395 0 0 1-2.388-.45c-1.43-.612-2.232-2.439-1.516-3.96.715-1.521 1.852-1.36 3.282-1.436 5.35-.28 10.777-.374 16.12-.374 18.557.094 36.965-.705 55.594-.705h1.38zM192.568 51.14c5.313-.257 35.003-.491 39.79-.5 2.778 0 3.573 4.503.235 4.987-1.47.218-4.29.452-5.803.452-12.508.156-21.72 1.264-33.604.43a7.878 7.878 0 0 1-2.372-.414c-1.421-.562-2.216-2.24-1.506-3.636.71-1.397 1.84-1.249 3.26-1.319z"/>
            </g>
        </g>
    </g>
</svg>
